<svg width="278" height="283" viewBox="0 0 278 283" fill="none" xmlns="http://www.w3.org/2000/svg">
<path d="M0.229648 130.406C0.212701 137.355 0.280491 144.322 0.238123 151.262C-0.168605 144.449 0.026284 137.407 0.229648 130.406Z" fill="white"/>
<path d="M0.872253 158.096C1.80434 159.4 2.80421 160.671 3.8634 161.916C2.90589 160.944 1.94839 159.98 0.990882 159.017C0.948514 158.71 0.906147 158.403 0.872253 158.096Z" fill="white"/>
<path d="M23.6237 181.912C21.3613 179.61 19.0904 177.308 16.828 175.006C19.1751 177.274 21.4884 179.55 23.6237 181.912Z" fill="white"/>
<path d="M29.5406 187.92C42.844 201.298 56.0627 214.881 69.2898 228.438C56.0288 214.949 42.7932 201.409 29.5406 187.92Z" fill="white"/>
<path d="M122.831 282.175C122.755 282.175 122.67 282.166 122.594 282.166C118.611 278.218 114.637 274.253 110.663 270.271C114.663 274.228 118.679 278.159 122.704 282.055C122.712 282.055 122.712 282.064 122.721 282.064C122.755 282.106 122.797 282.14 122.831 282.175Z" fill="white"/>
<path d="M141.262 0C144.406 0.0767386 147.558 0.127897 150.718 0.162003C147.499 0.264321 144.219 0.53717 141.262 0Z" fill="white"/>
<path d="M155.176 0.20209C153.684 0.193564 152.202 0.176512 150.719 0.159459C152.235 0.0997729 153.727 0.0827193 155.176 0.20209Z" fill="white"/>
<path d="M224.217 70.9824C230.649 77.8036 237.072 84.6248 243.503 91.4375C236.953 84.6845 230.429 77.9145 224.217 70.9824Z" fill="white"/>
<path d="M276.027 125.894C276.086 126.261 276.145 126.627 276.196 126.994C273.654 123.873 271.027 120.804 268.341 117.76C270.9 120.471 273.459 123.183 276.027 125.894Z" fill="white"/>
<path d="M276.908 146.936C276.831 141.82 276.755 136.696 276.687 131.58C277.069 136.602 276.967 141.778 276.908 146.936Z" fill="white"/>
<path d="M157.761 0.596857C144.178 14.5292 130.663 28.5212 117.19 42.5302C116.571 43.1783 115.953 43.8177 115.334 44.4572C102.438 57.8439 89.5749 71.2561 76.6952 84.6512C76.5681 84.7791 76.4494 84.907 76.3223 85.0349C66.188 95.5822 56.0368 106.112 45.8601 116.626C45.7923 116.677 45.7414 116.728 45.7076 116.796C45.411 117.257 45.7415 118.041 46.4532 119.022C46.4532 119.03 46.4617 119.03 46.4617 119.039C47.9107 121.034 50.9357 123.831 53.571 126.278C53.6049 126.303 53.6303 126.329 53.6557 126.354C55.7487 128.307 57.5705 130.029 58.1382 130.925C58.1467 130.942 58.1636 130.95 58.1721 130.967C58.1721 130.967 58.1805 130.967 58.1805 130.984C58.3246 131.129 58.4771 131.274 58.6212 131.419C58.6635 131.462 58.7059 131.504 58.7483 131.547C60.3159 133.09 61.8581 134.651 63.4002 136.228C63.4256 136.262 63.4595 136.296 63.485 136.313C66.9082 139.818 70.2977 143.373 73.7294 146.861C75.7885 148.975 77.856 151.064 79.9574 153.085C80.3557 153.46 80.7624 153.844 81.1607 154.228C81.686 154.731 82.2114 155.225 82.7367 155.711C82.0165 156.496 81.2963 157.263 80.5591 158.039C80.5082 158.099 80.4489 158.158 80.3896 158.218C76.9833 161.816 73.4329 165.329 69.8909 168.833C69.7977 168.927 69.713 169.021 69.6198 169.106C67.0862 171.605 64.5611 174.094 62.0784 176.627C41.403 156.052 21.0581 134.949 0.484482 114.196C37.9204 75.8604 76.4325 38.2926 113.928 0H141.263C144.22 0.53717 147.5 0.264321 150.72 0.162003C152.236 0.102317 153.728 0.0852633 155.177 0.204634C156.066 0.272847 156.931 0.400747 157.761 0.596857Z" fill="#F9EC97"/>
<path d="M277.27 158.686V163.708C277.227 163.699 277.185 163.699 277.134 163.699H277.083V161.67C277.083 160.689 277.083 159.717 277.083 158.737C277.151 158.737 277.219 158.72 277.278 158.686H277.27Z" fill="#F9EC97"/>
<path d="M277.27 163.706V167.637C277.202 167.637 277.134 167.637 277.066 167.645C276.99 167.492 276.905 167.338 276.829 167.185C277.143 166.656 277.134 165.999 277.1 165.326V165.309C277.058 164.755 277.007 164.2 277.083 163.697H277.134C277.185 163.697 277.227 163.697 277.27 163.706Z" fill="#FBBE5B"/>
<path d="M234.725 167.806C234.336 168.505 233.437 169.298 232.59 170.04L232.573 170.057C231.819 170.722 231.107 171.344 230.861 171.822C229.557 173.169 228.235 174.516 226.913 175.855C222.922 179.931 218.931 183.989 214.931 188.056C209.161 193.923 203.399 199.789 197.654 205.681C195.315 208.077 192.976 210.473 190.629 212.86C188.291 215.256 185.935 217.643 183.588 220.039C169.928 233.98 156.218 247.895 142.534 261.828C142.144 262.237 141.746 262.638 141.347 263.039C135.128 269.374 128.908 275.709 122.706 282.053C122.672 282.087 122.629 282.129 122.595 282.163C118.613 278.216 114.639 274.251 110.665 270.269C110.58 270.192 110.504 270.107 110.419 270.03C96.6666 256.268 82.9819 242.387 69.3141 228.463C69.3056 228.455 69.2972 228.446 69.2887 228.438C56.0277 214.949 42.792 201.409 29.5395 187.92C27.5652 185.916 25.5993 183.912 23.625 181.909C21.3626 179.607 19.0917 177.304 16.8292 175.002C16.7953 174.977 16.7699 174.951 16.7445 174.926C12.4569 170.577 8.16932 166.246 3.86478 161.914C2.90728 160.942 1.94977 159.979 0.992265 159.015C0.949897 158.708 0.90753 158.401 0.873636 158.094C0.577064 155.852 0.373699 153.575 0.238123 151.264C-0.168605 144.452 0.026284 137.409 0.229648 130.409C0.390645 124.926 0.568591 119.478 0.483856 114.191C21.0575 134.945 41.4024 156.048 62.0777 176.622C65.3739 180.084 68.6871 183.52 72.0341 186.948C72.0511 186.974 72.068 186.991 72.0849 187.008C77.3385 192.405 82.626 197.777 87.9473 203.131C88.3287 203.523 88.71 203.916 89.0997 204.299C96.4208 211.675 103.776 219.033 111.097 226.409C114.181 229.512 117.274 232.616 120.342 235.737C121.053 236.461 121.443 236.436 122.138 235.72C128.578 228.924 135.467 222.427 141.72 215.512C141.788 215.409 141.873 215.29 141.974 215.162C142.017 215.102 142.068 215.043 142.127 214.983C142.407 214.651 142.788 214.258 143.228 213.832C143.466 213.602 143.72 213.363 143.983 213.116C144.118 212.988 144.254 212.86 144.398 212.724C144.677 212.476 144.966 212.203 145.271 211.931C146.931 210.413 148.838 208.716 150.278 207.215C150.465 207.019 150.651 206.823 150.812 206.627C150.999 206.422 151.168 206.226 151.329 206.039C151.355 206.013 151.372 205.988 151.388 205.962C151.558 205.749 151.719 205.544 151.854 205.348C151.939 205.229 152.007 205.109 152.075 204.999C152.1 204.964 152.117 204.93 152.143 204.896C152.176 204.862 152.193 204.828 152.202 204.794C152.253 204.709 152.287 204.623 152.329 204.547C152.397 204.385 152.448 204.24 152.473 204.103C152.498 203.95 152.498 203.822 152.473 203.711C152.456 203.651 152.431 203.592 152.397 203.541C152.38 203.506 152.346 203.472 152.312 203.438C151.507 202.645 150.694 201.844 149.897 201.034C145.872 197.018 141.915 192.942 137.89 188.943C137.145 188.201 136.407 187.468 135.653 186.726C134.78 185.874 133.908 185.021 133.026 184.177C120.74 170.637 107.03 157.668 94.3279 144.307C94.2686 144.332 94.2093 144.341 94.1499 144.307C92.1841 142.175 90.1589 140.086 88.1083 138.014C87.9558 137.861 87.8033 137.707 87.6423 137.545C84.9731 134.851 82.2701 132.191 79.6009 129.488C79.5331 129.411 79.4569 129.343 79.3806 129.266C78.4485 128.328 77.5165 127.365 76.6013 126.41C76.8132 112.699 76.22 98.7155 76.8301 85.1328C103.488 112.486 130.052 139.958 156.727 167.294C161.963 172.777 167.319 178.14 172.589 183.588C173.25 184.271 173.581 184.16 174.191 183.546C180.198 177.398 186.35 171.396 192.315 165.214C199.467 158.734 205.966 151.222 213.076 144.665C217.278 148.562 221.295 152.774 225.311 156.994C226.599 158.341 227.879 159.689 229.175 161.027C229.226 161.087 229.285 161.147 229.345 161.206C230.09 161.974 230.836 162.741 231.582 163.5C231.734 163.662 231.887 163.824 232.048 163.977C232.878 164.813 233.717 165.649 234.556 166.467C234.658 166.544 234.734 166.621 234.785 166.706H234.793C235.013 167.03 234.954 167.405 234.725 167.806Z" fill="#FDC322"/>
<path d="M277.066 167.646C238.842 205.282 201.822 245.28 162.81 281.594C149.481 281.765 136.152 281.927 122.832 282.174C122.832 282.115 122.832 282.046 122.815 281.987C128.984 275.668 135.161 269.35 141.346 263.041C141.745 262.64 142.143 262.239 142.533 261.83C156.209 247.889 169.902 233.965 183.587 220.042C185.934 217.646 188.29 215.258 190.628 212.862C198.543 204.813 206.44 196.756 214.329 188.681C214.532 188.476 214.727 188.263 214.93 188.059C218.887 183.949 222.912 179.916 226.912 175.857C228.234 174.518 229.556 173.171 230.86 171.824C231.437 171.236 232.004 170.647 232.572 170.059L232.589 170.042C233.301 169.3 234.021 168.558 234.724 167.808C234.741 167.791 234.75 167.783 234.767 167.765C235.157 167.382 235.25 167.075 234.792 166.717H234.784C233.869 165.813 232.953 164.901 232.047 163.98C231.886 163.826 231.733 163.664 231.581 163.502C230.835 162.743 230.089 161.976 229.344 161.209C229.284 161.149 229.225 161.089 229.174 161.03C227.878 159.691 226.598 158.344 225.31 156.996C221.294 152.776 217.277 148.564 213.075 144.667C212.795 144.309 212.507 143.959 212.219 143.618C212.21 143.61 212.202 143.593 212.185 143.584C211.888 143.235 211.583 142.894 211.278 142.553C210.965 142.212 210.651 141.862 210.321 141.529C209.999 141.188 209.668 140.847 209.338 140.515C207.118 138.272 204.754 136.098 202.652 133.804C202.576 133.728 202.508 133.659 202.432 133.583C202.364 133.506 202.288 133.438 202.212 133.361C202.135 133.284 202.067 133.216 202 133.148C201.923 133.071 201.856 133.003 201.779 132.926C201.712 132.858 201.635 132.781 201.568 132.713C201.491 132.636 201.423 132.56 201.347 132.491C201.279 132.415 201.212 132.355 201.135 132.278L201.127 132.27C201.059 132.201 200.991 132.125 200.915 132.056L200.703 131.843L200.695 131.835C200.627 131.758 200.559 131.698 200.483 131.622L200.474 131.613C200.398 131.536 200.339 131.468 200.263 131.4C200.195 131.323 200.119 131.255 200.051 131.178C199.975 131.101 199.907 131.033 199.83 130.965C199.763 130.888 199.686 130.812 199.619 130.743H199.61C199.542 130.667 199.475 130.598 199.398 130.522C199.39 130.385 199.314 130.317 199.186 130.309H199.178C199.17 130.172 199.102 130.095 198.966 130.087C198.958 129.95 198.881 129.882 198.754 129.874H198.746C198.737 129.729 198.67 129.66 198.534 129.652C198.526 129.516 198.449 129.439 198.314 129.43C198.314 129.294 198.237 129.226 198.102 129.217C198.093 129.072 198.026 129.004 197.89 128.995C197.882 128.859 197.814 128.782 197.678 128.774H197.67C197.67 128.637 197.593 128.569 197.458 128.561C197.458 128.416 197.373 128.347 197.246 128.339C197.238 128.202 197.17 128.126 197.034 128.126H197.026C196.958 128.057 196.89 127.998 196.822 127.938C196.704 127.827 196.594 127.725 196.483 127.623C196.068 127.239 195.661 126.855 195.272 126.455C194.95 126.113 194.628 125.764 194.297 125.431C194.263 125.389 194.229 125.355 194.196 125.312C194.263 124.954 193.899 124.34 193.509 124.007C193.441 123.948 193.374 123.897 193.306 123.862C193.255 123.837 193.204 123.811 193.162 123.803C193.111 123.786 193.069 123.777 193.026 123.777C192.865 123.777 192.738 123.888 192.67 124.152C185.934 130.837 179.367 137.718 172.537 144.3C159.386 131.536 146.769 118.184 133.635 105.394C133.83 105.164 134.034 104.942 134.229 104.72C134.424 104.499 134.61 104.277 134.805 104.064C138.838 99.5107 142.228 96.1939 144.948 93.6786C145.083 93.5592 145.21 93.4399 145.337 93.3205C146.6 92.1609 147.71 91.1718 148.676 90.3191C148.989 90.0292 149.294 89.7649 149.574 89.5091C149.854 89.2533 150.116 89.0146 150.362 88.7844C150.472 88.6821 150.582 88.5883 150.684 88.486C150.828 88.3495 150.955 88.2216 151.082 88.1023C151.226 87.9573 151.362 87.8209 151.489 87.6845C151.557 87.6077 151.625 87.5395 151.692 87.4628C151.887 87.2496 152.057 87.045 152.201 86.8574C152.252 86.7892 152.303 86.7295 152.345 86.6698C152.65 86.252 152.845 85.8598 152.955 85.4761C152.989 85.3823 153.006 85.28 153.014 85.1862C153.023 85.0839 153.031 84.9901 153.031 84.8878C153.031 84.8025 153.023 84.7087 153.014 84.6234C152.997 84.4444 152.955 84.2568 152.887 84.0692C152.87 84.001 152.845 83.9243 152.803 83.8475C152.743 83.7282 152.684 83.6088 152.625 83.4809C152.574 83.3956 152.523 83.2933 152.455 83.1995C152.252 82.884 152.006 82.56 151.726 82.2104C151.438 81.8609 151.099 81.4857 150.701 81.0849C150.566 80.9485 150.43 80.8121 150.294 80.6671C150.015 80.3772 149.71 80.0788 149.379 79.7633C148.066 78.4929 146.397 76.9325 144.354 74.9544C143.846 74.4598 143.312 73.9397 142.761 73.3855C140.821 71.467 138.592 69.1904 136.076 66.479C142.541 59.9648 148.998 53.4505 155.463 46.9363C156.463 45.9301 156.463 45.9386 157.429 46.9107C173.063 62.7615 188.798 78.5355 204.542 94.301C205.27 95.0343 206.008 95.7761 206.736 96.5094C223.505 113.307 240.274 130.104 256.908 147.012C257.069 147.174 257.238 147.344 257.399 147.506C263.983 154.2 270.55 160.91 277.083 167.646H277.066Z" fill="#F07E1B"/>
<path d="M122.834 282.178C122.756 282.178 122.671 282.169 122.594 282.169C122.637 282.135 122.679 282.1 122.722 282.066C122.756 282.04 122.782 282.014 122.816 281.988C122.834 282.049 122.834 282.118 122.834 282.178Z" fill="#FBBE5B"/>
<path d="M277.103 165.311V165.328C277.069 165.967 276.984 166.598 276.832 167.187C270.358 160.621 263.876 154.064 257.385 147.508C257.224 147.346 257.054 147.175 256.893 147.013C240.192 130.156 223.457 113.333 206.722 96.5105C205.993 95.7772 205.256 95.0354 204.527 94.3021C188.809 78.5195 173.099 62.7369 157.415 46.9117C156.449 45.9397 156.449 45.9312 155.449 46.9373C148.983 53.4516 142.527 59.9658 136.061 66.4801C129.011 72.6362 122.588 79.969 115.716 86.4918C115.098 87.1057 115.157 87.4041 115.742 87.9754C121.767 93.6711 127.461 99.9637 133.621 105.395C146.755 118.185 159.372 131.537 172.523 144.302C172.065 144.864 172.582 145.12 172.887 145.427C179.369 152.018 185.902 158.549 192.317 165.217C186.352 171.399 180.2 177.401 174.192 183.549C173.582 184.163 173.252 184.274 172.591 183.592C167.32 178.143 161.965 172.78 156.728 167.298C130.054 139.962 103.489 112.489 76.8316 85.1361C76.7892 84.9741 76.7384 84.8121 76.696 84.6501C76.679 84.5989 76.6621 84.5392 76.6452 84.4881C89.5588 71.1611 102.438 57.8086 115.335 44.4561C115.954 43.8166 116.572 43.1771 117.191 42.5291C130.698 28.5371 144.213 14.5536 157.762 0.595703C167.642 11.0151 177.505 21.443 187.36 31.888C189.478 34.1305 191.605 36.373 193.715 38.624C203.883 49.41 214.043 60.2046 224.22 70.9821C230.651 77.8033 237.074 84.6245 243.505 91.4372C251.775 100.219 260.054 108.993 268.341 117.759C270.9 120.47 273.459 123.181 276.027 125.893C276.086 126.259 276.145 126.626 276.196 126.993C276.416 128.502 276.577 130.037 276.688 131.58C277.069 136.602 276.967 141.778 276.908 146.936C276.857 150.91 276.832 154.866 277.077 158.737C277.01 159.692 277.043 160.681 277.077 161.67C277.094 162.352 277.128 163.026 277.128 163.699C277.145 164.245 277.137 164.791 277.094 165.311H277.103Z" fill="#DC6512"/>
<path d="M133.027 184.181C129.426 187.924 125.528 191.445 122.088 195.308C109.174 196.382 96.269 197.567 83.3554 198.445C79.788 194.515 75.9156 190.772 72.0856 187.011C72.0687 186.994 72.0517 186.977 72.0348 186.952C68.603 183.584 65.1967 180.19 62.0784 176.626C64.6035 174.136 67.1201 171.621 69.6198 169.106C69.713 169.02 69.7978 168.927 69.891 168.833C73.399 165.303 76.8986 161.756 80.3897 158.217C80.449 158.158 80.5083 158.098 80.5591 158.038C82.8554 155.702 85.1518 153.374 87.4565 151.055C87.5837 151.029 87.6514 150.961 87.6599 150.842C87.6599 150.842 87.6684 150.842 87.6599 150.833C87.6684 150.825 87.6684 150.816 87.6684 150.808C87.8124 150.663 87.948 150.526 88.0921 150.39C88.1005 150.39 88.109 150.39 88.1175 150.381C88.2361 150.364 88.3039 150.305 88.3208 150.177C88.3971 150.1 88.4649 150.032 88.5412 149.955C88.6174 149.887 88.6767 149.819 88.753 149.742H88.7615C88.8377 149.657 88.9055 149.597 88.9733 149.52C89.1089 149.52 89.1851 149.444 89.1936 149.307C89.3292 149.29 89.397 149.222 89.4055 149.085H89.4139C89.541 149.077 89.6173 149.009 89.6258 148.872C89.7613 148.855 89.8376 148.787 89.8461 148.651C89.9816 148.642 90.0494 148.574 90.0579 148.429H90.0664C90.202 148.42 90.2698 148.352 90.2782 148.216C90.4138 148.207 90.4901 148.139 90.4985 147.994C90.6341 147.985 90.7104 147.917 90.7104 147.781H90.7189C90.8544 147.772 90.9222 147.704 90.9307 147.559C91.0663 147.551 91.1425 147.482 91.1425 147.346H91.151C91.2866 147.337 91.3628 147.261 91.3628 147.124H91.3713C91.5069 147.124 91.5747 147.048 91.5831 146.911C91.7187 146.911 91.795 146.826 91.795 146.689H91.8035C91.939 146.681 92.0068 146.613 92.0153 146.468C92.1593 146.459 92.2271 146.391 92.2271 146.255H92.2356C92.3712 146.246 92.4474 146.178 92.4474 146.033H92.4559C92.5915 146.024 92.6593 145.956 92.6677 145.82C92.8033 145.811 92.8796 145.734 92.8796 145.598H92.8881C93.0236 145.59 93.0914 145.521 93.0999 145.376C93.244 145.368 93.3117 145.3 93.3117 145.163H93.3202C93.4558 145.155 93.532 145.078 93.532 144.942H93.5405C93.6761 144.933 93.7439 144.856 93.7524 144.711C93.8795 144.575 94.0066 144.447 94.1421 144.311C94.2015 144.345 94.2608 144.336 94.3201 144.311C107.022 157.672 120.732 170.64 133.019 184.181H133.027Z" fill="#F07E1B"/>
<path d="M76.3731 126.326C72.5007 130.077 68.7469 133.957 64.9254 137.751C64.4424 137.274 63.9679 136.796 63.4849 136.31C63.4595 136.293 63.4256 136.259 63.4002 136.225C61.858 134.647 60.3158 133.087 58.7482 131.544C58.7058 131.501 58.6635 131.459 58.6211 131.416L58.172 130.964C58.172 130.964 58.1466 130.938 58.1381 130.921C56.6383 129.404 55.147 127.877 53.6556 126.351C53.6302 126.326 53.6048 126.3 53.5709 126.274C51.2153 123.853 48.8512 121.44 46.4616 119.035C46.4616 119.035 46.4532 119.035 46.4532 119.018C46.2498 118.814 46.0549 118.618 45.8515 118.413C45.1991 117.756 45.1737 117.39 45.7075 116.793C45.7499 116.742 45.8007 116.682 45.86 116.622C56.0028 106.229 66.0947 95.7751 76.1782 85.3301C76.7798 98.819 76.1697 112.709 76.3731 126.326Z" fill="#F07E1B"/>
<path d="M87.6413 137.55C84.9722 134.855 82.2691 132.195 79.6 129.492C82.2945 132.144 84.9891 134.838 87.6413 137.55Z" fill="white"/>
<path d="M88.3295 150.176C88.2617 150.244 88.1939 150.312 88.1261 150.38C87.9736 150.534 87.821 150.687 87.6685 150.832C87.677 150.841 87.6685 150.841 87.6685 150.841C87.6262 150.883 87.5838 150.918 87.5414 150.969C87.5838 150.909 87.6346 150.858 87.677 150.807C87.821 150.662 87.9566 150.525 88.1007 150.389C88.1769 150.312 88.2617 150.244 88.3379 150.176H88.3295Z" fill="white"/>
<path d="M76.6009 126.41C76.5247 126.385 76.4484 126.351 76.3721 126.325C76.1688 112.708 76.7789 98.8187 76.1773 85.3297C76.3891 85.0825 76.3213 84.6732 76.6433 84.4941C76.7111 84.7073 76.7704 84.9205 76.8382 85.1422C76.2196 98.7164 76.8128 112.708 76.6009 126.419V126.41Z" fill="#FBBE5B"/>
<path d="M141.72 215.511C135.466 222.426 128.577 228.923 122.137 235.718C121.443 236.435 121.053 236.46 120.341 235.735C117.274 232.615 114.181 229.511 111.096 226.407C103.758 219.041 96.3865 211.708 89.0993 204.298C88.7095 203.915 88.3282 203.522 87.9469 203.13C86.4132 201.57 84.8795 200.009 83.3542 198.44C96.2678 197.562 109.173 196.377 122.087 195.303C128.628 202.039 135.178 208.775 141.72 215.511Z" fill="#F9EC97"/>
<path d="M193.46 124.701C193.697 124.88 193.918 125.076 194.129 125.29C193.858 125.162 193.663 124.923 193.46 124.701Z" fill="white"/>
<path d="M196.467 127.621C196.578 127.724 196.689 127.81 196.809 127.896V127.939C196.689 127.827 196.578 127.724 196.467 127.621Z" fill="white"/>
<path d="M152.076 205.005C152.076 205.005 152.118 204.936 152.143 204.902C151.965 205.226 151.711 205.584 151.389 205.968C151.559 205.755 151.72 205.55 151.855 205.354C151.94 205.235 152.008 205.116 152.076 205.005Z" fill="white"/>
<path d="M152.312 203.438C151.507 202.645 150.694 201.843 149.897 201.033C150.694 201.835 151.507 202.636 152.312 203.429V203.438Z" fill="white"/>
<path d="M152.33 204.547C152.397 204.385 152.448 204.24 152.474 204.104C152.457 204.24 152.406 204.385 152.33 204.547Z" fill="white"/>
<path d="M194.178 125.312L194.128 125.287C193.856 125.159 193.662 124.92 193.458 124.698C193.458 124.698 193.45 124.69 193.45 124.681C193.229 124.442 193.001 124.221 192.653 124.153C192.721 123.888 192.848 123.777 193.009 123.777C193.051 123.777 193.094 123.786 193.145 123.803C193.187 123.811 193.238 123.837 193.289 123.863C193.357 123.905 193.424 123.948 193.492 124.008C193.882 124.34 194.246 124.954 194.178 125.312Z" fill="#FBBE5B"/>
<path d="M198.538 129.643C198.392 129.652 198.315 129.574 198.315 129.428C198.452 129.436 198.529 129.514 198.538 129.643Z" fill="#FBBE5B"/>
<path d="M198.748 129.866C198.603 129.866 198.534 129.797 198.534 129.65C198.671 129.659 198.74 129.728 198.748 129.866Z" fill="#FBBE5B"/>
<path d="M198.969 130.093C198.824 130.093 198.746 130.015 198.755 129.877C198.884 129.886 198.961 129.955 198.969 130.093Z" fill="#FBBE5B"/>
<path d="M199.181 130.3C199.036 130.3 198.967 130.231 198.967 130.084C199.104 130.093 199.173 130.17 199.181 130.3Z" fill="#FBBE5B"/>
<path d="M199.401 130.522C199.256 130.522 199.187 130.453 199.187 130.307C199.316 130.315 199.393 130.384 199.401 130.522Z" fill="#FBBE5B"/>
<path d="M199.614 130.746C199.477 130.746 199.4 130.668 199.4 130.521C199.477 130.599 199.546 130.668 199.614 130.746Z" fill="#FBBE5B"/>
<path d="M199.834 130.958C199.689 130.958 199.62 130.889 199.62 130.742C199.689 130.811 199.766 130.889 199.834 130.958Z" fill="#FBBE5B"/>
<path d="M200.053 131.179C199.907 131.179 199.839 131.101 199.83 130.963C199.907 131.032 199.976 131.101 200.053 131.179Z" fill="#FBBE5B"/>
<path d="M200.265 131.402C200.128 131.402 200.051 131.324 200.051 131.178C200.12 131.255 200.197 131.324 200.265 131.402Z" fill="#FBBE5B"/>
<path d="M200.478 131.614C200.341 131.614 200.273 131.536 200.264 131.398C200.341 131.467 200.401 131.536 200.478 131.614Z" fill="#FBBE5B"/>
<path d="M200.698 131.837C200.561 131.828 200.493 131.759 200.484 131.621C200.561 131.699 200.63 131.759 200.698 131.837Z" fill="#FBBE5B"/>
<path d="M200.919 132.055C200.782 132.047 200.705 131.969 200.705 131.84L200.919 132.055Z" fill="#FBBE5B"/>
<path d="M201.128 132.272C200.991 132.264 200.923 132.195 200.914 132.057C200.991 132.126 201.06 132.203 201.128 132.272Z" fill="#FBBE5B"/>
<path d="M201.35 132.493C201.247 132.484 201.178 132.441 201.153 132.364C201.144 132.338 201.135 132.312 201.135 132.277C201.212 132.355 201.281 132.415 201.35 132.493Z" fill="#FBBE5B"/>
<path d="M201.57 132.716C201.433 132.699 201.356 132.63 201.347 132.492C201.424 132.561 201.493 132.639 201.57 132.716Z" fill="#FBBE5B"/>
<path d="M201.783 132.929C201.655 132.92 201.578 132.842 201.569 132.713C201.638 132.782 201.715 132.86 201.783 132.929Z" fill="#FBBE5B"/>
<path d="M197.012 128.119C196.883 128.119 196.815 128.067 196.806 127.938V127.895C196.875 127.972 196.943 128.041 197.012 128.119Z" fill="#FBBE5B"/>
<path d="M197.233 128.334C197.088 128.343 197.019 128.274 197.019 128.127C197.156 128.127 197.225 128.205 197.233 128.334Z" fill="#FBBE5B"/>
<path d="M197.452 128.557C197.298 128.566 197.23 128.488 197.238 128.342C197.367 128.35 197.444 128.419 197.452 128.557Z" fill="#FBBE5B"/>
<path d="M197.663 128.776C197.518 128.776 197.449 128.707 197.449 128.561C197.586 128.569 197.655 128.638 197.663 128.776Z" fill="#FBBE5B"/>
<path d="M197.885 128.989C197.739 128.998 197.662 128.929 197.671 128.773C197.808 128.782 197.877 128.86 197.885 128.989Z" fill="#FBBE5B"/>
<path d="M198.096 129.208C197.951 129.208 197.882 129.139 197.882 128.992C198.019 128.992 198.088 129.07 198.096 129.208Z" fill="#FBBE5B"/>
<path d="M198.317 129.434C198.172 129.434 198.103 129.365 198.103 129.219C198.24 129.227 198.309 129.296 198.317 129.434Z" fill="#FBBE5B"/>
<path d="M93.7616 144.709C93.7531 144.856 93.6845 144.933 93.5475 144.933C93.5389 144.787 93.616 144.718 93.7616 144.709Z" fill="#FBBE5B"/>
<path d="M93.5427 144.938C93.5427 145.076 93.4656 145.153 93.3285 145.153C93.3285 145.007 93.3971 144.938 93.5427 144.938Z" fill="#FBBE5B"/>
<path d="M93.3216 145.159C93.3216 145.297 93.2531 145.366 93.1075 145.374C93.1075 145.228 93.176 145.15 93.3216 145.159Z" fill="#FBBE5B"/>
<path d="M93.1095 145.373C93.1009 145.52 93.0324 145.589 92.8953 145.589C92.8868 145.442 92.9639 145.373 93.1095 145.373Z" fill="#FBBE5B"/>
<path d="M92.8887 145.594C92.8887 145.732 92.8116 145.809 92.6746 145.809C92.6746 145.663 92.7431 145.594 92.8887 145.594Z" fill="#FBBE5B"/>
<path d="M92.6767 145.815C92.6681 145.953 92.5996 146.022 92.4625 146.031C92.454 145.884 92.5225 145.806 92.6767 145.815Z" fill="#FBBE5B"/>
<path d="M92.4565 146.031C92.4565 146.178 92.3794 146.247 92.2423 146.247C92.2337 146.1 92.3108 146.031 92.4565 146.031Z" fill="#FBBE5B"/>
<path d="M92.2375 146.253C92.2375 146.391 92.169 146.46 92.0234 146.468C92.0234 146.322 92.0919 146.244 92.2375 146.253Z" fill="#FBBE5B"/>
<path d="M92.0263 146.465C92.0178 146.611 91.9492 146.68 91.8122 146.689C91.8036 146.534 91.8807 146.465 92.0263 146.465Z" fill="#FBBE5B"/>
<path d="M91.8046 146.686C91.8046 146.824 91.7275 146.901 91.5905 146.901C91.5905 146.755 91.659 146.686 91.8046 146.686Z" fill="#FBBE5B"/>
<path d="M91.5935 146.909C91.5849 147.047 91.5164 147.116 91.3793 147.124C91.3708 146.978 91.4393 146.9 91.5935 146.909Z" fill="#FBBE5B"/>
<path d="M91.3714 147.123C91.3714 147.261 91.2943 147.339 91.1573 147.339C91.1487 147.192 91.2258 147.123 91.3714 147.123Z" fill="#FBBE5B"/>
<path d="M91.1534 147.344C91.1534 147.482 91.0763 147.551 90.9393 147.56C90.9393 147.413 91.0078 147.336 91.1534 147.344Z" fill="#FBBE5B"/>
<path d="M90.9413 147.559C90.9328 147.705 90.8642 147.774 90.7272 147.774C90.7186 147.628 90.7957 147.559 90.9413 147.559Z" fill="#FBBE5B"/>
<path d="M90.7205 147.781C90.7205 147.919 90.6434 147.988 90.5064 147.997C90.5064 147.85 90.5749 147.781 90.7205 147.781Z" fill="#FBBE5B"/>
<path d="M90.5071 147.996C90.4985 148.143 90.4214 148.212 90.2844 148.22C90.2844 148.074 90.3615 147.996 90.5071 147.996Z" fill="#FBBE5B"/>
<path d="M90.2876 148.215C90.2791 148.353 90.2105 148.422 90.0735 148.43C90.0735 148.284 90.142 148.215 90.2876 148.215Z" fill="#FBBE5B"/>
<path d="M90.0684 148.426C90.0684 148.572 89.9913 148.641 89.8543 148.65C89.8543 148.503 89.9314 148.434 90.0684 148.426Z" fill="#FBBE5B"/>
<path d="M89.8568 148.646C89.8568 148.784 89.7712 148.853 89.6341 148.862C89.6341 148.724 89.7112 148.646 89.8568 148.646Z" fill="#FBBE5B"/>
<path d="M89.6355 148.873C89.6269 149.011 89.5498 149.08 89.4213 149.089C89.4213 148.942 89.4984 148.873 89.6355 148.873Z" fill="#FBBE5B"/>
<path d="M89.4153 149.082C89.4153 149.22 89.3382 149.289 89.2012 149.306C89.2098 149.16 89.2783 149.091 89.4153 149.082Z" fill="#FBBE5B"/>
<path d="M89.2029 149.303C89.2029 149.441 89.1172 149.51 88.9801 149.518C88.9801 149.38 89.0572 149.303 89.2029 149.303Z" fill="#FBBE5B"/>
<path d="M88.9852 149.52C88.9167 149.597 88.8482 149.658 88.7711 149.735C88.7711 149.597 88.8482 149.528 88.9852 149.52Z" fill="#FBBE5B"/>
<path d="M88.7632 149.738C88.6861 149.816 88.6262 149.885 88.5491 149.954C88.5577 149.816 88.6262 149.747 88.7632 149.738Z" fill="#FBBE5B"/>
<path d="M88.5517 149.955C88.4746 150.033 88.406 150.102 88.3289 150.179C88.3289 150.041 88.4146 149.964 88.5517 149.955Z" fill="#FBBE5B"/>
<path d="M88.3309 150.176C88.3138 150.305 88.2452 150.366 88.1253 150.383C88.1167 150.391 88.1082 150.391 88.0996 150.391C88.1767 150.314 88.2624 150.245 88.3394 150.176H88.3309Z" fill="#FBBE5B"/>
<path d="M87.6708 150.803C87.6708 150.803 87.6708 150.82 87.6623 150.829C87.6708 150.837 87.6623 150.837 87.6623 150.837C87.6537 150.958 87.5852 151.027 87.4567 151.053C87.4824 151.027 87.5081 150.993 87.5338 150.967C87.5766 150.906 87.628 150.854 87.6708 150.803Z" fill="#FBBE5B"/>
</svg>
