<svg width="308" height="342" viewBox="0 0 308 342" fill="none" xmlns="http://www.w3.org/2000/svg">
<path d="M185.118 205.891C183.65 204.353 182.205 202.814 180.724 201.3C153.14 173.119 125.147 145.351 97.5157 117.232C81.5267 100.949 65.3811 84.8112 49.368 68.5525C48.9345 68.1164 48.5854 67.547 47.9473 67.3652C47.273 67.5106 47.2971 68.1285 47.1286 68.601C45.5754 72.9625 44.0463 77.3361 42.4811 81.6976C37.3882 95.9573 32.2713 110.217 27.1784 124.489C23.4098 135.029 19.6775 145.581 15.909 156.122C10.6957 170.709 5.4944 185.295 0.232939 199.858C-0.24866 201.166 0.0282576 201.93 0.955334 202.875C14.1391 216.226 27.4432 229.456 40.5307 242.891C56.315 259.102 72.4125 274.997 88.2329 291.183C102.247 305.539 116.467 319.702 130.602 333.962C131.035 334.41 131.408 334.919 131.854 335.355C133.78 337.306 135.562 339.402 137.717 341.122C139.258 337.79 140.282 334.265 141.51 330.824C155.934 289.959 170.333 249.094 184.721 208.217C184.986 207.491 185.564 206.764 185.118 205.891ZM156.186 207.612C153.526 214.966 150.949 222.344 148.36 229.722C143.966 242.189 139.583 254.667 135.201 267.134C135.056 267.546 134.948 267.982 134.551 268.236C134.442 269.993 133.624 271.556 133.058 273.18C130.493 280.606 127.856 288.021 125.232 295.435C125.111 295.787 125.111 296.211 124.401 296.78C124.124 296.332 123.907 295.811 123.546 295.447C109.495 281.321 95.4569 267.207 81.3942 253.105C68.7282 240.408 56.0381 227.723 43.3841 215.014C43.2035 214.82 42.9507 214.675 42.758 214.481C42.5534 214.287 42.3968 214.045 42.4209 213.669C42.4209 213.681 42.4089 213.681 42.4089 213.681C38.9293 215.487 35.4378 217.304 31.9462 219.133C28.9241 220.708 25.9021 222.295 22.8921 223.882C22.8078 223.786 22.7115 223.701 22.7236 223.664C25.3724 216.589 28.0211 209.514 30.682 202.451C31.6813 198.925 33.1622 195.569 34.4264 192.153C38.1106 182.218 41.855 172.32 45.5754 162.397C46.0329 161.186 46.4904 159.974 46.9479 158.751C47.0202 158.702 47.0924 158.654 47.1647 158.605C47.273 157.321 47.8871 156.219 48.3205 155.056C53.3291 141.644 58.3618 128.232 63.3825 114.821C63.539 114.433 63.5751 113.961 63.852 113.755C67.9577 117.777 72.0272 121.787 76.1087 125.785C79.6364 129.311 83.1762 132.824 86.7039 136.35C86.8845 136.531 86.9808 136.737 86.9447 136.992C87.2336 137.149 87.5828 137.246 87.8115 137.476C94.9994 144.709 102.187 151.966 109.375 159.223C113.372 163.04 117.394 166.832 121.042 170.999C121.656 171.145 121.993 171.641 122.402 172.041C133.455 183.151 144.508 194.285 155.584 205.382C156.259 206.061 156.548 206.594 156.186 207.612Z" fill="#A3D3F1"/>
<path d="M209.307 192.57C208.741 192.57 208.319 192.946 207.874 193.2C200.71 197.247 193.57 201.293 186.407 205.34C186.009 205.57 185.66 205.97 185.118 205.885C183.649 204.346 182.205 202.808 180.724 201.293C153.14 173.113 125.147 145.345 97.5156 117.225C81.5266 100.943 65.381 84.805 49.3679 68.5463C48.9344 68.1101 48.5853 67.5407 47.9471 67.359C49.2354 66.0869 50.909 65.4447 52.426 64.5482C58.4219 61.0227 64.4539 57.5456 70.4739 54.0685C70.9796 53.7777 71.4491 53.1841 72.1595 53.596C75.94 57.6425 79.853 61.5436 83.8382 65.3842C84.1513 65.7476 84.4523 66.1232 84.7894 66.4624C90.7853 72.5079 96.7932 78.5535 102.789 84.5869C103.68 85.4713 104.595 86.3194 105.498 87.1796C105.799 87.543 106.088 87.9307 106.425 88.2699C115.13 97.0898 123.835 105.91 132.564 114.705C150.275 132.588 168.01 150.458 185.732 168.328C186.106 168.703 186.515 169.03 186.9 169.382C190.825 173.537 194.835 177.596 198.964 181.533C202.131 184.756 205.309 187.967 208.452 191.201C208.825 191.577 209.487 191.819 209.307 192.57Z" fill="#38A9C5"/>
<path d="M284.725 116.185C278.501 119.832 272.083 123.103 265.75 126.556C248.63 109.485 231.521 92.415 214.4 75.3445C196.906 57.9107 179.412 40.4647 161.93 23.0187C161.328 22.4129 160.931 22.001 159.919 22.5704C134.575 36.8785 109.207 51.1261 83.8388 65.3858C79.8536 61.5452 75.9406 57.6441 72.1601 53.5976C101.658 37.2057 131.144 20.8137 160.63 4.4096C163.074 3.06481 165.53 1.74424 167.926 0.326755C168.841 -0.194202 169.383 -0.0972793 170.129 0.653868C179.352 10.0069 188.61 19.3114 197.857 28.628C226.512 57.4987 255.167 86.3695 283.822 115.24C284.135 115.543 284.424 115.87 284.725 116.185Z" fill="#FAC53B"/>
<path d="M306.962 139.177C294.416 174.929 281.919 210.693 269.409 246.458C268.82 248.142 268.242 249.826 267.652 251.51H267.146C267.098 251.086 266.785 250.831 266.52 250.565C263.895 247.815 261.295 245.052 258.646 242.339C254.552 238.135 250.435 233.955 246.329 229.763C246.473 229.206 246.558 228.636 246.738 228.091C250.447 217.284 254.155 206.489 257.863 195.683C262.751 181.411 267.652 167.139 272.54 152.855C276.031 142.642 279.499 132.417 282.991 122.191C283.629 120.326 284.351 118.484 285.025 116.643C290.503 121.925 295.982 127.219 301.46 132.514C303.121 134.125 304.771 135.736 306.468 137.311C307.058 137.869 307.263 138.329 306.962 139.177Z" fill="#38A9C5"/>
<path d="M209.308 192.576C207.274 198.573 205.239 204.57 203.24 210.592C202.181 213.778 200.941 216.904 200.098 220.175C199.773 221.071 199.436 221.968 199.135 222.864C196.907 229.419 194.68 235.973 192.452 242.527C190.129 249.397 187.817 256.278 185.493 263.148C185.301 263.584 185.072 264.008 184.915 264.468C181.713 273.809 178.534 283.15 175.344 292.491C173.923 296.671 172.514 300.838 171.093 305.018C170.154 307.538 169.179 310.058 168.276 312.59C166.482 317.63 164.736 322.694 162.967 327.734C156.525 331.332 150.084 334.931 143.654 338.529C142.029 339.438 140.428 340.383 138.814 341.315C138.393 341.57 137.96 341.897 137.719 341.122C139.26 337.79 140.283 334.264 141.511 330.824C155.935 289.959 170.335 249.094 184.723 208.217C184.988 207.49 185.566 206.763 185.12 205.891C185.662 205.976 186.011 205.576 186.408 205.346C193.572 201.299 200.712 197.253 207.876 193.206C208.321 192.952 208.742 192.588 209.308 192.576Z" fill="#FAC53B"/>
<path d="M285.025 116.646C284.351 118.487 283.628 120.329 282.99 122.195C279.499 132.42 276.031 142.645 272.539 152.858C267.651 167.142 262.751 181.414 257.863 195.686C254.154 206.493 250.446 217.288 246.738 228.094C246.557 228.64 246.473 229.209 246.328 229.766C241.416 224.847 236.492 219.917 231.567 214.986C231.375 214.804 231.11 214.61 231.303 214.259C232.001 212.308 232.711 210.37 233.385 208.419C235.204 203.101 237.01 197.77 238.816 192.439C241.32 185.291 243.836 178.143 246.304 170.971C248.544 164.501 250.747 158.007 252.962 151.514C252.999 151.405 253.023 151.283 253.059 151.162C254.949 145.759 257.08 140.416 258.681 134.928C259.837 130.93 261.631 127.853 265.749 126.556C272.082 123.103 278.499 119.832 284.724 116.186C284.941 116.258 285.025 116.428 285.025 116.646Z" fill="#A3D3F1"/>
<path d="M267.653 251.51C266.003 256.61 264.354 261.699 262.692 266.787C262.668 266.872 262.62 266.957 262.584 267.054C261.801 269.222 261.681 271.863 260.128 273.463C258.575 275.05 256.203 275.813 254.18 276.94C243.946 282.658 233.7 288.377 223.466 294.107C216.206 298.154 208.934 302.2 201.674 306.259C191.428 311.977 181.194 317.708 170.948 323.414C168.311 324.892 165.626 326.297 162.966 327.727C164.735 322.687 166.481 317.623 168.275 312.583C169.178 310.051 170.153 307.531 171.092 305.011C172.718 304.393 174.127 303.399 175.62 302.564C189.08 295.028 202.553 287.528 216.026 280.017C233.074 270.519 250.111 261.008 267.147 251.51H267.653Z" fill="#A3D3F1"/>
<path d="M134.552 268.232C134.444 269.988 133.625 271.551 133.059 273.175C130.495 280.601 127.858 288.016 125.233 295.43C125.113 295.782 125.113 296.206 124.402 296.775C124.125 296.327 123.909 295.806 123.547 295.442C109.497 281.316 95.4583 267.202 81.3956 253.1C68.7296 240.403 56.0395 227.718 43.3855 215.009C43.2049 214.815 42.952 214.67 42.7594 214.476C42.5427 214.282 42.3862 214.04 42.4103 213.676C42.4103 213.676 42.4223 213.676 42.4223 213.664C50.1881 209.351 57.9538 205.038 65.7196 200.725C66.0567 200.531 66.3818 200.301 66.7912 200.422C67.0079 200.677 67.2005 200.943 67.4413 201.186C89.6309 223.369 111.821 245.552 134.022 267.735C134.191 267.917 134.371 268.062 134.552 268.232Z" fill="#056AA2"/>
<path d="M47.191 158.576L47.1667 158.601C47.1667 158.601 47.1789 158.576 47.191 158.576Z" fill="#38A9C5"/>
<path d="M109.375 159.222C109.013 159.452 108.652 159.706 108.279 159.912C92.3983 168.623 76.5296 177.346 60.6489 186.057C50.6558 191.533 40.6626 196.985 30.6815 202.449C31.6808 198.924 33.1617 195.568 34.4259 192.151C38.1102 182.217 41.8546 172.318 45.5749 162.396C46.0324 161.184 46.49 159.973 46.9475 158.749C47.0197 158.701 47.092 158.652 47.1642 158.604C51.2578 156.387 55.3754 154.206 59.457 151.965C62.4308 150.317 65.501 148.827 68.3786 146.985C68.8963 146.743 69.4261 146.537 69.9197 146.258C75.6026 143.181 81.2734 140.08 86.9442 136.99C87.2331 137.148 87.5823 137.245 87.8111 137.475C94.9989 144.708 102.187 151.965 109.375 159.222Z" fill="#38A9C5"/>
<path d="M121.044 170.997C115.602 173.929 110.148 176.848 104.706 179.792C92.3405 186.48 79.9876 193.18 67.6346 199.88C67.3456 200.037 67.0687 200.243 66.7918 200.425C66.3824 200.304 66.0573 200.534 65.7202 200.728C57.9544 205.041 50.1887 209.354 42.4229 213.667C42.4229 213.679 42.4109 213.679 42.4109 213.679C38.9313 215.484 35.4397 217.301 31.9481 219.131C28.9261 220.706 25.9041 222.293 22.8941 223.88C22.8098 223.783 22.7135 223.698 22.7255 223.662C25.3743 216.587 28.0231 209.511 30.684 202.448C40.6651 196.984 50.6582 191.532 60.6514 186.056C76.5321 177.345 92.4007 168.622 108.281 159.911C108.655 159.705 109.016 159.451 109.377 159.221C113.374 163.037 117.396 166.829 121.044 170.997Z" fill="#FAC53B"/>
<path d="M76.1108 125.786C76.0626 125.98 76.0144 126.162 75.9422 126.344C73.4258 133.225 70.8975 140.107 68.3811 146.988C65.5036 148.83 62.4334 150.32 59.4595 151.967C55.378 154.209 51.2603 156.39 47.1667 158.607C47.2751 157.322 47.8891 156.22 48.3225 155.057C53.3312 141.645 58.3639 128.234 63.3845 114.822C63.5411 114.434 63.5772 113.962 63.8541 113.756C67.9597 117.778 72.0292 121.788 76.1108 125.786Z" fill="#FAC53B"/>
<path d="M265.75 126.56C261.632 127.856 259.838 130.933 258.682 134.931C257.081 140.42 254.95 145.762 253.06 151.166C249.014 147.143 244.969 143.133 240.923 139.123C240.598 138.76 240.297 138.396 239.96 138.057C213.424 111.5 186.888 84.9558 160.388 58.3748C159.509 57.4904 158.919 57.4299 157.836 58.0356C140.751 67.6188 123.642 77.1414 106.533 86.6882C106.196 86.87 105.835 87.0154 105.498 87.185C104.595 86.3248 103.68 85.4767 102.789 84.5923C96.7931 78.5589 90.7851 72.5134 84.7892 66.4679C84.4521 66.1286 84.1511 65.7531 83.8381 65.3896C109.206 51.1299 134.574 36.8824 159.919 22.5742C160.93 22.0048 161.327 22.4167 161.929 23.0225C179.411 40.4685 196.905 57.9145 214.399 75.3484C231.52 92.4188 248.629 109.489 265.75 126.56Z" fill="#056AA2"/>
<path d="M267.146 251.513C250.11 261.012 233.073 270.522 216.025 280.02C202.552 287.532 189.079 295.031 175.618 302.567C174.126 303.403 172.717 304.396 171.091 305.014C172.512 300.834 173.921 296.667 175.342 292.487C178.532 283.146 181.711 273.805 184.913 264.464C185.07 264.004 185.299 263.58 185.491 263.144C190.969 259.921 196.448 256.686 201.914 253.452C202.07 253.367 202.179 253.185 202.299 253.04C202.492 253.003 202.696 253.015 202.853 252.919C208.885 249.405 214.893 245.88 220.925 242.39C221.888 241.821 221.792 241.433 221.057 240.718C214.243 234.031 207.464 227.307 200.674 220.595C200.505 220.425 200.288 220.304 200.096 220.171C200.939 216.9 202.179 213.774 203.238 210.588C205.237 204.566 207.272 198.569 209.306 192.572C209.487 191.821 208.825 191.579 208.451 191.203C205.309 187.969 202.13 184.758 198.964 181.535C199.409 181.257 199.843 180.966 200.3 180.711C209.956 175.344 219.612 169.977 229.268 164.622C237.167 160.249 245.065 155.887 252.963 151.514C250.748 158.007 248.544 164.501 246.305 170.971C243.837 178.143 241.321 185.291 238.816 192.439L231.303 214.259C231.111 214.61 231.375 214.804 231.568 214.986C236.492 219.917 241.417 224.847 246.329 229.766C250.435 233.958 254.552 238.138 258.646 242.342C261.295 245.056 263.895 247.818 266.52 250.568C266.785 250.835 267.098 251.089 267.146 251.513Z" fill="#056AA2"/>
<path d="M253.06 151.166C253.024 151.287 253 151.408 252.964 151.517C245.066 155.891 237.168 160.252 229.269 164.626C219.613 169.981 209.957 175.348 200.301 180.715C199.844 180.969 199.41 181.26 198.965 181.539C194.835 177.601 190.826 173.543 186.901 169.387C196.677 163.947 206.454 158.495 216.218 153.044C224.056 148.67 231.882 144.272 239.72 139.886C240.129 139.656 240.515 139.377 240.924 139.123C244.97 143.133 249.015 147.143 253.06 151.166Z" fill="#FAC53B"/>
<path d="M220.927 242.393C214.895 245.882 208.887 249.408 202.855 252.921C202.698 253.018 202.494 253.006 202.301 253.043C201.807 252.885 201.579 252.437 201.253 252.085C198.316 248.899 195.39 245.713 192.452 242.527C194.68 235.972 196.907 229.418 199.134 222.863C199.435 221.967 199.773 221.07 200.098 220.174C200.29 220.307 200.507 220.428 200.676 220.598C207.466 227.31 214.245 234.034 221.059 240.721C221.794 241.436 221.89 241.824 220.927 242.393Z" fill="#38A9C5"/>
<path d="M231.304 214.259C232.002 212.309 232.713 210.37 233.387 208.42C235.205 203.101 237.011 197.77 238.817 192.439L231.304 214.259Z" fill="white"/>
</svg>
