<svg width="323" height="283" viewBox="0 0 323 283" fill="none" xmlns="http://www.w3.org/2000/svg">
<path d="M241.826 0.0236607C252.734 14.2671 261.778 29.7487 271.922 44.4968C273.506 46.7997 272.407 49.3235 271.11 51.5002C262.582 65.7988 254.031 80.0817 245.44 94.3408C244.796 95.4055 243.569 96.2573 244.183 97.6454C244.987 99.4514 246.722 98.4735 248.012 98.5444C262.718 99.4041 277.344 97.1643 292.049 97.393C295.935 97.4561 298.427 98.8047 300.306 101.881C307.527 113.703 314.733 125.533 322.002 137.323C323.085 139.074 323.021 140.486 321.938 142.237C313.475 155.952 305.003 169.667 296.747 183.5C294.446 187.357 291.468 188.611 287.097 188.548C272.885 188.358 258.673 188.477 243.904 188.477C246.38 195.977 251.173 201.821 254.78 208.256C258.625 215.126 262.988 221.719 266.945 228.525C268.633 231.436 268.538 234.164 266.5 237.382C259.27 248.77 252.367 260.372 245.624 272.052C243.49 275.743 240.719 276.887 236.635 277.415C224.612 278.961 212.391 278.756 200.504 281.516C192.542 283.369 188.68 281.382 184.445 274.111C177.048 261.413 169.492 248.802 161.451 235.221C156.634 243.068 152.239 250.119 147.947 257.225C144.516 262.911 141.275 268.716 137.804 274.371C136.132 277.1 133.767 278.432 130.184 278.385C114.508 278.188 98.8307 278.196 83.1538 278.448C79.5231 278.503 77.2859 277.044 75.5741 274.402C68.0501 262.785 60.5739 251.129 53.1773 239.425C51.0913 236.12 50.6773 233.084 53.1455 229.188C60.964 216.829 68.1695 204.092 76.1473 190.59C69.6265 190.59 63.9099 190.582 58.1933 190.59C49.8094 190.614 41.3699 190.078 33.0497 190.85C25.271 191.568 21.6483 188.185 18.4397 181.71C12.8106 170.353 6.19433 159.469 0 148.396C0 146.953 0 145.51 0 144.067C8.0176 130.777 16.075 117.504 24.013 104.168C25.3028 102.007 26.5926 100.611 29.3793 100.698C44.6103 101.186 59.7857 98.9703 75.0247 99.6801C76.7683 99.759 78.5199 99.688 80.7811 99.688C72.3415 85.5156 64.3399 71.8164 56.0038 58.3222C54.3159 55.5934 54.3318 53.4088 55.7968 51.0034C63.8144 37.8641 71.9036 24.7643 79.9451 11.6408C80.6378 10.5051 81.4101 9.81107 82.8671 9.69277C98.966 8.3047 115.073 6.93242 131.235 6.47499C134.181 6.38824 135.559 7.75264 136.976 10.1817C143.935 22.1143 151.347 33.7946 158.162 45.806C160.384 49.7099 161.443 48.2746 162.924 45.7824C170.623 32.8639 178.322 19.9455 185.886 6.94819C187.144 4.78723 188.449 3.69098 191.069 3.12314C197.16 1.80606 203.258 2.36601 209.357 2.16885C213.712 2.03477 218.004 1.4827 222.128 0H231.977C233.8 1.92436 235.623 1.33285 237.447 0H241.826V0.0236607ZM260.385 52.0602C260.361 51.1926 259.891 50.9718 259.111 51.1926C247.272 51.3661 235.432 51.7447 223.593 51.6106C219.604 51.5633 217.455 53.0224 215.544 56.2322C200.424 81.6669 185.161 107.023 170.034 132.449C169.285 133.711 167.733 135.17 168.776 136.842C169.675 138.286 171.443 137.568 172.788 137.536C186.013 137.213 199.23 137.812 212.486 136.708C224.604 135.699 236.881 136.495 249.087 136.495C267.853 136.495 286.619 136.511 305.385 136.464C306.914 136.464 308.936 137.308 309.86 135.478C310.728 133.759 308.825 132.568 308.092 131.345C303.658 123.916 298.761 116.755 294.422 109.27C293.037 106.873 291.667 106.037 289.016 106.124C281.97 106.344 274.939 106.613 267.893 107.054C256.101 107.796 244.222 107.275 232.383 107.22C231.229 107.22 229.708 107.89 228.943 106.486C228.219 105.153 229.342 104.247 229.994 103.158C240.17 86.1544 250.273 69.1034 260.393 52.0681L260.385 52.0602ZM36.8714 109.42C42.6995 118.766 48.1932 127.221 53.249 135.912C54.6105 138.254 56.0754 138.711 58.4162 138.688C68.0421 138.569 77.6999 137.907 87.278 138.057C106.132 138.349 124.962 137.41 143.799 137.576C146.666 137.599 149.532 137.576 152.852 137.576C152.279 136.18 152 135.155 151.467 134.271C138.568 112.685 125.622 91.1309 112.748 69.5371C103.99 54.8442 95.2399 40.1434 86.6729 25.34C84.8019 22.1143 83.9897 22.3667 82.2142 25.34C76.7922 34.4491 71.1871 43.4637 65.5341 52.4387C64.3717 54.2921 64.7618 55.3568 65.8606 57.1629C75.4307 72.9363 84.7302 88.8674 94.2367 104.68C96.0838 107.756 95.0328 108.474 91.9994 108.34C78.5597 107.748 65.2077 110.13 51.7601 109.46C47.2218 109.231 42.6517 109.42 36.8714 109.42ZM160.209 149.09C153.688 160.211 147.772 170.534 141.562 180.669C140.455 182.475 141.005 183.161 141.857 184.588C148.529 195.693 155.026 206.9 161.634 218.044C171.451 234.598 181.308 251.137 191.563 268.385C198.044 257.777 203.975 247.808 210.217 238.037C211.929 235.355 210.512 233.612 209.397 231.727C206.531 226.869 203.394 222.177 200.512 217.326C187.152 194.778 173.839 172.191 160.201 149.098L160.209 149.09ZM151.634 145.959C137.589 147.071 124.603 145.873 111.514 147.056C97.9548 148.27 84.1569 148.01 70.5501 147.119C59.4433 146.393 51.4496 148.381 46.8078 159.706C43.6629 167.388 38.3762 174.217 33.6628 182.057C66.0596 181.584 97.4851 182.901 128.887 180.937C130.455 180.842 131.506 180.503 132.366 179.005C138.497 168.342 144.747 157.734 151.626 145.959H151.634ZM168.752 146.243C172.271 152.284 175.4 157.766 178.64 163.192C191.889 185.401 205.177 207.594 218.402 229.819C219.063 230.931 219.373 232.098 221.061 231.767C231.547 229.693 242.272 231.136 252.829 229.74C256.348 229.275 256.794 228.778 254.907 225.647C239.692 200.33 224.588 174.943 209.636 149.469C208.251 147.103 206.977 146.164 204.262 146.196C192.606 146.33 180.957 146.251 168.752 146.251V146.243ZM159.874 131.195C160.527 130.691 160.718 130.612 160.806 130.462C177.191 103.34 193.577 76.2093 209.899 49.0553C210.432 48.172 211.029 47.3045 210.034 45.7902C203.641 36.0423 197.518 26.1287 190.973 15.734C187.988 20.8288 185.416 25.2848 182.781 29.6935C171.61 48.4323 161.307 67.7547 148.911 85.6576C141.522 96.3204 141.411 104.381 149.357 114.034C153.568 119.152 156.387 125.391 159.874 131.188V131.195ZM88.3926 269.544C102.031 269.544 114.42 269.544 126.809 269.544C128.775 269.544 130.662 269.804 131.968 267.572C137.788 257.604 143.154 247.296 149.866 237.942C155.766 229.724 156.013 222.989 149.858 214.881C144.381 207.665 140.208 199.479 135.129 191.182C119.372 217.602 104.062 243.273 88.3926 269.552V269.544ZM309.772 145.163C278.777 145.234 248.554 144.548 218.211 146.724C224.15 156.764 230.186 166.662 235.862 176.757C237.248 179.218 238.737 179.888 241.348 179.864C252.272 179.754 263.251 179.147 274.103 180.006C284.294 180.819 291.261 178.5 295.728 168.547C299.342 160.487 304.828 153.239 309.78 145.155L309.772 145.163ZM126.212 188.847C113.019 191.134 101.044 190.63 89.0774 190.606C86.8879 190.606 86.0519 191.663 85.0327 193.366C77.2221 206.458 69.2444 219.448 61.3701 232.5C60.6615 233.675 60.6296 234.637 61.6567 236.168C67.3017 244.567 72.5326 253.234 78.0263 261.744C79.7063 264.347 81.1394 265.096 83.2015 261.468C89.7701 249.906 96.8004 238.612 103.592 227.177C110.901 214.866 118.146 202.515 126.212 188.847ZM92.4771 17.7845C92.6841 18.4076 92.8274 19.2909 93.2494 20.0086C100.057 31.3418 106.92 42.6513 113.751 53.9766C120.575 65.2941 127.493 76.5563 134.118 87.9841C135.654 90.6341 136.506 90.2161 137.716 88.1577C143.051 79.0485 148.298 69.892 153.664 60.7987C154.588 59.2371 155.336 57.8963 154.245 56.0982C146.506 43.2823 138.696 30.5058 131.196 17.5558C129.763 15.0873 128.059 15.04 125.909 15.2056C114.802 16.0416 103.703 16.917 92.4771 17.7845ZM199.158 10.5919C199.715 13.0683 200.432 14.3932 201.324 15.7419C206.109 23.0213 211.228 30.1351 215.289 37.801C217.502 41.981 220.09 42.8012 224.278 42.6829C234.644 42.3911 245.011 42.4857 255.385 42.3359C256.667 42.3201 258.323 43.1088 259.23 41.2869C253.163 32.1462 247.025 23.0686 241.093 13.857C239.182 10.8915 237.065 9.66122 233.33 9.63756C222.096 9.56658 210.974 11.901 199.158 10.5919ZM28.8936 113.308C24.3792 121.029 20.9079 128.79 15.7725 135.265C9.41889 143.278 9.83291 150.029 15.5495 157.987C19.7056 163.768 22.6037 170.44 26.306 177.167C33.1293 165.873 39.5227 155.234 46.0116 144.658C46.76 143.436 46.9989 142.655 46.1788 141.338C40.4702 132.205 34.865 123.009 28.9016 113.308H28.8936ZM199.7 272.328C210.655 271.145 220.384 270.27 230.058 268.937C233.338 268.487 237.272 269.844 239.628 265.569C244.079 257.517 248.984 249.709 253.761 241.838C255.369 239.188 255.019 237.895 251.635 238.305C242.829 239.37 233.983 239.291 225.146 239.582C222.908 239.653 219.7 239.527 218.291 241.767C212.176 251.484 206.332 261.366 199.7 272.328Z" fill="#050301"/>
<path d="M237.447 0.0273438C235.624 1.3602 233.801 1.9517 231.978 0.0273438H237.447Z" fill="#7F4912"/>
<path d="M260.387 52.0727C250.268 69.108 240.164 86.159 229.989 103.163C229.336 104.251 228.214 105.158 228.938 106.491C229.702 107.895 231.215 107.217 232.378 107.224C244.217 107.28 256.096 107.792 267.888 107.059C274.934 106.617 281.964 106.349 289.01 106.128C291.662 106.041 293.031 106.877 294.416 109.275C298.756 116.759 303.652 123.921 308.087 131.35C308.819 132.572 310.722 133.771 309.855 135.483C308.931 137.304 306.909 136.46 305.38 136.468C286.614 136.524 267.848 136.5 249.082 136.5C236.876 136.5 224.599 135.703 212.481 136.713C199.224 137.817 186.008 137.218 172.783 137.541C171.437 137.573 169.678 138.29 168.77 136.847C167.727 135.175 169.272 133.716 170.028 132.454C185.156 107.019 200.419 81.6715 215.538 56.2369C217.441 53.027 219.599 51.5679 223.588 51.6153C235.427 51.7493 247.266 51.3708 259.106 51.1973C259.528 51.4891 259.957 51.773 260.379 52.0648L260.387 52.0727Z" fill="#F28D18"/>
<path d="M36.8724 109.422C42.6607 109.422 47.2228 109.233 51.7611 109.462C65.2087 110.14 78.5607 107.75 92.0004 108.342C95.0338 108.476 96.0848 107.758 94.2376 104.683C84.7312 88.8697 75.4317 72.9386 65.8615 57.1651C64.7708 55.3591 64.3727 54.2944 65.5351 52.441C71.196 43.4659 76.7932 34.4514 82.2152 25.3423C83.9828 22.369 84.8028 22.1087 86.6739 25.3423C95.2408 40.1456 103.991 54.8464 112.749 69.5394C125.623 91.1332 138.577 112.688 151.468 134.273C151.993 135.157 152.272 136.182 152.853 137.578C149.525 137.578 146.659 137.602 143.8 137.578C124.962 137.42 106.133 138.351 87.279 138.059C77.7008 137.909 68.0431 138.572 58.4172 138.69C56.0844 138.722 54.6194 138.264 53.25 135.914C48.1942 127.215 42.7005 118.768 36.8724 109.422Z" fill="#F28D18"/>
<path d="M160.211 149.092C173.849 172.184 187.162 194.764 200.522 217.32C203.396 222.17 206.541 226.863 209.407 231.721C210.522 233.606 211.931 235.349 210.227 238.03C203.985 247.802 198.053 257.779 191.573 268.378C181.318 251.13 171.453 234.6 161.644 218.037C155.036 206.894 148.539 195.687 141.867 184.582C141.007 183.155 140.457 182.476 141.572 180.662C147.79 170.528 153.698 160.204 160.219 149.084L160.211 149.092Z" fill="#F28D18"/>
<path d="M151.636 145.959C144.757 157.734 138.507 168.334 132.376 179.004C131.516 180.503 130.465 180.834 128.897 180.937C97.495 182.9 66.0695 181.583 33.6727 182.056C38.3861 174.209 43.6648 167.387 46.8177 159.706C51.4595 148.388 59.4452 146.393 70.56 147.118C84.1668 148.01 97.9647 148.27 111.524 147.055C124.613 145.88 137.599 147.079 151.644 145.959H151.636Z" fill="#FBCB00"/>
<path d="M168.752 146.247C180.958 146.247 192.614 146.326 204.262 146.192C206.977 146.161 208.243 147.099 209.637 149.465C224.589 174.939 239.693 200.327 254.908 225.643C256.795 228.774 256.349 229.271 252.83 229.736C242.272 231.14 231.556 229.697 221.062 231.763C219.374 232.094 219.063 230.935 218.403 229.815C205.178 207.59 191.89 185.405 178.641 163.188C175.409 157.77 172.28 152.289 168.752 146.239V146.247Z" fill="#FBCB00"/>
<path d="M159.875 131.206C156.388 125.409 153.57 119.17 149.358 114.052C141.412 104.399 141.531 96.3384 148.912 85.6755C161.309 67.7727 171.619 48.4424 182.782 29.7114C185.417 25.2949 187.981 20.8468 190.974 15.752C197.519 26.1466 203.642 36.0681 210.035 45.8082C211.03 47.3225 210.425 48.19 209.9 49.0733C193.578 76.2351 177.192 103.358 160.807 130.48C160.719 130.622 160.528 130.709 159.875 131.213V131.206Z" fill="#E95519"/>
<path d="M88.4012 269.552C104.07 243.273 119.381 217.602 135.137 191.182C140.209 199.471 144.381 207.665 149.867 214.881C156.029 222.989 155.774 229.724 149.875 237.942C143.163 247.296 137.797 257.604 131.976 267.572C130.671 269.804 128.792 269.544 126.817 269.544C114.429 269.544 102.04 269.544 88.4012 269.544V269.552Z" fill="#F28D18"/>
<path d="M309.78 145.172C304.828 153.256 299.342 160.496 295.728 168.564C291.269 178.525 284.294 180.836 274.103 180.023C263.251 179.156 252.272 179.771 241.348 179.881C238.745 179.905 237.248 179.235 235.862 176.774C230.186 166.679 224.15 156.781 218.211 146.741C248.554 144.557 278.769 145.251 309.772 145.18L309.78 145.172Z" fill="#FBCB00"/>
<path d="M126.22 188.859C118.155 202.527 110.91 214.878 103.601 227.189C96.8091 238.625 89.7788 249.926 83.2102 261.48C81.1481 265.108 79.715 264.351 78.035 261.756C72.5413 253.254 67.3104 244.579 61.6654 236.18C60.6383 234.65 60.6702 233.687 61.3788 232.512C69.2531 219.46 77.2309 206.47 85.0415 193.378C86.0606 191.667 86.8966 190.61 89.0861 190.618C101.045 190.642 113.027 191.147 126.22 188.859Z" fill="#E95519"/>
<path d="M92.4938 17.7973C103.72 16.9298 114.819 16.0622 125.926 15.2183C128.075 15.0527 129.779 15.1 131.212 17.5686C138.72 30.5186 146.523 43.295 154.262 56.1109C155.353 57.9091 154.604 59.2498 153.681 60.8114C148.322 69.9048 143.068 79.0613 137.733 88.1704C136.523 90.2288 135.679 90.6468 134.134 87.9969C127.51 76.569 120.591 65.3068 113.768 53.9894C106.937 42.6641 100.081 31.3545 93.2661 20.0213C92.8361 19.3115 92.7008 18.4203 92.4938 17.7973Z" fill="#FBCB00"/>
<path d="M199.166 10.5985C210.982 11.9077 222.097 9.57319 233.339 9.64417C237.073 9.66783 239.191 10.8982 241.102 13.8636C247.025 23.0752 253.172 32.1528 259.239 41.2935C258.331 43.1075 256.667 42.3188 255.393 42.3425C245.027 42.4923 234.652 42.3977 224.286 42.6895C220.106 42.8078 217.511 41.9955 215.297 37.8076C211.245 30.1417 206.117 23.0279 201.332 15.7485C200.44 14.392 199.724 13.067 199.166 10.5985Z" fill="#E95519"/>
<path d="M28.8938 113.309C34.8493 123.009 40.4544 132.205 46.171 141.338C46.9991 142.655 46.7602 143.436 46.0038 144.658C39.5149 155.234 33.1295 165.874 26.2982 177.167C22.5959 170.44 19.6978 163.768 15.5417 157.987C9.82511 150.037 9.41109 143.286 15.7647 135.265C20.9001 128.79 24.3714 121.022 28.8858 113.309H28.8938Z" fill="#E95519"/>
<path d="M199.7 272.336C206.332 261.374 212.176 251.492 218.291 241.775C219.7 239.535 222.917 239.669 225.146 239.591C233.983 239.299 242.837 239.378 251.635 238.313C255.019 237.903 255.369 239.196 253.761 241.846C248.984 249.717 244.071 257.525 239.628 265.577C237.272 269.844 233.339 268.488 230.058 268.945C220.385 270.278 210.647 271.145 199.7 272.336Z" fill="#E95519"/>
<path d="M260.386 52.0704C259.964 51.7786 259.534 51.4868 259.112 51.2029C259.893 50.9821 260.37 51.2029 260.386 52.0704Z" fill="#7F4912"/>
</svg>
