<svg width="274" height="273" viewBox="0 0 274 273" fill="none" xmlns="http://www.w3.org/2000/svg">
<path d="M166.217 107.457C164.814 107.457 164.946 107.673 164.946 106.161C164.939 71.1597 164.946 36.151 164.946 1.14931C164.946 0.766206 164.988 0.383103 165.016 0H29.7481C29.7481 44.3982 29.7481 88.7964 29.7411 133.188C29.7411 133.592 29.8807 134.023 29.6155 134.4C29.6015 134.448 29.5876 134.49 29.5667 134.539C30.0133 134.567 30.46 134.616 30.9137 134.616H245.021C245.468 134.616 245.915 134.65 246.368 134.664C246.885 134.811 246.627 135.235 246.627 135.514C246.647 139.464 246.64 143.406 246.64 147.355C246.64 169.777 246.64 192.199 246.627 214.621C246.627 214.963 246.829 215.374 246.445 215.659C241.783 215.673 237.128 215.687 232.465 215.694C227.419 215.694 222.38 215.687 217.334 215.687C217.041 215.987 216.664 215.847 216.329 215.847C199.187 215.854 182.046 215.854 164.911 215.868C164.13 215.868 163.788 215.778 163.795 214.851C163.851 197.807 163.879 180.769 163.906 163.724H138.006C138.006 189.016 138.006 214.308 137.992 239.607C137.992 240.046 138.111 240.505 137.845 240.916C137.824 240.993 137.803 241.063 137.783 241.139C138.145 241.46 138.578 241.299 138.976 241.299C183.149 241.306 227.321 241.306 271.501 241.306C271.948 241.306 272.402 241.32 272.848 241.327C272.925 241.32 273.002 241.313 273.079 241.306V107.464C237.456 107.464 201.833 107.464 166.217 107.457ZM136.847 107.471C127.53 107.429 118.205 107.436 108.888 107.429C108.574 107.185 108.671 106.844 108.671 106.531V57.9183C108.671 57.6675 108.713 57.4098 108.741 57.1521L108.72 57.1312C108.65 57.159 108.574 57.1869 108.504 57.2217C108.49 57.2844 108.462 57.3401 108.434 57.3958C108.441 64.034 108.448 70.6721 108.455 77.3103C108.455 86.9645 108.448 96.6187 108.462 106.266C108.462 106.928 108.427 107.29 107.569 107.29C91.0832 107.262 74.5978 107.269 58.1125 107.269C57.9868 107.269 57.8612 107.255 57.7286 107.248C57.603 107.248 57.5471 107.199 57.5611 107.074C57.603 93.5817 57.6448 80.0965 57.6867 66.6112C57.7007 63.4698 57.7286 60.3353 57.7495 57.1938C57.7426 49.1626 57.7356 41.1314 57.7286 33.1071C57.7286 31.3796 57.7426 29.6522 57.7495 27.9247L57.7216 27.9665L57.6728 27.9456C57.5611 27.9387 57.4494 27.9317 57.3377 27.9247V61.7354C57.0376 61.5264 57.1563 61.2687 57.1563 61.0667C57.1493 50.3537 57.1493 39.6477 57.1493 28.9347C57.1493 28.5934 57.0656 28.2243 57.3377 27.9247C57.4285 27.7924 57.5611 27.7506 57.7077 27.7506H57.7426C60.7995 27.7436 63.8495 27.7367 66.9065 27.7367C90.134 27.7297 113.369 27.7297 136.603 27.7506C137.001 27.7506 137.51 27.479 137.81 28.0153C137.81 54.1638 137.803 80.3124 137.824 106.454C137.824 107.227 137.685 107.471 136.847 107.471Z" fill="#F9E921"/>
<path d="M29.6137 134.4C29.5997 134.448 29.5857 134.49 29.5648 134.539C23.8207 140.181 18.0697 145.816 12.3256 151.465C8.27759 155.442 4.23651 159.434 0.195425 163.418C0.132611 163.425 0.0767754 163.418 0.0209401 163.404C0.0209401 139.693 0.0279183 115.983 0.0279183 92.2722C0.0279183 71.8005 0.0348971 51.3358 0 30.8642C0 29.7636 0.397828 28.9974 1.11671 28.28C10.4621 18.9601 19.8006 9.64027 29.146 0.313448C29.2298 0.222896 29.2856 0.104483 29.3554 0H29.5508V133.055C29.5508 133.508 29.5927 133.954 29.6137 134.4Z" fill="#E22285"/>
<path d="M29.6155 134.4C29.5946 133.954 29.5597 133.508 29.5597 133.055C29.5597 89.3467 29.5597 45.6311 29.5597 1.92248C29.5597 1.28165 29.5597 0.640827 29.5597 0H29.7551C29.7551 44.3982 29.7551 88.7894 29.7481 133.188C29.7481 133.592 29.8877 134.016 29.6225 134.4H29.6155Z" fill="#EB595B"/>
<path d="M246.367 134.664C246.353 134.706 246.346 134.755 246.353 134.797C246.046 135.082 245.725 135.347 245.432 135.64C240.832 140.202 236.233 144.764 231.627 149.327C226.867 154.043 222.107 158.758 217.347 163.474C216.893 163.488 216.446 163.502 215.993 163.502H178.792L164.052 163.523C159.871 163.516 155.69 163.502 151.51 163.509C146.945 163.509 142.381 163.53 137.816 163.536L108.754 163.516C106.925 163.523 105.097 163.537 103.268 163.543C98.3197 163.543 93.3713 163.543 88.4229 163.557C83.4047 163.55 78.3864 163.55 73.3682 163.543C73.2077 163.537 73.0472 163.516 72.8867 163.516H11.6074C11.2584 163.502 10.9025 163.481 10.5535 163.481C7.09869 163.46 3.64388 163.439 0.196045 163.418C4.23713 159.434 8.27821 155.443 12.3263 151.465C18.0703 145.816 23.8214 140.181 29.5654 134.539C30.0121 134.567 30.4588 134.616 30.9125 134.616H245.02C245.467 134.616 245.913 134.651 246.367 134.664Z" fill="#2AAAE2"/>
<path d="M272.847 241.329C269.874 244.784 266.908 248.238 263.92 251.679C258.183 258.304 252.418 264.907 246.702 271.552C245.976 272.402 245.243 272.757 244.099 272.757C199.41 272.722 154.727 272.729 110.045 272.708C109.654 272.708 109.04 273.084 108.852 272.332C108.949 272.249 109.054 272.179 109.138 272.081C115.391 265.318 121.638 258.547 127.892 251.784C131.186 248.232 134.487 244.686 137.781 241.141C138.144 241.461 138.577 241.301 138.975 241.301C183.148 241.308 227.32 241.308 271.5 241.308C271.947 241.308 272.4 241.322 272.847 241.329Z" fill="#2AAAE2"/>
<path d="M137.844 240.916C137.823 240.992 137.802 241.062 137.782 241.138C134.487 244.684 131.186 248.229 127.892 251.782C121.638 258.545 115.392 265.316 109.138 272.079C109.054 272.177 108.95 272.246 108.852 272.33C108.838 271.947 108.81 271.564 108.81 271.181V164.741C108.81 164.385 108.838 164.037 108.859 163.682C118.49 163.682 128.129 163.675 137.761 163.668L137.823 163.724C137.816 163.919 137.809 164.114 137.809 164.302V240.149C137.809 240.407 137.83 240.665 137.844 240.916Z" fill="#E22285"/>
<path d="M246.445 135.749V215.658C241.783 215.672 237.128 215.685 232.466 215.692C227.42 215.692 222.38 215.685 217.334 215.685C217.327 214.118 217.313 212.544 217.313 210.977C217.306 195.597 217.313 180.217 217.306 164.837C217.306 164.454 217.271 164.071 217.25 163.688C217.278 163.618 217.313 163.549 217.348 163.472C222.108 158.756 226.868 154.041 231.628 149.325C236.235 144.763 240.834 140.2 245.433 135.638C245.727 135.345 246.048 135.081 246.355 134.795C246.383 135.115 246.445 135.429 246.445 135.749Z" fill="#E22285"/>
<path d="M137.698 27.9497C137.433 28.2353 137.182 28.5209 136.916 28.7926C127.725 37.9313 118.533 47.0701 109.348 56.2088C109.097 56.4596 108.873 56.7243 108.636 56.982C108.552 57.0168 108.475 57.0517 108.399 57.0935C108.287 57.1283 108.168 57.1631 108.057 57.1979H62.9556C61.2247 57.1979 59.4868 57.191 57.749 57.191C57.742 49.1597 57.735 41.1285 57.728 33.1042C57.728 31.3768 57.742 29.6493 57.749 27.9219H136.058C136.602 27.9219 137.147 27.9428 137.698 27.9497Z" fill="#2AAAE2"/>
<path d="M108.636 56.9834C108.873 56.7257 109.103 56.461 109.348 56.2103C118.532 47.0715 127.724 37.9328 136.916 28.794C137.188 28.5223 137.44 28.2298 137.698 27.9512C137.726 27.986 137.761 28.0069 137.81 28.0139C137.81 54.1624 137.81 80.304 137.831 106.453C137.831 107.226 137.684 107.469 136.853 107.469C127.529 107.428 118.211 107.435 108.887 107.428C108.88 107.01 108.866 106.592 108.866 106.181C108.866 90.2159 108.866 74.244 108.859 58.279C108.859 57.9099 108.985 57.5128 108.74 57.1576L108.726 57.1367C108.726 57.067 108.698 57.0183 108.643 56.9904L108.636 56.9834Z" fill="#E22285"/>
<path d="M246.443 215.658C246.443 189.022 246.443 162.386 246.443 135.743C246.443 135.422 246.381 135.109 246.353 134.789C246.353 134.74 246.353 134.698 246.367 134.656C246.89 134.803 246.625 135.227 246.625 135.513C246.646 139.455 246.639 143.405 246.639 147.347C246.639 169.769 246.639 192.191 246.625 214.613C246.625 214.955 246.82 215.366 246.436 215.651L246.443 215.658Z" fill="#E83372"/>
<path d="M137.808 28.0162C137.759 28.0162 137.724 27.9883 137.697 27.9535C137.152 27.9465 136.608 27.9256 136.056 27.9256C109.953 27.9256 83.8503 27.9256 57.7543 27.9256L57.7263 27.9674L57.6775 27.9465C57.6984 27.8839 57.7263 27.8142 57.7473 27.7515C60.7973 27.7515 63.8543 27.7376 66.9043 27.7376C90.1388 27.7376 113.373 27.7376 136.601 27.7515C136.999 27.7515 137.508 27.4799 137.808 28.0232V28.0162Z" fill="#93CDB6"/>
<path d="M137.846 240.917C137.832 240.659 137.811 240.408 137.811 240.15C137.811 214.866 137.811 189.588 137.811 164.303C137.811 164.108 137.818 163.92 137.825 163.725L137.916 163.711H138.007C138.007 189.01 138.007 214.308 138 239.6C138 240.039 138.118 240.499 137.846 240.917Z" fill="#FDDC36"/>
<path d="M108.741 57.1504C108.985 57.4987 108.86 57.8957 108.86 58.2718C108.867 74.2368 108.86 90.2087 108.867 106.174C108.867 106.592 108.881 107.01 108.888 107.421C108.581 107.177 108.678 106.835 108.678 106.529C108.678 90.3271 108.678 74.1184 108.678 57.9166C108.678 57.6589 108.72 57.4081 108.741 57.1504Z" fill="#F9BF56"/>
<path d="M57.3363 27.9219V61.7255C57.0292 61.5166 57.1548 61.2658 57.1548 61.0638C57.1479 50.3508 57.1548 39.6448 57.1548 28.9319C57.1548 28.5906 57.0641 28.2214 57.3433 27.9219H57.3363Z" fill="#FBEE69"/>
<path d="M164.103 163.67C164.033 163.691 163.97 163.712 163.907 163.726H137.916H137.825L137.762 163.67C137.797 163.635 137.811 163.586 137.818 163.538C142.383 163.531 146.947 163.51 151.512 163.51C155.692 163.503 159.873 163.517 164.054 163.524C164.068 163.572 164.082 163.621 164.103 163.67Z" fill="#BBB455"/>
<path d="M108.504 57.2191C108.49 57.2818 108.462 57.3375 108.434 57.3933C108.308 57.3306 108.183 57.2609 108.057 57.1982C108.169 57.1634 108.287 57.1286 108.399 57.0938C108.434 57.1286 108.469 57.1704 108.504 57.2191Z" fill="#FEFAD8"/>
<path d="M57.7433 27.7511C57.7224 27.8138 57.6945 27.8835 57.6735 27.9461C57.5618 27.9461 57.4502 27.9322 57.3385 27.9252C57.4362 27.779 57.5828 27.7441 57.7433 27.7441V27.7511Z" fill="#FBEE69"/>
<path d="M108.503 57.2192C108.468 57.1775 108.434 57.1357 108.399 57.0939C108.475 57.059 108.552 57.0242 108.636 56.9824C108.699 57.0103 108.727 57.059 108.72 57.1287C108.65 57.1566 108.573 57.1844 108.503 57.2123V57.2192Z" fill="#F9BF56"/>
<path d="M57.7298 107.248C57.6033 107.248 57.547 107.199 57.5611 107.072C57.6173 107.128 57.6736 107.192 57.7298 107.248Z" fill="#FEFAD8"/>
<path d="M73.3689 163.543C73.3619 163.584 73.3619 163.619 73.3619 163.661C63.8071 163.668 54.2523 163.682 44.6975 163.696C44.2787 163.696 43.8669 163.717 43.4482 163.731C38.4928 163.724 33.5374 163.724 28.582 163.717C23.5708 163.717 18.5526 163.717 13.5344 163.717C12.8644 163.689 12.1874 163.668 11.5173 163.64C11.5522 163.598 11.5801 163.55 11.6081 163.508H72.8873C73.0479 163.508 73.2084 163.529 73.3689 163.536V163.543Z" fill="#BBB455"/>
<path d="M137.816 163.537C137.809 163.585 137.796 163.634 137.761 163.669C128.129 163.669 118.49 163.683 108.859 163.683C108.824 163.627 108.789 163.571 108.754 163.516L137.816 163.537Z" fill="#7B939B"/>
<path d="M88.4246 163.557C88.4246 163.557 88.4037 163.634 88.3967 163.675C83.3855 163.675 78.3743 163.661 73.363 163.661C73.363 163.62 73.363 163.585 73.37 163.543C78.3882 163.543 83.4064 163.543 88.4246 163.557Z" fill="#FCF39F"/>
<path d="M28.582 163.717C28.575 163.766 28.568 163.807 28.5541 163.849C23.5428 163.856 18.5316 163.856 13.5204 163.856C13.5274 163.807 13.5343 163.766 13.5343 163.724C18.5525 163.724 23.5707 163.724 28.582 163.724V163.717Z" fill="#FCF39F"/>
<path d="M103.267 163.543C103.079 163.696 102.856 163.703 102.632 163.703C97.8863 163.696 93.1403 163.682 88.3943 163.675C88.4013 163.634 88.4083 163.592 88.4222 163.557C93.3706 163.55 98.319 163.543 103.267 163.543Z" fill="#FEFAD8"/>
<path d="M43.4492 163.731C43.2678 163.779 43.0863 163.877 42.9049 163.877C38.124 163.877 33.3431 163.863 28.5552 163.849C28.5691 163.807 28.5761 163.766 28.5831 163.717C33.5385 163.717 38.4939 163.717 43.4492 163.731Z" fill="#FEFAD8"/>
<path d="M13.533 163.723C13.533 163.765 13.526 163.807 13.519 163.855C9.2197 163.862 4.92038 163.876 0.621059 163.883C0.411676 163.883 0.16042 163.953 0.03479 163.681C3.85951 163.674 7.69121 163.66 11.5159 163.646C12.186 163.674 12.863 163.695 13.533 163.723Z" fill="#FBEE69"/>
<path d="M11.6067 163.516C11.5788 163.558 11.5509 163.606 11.516 163.648C7.69125 163.662 3.85955 163.676 0.0348332 163.683C0.0278538 163.592 0.0278534 163.502 0.020874 163.404C0.0767093 163.418 0.132545 163.425 0.195359 163.418C3.64319 163.439 7.098 163.46 10.5528 163.481C10.9018 163.481 11.2577 163.502 11.6067 163.516Z" fill="#93CDB6"/>
<path d="M217.347 163.475C217.312 163.551 217.277 163.621 217.249 163.691C199.661 163.691 182.073 163.698 164.485 163.698C164.352 163.698 164.227 163.684 164.101 163.67C164.08 163.621 164.066 163.572 164.052 163.523L178.793 163.502H215.993C216.447 163.502 216.893 163.489 217.347 163.475Z" fill="#7B939B"/>
</svg>
