<svg width="295" height="293" viewBox="0 0 295 293" fill="none" xmlns="http://www.w3.org/2000/svg">
<path d="M23.2704 197.421C23.3526 197.411 23.4441 197.411 23.5172 197.384L23.6908 197.211C23.4441 197.074 23.3526 197.229 23.2704 197.421ZM90.9452 125.065C119.116 95.0953 147.387 65.1526 175.456 35.1552C147.286 65.0066 119.061 95.0314 90.9452 125.065ZM188.737 21.0785C192.604 17.2809 195.684 13.9306 198.161 11.1098C195.026 14.4236 191.882 17.7556 188.737 21.0785ZM208.663 0C208.462 0.209964 208.27 0.419926 208.06 0.62989C208.215 0.620761 208.362 0.648149 208.49 0.72118C208.672 0.80334 208.846 0.9494 209.011 1.16849C208.892 0.775951 208.782 0.392541 208.663 0ZM201.378 270.251C167.843 262.208 134.234 254.348 100.634 246.452C147.222 257.598 193.92 268.726 240.115 279.398C227.209 276.34 214.294 273.29 201.378 270.251ZM227.538 63.3908C243.314 116.785 259.109 170.18 274.885 223.575C259.182 170.162 243.396 116.758 227.538 63.3908ZM294.939 291.895C294.893 291.566 294.875 291.229 294.783 290.918C294.747 290.781 294.701 290.654 294.664 290.517C294.664 290.654 294.664 290.79 294.655 290.918C294.655 291.147 294.655 291.375 294.637 291.603C294.637 291.685 294.637 291.758 294.637 291.822C294.637 291.995 294.628 292.178 294.619 292.352C294.856 292.461 295.112 292.507 294.948 291.895H294.939Z" fill="white"/>
<path d="M294.939 291.894C294.839 291.866 294.729 291.848 294.629 291.821C276.869 287.841 259 283.76 241.048 279.616C240.737 279.543 240.427 279.47 240.116 279.396C193.921 268.725 147.223 257.597 100.635 246.45C100.297 246.377 99.9493 246.295 99.6111 246.213C66.2764 238.244 32.9965 230.274 0 222.469C56.021 204.96 112.499 187.597 168.154 169.503C168.282 169.494 168.41 169.485 168.529 169.467C168.209 170.745 167.889 172.032 167.569 173.328C166.637 177.089 165.732 180.887 164.855 184.694C164.818 184.831 164.781 184.968 164.754 185.114C164.078 188.044 163.41 190.974 162.752 193.886C156.427 195.648 150.13 197.474 143.868 199.336C143.302 199.501 142.735 199.674 142.159 199.839C133.714 202.358 125.305 204.932 116.886 207.516C116.841 207.525 116.786 207.543 116.74 207.562C111.576 209.141 106.421 210.729 101.247 212.299C101.247 212.299 101.238 212.299 101.229 212.309C101.22 212.309 101.202 212.318 101.192 212.318C92.3171 215.02 83.4145 217.695 74.4295 220.278C90.5439 224.085 106.649 227.882 122.745 231.662C126.913 232.648 131.072 233.624 135.231 234.61C159.032 240.197 182.834 245.793 206.644 251.435C207.741 251.69 208.838 251.955 209.935 252.211C212.668 252.85 215.401 253.498 218.143 254.146C225.007 255.89 231.981 257.451 238.937 259.021C239.019 259.048 239.11 259.067 239.193 259.085C239.22 259.094 239.257 259.103 239.284 259.103C245.957 260.6 252.611 262.106 259.183 263.777C259.219 263.786 259.256 263.795 259.301 263.804C262.263 264.553 265.206 265.338 268.122 266.178C268.241 266.214 268.359 266.242 268.478 266.278C269.73 267.483 270.992 268.688 272.235 269.893C276.376 273.892 280.48 277.918 284.602 281.934C284.739 282.062 284.867 282.19 284.995 282.318C288.194 285.431 291.402 288.534 294.638 291.602C294.738 291.711 294.839 291.803 294.939 291.894Z" fill="#B6B1D6"/>
<path d="M294.939 291.895C294.838 291.804 294.738 291.712 294.637 291.612C291.374 288.609 288.175 285.477 284.994 282.319C284.866 282.191 284.738 282.063 284.601 281.935C280.506 277.873 276.43 273.783 272.234 269.895C270.872 268.626 269.51 267.384 268.121 266.179C267.966 266.042 267.81 265.905 267.655 265.768C262.838 249.026 257.994 232.284 253.131 215.55C248.268 198.808 243.387 182.084 238.497 165.351C228.726 131.894 218.919 98.4364 209.175 64.9609C206.534 76.7189 203.517 88.4403 201.433 100.28C196.05 121.341 191.132 143.003 186.489 164.338C184.451 164.849 182.294 165.552 180.127 166.264L180.045 166.291C177.074 167.268 174.076 168.281 171.307 168.939C171.298 168.939 171.279 168.939 171.27 168.948C170.32 169.167 169.406 169.34 168.528 169.468C170.173 162.211 171.928 154.962 173.665 147.714C174.497 144.236 175.329 140.758 176.142 137.28C181.553 114.394 186.964 91.5168 192.384 68.6307C194.459 59.8762 196.534 51.1216 198.609 42.3579C201.899 28.4729 205.19 14.597 208.49 0.72118C208.554 0.48383 208.608 0.23735 208.663 0C208.782 0.392541 208.892 0.775951 209.011 1.16849C215.199 21.9001 221.377 42.6409 227.538 63.3908C243.396 116.758 259.182 170.162 274.885 223.575C275.122 224.387 275.36 225.191 275.607 226.003C281.959 247.638 288.312 269.283 294.655 290.918C294.747 291.247 294.847 291.566 294.939 291.895Z" fill="#F8E8F3"/>
<path d="M208.664 0C208.609 0.23735 208.554 0.48383 208.49 0.72118C205.19 14.597 201.9 28.4729 198.609 42.3579C196.535 51.1216 194.46 59.8762 192.385 68.6307C186.133 94.9948 179.89 121.35 173.666 147.714C171.947 154.962 170.238 162.22 168.529 169.468C167.734 168.929 166.947 168.336 166.18 167.715C164.041 166.008 161.993 164.027 159.937 162.074C159.891 162.028 159.836 161.982 159.791 161.937C158.154 160.385 156.527 158.842 154.846 157.445C158.282 141.862 162.076 126.343 165.604 110.788C166.801 105.557 167.953 100.326 169.068 95.0861C169.36 93.6985 169.653 92.3018 169.936 90.9143H169.945V90.896C170.512 88.5316 171.097 86.1672 171.691 83.7937C172.852 79.1289 174.049 74.4549 175.192 69.7627C175.731 67.5626 176.261 65.3626 176.764 63.1534C177.139 61.5285 177.505 59.9035 177.852 58.2786C164.324 72.7478 150.815 87.281 137.324 101.823L135.898 103.357C121.922 118.419 107.965 133.491 93.9895 148.526C90.2603 152.58 86.4945 156.615 82.7286 160.65C82.6464 160.723 82.5733 160.805 82.5093 160.887C74.6029 169.349 66.6783 177.812 58.973 186.42C55.0884 187.68 51.1946 188.912 47.2917 190.127C39.4584 192.573 31.5795 194.938 23.7005 197.201H23.6914C45.9846 173.202 68.4332 149.129 90.9458 125.065C119.061 95.0313 147.287 65.0066 175.457 35.1552C179.881 30.4538 184.314 25.7616 188.738 21.0785C191.882 17.7556 195.026 14.4236 198.162 11.1098C201.461 7.61346 204.77 4.11711 208.061 0.62989C208.271 0.419926 208.463 0.209964 208.664 0Z" fill="#7C77B5"/>
<path d="M168.154 169.503C112.499 187.596 56.021 204.959 0 222.468C0.923171 221.382 1.86462 220.305 2.81522 219.218C4.25025 217.602 5.70355 215.987 7.166 214.38C8.64673 212.764 10.1457 211.148 11.6448 209.56C12.641 208.51 13.6373 207.469 14.6336 206.429C14.6428 206.42 14.6611 206.401 14.6611 206.392C15.6665 205.361 16.6628 204.329 17.6591 203.307C19.6151 201.298 21.5803 199.327 23.518 197.382L23.7008 197.2C31.5158 194.799 39.3947 192.471 47.292 190.125C55.7742 187.623 64.2655 185.104 72.702 182.493C72.702 182.493 72.7112 182.484 72.7203 182.484C78.3233 180.749 83.908 178.969 89.4288 177.107C111.11 171.42 133.037 163.642 154.846 157.443C156.491 158.94 158.146 160.438 159.791 161.935C159.837 161.98 159.891 162.026 159.937 162.072C162.012 163.952 164.096 165.842 166.18 167.713C166.838 168.316 167.496 168.909 168.154 169.503Z" fill="#F8E8F3"/>
<path d="M23.6908 197.199C23.6634 197.309 23.5903 197.354 23.5172 197.382C23.4441 197.409 23.3526 197.409 23.2704 197.418C23.3526 197.226 23.4441 197.071 23.6908 197.199Z" fill="#7C77B5"/>
<path d="M267.656 265.766C264.868 265.118 262.081 264.461 259.302 263.804C259.256 263.804 259.22 263.785 259.183 263.776C252.547 262.224 245.911 260.672 239.285 259.102C239.257 259.102 239.221 259.093 239.193 259.084C239.111 259.066 239.02 259.048 238.937 259.02C232.009 257.404 225.072 255.77 218.143 254.145C215.401 253.497 212.668 252.849 209.935 252.21C208.838 251.954 207.742 251.69 206.645 251.434C182.834 245.829 159.042 240.224 135.232 234.61C131.073 233.624 126.914 232.647 122.746 231.661C106.65 227.863 90.5445 224.066 74.4302 220.277C87.7476 216.233 95.2061 213.568 101.193 212.317C101.202 212.317 101.22 212.308 101.23 212.308C101.239 212.299 101.248 212.299 101.248 212.299C105.845 211.331 109.593 211.194 114.501 211.897C114.52 211.906 114.529 211.906 114.547 211.906C120.296 212.737 127.654 214.727 139.847 217.886C154.865 221.446 169.892 224.951 184.9 228.512C184.955 228.521 185.01 228.539 185.064 228.548C194.68 230.821 204.296 233.112 213.902 235.449C214.012 235.477 214.122 235.504 214.222 235.532C220.922 237.157 227.613 238.8 234.294 240.479C234.641 240.489 235.3 240.662 236.095 240.899C236.104 240.899 236.122 240.899 236.131 240.909C237.704 241.374 239.787 242.068 241.058 242.168C241.67 242.214 242.091 242.123 242.173 241.794C242.173 241.794 242.182 241.794 242.182 241.785C242.228 241.611 242.182 241.374 242.009 241.064C241.963 240.982 241.917 240.89 241.862 240.799C240.199 234.966 238.499 229.141 236.799 223.317C235.811 219.958 234.824 216.598 233.828 213.248C233.38 211.705 232.923 210.163 232.466 208.62C222.046 172.533 211.763 136.401 201.435 100.279C203.519 88.4384 206.535 76.7169 209.177 64.959C218.92 98.4345 228.728 131.892 238.499 165.349C243.389 182.082 248.261 198.806 253.132 215.549C257.995 232.282 262.839 249.024 267.656 265.766Z" fill="#493B66"/>
<path d="M240.529 241.876C239.067 241.556 237.595 241.237 236.133 240.908C236.124 240.899 236.105 240.899 236.096 240.899C235.493 240.762 234.899 240.625 234.296 240.479C227.587 238.936 220.905 237.238 214.223 235.531C214.123 235.504 214.013 235.476 213.904 235.449C211.097 234.728 208.301 234.007 205.494 233.285C191.674 219.766 176.83 207.186 162.754 193.885C163.449 190.973 164.098 188.043 164.756 185.113C164.784 184.966 164.82 184.83 164.857 184.693C165.698 180.886 166.566 177.079 167.571 173.336C167.891 172.131 168.229 170.945 168.586 169.758C172.233 173.519 175.962 177.289 179.737 181.059C181.245 182.566 182.763 184.072 184.289 185.578C185.815 187.094 187.342 188.6 188.877 190.106C191.492 192.671 194.124 195.246 196.747 197.811C199.38 200.376 202.003 202.941 204.626 205.506C206.838 207.67 209.05 209.833 211.244 211.997C212.478 213.211 213.712 214.425 214.936 215.639C215.896 216.589 216.847 217.529 217.797 218.478C218.885 219.556 219.964 220.633 221.042 221.71C222.541 223.207 224.031 224.704 225.512 226.211C230.676 231.451 235.712 236.672 240.529 241.876Z" fill="#7C77B5"/>
<path d="M142.159 199.838C133.714 202.357 125.305 204.932 116.886 207.515C125.277 204.859 133.714 202.321 142.159 199.838Z" fill="#FEFEFF"/>
<path d="M184.9 228.512C161.437 223.034 137.992 217.447 114.547 211.906C120.296 212.737 127.654 214.727 139.847 217.886C154.865 221.446 169.892 224.951 184.9 228.512Z" fill="#FEFEFF"/>
<path d="M229.917 206.209C221.837 198.595 213.885 190.827 205.915 183.076C212.231 189.183 218.538 195.309 224.872 201.398C226.929 202.895 228.574 204.492 229.917 206.209Z" fill="white"/>
<path d="M242.18 241.787L242.171 241.796C242.143 242.271 241.705 242.444 241.056 242.171C240.891 242.107 240.718 242.006 240.526 241.878C235.709 236.675 230.672 231.453 225.508 226.213C224.027 224.707 222.538 223.21 221.039 221.713C219.96 220.636 218.881 219.558 217.794 218.481C216.843 217.532 215.893 216.591 214.933 215.642C213.708 214.428 212.474 213.214 211.24 212C209.046 209.836 206.834 207.673 204.623 205.509C201.999 202.944 199.376 200.379 196.744 197.813C194.12 195.248 191.488 192.674 188.874 190.109C187.338 188.602 185.812 187.096 184.285 185.581C182.759 184.074 181.242 182.568 179.733 181.062C175.959 177.292 172.229 173.522 168.582 169.76C169.478 169.487 170.374 169.222 171.27 168.948C171.27 168.939 171.297 168.939 171.306 168.939C174.222 168.053 177.128 167.168 180.044 166.291L180.126 166.264C182.247 165.625 184.368 164.977 186.488 164.338C192.923 170.482 199.312 176.662 205.692 182.86C205.765 182.924 205.838 182.997 205.911 183.079C212.227 189.187 218.534 195.312 224.868 201.401C226.925 202.898 228.57 204.496 229.914 206.212C231.623 208.375 232.848 210.722 233.826 213.25C235.041 216.327 235.891 219.686 236.796 223.319C238.496 229.144 240.197 234.968 241.86 240.801C241.915 240.892 241.961 240.984 242.006 241.066C242.134 241.358 242.198 241.595 242.18 241.787Z" fill="#B6B1D6"/>
<path d="M177.853 58.2773C177.506 59.9023 177.14 61.5272 176.765 63.1522C176.263 65.3613 175.742 67.5614 175.193 69.7614C174.051 74.4537 172.853 79.1277 171.692 83.7925C171.089 86.166 170.504 88.5304 169.947 90.8947H169.937V90.913C142.992 119.523 116.247 148.37 89.4296 177.108C84.0734 179.262 78.4064 180.914 72.7211 182.485C72.712 182.485 72.7029 182.494 72.7029 182.494C68.087 183.772 63.4529 184.995 58.9741 186.419C66.7982 177.902 74.6497 169.385 82.5104 160.886C82.5744 160.804 82.6475 160.721 82.7298 160.648C100.407 141.514 118.148 122.426 135.899 103.356L137.325 101.822C150.843 87.298 164.362 72.7831 177.853 58.2773Z" fill="#B6B1D6"/>
<path d="M165.603 110.788C166.8 105.557 167.952 100.326 169.067 95.0859C167.961 100.326 166.8 105.557 165.603 110.788Z" fill="white"/>
<path d="M169.946 90.9043H169.937V90.9138H169.946V90.9043Z" fill="white"/>
<path d="M169.937 90.9146C169.992 90.8501 170.047 90.7949 170.103 90.7305C170.093 90.8317 170.13 90.979 169.937 90.9146Z" fill="white"/>
</svg>
