<svg width="230" height="279" viewBox="0 0 230 279" fill="none" xmlns="http://www.w3.org/2000/svg">
<path d="M172.184 167.787H172.193V167.796L172.184 167.787Z" fill="white"/>
<path d="M172.423 167.982V168L172.405 167.982H172.423Z" fill="white"/>
<path d="M209.285 113.397C207.817 114.337 206.313 114.869 204.907 115.578C200.494 117.803 196.072 120.01 191.65 122.217C191.349 122.377 191.04 122.634 190.686 122.315C187.997 120.506 185.309 118.716 182.629 116.899C173.971 111.004 165.312 105.091 156.663 99.1869C148.04 93.3096 139.426 87.4323 130.803 81.5461C122.384 75.8018 113.955 70.0663 105.536 64.3131C98.0096 59.1716 90.4922 54.0212 82.9659 48.8796C82.8244 48.7733 82.6741 48.6669 82.5325 48.5605C79.446 46.4418 76.3594 44.3232 73.264 42.2311C73.0252 42.0627 72.7865 41.6638 72.4592 41.8765C72.1674 42.0538 72.3089 42.4704 72.3354 42.763C72.6803 46.6457 72.5388 50.5373 72.698 54.4201C72.8926 59.2159 72.981 64.0206 73.1225 68.8252C73.2729 74.1972 73.3702 79.5604 73.5647 84.9324C73.7416 89.5864 73.8124 94.2581 73.9273 98.9209C74.0246 102.875 74.1219 106.828 74.2369 110.782C74.2546 111.172 73.9539 111.748 74.6525 111.925C76.8282 113.716 79.216 115.223 81.5332 116.81C90.1649 122.74 98.8321 128.618 107.481 134.53C113.195 138.431 118.881 142.358 124.586 146.258C134.774 153.226 144.971 160.176 155.168 167.135C157.698 168.855 160.227 170.566 162.854 172.347C156.61 175.485 150.49 178.57 144.379 181.646C143.052 181.115 141.982 180.193 140.832 179.395C135.473 175.698 130.149 171.957 124.701 168.403C123.993 167.88 123.303 167.348 122.578 166.851C119.819 164.963 117.042 163.093 114.274 161.213C113.177 160.469 112.063 159.742 110.975 158.997C106.288 155.788 101.609 152.579 96.9218 149.37C90.5718 145.026 84.2217 140.674 77.8718 136.321C77.7391 136.232 77.6064 136.144 77.4738 136.055C76.9785 135.497 76.3241 135.142 75.7138 134.717C73.4055 133.112 71.0884 131.508 68.7713 129.903C68.5502 129.761 68.3291 129.46 68.0372 129.619C67.7454 129.788 67.8869 130.134 67.8869 130.4C67.878 131.18 67.8957 131.951 67.9046 132.731C67.9046 132.864 67.9134 132.997 67.9134 133.139C67.9576 134.202 68.0019 135.266 68.0549 136.33C68.0284 136.357 67.9842 136.374 67.9842 136.392C67.993 136.445 68.0195 136.498 68.0461 136.552C68.1522 141.791 67.9576 147.039 68.2583 152.269C68.2318 152.295 68.1876 152.322 68.1876 152.34C68.2053 152.393 68.2318 152.446 68.2583 152.49C68.3468 161.781 68.444 171.062 68.5325 180.343C68.5413 180.547 68.5502 180.76 68.5502 180.964V181.398C68.5237 181.469 68.5237 181.531 68.5413 181.602C68.5502 181.886 68.559 182.178 68.559 182.462C68.5944 182.542 68.6298 182.613 68.6652 182.684C68.674 183.464 68.6828 184.235 68.6917 185.006C68.6652 185.033 68.6209 185.059 68.6209 185.068C68.6386 185.121 68.6652 185.175 68.6917 185.228C68.7801 190.343 68.674 195.458 68.8774 200.573C69.0366 204.455 68.9482 208.347 68.9659 212.23V213.072C68.9747 213.214 68.9747 213.347 68.9747 213.488C68.9747 213.701 68.9835 213.914 68.9835 214.136C69.0101 214.206 69.0454 214.286 69.072 214.357C69.0808 214.632 69.0808 214.907 69.0897 215.182C69.072 215.208 69.0277 215.235 69.0277 215.253C69.0366 215.306 69.072 215.359 69.0897 215.421C69.1074 216.449 69.1162 217.478 69.1339 218.515C69.1427 218.807 69.0366 218.985 68.7359 219.002C68.6563 218.914 68.5856 218.834 68.506 218.745C68.3468 218.541 68.1522 218.4 67.8869 218.364C66.4011 217.088 64.7207 216.095 63.005 215.182C62.8635 214.933 62.6512 214.792 62.3771 214.747C60.6879 213.32 58.7775 212.23 56.8672 211.13C55.178 209.703 53.2766 208.604 51.3574 207.522C51.154 207.221 50.8533 207.044 50.5526 206.849C48.262 205.342 45.9714 203.835 43.6897 202.328C42.7168 201.69 41.7882 201.007 40.7181 200.537C39.0024 199.154 37.154 197.957 35.2171 196.92C33.9347 195.865 32.5551 194.943 31.0958 194.146C27.9208 192.036 24.7547 189.917 21.5708 187.816C20.8545 187.346 21.0225 188.011 21.0225 188.322C21.0136 190.697 21.0313 193.064 21.0402 195.44C21.049 195.715 21.049 195.99 21.049 196.264C21.049 196.557 21.0579 196.841 21.0579 197.133C21.0667 197.346 21.0756 197.55 21.0756 197.754C20.9517 198.401 21.1817 199.03 21.1817 199.668C21.1552 199.695 21.1109 199.722 21.1198 199.739C21.1286 199.792 21.1552 199.846 21.1817 199.899C21.1552 201.087 21.0756 202.283 21.1286 203.471C21.4116 210.146 21.1286 216.83 21.3763 223.514C21.5797 228.957 21.447 234.409 21.4647 239.861C21.4735 240.065 21.4735 240.269 21.4735 240.473V241.129C21.4559 241.2 21.4558 241.27 21.4824 241.333V242.184C21.4912 242.396 21.4912 242.609 21.4912 242.831C21.4558 242.902 21.4558 242.964 21.4824 243.035C21.5266 244.169 21.5708 245.304 21.615 246.439C21.5973 246.456 21.5531 246.483 21.5531 246.501C21.562 246.554 21.5885 246.607 21.615 246.66C21.6416 252.467 21.6681 258.282 21.6946 264.088V264.921C21.6946 265.143 21.7035 265.356 21.7035 265.577C21.6504 265.737 21.6769 265.888 21.8096 266.003C21.8273 270.143 21.845 274.292 21.8715 278.431L21.9069 278.484L21.8627 278.538H21.4382C20.3327 277.394 18.9353 276.641 17.6441 275.754C13.7793 273.112 10.0205 270.32 6.06728 267.811C5.34207 267.35 4.69646 266.748 3.91819 266.34C2.91881 265.808 2.40586 264.966 2.40586 263.822C2.40586 262.847 2.39702 261.872 2.39702 260.906C2.70656 259.062 2.61812 257.218 2.37049 255.383C2.37049 254.24 1.87522 253.105 2.34395 251.97C2.32627 249.984 2.4943 247.99 2.16708 246.004C2.06095 245.1 2.28205 244.169 1.97251 243.274C2.37049 242.095 2.02557 240.889 2.06979 239.701C2.1317 238.478 2.25551 237.246 1.95482 236.031C1.93713 235.251 1.91944 234.471 1.9106 233.691C1.89291 232.361 1.87522 231.032 1.85753 229.711C1.92828 228.55 2.02557 227.397 1.74256 226.245C1.63643 225.341 1.85753 224.401 1.55684 223.506C1.87522 222.291 1.76025 221.077 1.52146 219.862C1.45955 216.955 1.40649 214.056 1.34458 211.148C1.65412 209.81 1.55684 208.471 1.32689 207.132C1.44186 205.138 0.937755 203.152 1.13232 201.158C1.44186 199.819 1.33574 198.48 1.10579 197.151C0.849316 193.419 0.893537 189.678 0.858161 185.946C0.840473 184.421 0.530934 182.914 0.707814 181.38C1.01735 180.193 0.911225 178.996 0.698969 177.808C0.619372 176.886 0.743192 175.955 0.49556 175.042C0.822788 173.828 0.752031 172.604 0.469022 171.39C0.460178 169.706 0.513247 168.012 0.424806 166.328C0.362898 165.114 0.124111 163.908 0.300991 162.676C0.610531 161.133 0.486716 159.591 0.27446 158.049C0.150644 157.339 0.398273 156.604 0.0710449 155.912C0.433649 155.646 0.239078 155.265 0.247922 154.928C0.274454 153.909 0.27446 152.889 0.27446 151.861C0.433652 151.932 0.610526 151.967 0.75203 152.065C5.66045 155.318 10.56 158.58 15.4773 161.816C20.6864 165.256 25.9221 168.651 31.1312 172.09C36.6056 175.698 42.0624 179.342 47.5368 182.958C47.9171 183.207 48.3593 183.738 48.828 183.402C49.2083 183.136 48.7219 182.63 48.7661 182.214C48.8546 179.129 48.7927 176.035 48.5716 172.95C48.5716 172.791 48.5716 172.631 48.5716 172.463C48.5716 171.115 48.7573 169.759 48.3947 168.42C48.262 163.899 48.1294 159.378 47.9879 154.848C48.3063 153.705 48.2267 152.561 47.9702 151.418C47.8464 149.946 48.1559 148.448 47.7756 146.985C48.1028 145.842 48.0321 144.698 47.7579 143.555C47.5987 136.401 47.298 129.256 47.2892 122.111C47.3246 120.462 47.3865 118.822 47.1123 117.191C46.9885 113.459 46.962 109.736 46.8204 106.013C46.7232 103.699 46.7851 101.376 46.6701 99.0628C46.617 97.9547 46.3163 96.8466 46.5198 95.7208C46.9089 94.8963 46.4932 93.9921 46.7762 93.0791C46.962 93.1589 47.13 93.2032 47.2715 93.2918C49.4471 94.657 51.6228 96.031 53.8072 97.3696C54.0549 97.5203 54.276 97.937 54.6209 97.6976C54.8597 97.5292 54.7358 97.1657 54.727 96.8909C54.6386 93.4691 54.444 90.0473 54.5147 86.6256C54.4882 85.3402 54.6563 84.0548 54.3644 82.7783C54.3644 82.4858 54.3555 82.1844 54.3555 81.8918C54.3732 81.8741 54.4175 81.8475 54.4175 81.8475C54.3998 81.8032 54.3732 81.7677 54.3467 81.7322C54.2671 80.6064 54.1787 79.4895 54.0991 78.3637C54.0725 77.9825 54.0725 77.6013 54.276 77.2556C54.2583 76.112 54.444 74.9685 54.1168 73.8427C54.0991 72.3534 54.0902 70.873 54.0814 69.3926C54.0725 67.8944 54.0637 66.4052 54.0637 64.9159C54.0814 63.7901 54.2052 62.6643 53.931 61.5473C53.7807 60.6254 54.0725 59.6768 53.7188 58.7726C54.1344 57.505 53.7895 56.2019 53.8603 54.9165C53.8691 53.7907 54.0018 52.6649 53.7188 51.5568C53.7011 50.4132 53.6746 49.2697 53.6569 48.135C53.648 46.7787 53.6392 45.4313 53.6392 44.0838C53.648 43.1708 53.8072 42.2488 53.5065 41.3446C53.5154 41.1939 53.5154 41.0344 53.5154 40.8748C53.5331 40.8571 53.5773 40.8393 53.5773 40.8305C53.5596 40.7862 53.5331 40.7507 53.5065 40.7064C53.48 39.7135 53.4623 38.7207 53.4358 37.7278C53.4358 36.2297 53.6303 34.7227 53.2677 33.2334C53.1616 31.1945 53.4181 29.1379 53.082 27.099C53.4092 25.8846 53.3297 24.6701 53.0643 23.4556C52.9228 21.7004 53.2147 19.9275 52.8698 18.1723C53.1881 17.9861 53.0555 17.6758 53.0466 17.4188C53.0466 15.9827 53.0201 14.5466 53.0024 13.1105C53.0113 11.6124 53.1881 10.0965 52.8432 8.60725C52.4541 7.9158 52.6487 7.18003 52.6487 6.45312C53.4269 6.47972 53.878 7.10025 54.444 7.4903C64.7915 14.5555 75.1301 21.6206 85.4688 28.6858C92.0222 33.1714 98.5756 37.6392 105.129 42.1336C113.009 47.5322 120.889 52.9485 128.778 58.356C137.684 64.4549 146.599 70.5361 155.504 76.635C161.067 80.4469 166.613 84.2676 172.175 88.0705C182.947 95.446 193.728 102.813 204.5 110.179C206.066 111.243 207.649 112.289 209.294 113.397H209.285Z" fill="#E96117"/>
<path d="M172.193 167.787V167.796L172.184 167.787H172.193Z" fill="#C83C3A"/>
<path d="M229.442 116.363C229.344 115.786 229.008 115.937 228.663 116.106C226.302 117.285 223.932 118.464 221.57 119.643C219.616 120.627 217.67 121.619 215.716 122.595C213.257 123.827 210.79 125.041 208.34 126.291C206.58 127.178 204.846 128.135 203.078 129.013C200.672 130.192 198.178 131.202 195.843 132.496C191.342 134.996 186.619 137.044 182.091 139.491C179.738 140.758 177.289 141.849 174.901 143.054C171.381 144.836 167.914 146.724 164.35 148.409C160.68 150.128 157.133 152.096 153.454 153.807C153.136 153.958 152.702 154.02 152.534 154.481C152.764 154.658 152.985 154.835 153.215 154.986C158.796 158.754 164.438 162.415 169.877 166.395C170.602 166.918 171.222 167.663 172.194 167.796C172.265 167.858 172.336 167.92 172.407 167.982L172.424 168C172.486 168.07 172.557 168.141 172.628 168.212C175.387 170.101 178.146 171.98 180.906 173.868C181.189 174.063 181.445 174.302 181.719 174.524C180.499 175.393 179.102 175.951 177.784 176.589C174.45 178.203 171.204 179.985 167.861 181.58C163.855 183.486 159.91 185.534 155.939 187.529C151.438 189.789 146.927 192.032 142.425 194.301C138.87 196.092 135.315 197.883 131.768 199.682C127.541 201.827 123.243 203.875 119.024 206.047C116.115 207.554 113.152 208.972 110.224 210.444C105.776 212.66 101.345 214.894 96.8965 217.11C91.8201 219.637 86.7259 222.136 81.6495 224.672C77.5193 226.728 73.3892 228.803 69.2679 230.868C64.7309 233.146 60.1851 235.407 55.6569 237.694C52.1989 239.44 48.7851 241.284 45.2829 242.96C41.1793 244.928 37.1376 247.002 33.0959 249.076C32.3972 249.44 32.1319 249.191 32.1142 248.509C32.0169 245.043 31.9285 241.586 31.8312 238.119C31.9992 238.004 32.1673 237.88 32.353 237.783C41.7365 233.04 51.1288 228.288 60.5211 223.555C63.2893 222.154 66.0752 220.798 68.8433 219.424C70.1611 219.167 71.1782 218.307 72.3456 217.757C76.9091 215.612 81.3665 213.263 85.8592 210.985C89.4764 209.15 93.1378 207.412 96.7639 205.604C100.222 203.866 103.662 202.067 107.12 200.32C111.356 198.175 115.566 195.985 119.856 193.955C123.676 192.147 127.355 190.064 131.185 188.282C135.651 186.208 139.985 183.867 144.38 181.651C150.491 178.575 156.611 175.49 162.855 172.352C160.228 170.57 157.699 168.859 155.17 167.14C144.973 160.181 134.775 153.231 124.587 146.263C118.883 142.363 113.196 138.436 107.483 134.535C98.8334 128.623 90.1662 122.745 81.5345 116.815C79.2174 115.228 76.8295 113.721 74.6539 111.93C75.5382 111.372 76.405 110.769 77.3159 110.255C79.3942 109.085 81.508 107.95 83.604 106.798C83.7897 106.895 83.9843 106.966 84.1523 107.09C93.3412 113.42 102.521 119.749 111.693 126.087C121.633 132.957 131.574 139.836 141.506 146.715C141.966 147.035 142.31 147.212 142.912 146.902C158.566 138.906 174.246 130.936 189.909 122.958C190.201 122.807 190.608 122.745 190.687 122.32C191.041 122.639 191.351 122.382 191.651 122.222C196.073 120.015 200.495 117.808 204.908 115.583C206.315 114.873 207.818 114.341 209.286 113.402C207.641 112.294 206.058 111.248 204.493 110.184C193.721 102.817 182.94 95.4508 172.168 88.0753C166.605 84.2724 161.06 80.4517 155.497 76.6399C146.591 70.5409 137.676 64.4597 128.77 58.3608C120.881 52.9534 113.001 47.537 105.121 42.1384C98.5681 37.644 92.0146 33.1762 85.4612 28.6906C75.1226 21.6255 64.7839 14.5603 54.4365 7.49512C53.8704 7.10507 53.4194 6.48454 52.6411 6.45794C52.6057 6.28065 52.6411 6.16541 52.8269 6.03244C55.3651 4.16198 57.921 2.29153 60.415 0.35902C61.0341 -0.128539 61.4232 -0.101944 62.0511 0.332427C74.8484 9.15281 87.6457 17.9643 100.461 26.7581C122.65 41.9877 144.831 57.2084 167.021 72.4203C184.434 84.361 201.884 96.2397 219.253 108.243C222.508 110.494 225.86 112.604 229.061 114.918C229.663 115.352 229.902 115.733 229.442 116.363Z" fill="#C83C3A"/>
<path d="M181.525 176.42C180.809 179.771 180.031 183.096 179.279 186.438C178.377 190.418 177.475 194.398 176.564 198.378C176.387 199.15 176.157 199.903 175.998 200.683C175.883 201.268 175.37 201.313 174.99 201.508C164.97 206.552 154.949 211.578 144.929 216.613C117.707 230.282 90.4941 243.952 63.2723 257.621C49.7498 264.412 36.2273 271.193 22.7048 277.983C22.4218 278.125 22.1477 278.285 21.8735 278.436C21.847 274.296 21.8293 270.147 21.8116 266.007C21.8558 265.848 21.8381 265.697 21.7054 265.582C21.7054 265.36 21.6966 265.147 21.6966 264.926C21.9177 264.651 21.9266 264.376 21.6966 264.092C21.6701 258.286 21.6435 252.471 21.617 246.664V246.443C21.5728 245.308 21.5286 244.173 21.4843 243.039C21.5109 243.021 21.5463 242.994 21.5463 242.977C21.5374 242.932 21.5109 242.879 21.4932 242.835C21.4932 242.613 21.4932 242.401 21.4843 242.188C21.6524 242.046 21.6524 241.913 21.4843 241.771V241.337C21.4843 241.337 21.5463 241.292 21.5374 241.275C21.5286 241.23 21.502 241.186 21.4755 241.133V240.477C21.6878 240.273 21.6878 240.069 21.4667 239.865C21.449 234.413 21.5816 228.962 21.3782 223.519C21.1306 216.835 21.4136 210.151 21.1306 203.476C21.0775 202.288 21.1571 201.091 21.1837 199.903V199.673C21.1837 199.034 20.9537 198.405 21.0775 197.758C21.2721 197.545 21.2633 197.341 21.0598 197.137C21.0598 196.845 21.051 196.561 21.051 196.269C21.2809 195.994 21.2898 195.719 21.0421 195.444C21.0333 193.068 21.0156 190.702 21.0245 188.326C21.0245 188.016 20.8564 187.351 21.5728 187.821C24.7566 189.921 27.9228 192.04 31.0978 194.15C30.9386 195.497 30.8678 196.854 31.1597 198.201C31.1066 198.432 30.9563 198.689 31.0005 198.893C31.3896 200.488 31.0978 202.11 31.2128 203.715C31.2304 207.314 31.2393 210.913 31.257 214.512C31.2216 215.735 31.0536 216.959 31.372 218.173C31.3896 219.804 31.4073 221.427 31.425 223.058V230.486C31.4339 231.772 31.2393 233.066 31.5665 234.334C31.5577 234.475 31.5577 234.608 31.5577 234.741C31.3454 235.318 31.3189 235.885 31.5842 236.452C31.3808 237.055 31.3631 237.622 31.8318 238.119C31.9291 241.585 32.0176 245.042 32.1148 248.508C32.1325 249.191 32.3979 249.439 33.0965 249.076C37.1382 247.001 41.18 244.927 45.2836 242.959C48.7858 241.284 52.1996 239.44 55.6576 237.693C60.1857 235.406 64.7315 233.146 69.2685 230.868C73.3898 228.802 77.52 226.728 81.6501 224.671C86.7266 222.136 91.8207 219.636 96.8972 217.109C101.346 214.893 105.777 212.659 110.225 210.443C113.152 208.972 116.115 207.553 119.025 206.046C123.243 203.874 127.542 201.827 131.769 199.681C135.316 197.882 138.871 196.091 142.426 194.301C146.928 192.031 151.438 189.788 155.94 187.528C159.911 185.533 163.855 183.486 167.862 181.58C171.205 179.984 174.45 178.202 177.784 176.589C179.102 175.951 180.5 175.392 181.72 174.523C182.109 175.197 181.658 175.809 181.525 176.42Z" fill="#9E3C3F"/>
<path d="M229.441 116.36C228.919 118.701 228.415 121.041 227.876 123.372C227.062 126.883 226.213 130.393 225.382 133.904C224.807 136.368 224.223 138.824 223.675 141.297C223.524 141.953 222.958 142.041 222.516 142.263C213.911 146.598 205.306 150.915 196.7 155.241C188.82 159.195 180.94 163.157 173.069 167.129C172.751 167.288 172.291 167.297 172.194 167.785C171.221 167.66 170.602 166.916 169.877 166.393C164.437 162.413 158.795 158.751 153.214 154.984C152.985 154.833 152.763 154.656 152.533 154.479C152.701 154.018 153.135 153.956 153.453 153.805C157.132 152.094 160.679 150.126 164.349 148.406C167.913 146.722 171.38 144.834 174.9 143.052C177.288 141.846 179.738 140.756 182.09 139.488C186.618 137.042 191.341 134.994 195.843 132.494C198.177 131.2 200.671 130.189 203.077 129.01C204.846 128.133 206.579 127.175 208.339 126.289C210.789 125.039 213.256 123.824 215.715 122.592C217.67 121.617 219.615 120.624 221.57 119.64C223.931 118.461 226.301 117.282 228.663 116.103C229.008 115.935 229.344 115.784 229.441 116.36Z" fill="#9E3C3F"/>
<path d="M48.8288 183.407C48.3601 183.744 47.9179 183.212 47.5376 182.963C42.0632 179.347 36.6064 175.703 31.132 172.095C25.9228 168.656 20.6872 165.261 15.4781 161.821C10.5608 158.586 5.66122 155.323 0.752792 152.07C0.611288 151.972 0.434414 151.937 0.275221 151.866C0.257533 151.777 0.231 151.689 0.204468 151.6C2.35356 149.73 4.52919 147.895 6.62522 145.962C7.19123 145.439 7.50961 145.519 8.0491 145.882C12.4092 148.87 16.7428 151.893 21.1648 154.783C30.1503 160.651 39.0208 166.67 47.9444 172.627C48.0948 172.725 48.2186 172.849 48.3512 172.955C48.3159 173.017 48.254 173.088 48.254 173.141C48.3689 176.084 48.4839 179.019 48.6077 181.962C48.6077 182.05 48.7138 182.13 48.7669 182.219C48.7227 182.635 49.2091 183.141 48.8288 183.407Z" fill="#C83C3A"/>
<path d="M54.6121 97.7039C54.2672 97.9433 54.0461 97.5266 53.7985 97.3759C51.614 96.0374 49.4384 94.6633 47.2627 93.2982C47.1212 93.2095 46.9532 93.1652 46.7675 93.0854C46.4845 93.9985 46.9001 94.9027 46.511 95.7271C45.998 93.3336 46.794 91.6227 48.8989 90.2753C50.482 89.2559 51.8174 87.8552 53.2324 86.5876C53.6216 86.2507 53.9223 86.1532 54.3203 86.4812C54.3822 86.5344 54.4441 86.5787 54.506 86.6319C54.4352 90.0537 54.6298 93.4755 54.7182 96.8972C54.7271 97.1721 54.8509 97.5355 54.6121 97.7039Z" fill="#C83C3A"/>
<path d="M48.7676 182.215C48.7145 182.126 48.6084 182.046 48.6084 181.958C48.4846 179.015 48.3696 176.08 48.2546 173.137C48.2546 173.084 48.3165 173.013 48.3519 172.951H48.573C48.7941 176.036 48.856 179.13 48.7676 182.215Z" fill="#9E3C3F"/>
<path d="M2.34584 251.976C1.96269 249.999 2.17654 248.004 2.16763 246.01C2.49732 247.995 2.32802 249.99 2.34584 251.976Z" fill="#C48163"/>
<path d="M2.39685 260.911C2.38794 259.068 2.37903 257.224 2.37012 255.389C2.61961 257.224 2.70872 259.068 2.39685 260.911Z" fill="#C48163"/>
<path d="M52.8612 18.1755C52.8523 16.4735 52.8345 14.7626 52.8256 13.0605C52.8879 13.0783 52.9414 13.096 52.9949 13.1137C53.0127 14.5498 53.0394 15.9859 53.0394 17.422C53.0394 17.6791 53.182 17.9893 52.8612 18.1755Z" fill="#D9BBAA"/>
<path d="M47.2831 122.113C46.9356 120.482 47.096 118.833 47.1049 117.193C47.3812 118.824 47.3188 120.464 47.2831 122.113Z" fill="#D9BBAA"/>
<path d="M0.302243 162.68C0.293333 161.138 0.284423 159.595 0.275513 158.053C0.489365 159.595 0.614111 161.138 0.302243 162.68Z" fill="#C48163"/>
<path d="M52.9949 13.1146C52.9414 13.0969 52.8879 13.0791 52.8256 13.0614C52.8256 11.5721 52.8256 10.0917 52.8345 8.61133C53.182 10.1006 53.0038 11.6165 52.9949 13.1146Z" fill="#C48163"/>
<path d="M53.4294 37.7307C53.0908 36.2415 53.2779 34.7433 53.2601 33.2363C53.6254 34.7256 53.4294 36.2326 53.4294 37.7307Z" fill="#D9BBAA"/>
<path d="M54.0733 69.3968C53.7436 67.9075 53.8951 66.4005 53.9129 64.9023C53.9575 64.9112 54.011 64.9112 54.0555 64.9201C54.0555 66.4093 54.0644 67.8986 54.0733 69.3968Z" fill="#D9BBAA"/>
<path d="M0.070763 155.917C0.168778 154.481 -0.223282 153.027 0.204422 151.6C0.231153 151.688 0.257886 151.777 0.275707 151.866C0.275707 152.894 0.275702 153.913 0.24897 154.933C0.24006 155.27 0.436094 155.651 0.070763 155.917Z" fill="#D9BBAA"/>
<path d="M1.34485 211.151C1.33594 209.812 1.32703 208.473 1.32703 207.135C1.5587 208.473 1.65672 209.812 1.34485 211.151Z" fill="#C48163"/>
<path d="M48.5643 172.468C48.2257 171.138 48.395 169.782 48.3861 168.426C48.7514 169.764 48.5643 171.121 48.5643 172.468Z" fill="#D9BBAA"/>
<path d="M1.1322 201.161C1.12329 199.823 1.11438 198.484 1.10547 197.154C1.33714 198.484 1.44407 199.823 1.1322 201.161Z" fill="#C48163"/>
<path d="M1.91176 233.695C1.54643 232.365 1.74246 231 1.72464 229.652C1.7692 229.67 1.81374 229.688 1.8583 229.714C1.87612 231.035 1.89394 232.365 1.91176 233.695Z" fill="#D9BBAA"/>
<path d="M53.6507 48.1392C53.3032 46.7918 53.4725 45.4266 53.4993 44.0703C53.5438 44.0792 53.5884 44.0792 53.6329 44.088C53.6329 45.4355 53.6418 46.7829 53.6507 48.1392Z" fill="#D9BBAA"/>
<path d="M54.5075 86.6266C54.4452 86.5734 54.3828 86.5291 54.3204 86.4759C54.3293 85.2437 54.3472 84.0115 54.3561 82.7793C54.6501 84.0558 54.4808 85.3412 54.5075 86.6266Z" fill="#C48163"/>
<path d="M53.7094 58.7762V54.9023C53.7539 54.9112 53.8074 54.9201 53.8519 54.9201C53.7806 56.2055 54.1281 57.5086 53.7094 58.7762Z" fill="#D9BBAA"/>
<path d="M0.496586 175.045C0.487675 173.83 0.478759 172.607 0.469849 171.393C0.754985 172.607 0.826274 173.83 0.496586 175.045Z" fill="#D9BBAA"/>
<path d="M0.709718 181.383C0.709718 180.195 0.700806 178.998 0.700806 177.811C0.914658 178.998 1.02159 180.195 0.709718 181.383Z" fill="#C48163"/>
<path d="M1.55786 223.509C1.54004 222.294 1.53113 221.08 1.52222 219.865C1.7628 221.08 1.87864 222.294 1.55786 223.509Z" fill="#D9BBAA"/>
<path d="M2.07262 239.703C2.02807 239.677 1.98352 239.65 1.93896 239.641C1.94788 238.436 1.94787 237.239 1.95678 236.033C2.25974 237.248 2.135 238.48 2.07262 239.703Z" fill="#C48163"/>
<path d="M1.97461 243.279C1.97461 242.065 1.94788 240.859 1.93896 239.645C1.98352 239.653 2.02807 239.68 2.07262 239.707C2.02807 240.894 2.37558 242.1 1.97461 243.279Z" fill="#D9BBAA"/>
<path d="M53.0736 27.0985C53.0647 25.884 53.0558 24.6695 53.0558 23.4551C53.3231 24.6695 53.4033 25.884 53.0736 27.0985Z" fill="#D9BBAA"/>
<path d="M53.8519 54.9183C53.8074 54.9183 53.7539 54.9095 53.7094 54.9006V51.5586C53.9945 52.6667 53.8608 53.7925 53.8519 54.9183Z" fill="#C48163"/>
<path d="M1.8596 229.714C1.81505 229.688 1.7705 229.67 1.72595 229.652C1.73486 228.517 1.73486 227.383 1.74377 226.248C2.02891 227.4 1.93089 228.553 1.8596 229.714Z" fill="#C48163"/>
<path d="M47.7667 146.987C47.7667 145.844 47.7578 144.7 47.7489 143.557C48.0251 144.7 48.0964 145.844 47.7667 146.987Z" fill="#D9BBAA"/>
<path d="M54.2696 77.2567C53.9043 76.1308 54.1181 74.9784 54.1092 73.8438C54.4389 74.9696 54.2518 76.1131 54.2696 77.2567Z" fill="#D9BBAA"/>
<path d="M54.0557 64.9194C54.0111 64.9105 53.9576 64.9105 53.9131 64.9016C53.922 63.7847 53.922 62.6677 53.922 61.5508C54.1982 62.6677 54.0735 63.7936 54.0557 64.9194Z" fill="#C48163"/>
<path d="M47.9799 154.854C47.971 153.711 47.9709 152.567 47.962 151.424C48.2204 152.567 48.3006 153.711 47.9799 154.854Z" fill="#D9BBAA"/>
<path d="M53.6328 44.0849C53.5883 44.076 53.5437 44.076 53.4991 44.0672V41.3457C53.8021 42.2499 53.6417 43.1718 53.6328 44.0849Z" fill="#C48163"/>
<path d="M172.425 167.979V167.997L172.407 167.979C172.335 167.917 172.264 167.855 172.193 167.793C172.318 167.793 172.407 167.846 172.425 167.979Z" fill="#9E3C3F"/>
<path d="M54.4089 81.8496C54.4089 81.8496 54.3643 81.8762 54.3465 81.8939C54.302 81.8408 54.302 81.7876 54.3376 81.7344C54.3643 81.7698 54.3911 81.8053 54.4089 81.8496Z" fill="#C48163"/>
<path d="M53.5695 40.8311C53.5695 40.8311 53.525 40.8577 53.5072 40.8755C53.4626 40.8223 53.4626 40.7602 53.4982 40.707C53.525 40.7514 53.5517 40.7868 53.5695 40.8311Z" fill="#C48163"/>
<path d="M172.628 168.213C172.557 168.142 172.485 168.071 172.423 168L172.405 167.982H172.423C172.557 167.991 172.592 168.107 172.628 168.213Z" fill="#9E3C3F"/>
<path d="M144.378 181.652C139.982 183.869 135.649 186.209 131.183 188.283C127.353 190.065 123.674 192.148 119.853 193.957C115.564 195.987 111.354 198.176 107.118 200.322C103.66 202.068 100.22 203.867 96.7617 205.605C93.1356 207.413 89.4742 209.151 85.857 210.986C81.3643 213.264 76.9069 215.613 72.3434 217.758C71.1759 218.308 70.1589 219.168 68.8411 219.425C68.7969 219.301 68.7438 219.177 68.6996 219.044L68.735 219.008C69.0357 218.991 69.1418 218.813 69.133 218.521C69.1153 217.484 69.1065 216.455 69.0888 215.427V215.188C69.0799 214.913 69.0799 214.638 69.0711 214.363C69.0445 214.292 69.0092 214.213 68.9826 214.142C68.9826 213.92 68.9738 213.707 68.9738 213.494C69.1418 213.353 69.1418 213.22 68.965 213.078V212.643C69.1418 212.502 69.1418 212.369 68.965 212.236C68.9473 208.353 69.0357 204.461 68.8765 200.579C68.6731 195.464 68.7792 190.349 68.6908 185.234V185.012C68.6908 184.241 68.6731 183.47 68.6643 182.69C68.6289 182.619 68.5935 182.548 68.5581 182.468C68.5581 182.184 68.5493 181.892 68.5404 181.608C68.567 181.59 68.6023 181.564 68.6023 181.555C68.5935 181.502 68.567 181.457 68.5493 181.404V180.97C68.7527 180.757 68.7438 180.553 68.5316 180.349C68.4431 171.068 68.3459 161.787 68.2574 152.496V152.275C67.9567 147.045 68.1513 141.797 68.0452 136.558C68.0452 136.487 68.0452 136.416 68.054 136.336C68.001 135.272 67.9567 134.209 67.9125 133.145C68.0805 133.003 68.0806 132.87 67.9037 132.737C67.8948 131.957 67.8771 131.186 67.886 130.406C67.886 130.14 67.7445 129.794 68.0363 129.625C68.3282 129.466 68.5493 129.767 68.7704 129.909C71.0875 131.514 73.4046 133.118 75.7129 134.723C76.3232 135.148 76.9776 135.503 77.4729 136.061C77.296 137.79 77.5171 139.518 77.4729 141.247C77.7117 142.719 77.579 144.208 77.6498 145.688C77.6498 147.311 77.6586 148.933 77.6586 150.555C77.6498 151.344 77.4729 152.151 77.7824 152.922C77.7913 153.206 77.7913 153.48 77.7913 153.764C77.7647 153.791 77.7205 153.817 77.7205 153.826C77.7382 153.879 77.7736 153.932 77.8001 153.986C77.8266 155.821 77.8443 157.656 77.8709 159.5C77.8797 160.634 77.7117 161.787 78.0389 162.921C77.8266 163.223 77.8178 163.56 77.8355 163.914C77.9151 165.208 77.9858 166.503 78.0654 167.788C78.0654 169.135 78.0654 170.483 78.0566 171.83C78.0654 173.045 78.0743 174.259 78.0743 175.474C78.2512 176.866 78.2954 178.266 78.2777 179.667C78.3396 179.977 78.4457 180.287 78.4634 180.598C78.6138 183.647 78.7641 186.705 78.8879 189.755C78.941 191.173 78.9145 191.173 80.2145 190.526C86.7414 187.255 93.2594 183.975 99.7863 180.722C103.89 178.674 108.011 176.662 112.106 174.614C115.918 172.699 119.712 170.749 123.515 168.816C123.886 168.621 124.258 168.4 124.7 168.409C130.148 171.963 135.472 175.704 140.831 179.401C141.981 180.199 143.051 181.121 144.378 181.652Z" fill="#9E3C3F"/>
<path d="M83.6024 106.796C81.5064 107.948 79.3927 109.083 77.3143 110.253C76.4034 110.767 75.5367 111.37 74.6523 111.928C73.9536 111.751 74.2543 111.175 74.2366 110.785C74.1216 106.831 74.0244 102.877 73.9271 98.9238C73.8121 94.2609 73.7414 89.5892 73.5645 84.9352C73.3699 79.5632 73.2726 74.2001 73.1223 68.8281C72.9808 64.0234 72.8923 59.2187 72.6978 54.4229C72.5386 50.5402 72.6801 46.6486 72.3352 42.7658C72.3086 42.4733 72.1671 42.0566 72.459 41.8794C72.7862 41.6666 73.025 42.0655 73.2638 42.2339C76.3592 44.326 79.4457 46.4447 82.5323 48.5633C82.5146 49.4144 82.3466 50.2742 82.6561 51.1075C82.665 51.2494 82.665 51.3823 82.665 51.5242C82.6208 51.6749 82.5765 51.8256 82.5323 51.9763C82.9038 53.0046 82.6207 54.0861 82.7269 55.1321C82.7269 56.1249 82.718 57.1267 82.718 58.1195C82.7534 59.7506 82.5323 61.3817 82.8861 63.004C82.9038 64.5553 82.9303 66.1155 82.948 67.6668C82.9568 69.289 82.9568 70.9113 82.9657 72.5424C82.9391 72.9856 82.7976 73.4377 83.0718 73.8544C83.0718 73.9873 83.0806 74.1292 83.0806 74.2621C82.8507 74.6256 82.8595 74.9802 83.0983 75.3348C83.0983 75.4766 83.0895 75.6096 83.0895 75.7514C83.0629 75.778 83.0187 75.8046 83.0187 75.8135C83.0364 75.8755 83.0718 75.9198 83.0983 75.973C83.116 77.3116 83.1337 78.659 83.1602 79.9976C83.1337 81.9213 83.0099 83.8449 83.3283 85.7597C82.8153 86.8855 83.1337 88.0822 83.2221 89.1992C83.3194 90.3161 83.2664 91.4331 83.3636 92.5412C83.3725 94.0216 83.3725 95.5109 83.3813 96.9913C83.3725 97.8511 83.1956 98.7199 83.514 99.5709V99.9875C83.3106 100.2 83.3194 100.413 83.5228 100.626C83.5494 102.682 83.5759 104.739 83.6024 106.796Z" fill="#9E3C3F"/>
<path d="M124.701 168.404C124.259 168.395 123.887 168.617 123.516 168.812C119.713 170.744 115.919 172.695 112.107 174.609C108.012 176.657 103.891 178.669 99.7876 180.717C93.2607 183.971 86.7426 187.25 80.2158 190.522C78.9157 191.169 78.9422 191.169 78.8892 189.75C78.7654 186.701 78.615 183.643 78.4647 180.593C78.447 180.283 78.3408 179.973 78.2789 179.662C82.4091 177.588 86.5392 175.522 90.6605 173.43C98.116 169.654 105.563 165.86 113 162.066C113.452 161.835 114.018 161.747 114.274 161.215C117.042 163.094 119.819 164.965 122.579 166.853C123.304 167.349 123.994 167.881 124.701 168.404Z" fill="#C83C3A"/>
<path d="M51.3583 207.524C51.3141 207.569 51.2699 207.613 51.2345 207.657C47.688 205.335 44.1327 203.012 40.5863 200.69C40.6305 200.637 40.6747 200.583 40.719 200.539C41.7891 201.009 42.7177 201.691 43.6905 202.33C45.9723 203.837 48.2629 205.344 50.5535 206.851C50.8542 207.046 51.1549 207.223 51.3583 207.524Z" fill="#C48163"/>
<path d="M35.2184 196.925C35.1742 196.978 35.1211 197.023 35.0769 197.076C33.821 196.269 32.5652 195.471 31.159 194.576V198.202C30.8671 196.854 30.9379 195.498 31.0971 194.15C32.5563 194.948 33.936 195.87 35.2184 196.925Z" fill="#C48163"/>
<path d="M40.7174 200.539C40.6732 200.583 40.629 200.636 40.5848 200.689C38.7541 199.484 36.9145 198.278 35.075 197.073C35.1192 197.019 35.1722 196.975 35.2165 196.922C37.1533 197.959 39.0017 199.156 40.7174 200.539Z" fill="#C48163"/>
<path d="M56.8667 211.133C56.8224 211.178 56.7782 211.231 56.7428 211.275C54.8502 210.14 53.0107 208.944 51.233 207.658C51.2684 207.614 51.3126 207.57 51.3568 207.525C53.276 208.607 55.1775 209.706 56.8667 211.133Z" fill="#C48163"/>
<path d="M62.3773 214.754C62.3331 214.798 62.2888 214.851 62.2446 214.895C60.3609 213.77 58.5301 212.555 56.7437 211.279C56.779 211.234 56.8232 211.181 56.8675 211.137C58.7778 212.236 60.6881 213.326 62.3773 214.754Z" fill="#C48163"/>
<path d="M67.8874 218.366C67.8431 218.41 67.7989 218.455 67.7547 218.508C66.0832 217.524 64.4647 216.451 62.8905 215.308C62.9259 215.263 62.9701 215.228 63.0055 215.184C64.7212 216.097 66.4016 217.09 67.8874 218.366Z" fill="#C48163"/>
<path d="M77.6252 137.386C77.519 138.672 77.8905 139.975 77.4748 141.243C77.519 139.514 77.2979 137.785 77.4748 136.057C77.6075 136.145 77.7401 136.234 77.8728 136.323C77.4306 136.597 77.6605 137.023 77.6252 137.386Z" fill="#D9BBAA"/>
<path d="M82.6576 51.1047C82.348 50.2714 82.5161 49.4116 82.5338 48.5605C82.6753 48.6669 82.8256 48.7733 82.9671 48.8797C82.3303 49.5445 82.9317 50.3867 82.6576 51.1047Z" fill="#C48163"/>
<path d="M68.5235 218.99C68.267 218.83 68.0105 218.671 67.754 218.511C67.7982 218.458 67.8425 218.413 67.8867 218.369C68.152 218.405 68.3466 218.546 68.5058 218.75C68.5146 218.83 68.5146 218.91 68.5235 218.99Z" fill="#C48163"/>
<path d="M63.0069 215.186C63.0069 215.186 62.9273 215.266 62.892 215.31C62.6797 215.169 62.4586 215.036 62.2463 214.894C62.2906 214.849 62.3348 214.796 62.379 214.752C62.6532 214.796 62.8654 214.938 63.0069 215.186Z" fill="#C48163"/>
<path d="M21.0396 195.445C21.2801 195.72 21.2801 195.995 21.0396 196.27C21.0396 195.995 21.0396 195.72 21.0396 195.445Z" fill="#C83C3A"/>
<path d="M21.6952 264.1C21.9269 264.374 21.918 264.649 21.6952 264.924C21.6952 264.649 21.6952 264.374 21.6952 264.1Z" fill="#C83C3A"/>
<path d="M68.5345 180.344C68.7484 180.548 68.7573 180.752 68.5524 180.955C68.5524 180.752 68.5435 180.548 68.5345 180.344Z" fill="#C83C3A"/>
<path d="M21.0575 197.135C21.2624 197.339 21.2714 197.543 21.0753 197.755C21.0753 197.551 21.0664 197.339 21.0575 197.135Z" fill="#C83C3A"/>
<path d="M21.465 239.863C21.6877 240.067 21.6877 240.271 21.465 240.475C21.465 240.271 21.465 240.067 21.465 239.863Z" fill="#C83C3A"/>
<path d="M67.9048 132.734C68.0741 132.867 68.0741 133.009 67.9048 133.142C67.9048 133.009 67.9048 132.867 67.9048 132.734Z" fill="#C83C3A"/>
<path d="M21.4829 241.777C21.6522 241.91 21.6522 242.052 21.4829 242.185C21.4829 242.052 21.4829 241.91 21.4829 241.777Z" fill="#C83C3A"/>
<path d="M68.965 213.086C69.1343 213.219 69.1343 213.352 68.965 213.494C68.965 213.361 68.965 213.219 68.965 213.086Z" fill="#C83C3A"/>
<path d="M68.9563 212.234C69.1345 212.367 69.1345 212.5 68.9563 212.642C68.9563 212.509 68.9563 212.367 68.9563 212.234Z" fill="#C83C3A"/>
<path d="M21.7031 265.584C21.8368 265.708 21.8546 265.85 21.8011 266.009C21.6675 265.885 21.6496 265.744 21.7031 265.584Z" fill="#C83C3A"/>
<path d="M68.739 219.005L68.7034 219.041C68.6321 219.058 68.5697 219.032 68.5251 218.987C68.5251 218.908 68.5251 218.828 68.5073 218.748C68.5875 218.837 68.6588 218.916 68.739 219.005Z" fill="#9E3C3F"/>
<path d="M68.5506 181.413C68.5684 181.457 68.5951 181.511 68.604 181.555C68.604 181.573 68.5684 181.59 68.5417 181.608C68.5149 181.537 68.5149 181.475 68.5417 181.404L68.5506 181.413Z" fill="#C83C3A"/>
<path d="M68.5604 182.467C68.5961 182.538 68.6317 182.617 68.6584 182.688C68.6228 182.617 68.5872 182.538 68.5604 182.467Z" fill="#C83C3A"/>
<path d="M68.6847 185.008C68.6847 185.079 68.6847 185.15 68.6847 185.221C68.6579 185.167 68.6312 185.123 68.6134 185.07C68.6134 185.052 68.6579 185.026 68.6758 185.008H68.6847Z" fill="#C83C3A"/>
<path d="M68.2512 152.273C68.2512 152.344 68.2512 152.424 68.2512 152.495C68.2245 152.442 68.1978 152.389 68.1888 152.335C68.1888 152.318 68.2334 152.291 68.2512 152.273Z" fill="#C83C3A"/>
<path d="M68.0475 136.334C68.0475 136.405 68.0475 136.485 68.0386 136.556C68.0207 136.502 67.994 136.449 67.9851 136.396C67.9851 136.378 68.0297 136.352 68.0475 136.334Z" fill="#C83C3A"/>
<path d="M68.9836 214.137C69.0104 214.217 69.046 214.287 69.0727 214.367C69.0371 214.287 69.0104 214.217 68.9836 214.137Z" fill="#C83C3A"/>
<path d="M21.4732 241.141C21.4999 241.185 21.5266 241.229 21.5355 241.282C21.5355 241.3 21.4999 241.318 21.4821 241.345C21.4554 241.282 21.4554 241.212 21.4821 241.149L21.4732 241.141Z" fill="#C83C3A"/>
<path d="M21.4908 242.836C21.5086 242.88 21.5353 242.933 21.5442 242.978C21.5442 242.996 21.5086 243.013 21.4908 243.04C21.464 242.969 21.464 242.907 21.4908 242.836Z" fill="#C83C3A"/>
<path d="M21.6162 246.441C21.6162 246.512 21.6162 246.592 21.6162 246.663C21.5984 246.61 21.5627 246.557 21.5538 246.503C21.5538 246.486 21.5984 246.459 21.6162 246.441Z" fill="#C83C3A"/>
<path d="M69.0905 215.184C69.0905 215.263 69.0905 215.343 69.0905 215.414C69.0637 215.361 69.037 215.308 69.0281 215.254C69.0281 215.237 69.0637 215.21 69.0905 215.184Z" fill="#C83C3A"/>
<path d="M21.1815 199.67C21.1815 199.75 21.1815 199.821 21.1815 199.9C21.1548 199.847 21.1281 199.794 21.1191 199.741C21.1191 199.723 21.1548 199.697 21.1815 199.67Z" fill="#C83C3A"/>
<path d="M31.3614 205.796C31.3971 208.721 31.3882 211.638 31.3971 214.563C31.3436 214.546 31.2991 214.528 31.2545 214.51C31.2367 210.911 31.2278 207.312 31.21 203.713C31.5218 204.387 31.3614 205.105 31.3614 205.796Z" fill="#D9BBAA"/>
<path d="M31.5923 227.035C31.6368 228.196 31.5834 229.357 31.5745 230.519C31.521 230.51 31.4764 230.501 31.423 230.483V223.055C31.7616 224.367 31.5477 225.714 31.5923 227.035Z" fill="#D9BBAA"/>
<path d="M31.5741 230.52C31.5741 231.796 31.5652 233.064 31.5652 234.332C31.2355 233.064 31.4315 231.77 31.4226 230.484C31.4761 230.502 31.5206 230.511 31.5741 230.52Z" fill="#C48163"/>
<path d="M31.3996 214.563C31.3907 215.769 31.3818 216.965 31.3728 218.171C31.0521 216.956 31.2214 215.733 31.257 214.51C31.3016 214.527 31.3461 214.545 31.3996 214.563Z" fill="#C48163"/>
<path d="M31.5845 236.449C31.3172 235.882 31.344 235.314 31.5578 234.738C31.6826 235.306 31.6469 235.882 31.5845 236.449Z" fill="#C48163"/>
<path d="M83.3293 85.7582C83.0085 83.8434 83.1333 81.9197 83.16 79.9961C83.4986 81.9109 83.3382 83.8345 83.3293 85.7582Z" fill="#D9BBAA"/>
<path d="M82.7183 58.1172C82.7629 58.1349 82.8074 58.1438 82.852 58.1526C82.8609 59.766 82.8787 61.3883 82.8876 63.0016C82.5312 61.3794 82.754 59.7483 82.7183 58.1172Z" fill="#C48163"/>
<path d="M83.1091 72.5879C83.0646 72.5702 83.0111 72.5524 82.9666 72.5436C82.9576 70.9125 82.9576 69.2902 82.9487 67.668C83.2784 69.2991 83.1269 70.9479 83.1091 72.5879Z" fill="#D9BBAA"/>
<path d="M83.5251 97.0374C83.5251 97.0374 83.4271 97.0108 83.3826 96.9931C83.3737 95.5127 83.3737 94.0234 83.3647 92.543C83.6944 94.0322 83.5608 95.5392 83.5251 97.0374Z" fill="#D9BBAA"/>
<path d="M82.8514 58.1557C82.8514 58.1557 82.7623 58.138 82.7178 58.1202C82.7178 57.1274 82.7267 56.1257 82.7267 55.1328C83.0207 56.1257 82.9138 57.1451 82.8514 58.1557Z" fill="#D9BBAA"/>
<path d="M83.526 97.0365C83.526 97.8787 83.526 98.7208 83.5171 99.5718C83.1963 98.7208 83.3745 97.8521 83.3834 96.9922C83.428 97.0099 83.4814 97.0188 83.526 97.0365Z" fill="#C48163"/>
<path d="M83.1102 72.5873C83.1013 73.0128 83.0835 73.4294 83.0746 73.8549C82.7983 73.4383 82.9409 72.9862 82.9676 72.543C83.0122 72.5518 83.0657 72.5696 83.1102 72.5873Z" fill="#C48163"/>
<path d="M83.099 75.3363C82.8584 74.9817 82.8495 74.6271 83.0812 74.2637C83.0812 74.6183 83.0901 74.9817 83.099 75.3363Z" fill="#C48163"/>
<path d="M83.5259 100.627C83.321 100.414 83.3121 100.201 83.517 99.9883C83.517 100.201 83.5259 100.414 83.5259 100.627Z" fill="#C48163"/>
<path d="M82.5312 51.9736C82.5758 51.8229 82.6204 51.6722 82.6649 51.5215C82.7273 51.7076 82.7629 51.8761 82.5312 51.9736Z" fill="#C48163"/>
<path d="M83.0992 75.9736C83.0725 75.9204 83.0369 75.8761 83.019 75.814C83.019 75.814 83.0636 75.7785 83.0903 75.752C83.0903 75.8229 83.0992 75.9027 83.0992 75.9736Z" fill="#C48163"/>
<path d="M77.8109 150.595C77.7574 150.577 77.704 150.559 77.6594 150.55C77.6594 148.928 77.6505 147.306 77.6505 145.684C77.9624 147.306 77.8198 148.955 77.8109 150.595Z" fill="#D9BBAA"/>
<path d="M78.2095 171.865C78.156 171.856 78.1114 171.838 78.058 171.829C78.0669 170.482 78.0669 169.135 78.0669 167.787C78.352 169.143 78.254 170.5 78.2095 171.865Z" fill="#D9BBAA"/>
<path d="M78.0758 175.472C78.0758 174.257 78.0669 173.043 78.058 171.828C78.1114 171.837 78.156 171.855 78.2095 171.864C78.1471 173.06 78.4857 174.284 78.0758 175.472Z" fill="#C48163"/>
<path d="M78.0405 162.916C77.7108 161.781 77.8801 160.629 77.8712 159.494C78.2365 160.62 78.0316 161.772 78.0405 162.916Z" fill="#D9BBAA"/>
<path d="M77.8133 150.597C77.8133 151.368 77.7955 152.148 77.7866 152.92C77.4747 152.148 77.653 151.342 77.6619 150.553C77.7064 150.562 77.7599 150.579 77.8133 150.597Z" fill="#C48163"/>
<path d="M77.801 153.985C77.7743 153.932 77.7386 153.879 77.7208 153.826C77.7208 153.826 77.7654 153.79 77.7921 153.764C77.7921 153.835 77.801 153.914 77.801 153.985Z" fill="#C48163"/>
</svg>
