<svg width="283" height="240" viewBox="0 0 283 240" fill="none" xmlns="http://www.w3.org/2000/svg">
<path d="M282.334 120.489C282.334 120.997 282.384 121.505 282.087 121.964C277.302 125.461 272.527 128.968 267.722 132.436C238.884 153.333 210.027 174.219 181.179 195.095C180.872 195.31 180.635 195.799 180.121 195.496C180.141 195.066 180.19 194.636 180.18 194.216C180.032 189.38 179.834 184.555 179.735 179.719C179.626 174.502 179.458 169.276 179.271 164.059C179.033 157.748 178.915 151.428 178.747 145.117C178.658 141.805 178.658 138.484 178.45 135.182C178.371 134.019 178.361 132.817 178.153 131.43C174.891 133.843 171.777 136.139 168.663 138.435C154.713 148.634 140.764 158.823 126.814 169.031C116.997 176.221 107.18 183.431 97.3633 190.621C97.2347 190.719 97.0864 190.768 96.948 190.846C96.7009 190.641 96.7602 190.348 96.7404 190.084C96.5723 187.173 96.4142 184.261 96.256 181.35C96.2263 180.862 96.3153 180.285 95.5244 180.872C92.3707 183.197 89.2071 185.502 86.0435 187.817C79.7262 192.35 73.409 196.883 67.1015 201.436C53.1521 211.517 39.2125 221.599 25.2631 231.681C21.5162 234.387 17.7693 237.073 14.0225 239.779H13.7456C13.6863 238.333 13.6072 236.897 13.5776 235.451C13.4491 228.75 13.6072 222.038 13.3601 215.327C13.1228 208.86 13.3601 202.383 13.1327 195.906C12.8855 189.117 13.1228 182.327 12.8855 175.538C12.6582 169.071 12.8658 162.594 12.6582 156.117C12.4308 149.063 12.6384 142 12.4011 134.937C12.1935 128.812 12.3912 122.687 12.1836 116.562C11.9464 109.626 12.1638 102.68 11.9266 95.734C11.719 89.5013 11.9167 83.2589 11.7091 77.0164C11.4718 70.0413 11.6794 63.0466 11.4619 56.0715C11.2939 50.6497 11.3927 45.2181 11.3532 39.7962C11.3532 39.2882 11.2741 38.7802 11.2741 38.282C11.2642 35.7616 11.2642 33.2412 11.2642 30.623C11.5608 30.75 11.8178 30.8477 12.0452 30.9747C17.5222 33.925 22.9991 36.8655 28.4563 39.8451C29.4351 40.3824 30.6016 40.6754 31.3431 41.6035C31.3431 41.7012 31.353 41.7989 31.353 41.8966C31.4222 46.7713 31.4914 51.6461 31.5507 56.5209C31.9462 84.8415 32.3317 113.162 32.7272 141.492C32.9348 156.234 33.1424 170.975 33.35 185.727C33.3105 185.864 33.2808 186 33.2413 186.137C33.2413 187.622 33.0139 189.117 33.3896 190.592C33.4093 193.278 33.4192 195.975 33.4588 198.661C33.4588 198.993 33.261 199.452 33.6466 199.609C33.9827 199.755 34.2793 199.374 34.5462 199.179C53.9133 184.965 73.2705 170.751 92.608 156.507C93.8536 155.589 95.297 154.886 96.2263 153.587C96.2362 149.259 96.2461 144.931 96.0879 140.603C95.8605 134.175 96.0879 127.747 95.8507 121.309C95.6134 115.087 95.7716 108.844 95.6233 102.602C95.386 92.4711 95.4058 82.3308 95.2871 72.2003C95.2674 69.9045 95.1982 67.599 95.1586 65.3033C94.9708 55.6807 94.9312 46.0484 94.8225 36.4161C94.8126 35.5271 95.0301 35.4294 95.821 35.8495C101.565 38.9463 107.348 41.9845 113.092 45.0715C113.913 45.5111 114.852 45.7847 115.465 46.5564V61.2882C115.455 62.568 115.406 63.8477 115.455 65.1275C115.504 66.4365 115.257 67.7553 115.643 69.0449C115.673 70.2074 115.702 71.3797 115.732 72.5422C115.732 77.1337 115.534 81.7251 115.989 86.3068C115.831 90.9178 115.93 95.5386 115.999 100.15V105.542C115.939 105.865 115.85 106.167 116.088 106.46C116.088 106.724 116.088 106.978 116.088 107.232C115.732 108.873 115.969 110.534 115.949 112.185C115.949 113.25 115.712 114.334 116.117 115.389C116.147 117.177 116.167 118.975 116.187 120.772C116.196 122.492 116.206 124.201 116.216 125.911C116.196 128.441 116.167 130.971 116.177 133.492C116.177 134.097 115.989 134.732 116.355 135.309C116.374 135.377 116.394 135.445 116.414 135.523V148.526C143.581 129.183 170.541 109.997 197.6 90.742C197.916 96.242 197.916 101.537 198.124 106.822C198.301 111.247 198.44 115.682 198.588 120.118C198.895 128.988 199.122 137.858 199.359 146.729C199.428 149.132 199.715 151.515 199.587 153.88C200.022 154.007 200.17 153.782 200.348 153.655C218.657 140.73 236.966 127.796 255.276 114.872C259.764 111.697 264.252 108.532 268.741 105.357C273.229 102.182 277.717 99.0164 282.206 95.8415L282.216 95.8512C282.255 95.8805 282.285 95.9196 282.305 95.9685C282.315 99.3388 282.324 102.719 282.334 106.089C282.334 110.886 282.324 115.692 282.324 120.489H282.334Z" fill="#055F63"/>
<path d="M282.215 95.8418C277.727 99.0168 273.239 102.182 268.75 105.357C264.262 108.532 259.774 111.697 255.285 114.872C236.976 127.796 218.667 140.731 200.358 153.655C200.18 153.782 200.031 154.007 199.596 153.88C199.725 151.516 199.438 149.132 199.369 146.729C199.132 137.859 198.904 128.988 198.598 120.118C198.45 115.683 198.311 111.248 198.133 106.822C197.926 101.537 197.926 96.2423 197.609 90.7423C170.551 109.997 143.591 129.184 116.424 148.526V135.524C116.75 135.319 117.096 135.133 117.412 134.908C124.669 129.682 131.925 124.465 139.172 119.239C144.698 115.243 150.215 111.238 155.731 107.233C159.211 104.761 162.543 102.114 166.023 99.3684C149.107 90.3418 132.42 81.4422 115.732 72.5425C115.702 71.38 115.672 70.2077 115.643 69.0452C115.652 67.6873 115.712 66.3294 115.662 64.9715C115.613 63.7503 115.88 62.4999 115.465 61.2885V46.5567C116.532 47.1234 117.61 47.69 118.688 48.2663C122.919 50.5132 127.16 52.7504 131.391 55.007C138.766 58.9635 146.132 62.9297 153.507 66.8765C157.807 69.1722 162.118 71.4289 166.418 73.7246C174.11 77.8276 181.801 81.9404 189.493 86.0629C192.399 87.6162 195.286 89.1988 198.183 90.7716C197.827 90.9866 197.965 91.3285 197.955 91.6216C197.935 93.1358 198.084 94.65 198.123 96.1642C198.252 101.137 198.44 106.109 198.608 111.091C198.766 116.103 198.875 121.124 199.082 126.136C199.27 130.493 199.28 134.86 199.379 139.217C199.379 139.588 199.191 140.086 199.596 140.301C200.002 140.526 200.288 140.076 200.585 139.861C206.645 135.582 212.715 131.304 218.766 127.005C225.518 122.209 232.26 117.392 239.003 112.586C242.156 110.212 245.29 107.799 248.484 105.474C249.265 104.898 248.988 104.693 248.385 104.38C243.432 101.733 238.479 99.0851 233.516 96.4377C229.393 94.2397 225.261 92.0514 221.138 89.8436C213.931 85.9848 206.744 82.1065 199.537 78.2477C195.523 76.0985 191.49 73.9688 187.476 71.8098C180.279 67.9511 173.082 64.0727 165.884 60.2139C161.861 58.0647 157.837 55.9351 153.813 53.7761C146.616 49.9173 139.419 46.039 132.222 42.1802C128.208 40.031 124.174 37.9013 120.151 35.7424C113.161 31.991 106.181 28.2202 99.1919 24.4689C94.6641 22.0363 90.1362 19.6136 85.6083 17.2006C85.4106 17.0932 85.1535 17.0834 84.936 17.0346C84.9163 16.9271 84.8965 16.8197 84.8767 16.7122C87.8722 15.2371 91.0358 14.1429 94.1203 12.8827C99.9038 10.5186 105.717 8.22286 111.5 5.86851C112.311 5.53636 112.934 5.57543 113.705 5.9955C133.22 16.4289 152.746 26.8427 172.261 37.2566C197.708 50.8454 223.155 64.4342 248.602 78.0132C259.279 83.7184 269.957 89.4235 280.634 95.1189C280.891 95.2557 281.158 95.3827 281.425 95.4999C281.682 95.6073 281.948 95.7246 282.215 95.8418Z" fill="#63BB91"/>
<path d="M248.483 105.471C245.29 107.796 242.156 110.209 239.002 112.583C233.782 109.779 228.552 106.956 223.322 104.162C214.949 99.6878 206.565 95.2331 198.182 90.7686C195.285 89.1958 192.398 87.6132 189.492 86.0599C181.8 81.9373 174.109 77.8246 166.417 73.7215C162.117 71.4258 157.807 69.1691 153.506 66.8734C146.131 62.9267 138.766 58.9604 131.391 55.004C127.159 52.7473 122.918 50.5102 118.687 48.2633C117.609 47.6869 116.532 47.1203 115.464 46.5537C114.851 45.7819 113.912 45.5084 113.091 45.0688C107.347 41.9818 101.564 38.9436 95.82 35.8468C95.0291 35.4267 94.8116 35.5244 94.8215 36.4134C94.9302 46.0457 94.9698 55.678 95.1576 65.3006C95.1972 67.5963 95.2664 69.9018 95.2861 72.1975C95.4048 82.3281 95.385 92.4684 95.6223 102.599C95.7706 108.841 95.6124 115.084 95.8497 121.307C96.0869 127.745 95.8595 134.173 96.0869 140.601C96.2451 144.928 96.2352 149.256 96.2253 153.584C92.8344 152.089 89.5027 150.487 86.2007 148.826C86.0425 148.738 85.9437 148.543 85.8151 148.406C85.7954 144.303 85.7756 140.2 85.7459 136.087C85.7459 135.745 85.8151 135.394 85.5976 135.071C85.5878 131.32 85.5878 127.559 85.5779 123.798C85.5581 117.595 85.5383 111.391 85.5087 105.188C85.5087 105.002 85.4098 104.817 85.3604 104.631C85.3505 100.958 85.3505 97.2748 85.3406 93.5919C85.3406 90.7491 85.3505 87.916 85.3208 85.0732C85.3208 84.4675 85.4889 83.8325 85.1528 83.2464C85.1429 79.2704 85.0836 75.2943 85.1528 71.3281C85.1627 70.2633 84.7969 69.765 83.8774 69.2864C66.5074 60.162 49.1472 50.9986 31.787 41.845C31.6387 41.7668 31.4904 41.6887 31.3421 41.6008C30.6006 40.6727 29.4341 40.3796 28.4553 39.8423C22.9981 36.8628 17.5212 33.9223 12.0442 30.972C11.8168 30.845 11.5598 30.7473 11.2632 30.6203C11.2632 33.2384 11.2632 35.7589 11.2731 38.2793C11.2731 38.7775 11.3522 39.2855 11.3522 39.7935C11.3917 45.2153 11.2929 50.6469 11.4609 56.0688C11.6784 63.0439 11.4708 70.0386 11.7081 77.0137C11.9157 83.2562 11.718 89.4986 11.9256 95.7313C12.1628 102.677 11.9453 109.623 12.1826 116.559C12.3902 122.684 12.1925 128.809 12.4001 134.935C12.6374 141.998 12.4298 149.061 12.6572 156.114C12.8648 162.591 12.6572 169.068 12.8845 175.535C13.1218 182.324 12.8845 189.114 13.1317 195.904C13.3591 202.38 13.1218 208.857 13.3591 215.324C13.6062 222.036 13.448 228.747 13.5766 235.449C13.6062 236.895 13.6853 238.331 13.7446 239.776C13.7446 239.855 13.7249 239.923 13.6952 239.991C10.0274 239.063 6.49804 237.696 2.87969 236.621C2.30629 236.445 2.39526 235.996 2.39526 235.576C2.39526 233.475 2.39526 231.375 2.38538 229.284C2.38538 227.858 1.97016 226.442 2.18766 225.006C2.53367 224.693 2.3755 224.283 2.3755 223.911C2.39527 222.485 2.37549 221.059 2.36561 219.633C2.28652 217.532 2.5831 215.412 2.20742 213.322C2.18765 210.958 2.16788 208.594 2.13822 206.229C2.14811 204.5 2.14811 202.761 2.158 201.032C2.158 199.362 2.18765 197.691 2.13822 196.031C2.09868 194.839 2.33595 193.637 1.97016 192.465C1.95038 189.563 1.92073 186.662 1.90095 183.761C1.90095 181.66 1.90095 179.56 1.90095 177.459C1.90095 176.111 1.9405 174.763 1.90095 173.415C1.85152 172.038 2.10857 170.65 1.73289 169.293C1.71312 167.3 1.64391 165.316 1.69334 163.333C1.74278 161.546 1.15949 159.787 1.53516 157.999C1.85152 155.499 1.62414 152.988 1.6538 150.477C1.67357 149.725 1.85153 148.934 1.49562 148.201C1.47585 145.593 1.41653 142.994 1.45608 140.386C1.48574 138.686 0.961766 137.006 1.27813 135.296C1.64392 132.952 1.37699 130.597 1.41653 128.243C1.42642 127.403 1.61425 126.543 1.25835 125.722C1.23858 123.544 1.16937 121.375 1.2188 119.197C1.26823 117.38 0.724492 115.582 1.04085 113.755C1.30778 113.413 1.19903 113.013 1.19903 112.632C1.20892 110.297 1.2188 107.972 1.17926 105.647C1.17926 105.002 1.37699 104.328 1.02108 103.713C1.00131 101.612 0.932107 99.5119 0.991424 97.4116C1.03097 95.7508 0.467454 94.1096 0.813472 92.4391C1.16938 89.7038 0.892559 86.9586 0.94199 84.2135C0.961762 83.6078 1.12983 82.9729 0.783815 82.3965C0.764042 79.8663 0.714608 77.3361 0.73438 74.8157C0.744267 73.6531 0.240068 72.5297 0.586086 71.3574C0.922217 68.6221 0.66518 65.8769 0.714611 63.1318C0.724498 62.5262 0.892557 61.8912 0.54654 61.3148C0.516881 58.3645 0.467453 55.4045 0.487225 52.4542C0.487225 51.1061 0.0225769 49.7677 0.32905 48.4098C0.704726 46.456 0.437797 44.4827 0.467456 42.5191C0.487228 41.5324 0.675063 40.5164 0.309273 39.5395C0.2895 37.9667 0.26973 36.3938 0.249958 34.821C0.259844 32.6034 0.259846 30.3859 0.259846 28.1585C0.259846 26.1168 0.279615 24.0653 0.24007 22.0235C0.220297 21.0662 0.437796 20.099 0.0720059 19.1612C0.0423472 16.5431 0.0225751 13.9249 0.00280269 11.3068C0.00280269 11.0919 -0.0466317 10.8281 0.269727 10.7598C1.6538 11.5022 3.02798 12.2642 4.41205 12.9969C8.71256 15.2926 13.0229 17.559 17.3234 19.8548C24.8864 23.8894 32.4296 27.9436 39.9826 31.9782C43.9668 34.1177 47.9608 36.2278 51.945 38.3672C59.4288 42.3628 66.9127 46.3779 74.3966 50.3832C77.4811 52.0342 80.5656 53.6754 83.6501 55.3263C83.9862 55.512 84.3026 55.9418 84.6782 55.7659C85.0836 55.5608 84.8661 55.0528 84.8661 54.6913C84.876 46.6905 84.876 38.6896 84.8661 30.6887C84.8661 30.2686 85.0045 29.8193 84.6782 29.448C84.6881 28.1878 84.6881 26.9276 84.698 25.6674C84.9847 25.2864 84.8562 24.8468 84.8562 24.4365C84.8957 21.9649 84.9056 19.4933 84.9353 17.0315C85.1528 17.0804 85.4098 17.0901 85.6075 17.1976C90.1354 19.6106 94.6633 22.0333 99.1912 24.4658C106.181 28.2171 113.16 31.988 120.15 35.7393C124.174 37.8983 128.207 40.0279 132.221 42.1771C139.418 46.0359 146.615 49.9143 153.813 53.773C157.836 55.932 161.86 58.0617 165.884 60.2109C173.081 64.0697 180.278 67.948 187.475 71.8068C191.489 73.9658 195.522 76.0954 199.536 78.2446C206.743 82.1034 213.931 85.9817 221.138 89.8405C225.26 92.0483 229.393 94.2366 233.515 96.4347C238.478 99.0821 243.431 101.729 248.384 104.377C248.987 104.69 249.264 104.895 248.483 105.471Z" fill="#00A683"/>
<path d="M84.6799 55.7644C84.3042 55.9403 83.9879 55.5104 83.6517 55.3248C80.5672 53.6739 77.4827 52.0326 74.3982 50.3817C66.9144 46.3763 59.4305 42.3612 51.9466 38.3657C47.9625 36.2263 43.9685 34.1161 39.9843 31.9767C32.4312 27.9421 24.8881 23.8879 17.3251 19.8533C13.0246 17.5575 8.71422 15.2911 4.41372 12.9954C3.02965 12.2627 1.65546 11.5007 0.271393 10.7582C9.19864 7.23161 18.1259 3.71473 27.0433 0.178324C27.6859 -0.0756723 28.2098 -0.0659014 28.8228 0.256478C46.9244 9.93764 65.0261 19.5993 83.1278 29.2609C83.4738 29.4465 83.8297 29.6321 84.1757 29.8177C84.6008 30.0424 84.6107 29.7005 84.6799 29.4465C85.0061 29.8177 84.8677 30.2671 84.8677 30.6872C84.8776 38.6881 84.8776 46.6889 84.8677 54.6898C84.8677 55.0513 85.0852 55.5593 84.6799 55.7644Z" fill="#63BB91"/>
<path d="M180.18 194.216C180.19 194.636 180.14 195.066 180.12 195.495C176.898 194.772 173.675 194.059 170.462 193.336C169.938 193.219 169.977 192.799 169.977 192.408C169.977 190.777 169.957 189.145 169.948 187.514C169.957 185.804 170.076 184.085 169.75 182.385C169.74 180.812 169.73 179.24 169.72 177.667C169.71 175.957 169.859 174.248 169.522 172.548C169.503 170.828 169.493 169.099 169.483 167.37C169.483 165.67 169.621 163.951 169.285 162.251C169.275 160.6 169.255 158.949 169.246 157.308C169.236 155.589 169.384 153.879 169.048 152.189C169.038 150.528 169.018 148.877 169.008 147.226C168.998 145.526 169.147 143.807 168.811 142.117C168.722 140.886 168.939 139.655 168.662 138.434C171.776 136.138 174.891 133.843 178.153 131.43C178.361 132.817 178.371 134.018 178.45 135.181C178.657 138.483 178.657 141.804 178.746 145.116C178.914 151.427 179.033 157.748 179.27 164.058C179.458 169.275 179.626 174.502 179.735 179.718C179.834 184.554 180.031 189.38 180.18 194.216Z" fill="#00A683"/>
<path d="M96.9488 190.843C96.7313 191.273 96.405 191.302 95.97 191.185C92.9053 190.354 89.8406 189.514 86.7561 188.762C86.1134 188.606 86.0344 188.303 86.0442 187.814C89.2078 185.499 92.3714 183.194 95.5251 180.869C96.316 180.282 96.227 180.859 96.2567 181.347C96.4149 184.258 96.5731 187.17 96.7411 190.081C96.7609 190.345 96.7016 190.638 96.9488 190.843Z" fill="#00A683"/>
<path d="M282.088 121.963C282.385 121.504 282.335 120.996 282.335 120.488C282.335 115.691 282.345 110.885 282.345 106.088H282.504C282.513 110.992 282.543 115.896 282.543 120.79C282.553 121.23 282.731 121.767 282.088 121.963Z" fill="#008474"/>
<path d="M0.71484 63.1315C0.665408 65.8766 0.922445 68.6217 0.586314 71.3571C0.566542 68.016 0.556654 64.6653 0.546768 61.3145C0.892786 61.8908 0.724726 62.5258 0.71484 63.1315Z" fill="#008474"/>
<path d="M0.812815 92.4391C0.802929 89.0981 0.793044 85.7473 0.783157 82.3965C1.12917 82.9729 0.961105 83.6079 0.941333 84.2135C0.891902 86.9586 1.16872 89.7038 0.812815 92.4391Z" fill="#008474"/>
<path d="M282.502 106.09H282.344C282.334 102.719 282.324 99.3391 282.314 95.9688C282.641 96.3888 282.512 96.8773 282.512 97.3267C282.512 100.248 282.68 103.169 282.502 106.09Z" fill="#A6B7B9"/>
<path d="M1.20067 112.632C1.20067 113.013 1.30942 113.414 1.04249 113.756C1.0326 110.405 1.02272 107.064 1.02272 103.713C1.37862 104.328 1.1809 105.002 1.1809 105.647C1.22044 107.972 1.21056 110.297 1.20067 112.632Z" fill="#008474"/>
<path d="M1.65604 150.479C1.62638 152.99 1.85376 155.501 1.5374 158.002C1.52752 154.739 1.50775 151.466 1.49786 148.203C1.85377 148.936 1.67581 149.727 1.65604 150.479Z" fill="#008474"/>
<path d="M1.27808 135.298C1.26819 132.114 1.2583 128.919 1.2583 125.725C1.6142 126.545 1.42637 127.405 1.41648 128.245C1.37694 130.599 1.64387 132.954 1.27808 135.298Z" fill="#008474"/>
<path d="M0.239689 22.0225C0.279233 24.0642 0.259465 26.1157 0.259465 28.1575C0.210034 28.1673 0.170482 28.1868 0.121051 28.1966C0.101279 25.1877 0.0913972 22.1788 0.0716248 19.1602C0.437415 20.098 0.219916 21.0651 0.239689 22.0225Z" fill="#008474"/>
<path d="M0.469371 42.5186C0.439712 44.4822 0.706641 46.4556 0.330964 48.4094C0.321078 45.4591 0.311188 42.4991 0.311188 39.5391C0.676978 40.516 0.489143 41.532 0.469371 42.5186Z" fill="#008474"/>
<path d="M84.8584 24.4344C84.8584 24.8447 84.9869 25.2843 84.7002 25.6653C84.6903 22.8811 84.6705 20.1067 84.6607 17.3225C84.6607 17.0978 84.6409 16.8536 84.8781 16.707C84.8979 16.8145 84.9177 16.922 84.9375 17.0294C84.9078 19.4912 84.8979 21.9628 84.8584 24.4344Z" fill="#008474"/>
<path d="M2.13788 196.034C2.18731 197.695 2.14777 199.366 2.15766 201.036C2.09834 201.046 2.04891 201.046 1.99948 201.056C1.98959 198.193 1.9797 195.331 1.96982 192.469C2.33561 193.641 2.09834 194.843 2.13788 196.034Z" fill="#008474"/>
<path d="M1.90218 173.417C1.95161 174.766 1.90218 176.114 1.90218 177.462C1.84286 177.452 1.78354 177.433 1.71434 177.413C1.71434 174.707 1.72423 172.001 1.72423 169.295C2.0999 170.653 1.84286 172.04 1.89229 173.417H1.90218Z" fill="#008474"/>
<path d="M0.261965 28.1562C0.261965 30.3836 0.261962 32.6012 0.252076 34.8188C-0.0148515 32.6207 0.0246885 30.4031 0.123551 28.1953C0.172982 28.1856 0.212534 28.166 0.261965 28.1562Z" fill="#A6B7B9"/>
<path d="M1.91019 177.461C1.91019 179.561 1.91019 181.662 1.91019 183.762C1.57406 181.652 1.67292 179.532 1.73224 177.412C1.80144 177.432 1.86075 177.451 1.92007 177.461H1.91019Z" fill="#A6B7B9"/>
<path d="M2.36789 219.637C2.36789 219.637 2.25915 219.608 2.19983 219.588C2.19983 217.498 2.19982 215.417 2.20971 213.326C2.58539 215.417 2.2888 217.537 2.36789 219.637Z" fill="#008474"/>
<path d="M2.18877 225.01C2.13934 223.202 2.06025 221.395 2.19866 219.588C2.25797 219.607 2.31729 219.617 2.36672 219.637C2.37661 221.063 2.39638 222.489 2.37661 223.916C2.37661 224.287 2.53479 224.697 2.18877 225.01Z" fill="#A6B7B9"/>
<path d="M169.008 147.226C168.623 145.536 168.791 143.827 168.81 142.117C169.146 143.807 168.998 145.527 169.008 147.226Z" fill="#A6B7B9"/>
<path d="M169.247 157.297C168.872 155.597 169.03 153.887 169.05 152.188C169.386 153.878 169.237 155.587 169.247 157.297Z" fill="#A6B7B9"/>
<path d="M169.483 167.365C169.098 165.675 169.266 163.956 169.285 162.246C169.622 163.946 169.473 165.665 169.483 167.365Z" fill="#A6B7B9"/>
<path d="M169.719 177.668C169.344 175.968 169.502 174.258 169.521 172.549C169.858 174.249 169.709 175.958 169.719 177.668Z" fill="#A6B7B9"/>
<path d="M169.948 187.514C169.573 185.823 169.731 184.104 169.751 182.385C170.077 184.085 169.958 185.804 169.948 187.514Z" fill="#A6B7B9"/>
<path d="M2.16024 201.031C2.16024 202.76 2.16024 204.499 2.14047 206.228C1.834 204.509 1.89331 202.78 2.00206 201.051C2.05149 201.041 2.10093 201.041 2.16024 201.031Z" fill="#A6B7B9"/>
<path d="M14.0259 239.777C13.9761 239.945 13.8765 240.023 13.6972 239.994C13.7271 239.925 13.747 239.856 13.747 239.777H14.0259Z" fill="#008474"/>
<path d="M96.2254 153.582C95.2961 154.881 93.8527 155.585 92.607 156.503C73.2696 170.746 53.9124 184.96 34.5453 199.174C34.2783 199.37 33.9817 199.751 33.6456 199.604C33.2601 199.448 33.4578 198.989 33.4578 198.656C33.4182 195.97 33.4083 193.274 33.3886 190.587C33.3985 189.093 33.616 187.598 33.2403 186.133C33.2798 185.996 33.3095 185.859 33.349 185.722C33.8829 186.181 34.1399 185.585 34.4266 185.38C43.1759 179.118 51.9153 172.827 60.6548 166.545C68.6626 160.791 76.6803 155.047 84.6881 149.293C85.0342 149.049 85.4395 148.854 85.6372 148.434C85.6965 148.434 85.7559 148.414 85.8152 148.404C85.9437 148.541 86.0426 148.736 86.2007 148.824C89.5027 150.485 92.8344 152.087 96.2254 153.582Z" fill="#63BB91"/>
<path d="M166.022 99.3669C162.542 102.112 159.21 104.759 155.73 107.231C142.562 100.275 129.384 93.3296 116.215 86.3838C116.146 86.3447 116.067 86.3252 115.988 86.3057C115.533 81.724 115.731 77.1325 115.731 72.541C132.419 81.4407 149.107 90.3403 166.022 99.3669Z" fill="#00A683"/>
<path d="M116.373 125.967C116.373 129.083 116.363 132.199 116.363 135.306C115.997 134.73 116.185 134.095 116.185 133.489C116.175 130.969 116.205 128.438 116.225 125.908C116.274 125.928 116.323 125.947 116.373 125.967Z" fill="#008474"/>
<path d="M115.96 112.185C115.98 110.534 115.742 108.874 116.098 107.232C116.108 109.948 116.118 112.664 116.128 115.39C115.723 114.335 115.96 113.25 115.96 112.185Z" fill="#008474"/>
<path d="M115.465 61.2969C115.88 62.5082 115.613 63.7489 115.663 64.9798C115.712 66.3377 115.663 67.6956 115.643 69.0535C115.257 67.764 115.505 66.4452 115.455 65.1361C115.406 63.8564 115.455 62.5766 115.455 61.2969H115.465Z" fill="#008474"/>
<path d="M116.138 105.596C116.138 105.596 116.049 105.557 115.999 105.537V100.145C116.335 101.952 116.187 103.779 116.138 105.596Z" fill="#A6B7B9"/>
<path d="M116.374 125.965C116.374 125.965 116.275 125.926 116.225 125.906C116.216 124.197 116.206 122.487 116.196 120.768C116.631 122.487 116.393 124.236 116.374 125.965Z" fill="#A6B7B9"/>
<path d="M33.2402 186.135C33.6159 187.61 33.3984 189.105 33.3885 190.589C33.0029 189.114 33.2303 187.62 33.2402 186.135Z" fill="#008474"/>
<path d="M116.136 105.602C116.116 105.885 116.106 106.168 116.086 106.461C115.849 106.168 115.938 105.865 115.997 105.543C116.047 105.563 116.096 105.582 116.136 105.602Z" fill="#008474"/>
<path d="M31.7903 41.8497C31.6509 41.8694 31.5014 41.8792 31.352 41.8989C31.352 41.8004 31.3421 41.702 31.3421 41.6035C31.4915 41.6921 31.6409 41.7709 31.7903 41.8497Z" fill="#A6B7B9"/>
<path d="M85.5783 123.798C85.5289 123.612 85.4399 123.427 85.4399 123.241C85.3114 117.038 85.2719 110.834 85.3609 104.631C85.4103 104.816 85.5091 105.002 85.5091 105.188C85.5388 111.391 85.5586 117.594 85.5783 123.798Z" fill="#A6B7B9"/>
<path d="M85.8153 148.409C85.756 148.419 85.6967 148.429 85.6374 148.438C85.6176 143.984 85.6077 139.529 85.5978 135.074C85.8153 135.397 85.7461 135.748 85.7461 136.09C85.7758 140.203 85.7955 144.306 85.8153 148.409Z" fill="#A6B7B9"/>
<path d="M85.3214 85.0749C85.3511 87.9177 85.3412 90.7507 85.3412 93.5935C85.0051 91.9035 85.1731 90.1939 85.1336 88.494C85.0842 86.7454 85.1336 84.9967 85.1534 83.248C85.4895 83.8342 85.3214 84.4692 85.3214 85.0749Z" fill="#A6B7B9"/>
</svg>
