<svg width="127" height="71" viewBox="0 0 127 71" fill="none" xmlns="http://www.w3.org/2000/svg">
<path d="M126.65 70.6311H80.9491C80.9433 70.4783 80.9288 70.3284 80.9288 70.1756C80.9288 46.9769 80.9288 23.7782 80.9288 0.579535C80.9288 0.193179 81.1194 0 81.5004 0C96.3724 0 111.245 0 126.114 0C126.487 0 126.675 0.182607 126.677 0.547819C126.677 23.758 126.677 46.9682 126.677 70.1785C126.677 70.3313 126.662 70.4812 126.653 70.634L126.65 70.6311Z" fill="#FFFEEF"/>
<path d="M20.7153 70.6302C20.7066 70.4774 20.6921 70.3275 20.6921 70.1747C20.6921 59.7575 20.6921 49.3374 20.6921 38.9202C20.6921 38.8337 20.6979 38.7443 20.6921 38.6578C20.6776 38.4416 20.7675 38.3291 20.9967 38.3407C21.1157 38.3464 21.2376 38.3407 21.3594 38.3407C38.0506 38.3407 54.7418 38.3407 71.43 38.3407C72.1757 38.3407 72.0944 38.2974 72.0944 39.0182C72.0944 49.372 72.0944 59.7229 72.0944 70.0766C72.0944 70.2612 72.0799 70.4457 72.0712 70.6302H20.7153Z" fill="#FFFEEF"/>
<path d="M0.00296074 0.0201827C0.133519 0.0144162 0.264078 0 0.397538 0C3.6731 0 6.94867 0 10.2271 0C10.7465 0 10.7465 5.15566e-07 10.7465 0.527637C10.7465 23.7552 10.7465 46.9827 10.7465 70.2102C10.7465 70.3515 10.732 70.4927 10.7233 70.634C7.25041 70.634 3.77465 70.6311 0.301794 70.6398C0.0551838 70.6398 6.10352e-05 70.585 6.10352e-05 70.3399C0.00586363 46.899 0.00586266 23.4611 0.00586266 0.0201827H0.00296074Z" fill="#FFFEEF"/>
<path d="M46.4063 32.3127C38.0331 32.3127 29.66 32.3127 21.2868 32.3127C20.8903 32.3127 20.692 32.1195 20.692 31.7332C20.692 21.3477 20.692 10.9622 20.692 0.573833C20.692 0.475802 20.6978 0.377772 20.692 0.279742C20.6862 0.0894468 20.7733 -0.00281774 20.9648 6.55183e-05C21.0866 6.55183e-05 21.2056 6.55183e-05 21.3274 6.55183e-05C38.0418 6.55183e-05 54.7533 6.55183e-05 71.4677 6.55183e-05C71.8855 6.55183e-05 72.0953 0.205738 72.0973 0.617082C72.0973 10.9709 72.0973 21.3246 72.0973 31.6784C72.0973 31.7217 72.0973 31.7649 72.0973 31.8081C72.0973 32.3127 72.0973 32.3127 71.5924 32.3127C63.1961 32.3127 54.8026 32.3127 46.4063 32.3127Z" fill="#FFFEEF"/>
</svg>
