<svg width="127" height="127" viewBox="0 0 127 127" fill="none" xmlns="http://www.w3.org/2000/svg">
<path d="M126.676 25.2639V25.6686C125.705 25.6236 125.317 26.4617 124.769 27.0054C119.297 32.3973 113.849 37.8137 108.393 43.222C108.132 43.0176 107.87 42.8132 107.609 42.6048C112.893 37.2701 118.137 31.8945 123.491 26.6252C124.655 25.4765 124.557 24.8878 123.454 23.7964C117.835 18.2246 112.305 12.571 106.743 6.94198C106.743 6.51275 106.755 6.08353 106.76 5.6543C107.352 5.69926 107.711 6.11623 108.091 6.4964C113.898 12.3053 119.709 18.1101 125.517 23.9231C125.933 24.3401 126.293 24.8143 126.676 25.2639Z" fill="#AA5BA0"/>
<path d="M126.676 101.012V101.83C125.741 101.658 125.435 102.504 124.945 102.982C120.771 107.066 116.63 111.183 112.481 115.291C112.06 115.123 111.766 114.833 111.611 114.404C116.062 110.14 120.514 105.877 125.382 101.216C120.514 96.5521 116.062 92.2925 111.611 88.0289C111.632 87.4525 111.95 87.1745 112.505 87.1377C117.23 91.7611 121.956 96.3886 126.676 101.012Z" fill="#A7559C"/>
<path d="M105.951 121.828C104.811 123.631 102.602 124.53 101.863 126.668H101.05C100.086 125.605 99.1267 124.538 98.167 123.475C98.2037 122.977 98.4079 122.629 98.9633 122.613C99.2084 122.833 99.5433 123.009 99.6821 123.283C100.552 124.971 101.41 124.665 102.484 123.434C103.403 122.384 104.493 121.48 105.506 120.516C105.653 120.953 105.804 121.39 105.951 121.828Z" fill="#B469A8"/>
<path d="M61.0773 36.2661C60.9834 36.1148 60.8895 35.9595 60.7955 35.8082C57.1323 32.1373 53.4691 28.4623 49.8059 24.7914C49.2627 24.7914 48.7236 24.7914 48.1805 24.7954C48.0171 24.7627 47.8497 24.7341 47.6863 24.7014C41.7321 24.7096 35.7778 24.7709 29.8276 24.6892C28.3697 24.6687 28.0552 25.102 28.0675 26.496C28.1246 34.7617 28.0838 43.0234 28.0756 51.285C27.9694 51.8532 27.8633 52.4214 27.7571 52.9937C27.7898 53.1 27.8265 53.2104 27.8673 53.3167C28.1083 53.4107 28.2798 53.5374 28.092 53.8236C28.096 60.0331 28.0838 66.2426 28.1287 72.4562C28.1287 72.9631 28.0184 73.3392 27.7571 73.7193C27.8061 74.1281 27.8592 74.5328 27.9123 74.9375C28.1655 75.0316 28.2594 75.1787 28.0879 75.4281C28.1205 84.0985 28.1532 92.773 28.19 101.443C28.3492 101.529 28.5126 101.611 28.6719 101.697C35.1693 101.738 41.6626 101.783 48.1601 101.824L48.1192 101.672C48.3438 101.341 48.4786 101.517 48.597 101.758C49.1238 101.795 49.6548 101.828 50.1857 101.86L50.1734 101.77C50.2959 101.554 50.4225 101.333 50.639 101.697C54.0041 101.689 57.3692 101.676 60.7302 101.668C60.8486 101.574 60.963 101.48 61.0814 101.382C61.1059 100.638 61.1549 99.8941 61.1549 99.1501C61.159 83.3422 61.1631 67.5344 61.1549 51.7306C61.1508 46.5757 61.1018 41.4209 61.0773 36.2661ZM49.908 41.5885C49.8998 56.959 49.8916 72.3336 49.8834 87.704C49.8834 89.579 48.9142 90.5165 46.9757 90.5165C44.8807 90.5165 42.7775 90.4225 40.6866 90.5492C39.3553 90.631 39.1592 90.1282 39.1633 88.9427C39.1919 80.7505 39.1511 72.5584 39.1306 64.3663C39.0326 64.2109 38.9305 64.0515 38.8325 63.8961C39.3062 63.3892 39.2572 62.8783 38.8325 62.3714C38.9305 62.2201 39.0285 62.0648 39.1306 61.9094C39.1511 53.8563 39.2001 45.8031 39.1592 37.75C39.1592 36.3724 39.3185 35.8736 40.948 35.7673C43.9373 35.5793 46.1018 36.401 47.5965 39.0785C48.0661 39.9166 49.0095 40.493 49.7364 41.1879C50.055 41.2083 50.1816 41.3146 49.908 41.5885Z" fill="#FFFEEF"/>
<path d="M98.657 75.3485C98.6325 76.2969 98.5917 77.2412 98.5876 78.1896C98.5549 85.9239 98.5345 93.6541 98.5059 101.384C98.3915 101.478 98.2731 101.576 98.1588 101.67C91.6491 101.724 85.1435 101.773 78.6379 101.822C78.5521 101.732 78.446 101.687 78.3194 101.683C78.0988 101.352 77.9641 101.536 77.8375 101.769C77.4332 101.809 77.033 101.854 76.6287 101.895C76.5021 101.854 76.3795 101.814 76.2529 101.764C76.1345 101.523 76.0038 101.327 75.7915 101.695C72.5611 101.695 69.3308 101.699 66.0964 101.699C65.9371 101.613 65.7778 101.531 65.6145 101.446C65.5859 98.302 65.5001 95.1584 65.5573 92.0149C65.5777 90.9561 64.7487 89.8728 65.594 88.8263C65.5655 88.6628 65.5328 88.4993 65.5001 88.3358C65.5124 71.7103 65.5205 55.0889 65.5287 38.4635C65.5287 34.3878 65.5573 30.3122 65.5042 26.2366C65.4919 25.1696 65.6676 24.6587 66.9131 24.6995C70.1598 24.8058 73.4146 24.7772 76.6654 24.7976C77.0615 24.8017 77.4618 24.8017 77.862 24.8058C78.6951 24.8835 79.5282 24.9652 80.349 24.7036C86.2992 24.7527 92.2494 24.8017 98.1996 24.8467C98.3099 24.9898 98.4161 25.1329 98.5222 25.2718V46.4389C98.4161 46.5534 98.3058 46.6679 98.1955 46.7823C95.0346 46.8069 91.8696 46.7905 88.7087 46.8723C87.7163 46.8968 87.455 46.5902 87.4713 45.6214C87.5244 42.5187 87.4795 39.42 87.4713 36.3173C87.6265 36.0107 87.4958 35.9004 87.1895 35.9126C84.143 35.8963 81.0923 35.929 78.0498 35.8268C76.8737 35.79 76.6123 36.1742 76.6164 37.2984C76.6613 54.9908 76.6654 72.6832 76.6777 90.3756C76.694 90.7067 76.7838 90.8662 77.082 90.5555C80.4511 90.535 83.8244 90.5187 87.1936 90.5023C87.5203 90.7517 87.5693 90.6045 87.4999 90.2857C87.4917 83.2913 87.4795 76.2969 87.4713 69.3025C87.6265 68.9959 87.4958 68.8856 87.1895 68.9019C86.042 68.8815 84.8862 68.7752 83.7468 68.8651C82.5748 68.9632 82.2766 68.534 82.3093 67.4058C82.4032 64.2295 82.3787 61.0491 82.3991 57.8687C82.5257 57.7706 82.6523 57.6684 82.7789 57.5662C85.8745 57.5703 88.9701 57.5703 92.0656 57.5703C92.229 57.6479 92.3964 57.7256 92.5598 57.8033L92.7231 57.8278L92.8824 57.7788C93.5522 57.7788 94.2178 57.7828 94.8876 57.7869C95.9902 57.8278 97.097 57.8728 98.1996 57.9137C98.3058 58.0281 98.4161 58.1426 98.5222 58.2611V72.5034C98.4242 72.6628 98.3262 72.8181 98.2282 72.9735C98.2078 73.0879 98.22 73.1942 98.269 73.2964C98.2527 73.8319 98.2404 74.3674 98.2241 74.9029C98.318 75.0542 98.412 75.2014 98.5018 75.3526H98.657V75.3485Z" fill="#FFFEEF"/>
<path d="M20.0958 119.74C20.0795 120.272 19.8059 120.542 19.2749 120.562C12.9899 114.328 6.71707 108.082 0.399335 101.876C-0.233664 101.255 -0.0376389 100.973 0.456509 100.486C6.46387 94.5467 12.4549 88.5906 18.4541 82.6387C18.5154 83.1292 18.7563 83.4889 19.23 83.6688C17.474 85.8885 15.1584 87.5482 13.2717 89.6617C10.1148 93.1977 6.67215 96.4885 3.23353 99.7588C1.99204 100.94 2.06963 101.59 3.25395 102.763C8.92236 108.368 14.4927 114.07 20.0958 119.74Z" fill="#AA5BA0"/>
<path d="M16.453 40.2873C16.2692 40.6634 15.918 40.7329 15.5546 40.7697C10.805 36.0645 6.13309 31.2776 1.25696 26.7073C-0.217315 25.3256 -0.0743795 24.7451 1.2733 23.4656C5.58585 19.3818 9.75139 15.1427 13.9741 10.9648C14.1334 11.39 14.4233 11.6843 14.8562 11.8397C10.8663 15.8785 6.92128 19.9664 2.86192 23.9316C1.75111 25.0149 1.81236 25.5586 2.88233 26.6133C7.46034 31.1141 11.9363 35.7211 16.453 40.2873Z" fill="#A7559C"/>
<path d="M35.5859 10.1346C35.5491 10.6375 35.3449 10.9808 34.7854 10.9931C32.135 8.76111 29.7337 6.27976 27.4672 3.66351C28.0267 3.64716 28.2309 3.29969 28.2635 2.79688C30.9262 5.02069 33.0825 7.7514 35.5859 10.1346Z" fill="#C180B6"/>
<path d="M28.2636 2.79696C28.2309 3.29977 28.0267 3.64725 27.4672 3.6636C25.8228 2.43723 24.2464 2.57894 22.7381 4.08874C22.1664 4.65696 21.5538 5.18429 20.9616 5.72798C20.4267 5.43774 20.5206 4.91858 20.4879 4.44438C21.7376 3.14852 22.9832 1.84857 24.2369 0.552711C24.9516 -0.187198 25.6744 -0.223988 26.1686 0.72849C26.6545 1.66871 27.4999 2.1756 28.2636 2.79696Z" fill="#B469A8"/>
<path d="M40.2128 111.653C37.8564 114.175 35.6307 116.833 32.9109 118.991C32.5352 118.828 32.3065 118.537 32.1758 118.157C34.3525 115.643 36.7701 113.366 39.2041 111.105C39.4001 111.547 39.8085 111.6 40.2128 111.653Z" fill="#CA8FBF"/>
<path d="M98.9635 122.611C98.4081 122.628 98.2039 122.975 98.1672 123.474C97.8445 123.188 97.526 122.894 97.2075 122.603C96.5745 122.015 95.9496 121.418 95.333 120.813C93.7933 119.3 92.3068 117.735 90.8489 116.14C90.8815 115.642 90.9142 115.147 90.9469 114.652C93.6177 117.305 96.2927 119.958 98.9635 122.611Z" fill="#C180B6"/>
<path d="M20.9616 5.72793C19.0299 7.86999 17.0166 9.9262 14.8562 11.8393C14.4233 11.684 14.1334 11.3897 13.9741 10.9645L20.4879 4.44434C20.5206 4.91853 20.4266 5.43769 20.9616 5.72793Z" fill="#AD5DA1"/>
<path d="M24.2164 48.0582C23.9061 48.2094 23.5957 48.3607 23.2812 48.516C20.6022 46.0347 17.9926 43.4879 15.5546 40.7695C15.918 40.7327 16.2692 40.6632 16.453 40.2871C19.1688 42.7439 21.7294 45.3643 24.2164 48.0582Z" fill="#B064A5"/>
<path d="M27.0466 124.652C25.2987 126.679 25.2783 126.704 23.4365 124.881C22.0153 123.479 20.6595 122.007 19.275 120.564C19.8059 120.543 20.0795 120.274 20.0959 119.742C21.7172 120.989 22.6565 122.898 24.4289 124.055C25.0619 124.464 25.4784 124.513 25.8745 124.308C25.9031 124.296 25.9317 124.28 25.9562 124.263C26.0297 124.218 26.1032 124.169 26.1768 124.108C26.2584 124.039 26.3442 123.961 26.434 123.875L27.0466 124.652Z" fill="#B469A8"/>
<path d="M90.9467 114.654C90.914 115.149 90.8813 115.643 90.8487 116.138C90.3055 115.66 89.7746 115.177 89.2519 114.683C87.6796 113.199 86.189 111.633 84.7515 110.018C84.776 109.544 84.8005 109.07 84.825 108.592C86.9935 110.484 89.1212 112.418 90.9467 114.654Z" fill="#CD93C1"/>
<path d="M92.2372 10.5396C90.6078 12.5018 88.7578 14.231 86.8751 15.9316C86.5239 15.7599 86.1727 15.5923 85.8256 15.4206C87.4795 13.2826 89.3581 11.3736 91.498 9.71387H91.5021C91.7472 9.99184 91.9881 10.2616 92.2372 10.5396Z" fill="#CD93C1"/>
<path d="M41.2787 15.8456C41.242 16.3484 41.0296 16.6836 40.4742 16.6958C38.3955 14.9789 36.4884 13.0903 34.7854 10.9932C35.3449 10.981 35.5491 10.6376 35.5858 10.1348C37.4848 12.0397 39.3797 13.9447 41.2787 15.8456Z" fill="#CD93C1"/>
<path d="M106.76 5.65646C106.755 6.08569 106.747 6.51492 106.743 6.94415C105.444 6.10613 104.558 4.82253 103.411 3.82508C102.545 3.07291 102.071 1.78114 100.666 1.73208C100.65 1.28241 100.638 0.82866 100.621 0.378992C101.446 -0.475378 101.932 0.313586 102.39 0.804133C103.872 2.39841 105.306 4.03357 106.76 5.65646Z" fill="#B469A8"/>
<path d="M50.1857 101.86C48.4256 103.994 46.2774 105.719 44.2559 107.579C43.9088 107.411 43.5658 107.248 43.2186 107.08C44.8644 105.326 46.5143 103.577 48.1601 101.823L48.1193 101.672L48.5971 101.758C49.1239 101.795 49.6548 101.827 50.1857 101.86Z" fill="#E3B9D8"/>
<path d="M24.1919 78.6826C22.538 80.3423 20.884 82.0061 19.23 83.6698C18.7563 83.49 18.5154 83.1302 18.4541 82.6397C20.2142 80.8737 21.9744 79.1078 23.7386 77.3418C23.8897 77.7915 24.0408 78.237 24.1919 78.6826Z" fill="#B064A5"/>
<path d="M82.3462 20.4572C81.1374 21.7695 79.9244 23.0858 78.7156 24.398C78.4298 24.5329 78.1439 24.6678 77.8621 24.8027C77.4619 24.7986 77.0617 24.7986 76.6655 24.7945C77.9315 22.4603 80.0429 20.9192 81.9378 19.1777C82.0726 19.6029 82.2114 20.0321 82.3462 20.4572Z" fill="#E3B9D8"/>
<path d="M32.911 118.989C30.9548 120.878 29.0027 122.762 27.0465 124.651L26.434 123.878C28.3493 121.969 30.2646 120.064 32.1759 118.155C32.3066 118.535 32.5353 118.826 32.911 118.989Z" fill="#B971AD"/>
<path d="M45.7507 20.3352C45.7262 20.8012 45.7058 21.2672 45.6813 21.7332C43.6271 20.3842 42.0426 18.5529 40.4744 16.697C41.0298 16.6847 41.2421 16.3495 41.2789 15.8467C42.9043 17.2079 44.3745 18.7246 45.7507 20.3352Z" fill="#D8A7CD"/>
<path d="M92.2372 10.5445C91.988 10.2624 91.7471 9.99259 91.5021 9.71461C92.2249 8.81527 92.96 7.92411 93.7482 7.09018C94.1443 6.67322 94.5527 6.2726 94.9815 5.88834C95.0714 5.8025 95.1653 5.72074 95.2592 5.64307C95.3858 5.5327 95.5083 5.4305 95.639 5.32421C95.8636 5.14435 96.0923 4.96857 96.3292 4.79688C96.5987 5.08712 96.8683 5.37736 97.1337 5.6676C95.5002 7.29049 93.8707 8.91747 92.2372 10.5445Z" fill="#C180B6"/>
<path d="M84.8251 108.59C84.8005 109.068 84.776 109.543 84.7515 110.017C83.118 108.664 81.6519 107.147 80.2756 105.532C80.2961 105.071 80.3206 104.605 80.341 104.143C81.9704 105.487 83.6285 106.808 84.8251 108.59Z" fill="#D8A7CD"/>
<path d="M86.8751 15.9348C85.4989 17.5781 83.9593 19.058 82.3461 20.4601C82.2114 20.035 82.0725 19.6057 81.9377 19.1806C83.0812 17.7703 84.2533 16.3886 85.8256 15.4238C86.1727 15.5955 86.5239 15.7631 86.8751 15.9348Z" fill="#D8A7CD"/>
<path d="M44.256 107.579C43.0839 109.108 41.8465 110.579 40.2129 111.65C39.8086 111.597 39.4002 111.544 39.2042 111.103C40.4049 109.627 41.7811 108.323 43.2187 107.08C43.5658 107.248 43.9088 107.411 44.256 107.579Z" fill="#D8A7CD"/>
<path d="M27.9081 74.9379C27.8714 75.0974 27.8387 75.2568 27.802 75.4121C26.5972 76.5036 25.3925 77.591 24.1918 78.6824C24.0407 78.2369 23.8896 77.7913 23.7385 77.3416C24.9964 76.0457 25.9765 74.4392 27.757 73.7197C27.8061 74.1285 27.8591 74.5332 27.9081 74.9379Z" fill="#B971AD"/>
<path d="M49.8059 24.7917C49.2627 24.7917 48.7236 24.7917 48.1805 24.7958C48.0416 24.665 47.9028 24.5301 47.7639 24.3993C47.2698 23.3528 45.9874 22.9277 45.6812 21.734C45.7057 21.268 45.7261 20.802 45.7506 20.3359C47.2126 21.7176 48.9237 22.8745 49.8059 24.7917Z" fill="#E3B9D8"/>
<path d="M100.666 1.73297C99.4412 3.00022 98.6122 4.6272 97.1339 5.66962C96.8684 5.37938 96.5989 5.08913 96.3293 4.79889C97.0114 4.02219 97.677 3.24141 98.3794 2.49332C98.555 2.30528 98.7347 2.12132 98.9144 1.93737C99.4535 1.38959 100.017 0.866342 100.621 0.379883C100.638 0.829551 100.65 1.28331 100.666 1.73297Z" fill="#B971AD"/>
<path d="M28.0756 51.2839C27.9694 51.8522 27.8632 52.4204 27.757 52.9927C26.1521 51.611 24.6492 50.1312 23.2811 48.5164C23.5956 48.3611 23.906 48.2098 24.2163 48.0586C25.2863 49.0315 26.3522 50.0085 27.4222 50.9855C27.6304 51.0877 27.8387 51.194 28.047 51.3003L28.0756 51.2839Z" fill="#B971AD"/>
<path d="M80.341 104.142C80.3206 104.604 80.2961 105.07 80.2757 105.531C78.9198 104.46 77.7396 103.214 76.6288 101.893C77.0331 101.852 77.4333 101.807 77.8376 101.767C77.9969 101.738 78.1602 101.709 78.3195 101.681C78.4461 101.685 78.5523 101.73 78.638 101.82C79.0056 102.739 80.145 103.095 80.341 104.142Z" fill="#E3B9D8"/>
<path d="M28.0923 53.8239C28.0146 53.6561 27.941 53.4842 27.8674 53.3164C28.1087 53.4105 28.2804 53.5374 28.0923 53.8239Z" fill="#A9A7AB"/>
<path d="M65.5946 88.8261C65.3533 88.7033 65.1284 88.5765 65.5005 88.335C65.5333 88.4987 65.566 88.6624 65.5946 88.8261Z" fill="#A9A7AB"/>
<path d="M50.6395 101.698L50.1733 101.772C50.296 101.555 50.4228 101.334 50.6395 101.698Z" fill="#636066"/>
<path d="M61.082 101.381C61.1147 101.659 61.0125 101.774 60.7303 101.667C60.8489 101.573 60.9634 101.479 61.082 101.381Z" fill="#636066"/>
<path d="M66.0971 101.697C65.8313 101.816 65.6269 101.812 65.6146 101.443C65.7782 101.529 65.9377 101.611 66.0971 101.697Z" fill="#636066"/>
<path d="M76.2538 101.76C76.1025 101.736 75.9471 101.715 75.7917 101.691C76.0044 101.322 76.1352 101.519 76.2538 101.76Z" fill="#636066"/>
<path d="M61.0778 36.266C60.9837 36.1146 60.8897 35.9591 60.7957 35.8076C61.0001 35.8936 61.2005 35.9754 61.0778 36.266Z" fill="#2B2B30"/>
<path d="M112.505 87.1372C111.95 87.174 111.631 87.452 111.611 88.0284C109.042 85.7064 106.621 83.2455 104.289 80.6906C104.313 80.1183 104.628 79.8444 105.179 79.8076C107.437 82.4361 110.365 84.3942 112.505 87.1372Z" fill="#AD5DA1"/>
<path d="M105.179 79.8069C104.628 79.8437 104.313 80.1176 104.289 80.6899C102.41 78.9076 100.532 77.1294 98.6571 75.347H98.502C98.6122 75.0772 98.4284 74.9832 98.2242 74.9015C98.2406 74.3659 98.2528 73.8304 98.2692 73.2949C101.046 74.9587 102.953 77.5504 105.179 79.8069Z" fill="#B469A8"/>
<path d="M102.716 48.9054C100.65 51.0638 98.5836 53.2181 96.5171 55.3765C95.9617 55.3642 95.7657 55.0209 95.733 54.5262C97.7913 52.237 99.9435 50.0459 102.243 48.002C102.271 48.3699 102.345 48.7173 102.716 48.9054Z" fill="#B971AD"/>
<path d="M108.393 43.2247C106.502 45.1215 104.607 47.0142 102.717 48.9069C102.345 48.7188 102.271 48.3713 102.243 48.0034L107.609 42.6074C107.87 42.8159 108.132 43.0203 108.393 43.2247Z" fill="#B064A5"/>
<path d="M96.5172 55.3776C96.1946 56.326 94.8837 56.6122 94.8877 57.7854C94.218 57.7813 93.5523 57.7772 92.8826 57.7772C93.34 56.2606 94.6754 55.5125 95.7331 54.5273C95.7658 55.022 95.9618 55.3654 96.5172 55.3776Z" fill="#C180B6"/>
<path d="M98.5227 58.2567C98.4164 58.138 98.306 58.0234 98.1997 57.9088C98.49 57.8515 98.6127 57.9538 98.5227 58.2567Z" fill="#2B2B30"/>
<path d="M98.2283 72.9697C98.3264 72.8142 98.4245 72.6587 98.5227 72.499C98.6331 72.7855 98.4532 72.892 98.2283 72.9697Z" fill="#2B2B30"/>
<path d="M112.481 115.288C110.304 117.467 108.128 119.646 105.951 121.825C105.804 121.388 105.653 120.95 105.506 120.513C107.433 118.371 109.451 116.315 111.611 114.401C111.766 114.831 112.06 115.121 112.481 115.288Z" fill="#AD5DA1"/>
<path d="M26.4339 123.874C26.3441 123.964 26.2583 124.042 26.1766 124.107C26.2583 124.038 26.3441 123.96 26.4339 123.874Z" fill="white"/>
<path d="M28.6724 101.697C28.4067 101.816 28.2022 101.812 28.1899 101.443C28.3494 101.529 28.513 101.611 28.6724 101.697Z" fill="#636066"/>
<path d="M38.8326 62.3717C38.9308 62.2203 39.0289 62.0647 39.1311 61.9092C39.2415 62.2039 39.0494 62.2939 38.8326 62.3717Z" fill="#2B2B30"/>
<path d="M49.9083 41.5906C49.8511 41.4555 49.7938 41.3245 49.7366 41.1895C50.0555 41.2099 50.1823 41.3163 49.9083 41.5906Z" fill="#636066"/>
<path d="M39.1311 64.3691C39.033 64.2136 38.9308 64.054 38.8326 63.8984C39.0575 63.9762 39.2415 64.0785 39.1311 64.3691Z" fill="#2B2B30"/>
<path d="M48.1812 24.7974C48.0177 24.7647 47.85 24.736 47.6865 24.7033C47.6251 24.5805 47.6497 24.4823 47.7642 24.4004C47.9032 24.5314 48.0422 24.6664 48.1812 24.7974Z" fill="#A9A7AB"/>
<path d="M28.0882 75.4296L27.941 75.5033L27.802 75.4133C27.8388 75.2577 27.8715 75.0981 27.9083 74.9385H27.9124C28.1659 75.0326 28.26 75.18 28.0882 75.4296Z" fill="#A9A7AB"/>
<path d="M48.5976 101.759C48.4381 101.73 48.2787 101.701 48.1233 101.673C48.3482 101.341 48.479 101.517 48.5976 101.759Z" fill="#636066"/>
<path d="M80.3493 24.7029C79.5284 24.9645 78.6953 24.8828 77.8622 24.8051C78.144 24.6702 78.4298 24.5353 78.7157 24.4004C79.2507 24.5476 79.8674 24.2614 80.3493 24.7029Z" fill="#A9A7AB"/>
<path d="M98.2242 74.8984C98.4287 74.9803 98.6127 75.0744 98.5023 75.3528C98.4083 75.2013 98.3183 75.0499 98.2242 74.8984Z" fill="#2B2B30"/>
<path d="M82.7795 57.566C82.6527 57.6684 82.5259 57.7707 82.3992 57.8689C82.3665 57.566 82.4646 57.431 82.7795 57.566Z" fill="#636066"/>
<path d="M77.0827 90.5561C76.7842 90.8671 76.6942 90.7075 76.6779 90.376C76.8128 90.4374 76.9477 90.4947 77.0827 90.5561Z" fill="#636066"/>
<path d="M87.1937 90.4992C87.296 90.4255 87.3982 90.3559 87.5004 90.2822C87.5699 90.6015 87.5208 90.7488 87.1937 90.4992Z" fill="#636066"/>
<path d="M78.3201 101.677C78.1607 101.706 77.9971 101.735 77.8376 101.763C77.9644 101.53 78.0993 101.35 78.3201 101.677Z" fill="#636066"/>
<path d="M98.5064 101.381C98.5391 101.659 98.4369 101.774 98.1588 101.667C98.2733 101.573 98.3919 101.475 98.5064 101.381Z" fill="#636066"/>
<path d="M98.1957 46.7813C98.3061 46.6667 98.4165 46.5521 98.5228 46.4375C98.6128 46.7363 98.486 46.8386 98.1957 46.7813Z" fill="#2B2B30"/>
<path d="M87.4718 69.3011C87.3778 69.166 87.2837 69.0351 87.1897 68.9C87.4964 68.8836 87.6272 68.9941 87.4718 69.3011Z" fill="#A9A7AB"/>
<path d="M87.4718 36.3163C87.3778 36.1812 87.2837 36.0461 87.1897 35.9111C87.4964 35.8988 87.6272 36.0093 87.4718 36.3163Z" fill="#A9A7AB"/>
<path d="M98.5227 25.27C98.4164 25.1308 98.3101 24.9876 98.1997 24.8443C98.5514 24.7993 98.5923 24.9958 98.5227 25.27Z" fill="#2B2B30"/>
<path d="M92.5604 57.8012C92.3969 57.7234 92.2292 57.6457 92.0657 57.5679C92.3396 57.4083 92.4664 57.5761 92.5604 57.8012Z" fill="#636066"/>
<path d="M28.0479 51.3012C27.8393 51.1948 27.6308 51.0883 27.4222 50.986C27.6962 50.9574 27.9743 50.9287 28.0479 51.3012Z" fill="#A9A7AB"/>
</svg>
