<svg width="91" height="69" viewBox="0 0 91 69" fill="none" xmlns="http://www.w3.org/2000/svg">
<mask id="mask0_118_436" style="mask-type:luminance" maskUnits="userSpaceOnUse" x="0" y="0" width="91" height="69">
<path d="M0 0H90.1602V68.548H0V0Z" fill="white"/>
</mask>
<g mask="url(#mask0_118_436)">
<path d="M76.324 6.10488C70.4786 3.47176 64.31 1.59384 57.9724 0.518134C57.9148 0.507813 57.8554 0.515501 57.8025 0.54011C57.7496 0.564719 57.7059 0.605007 57.6776 0.655292C56.885 2.03837 56.0069 3.84355 55.3924 5.26203C48.4623 4.24352 41.5682 4.24352 34.7805 5.26203C34.1656 3.81169 33.2559 2.03837 32.4598 0.655292C32.4304 0.60582 32.3865 0.566231 32.3338 0.541746C32.2811 0.517261 32.2221 0.509028 32.1645 0.518134C25.8263 1.59141 19.6573 3.46942 13.8128 6.10488C13.7631 6.12614 13.721 6.1616 13.692 6.20665C2.00366 23.3452 -1.19793 40.0625 0.37266 56.5728C0.38223 56.6543 0.424387 56.7288 0.489868 56.7799C8.20127 62.3383 15.6715 65.7128 23.0029 67.9494C23.0599 67.966 23.1207 67.9651 23.1772 67.9469C23.2338 67.9287 23.2833 67.8941 23.3193 67.8476C25.0535 65.523 26.5993 63.0723 27.9252 60.4951C27.9434 60.4598 27.9538 60.4211 27.9557 60.3815C27.9576 60.342 27.951 60.3025 27.9362 60.2657C27.9214 60.2288 27.8989 60.1955 27.87 60.1678C27.8411 60.1402 27.8066 60.1189 27.7687 60.1053C25.3164 59.1921 22.9817 58.0793 20.7358 56.8153C20.6949 56.7916 20.6605 56.7584 20.6358 56.7187C20.611 56.6789 20.5966 56.6338 20.5938 56.5873C20.591 56.5408 20.5999 56.4943 20.6197 56.452C20.6395 56.4096 20.6696 56.3727 20.7074 56.3445C21.1812 55.9969 21.6468 55.6387 22.104 55.2702C22.144 55.2379 22.1925 55.217 22.2439 55.2102C22.2954 55.2033 22.3477 55.2106 22.3952 55.2313C37.1508 61.8432 53.1249 61.8432 67.7061 55.2313C67.7537 55.2093 67.8067 55.201 67.8589 55.2072C67.9111 55.2135 67.9605 55.2341 68.0013 55.2667C68.459 55.6372 68.9258 55.9966 69.4015 56.3445C69.4395 56.3724 69.4698 56.4091 69.49 56.4513C69.5101 56.4935 69.5193 56.5399 69.5168 56.5864C69.5144 56.6329 69.5003 56.6781 69.4759 56.718C69.4515 56.7579 69.4174 56.7913 69.3767 56.8153C67.1296 58.1031 64.7757 59.2025 62.3402 60.1017C62.3025 60.116 62.2682 60.138 62.2397 60.1661C62.2111 60.1942 62.1889 60.2279 62.1745 60.265C62.1601 60.3021 62.1538 60.3417 62.156 60.3814C62.1582 60.421 62.1689 60.4597 62.1874 60.4951C63.536 63.0519 65.0741 65.5082 66.7891 67.8441C66.8242 67.8917 66.8736 67.9274 66.9303 67.9463C66.987 67.9651 67.0482 67.9662 67.1056 67.9494C74.4726 65.7128 81.9428 62.3383 89.6547 56.7799C89.6876 56.7559 89.7151 56.7254 89.7353 56.6903C89.7555 56.6553 89.7679 56.6164 89.7719 56.5763C91.6517 37.4888 86.623 20.9082 76.4412 6.21019C76.4165 6.16229 76.3748 6.12486 76.324 6.10488ZM30.1287 46.52C25.686 46.52 22.0255 42.5172 22.0255 37.6012C22.0255 32.6852 25.6152 28.6824 30.1287 28.6824C34.6772 28.6824 38.3021 32.7206 38.2309 37.6012C38.2309 42.5172 34.6416 46.52 30.1287 46.52ZM60.0871 46.52C55.6444 46.52 51.9844 42.5172 51.9844 37.6012C51.9844 32.6852 55.5737 28.6824 60.0871 28.6824C64.6357 28.6824 68.2606 32.7206 68.1898 37.6012C68.1898 42.5172 64.6357 46.52 60.0871 46.52Z" fill="#FFFEEF"/>
</g>
</svg>
