<svg width="127" height="38" viewBox="0 0 127 38" fill="none" xmlns="http://www.w3.org/2000/svg">
<path d="M0 14.203C0.0957653 14.1395 0.107444 14.0337 0.135473 13.9374C0.305982 13.3732 0.476491 12.8068 0.644664 12.2427C1.04408 10.9076 1.44115 9.57019 1.83823 8.23513C2.29603 6.69558 2.75617 5.15367 3.21398 3.61412C3.29339 3.35087 3.37047 3.08762 3.44989 2.82437C3.47091 2.7562 3.49427 2.68804 3.5223 2.62223C3.55266 2.54936 3.60638 2.5094 3.6858 2.50705C3.76755 2.5047 3.84696 2.5 3.92871 2.5C5.10359 2.5 6.27847 2.5 7.45101 2.5C7.88546 2.5 7.89247 2.50705 7.76867 2.92543C7.23612 4.71884 6.6989 6.51459 6.16635 8.308C5.67118 9.97682 5.176 11.6433 4.68082 13.3121C4.59674 13.5942 4.51499 13.8786 4.42623 14.1606C4.35849 14.3745 4.32579 14.3933 4.09922 14.4004C4.02915 14.4027 3.95674 14.4004 3.88667 14.4004C2.72347 14.4004 1.55794 14.4004 0.39474 14.4004C0.263938 14.4004 0.133137 14.391 0 14.3863V14.203Z" fill="#FFFEEF"/>
<path d="M126.623 37.6215C126.611 37.4828 126.529 37.3771 126.457 37.2642C125.752 36.1572 124.995 35.0854 124.203 34.0394C123.381 32.9511 122.519 31.8981 121.636 30.8616C120.104 29.0658 118.464 27.3735 116.761 25.7423C115.713 24.7363 114.629 23.7702 113.508 22.8465C112.921 22.3623 112.326 21.8875 111.733 21.408C111.637 21.3304 111.539 21.2599 111.443 21.1847C111.349 21.1119 111.258 21.1142 111.165 21.1824C110.992 21.3069 110.817 21.4268 110.642 21.5514C109.721 22.2025 108.764 22.7948 107.78 23.3471C106.223 24.2239 104.611 24.9854 102.952 25.6529C101.032 26.4262 99.0681 27.0656 97.0734 27.6085C95.422 28.0575 93.752 28.4312 92.0702 28.7485C91.1546 28.9224 90.239 29.0799 89.3164 29.2092C88.6554 29.3009 87.9944 29.4043 87.3334 29.4913C86.9013 29.5477 86.4691 29.5853 86.037 29.6346C85.5535 29.6887 85.0724 29.7451 84.5889 29.7945C84.2572 29.8274 83.9232 29.8485 83.5892 29.8744C83.2061 29.9049 82.8231 29.9378 82.44 29.9684C82.3699 29.9731 82.2999 29.9825 82.2274 29.9872C81.9331 29.999 81.6412 30.0178 81.3492 30.0389C80.7629 30.0812 80.1743 30.0812 79.5904 30.1212C78.7519 30.1799 77.9087 30.1517 77.0701 30.1893C75.8439 30.2481 74.6199 30.2411 73.3937 30.2105C72.6859 30.194 71.9759 30.2011 71.2681 30.1635C70.7216 30.1353 70.175 30.1212 69.6285 30.1C68.9301 30.0718 68.234 30.0295 67.5356 29.9849C67.1222 29.959 66.7088 29.9143 66.2954 29.8814C66.0338 29.8626 65.7698 29.8579 65.5082 29.8227C65.1765 29.7804 64.8425 29.7733 64.5109 29.7428C64.2095 29.7169 63.9059 29.6816 63.6046 29.6487C63.3733 29.6252 63.1421 29.597 62.9109 29.5712C62.3269 29.5054 61.7453 29.4419 61.1614 29.3714C61.0423 29.3573 60.9232 29.3291 60.804 29.3032C60.79 29.3009 60.7807 29.275 60.7667 29.2586C60.8344 29.1974 60.9208 29.2209 60.9979 29.2162C62.0303 29.1645 63.0627 29.1786 64.0951 29.1457C64.672 29.1269 65.2489 29.1175 65.8259 29.0823C66.2416 29.0564 66.6551 29.047 67.0708 29.0282C67.566 29.0047 68.0612 28.9624 68.554 28.9295C68.5844 28.9295 68.6148 28.9248 68.6451 28.9224C69.1006 28.8966 69.5561 28.8778 70.0092 28.8472C70.3829 28.8214 70.7543 28.7814 71.128 28.7485C71.4293 28.7227 71.733 28.6991 72.0343 28.6709C72.4267 28.6357 72.8191 28.5957 73.2115 28.5605C73.5035 28.5346 73.7954 28.5088 74.0874 28.4806C74.3093 28.4594 74.5312 28.4382 74.7507 28.4124C75.5846 28.3113 76.4185 28.2197 77.25 28.1045C78.2707 27.9611 79.2914 27.8013 80.3098 27.6414C82.6596 27.2724 84.9906 26.8 87.303 26.2429C89.223 25.7822 91.1243 25.2487 93.0069 24.6493C94.8801 24.0523 96.7254 23.3777 98.5426 22.6208C101.016 21.5913 103.417 20.4138 105.725 19.0434C106.101 18.8202 106.472 18.5922 106.844 18.3642C106.921 18.3172 106.996 18.2631 107.068 18.209C107.112 18.1761 107.105 18.1127 107.061 18.0774C107.028 18.0516 106.993 18.0304 106.961 18.0092C105.905 17.3253 104.828 16.6742 103.733 16.056C102.478 15.3462 101.198 14.688 99.8973 14.0675C98.0287 13.1767 96.1181 12.3916 94.1654 11.703C92.138 10.9884 90.0755 10.3914 87.985 9.9025C86.9293 9.6557 85.8689 9.43711 84.8014 9.25847C84.054 9.1339 83.3042 9.01402 82.5521 8.9059C82.141 8.84479 81.7276 8.80953 81.3165 8.76252C80.8143 8.70611 80.3121 8.6497 79.8076 8.59799C79.6768 8.58389 79.5437 8.58624 79.4129 8.57919C79.2517 8.57214 79.0929 8.55333 78.9434 8.50162C78.9294 8.43111 78.9784 8.43111 79.0135 8.42406C79.2634 8.38645 79.5133 8.34649 79.7632 8.31359C79.9735 8.28773 80.186 8.26893 80.3962 8.25012C80.6275 8.22897 80.8587 8.20311 81.0923 8.19136C81.4053 8.17491 81.7183 8.1467 82.0312 8.1326C83.3766 8.07384 84.7243 8.03153 86.0721 8.07149C86.2029 8.07619 86.3337 8.09029 86.4668 8.09734C86.5486 8.10204 86.6046 8.06444 86.6326 7.99157C86.656 7.93516 86.67 7.8764 86.6864 7.81764C87.1488 6.26633 87.609 4.71503 88.0715 3.16137C88.1229 2.98509 88.1812 2.81115 88.2373 2.63722C88.27 2.5385 88.3377 2.48914 88.4428 2.48679C88.5246 2.48679 88.604 2.48444 88.6858 2.48444C94.9058 2.48444 101.126 2.48444 107.346 2.48444C107.428 2.48444 107.507 2.48444 107.589 2.48914C107.699 2.49619 107.741 2.54555 107.717 2.64662C107.694 2.75474 107.661 2.86286 107.629 2.97098C107.439 3.60561 107.25 4.24023 107.061 4.87486C106.72 6.01718 106.379 7.15716 106.036 8.29948C106.019 8.35824 106.001 8.41701 105.982 8.47577C105.954 8.56979 105.891 8.6309 105.802 8.6685C105.634 8.73902 105.466 8.81188 105.298 8.88005C103.957 9.43006 102.616 9.97771 101.273 10.5277C101.198 10.5583 101.126 10.5888 101.047 10.6217C101.063 10.7252 101.145 10.7252 101.205 10.7463C101.96 11.0143 102.71 11.294 103.45 11.5972C105.253 12.3376 106.998 13.1955 108.677 14.1897C109.331 14.5776 109.978 14.9795 110.609 15.4073C110.864 15.5789 110.838 15.5695 111.076 15.3791C111.527 15.0171 111.98 14.6551 112.419 14.2767C113.328 13.4964 114.211 12.6831 115.045 11.8205C116.668 10.1446 118.142 8.34649 119.41 6.3815C120.405 4.8396 121.269 3.22718 121.928 1.509C122.117 1.0154 122.297 0.517102 122.419 0H122.479C122.514 0.296158 122.472 0.587614 122.449 0.883773C122.39 1.62417 122.292 2.36221 122.176 3.09556C121.93 4.63511 121.573 6.15116 121.092 7.6343C120.365 9.87429 119.37 11.9827 118.086 13.9547C117.109 15.4496 115.984 16.8223 114.736 18.0939C114.68 18.1526 114.622 18.209 114.568 18.2701C114.496 18.3548 114.498 18.3947 114.587 18.4746C114.865 18.7261 115.15 18.9706 115.423 19.2291C116.371 20.1341 117.287 21.0695 118.146 22.0614C119.233 23.3142 120.239 24.6281 121.164 26.0055C122.568 28.0951 123.773 30.2951 124.808 32.5915C125.511 34.1499 126.144 35.7364 126.677 37.363C126.677 37.4335 126.677 37.5063 126.677 37.5768C126.677 37.638 126.635 37.5933 126.616 37.6074L126.623 37.6215ZM94.9572 8.12555C96.1625 8.12555 97.3677 8.12555 98.5706 8.12555C98.7458 8.12555 98.907 8.09499 99.0705 8.02448C99.8226 7.69777 100.579 7.38045 101.334 7.05844C101.558 6.96442 101.782 6.8704 102.004 6.77403C102.07 6.74583 102.137 6.71527 102.161 6.64006C102.24 6.37681 102.319 6.11355 102.392 5.8503C102.408 5.78919 102.362 5.72572 102.296 5.71867C102.196 5.70692 102.095 5.70222 101.995 5.70222C98.7038 5.70222 95.415 5.70222 92.124 5.70222C92.0726 5.70222 92.0235 5.70222 91.9722 5.70222C91.7339 5.70927 91.7176 5.72102 91.6428 5.93727C91.6288 5.97487 91.6195 6.01483 91.6078 6.05479C91.4443 6.6001 91.2808 7.14541 91.1173 7.69306C91.0892 7.78943 91.0589 7.88815 91.0332 7.98687C91.0168 8.05268 91.0589 8.11145 91.1266 8.1185C91.2177 8.12555 91.3088 8.1279 91.3999 8.1279C92.5841 8.1279 93.7683 8.1279 94.9526 8.1279L94.9572 8.12555Z" fill="#FFFEEF"/>
<path d="M70.7074 5.73998C70.8195 5.81285 70.8989 5.86926 70.9853 5.91627C71.6043 6.26413 72.2256 6.6073 72.8446 6.95517C73.6224 7.39001 74.4025 7.82719 75.1803 8.26438C75.2597 8.30903 75.3391 8.35604 75.4139 8.40775C75.4746 8.44771 75.47 8.52058 75.4046 8.55349C75.3228 8.59579 75.241 8.6334 75.157 8.66866C74.0662 9.1317 72.973 9.59239 71.8823 10.0554C71.0881 10.3915 70.2939 10.7253 69.5021 11.0614C69.4507 11.0826 69.3807 11.0849 69.3526 11.1766C69.4554 11.1789 69.5512 11.186 69.6493 11.186C70.7541 11.186 71.8566 11.186 72.9614 11.186C76.4042 11.186 79.8495 11.186 83.2923 11.186C83.4045 11.186 83.5142 11.186 83.6264 11.1954C83.6918 11.2001 83.7315 11.2565 83.7221 11.3247C83.7128 11.3858 83.6988 11.4446 83.6824 11.5033C83.4302 12.3518 83.1802 13.2027 82.9256 14.0512C82.8229 14.392 82.8135 14.3944 82.4608 14.3991C82.4001 14.3991 82.3394 14.3991 82.2786 14.3991C76.1403 14.3991 70.002 14.3991 63.8637 14.3991C63.7422 14.3991 63.6207 14.3991 63.4993 14.3897C63.4152 14.385 63.3685 14.3262 63.3848 14.244C63.4059 14.1335 63.4362 14.0254 63.4666 13.9196C63.7329 13.0217 64.0015 12.1238 64.2701 11.2283C64.4126 10.7512 64.5644 10.274 64.6952 9.79453C64.7489 9.59709 64.8493 9.48662 65.0385 9.40905C65.7626 9.11525 66.4797 8.80968 67.1991 8.50647C67.2738 8.47592 67.3486 8.44301 67.4187 8.40541C67.449 8.38895 67.4467 8.35134 67.4187 8.33019C67.3696 8.29493 67.3182 8.26438 67.2645 8.23382C66.7623 7.94472 66.2625 7.65796 65.7603 7.36885C65.6996 7.33359 65.6365 7.29834 65.5781 7.26073C65.5197 7.22547 65.4963 7.16906 65.508 7.10325C65.522 7.03273 65.5407 6.96457 65.5617 6.89641C65.9588 5.559 66.3559 4.22158 66.7553 2.88652C66.8791 2.47049 66.8674 2.50104 67.2785 2.50104C73.1833 2.50104 79.088 2.50104 84.9928 2.50104C85.3478 2.50104 85.7028 2.49869 86.0555 2.50104C86.3195 2.5034 86.3452 2.53395 86.2751 2.7878C86.1653 3.18032 86.0438 3.56815 85.9294 3.95833C85.8009 4.39787 85.6725 4.8374 85.5417 5.27694C85.5136 5.37331 85.4786 5.46968 85.4436 5.56605C85.4155 5.63891 85.3595 5.68357 85.2847 5.69062C85.1843 5.70002 85.0839 5.70472 84.9811 5.70472C83.7058 5.70472 82.4281 5.70472 81.1528 5.70472C77.7893 5.70472 74.4282 5.70472 71.0647 5.70472C70.9596 5.70472 70.8475 5.68357 70.7074 5.73998Z" fill="#FFFEEF"/>
<path d="M55.2471 2.5C58.3373 2.5 61.4252 2.5 64.5153 2.5C64.6275 2.5 64.7372 2.5 64.8494 2.5094C64.9218 2.5141 64.9615 2.56346 64.9521 2.63163C64.9381 2.72094 64.9171 2.81261 64.8914 2.89958C64.506 4.19703 64.1183 5.49449 63.7305 6.79195C63.5881 7.26909 63.4386 7.74623 63.3054 8.22808C63.254 8.41377 63.1559 8.52189 62.9808 8.59475C62.0161 8.99668 61.0561 9.40566 60.0961 9.81229C59.003 10.273 57.9099 10.7337 56.8214 11.1991C56.6019 11.2931 56.3823 11.3401 56.144 11.3401C53.6822 11.3354 51.2203 11.3401 48.7608 11.3377C48.651 11.3377 48.5389 11.3283 48.4291 11.3166C48.3614 11.3072 48.3217 11.2484 48.3333 11.1826C48.3473 11.1027 48.3684 11.0228 48.3917 10.9452C48.637 10.1155 48.8822 9.28578 49.1275 8.45607C49.1415 8.40671 49.1578 8.3597 49.1742 8.31034C49.2139 8.18812 49.2957 8.12936 49.4241 8.13406C49.5246 8.13641 49.6273 8.13406 49.7278 8.13406C51.6221 8.13406 53.5163 8.13171 55.4106 8.13641C55.6582 8.13641 55.8871 8.09175 56.116 7.99538C57.1321 7.56055 58.1481 7.12806 59.1688 6.70733C59.3463 6.63447 59.4515 6.52869 59.4912 6.34301C59.5285 6.17377 59.5846 6.00924 59.6266 5.84236C59.643 5.77419 59.6009 5.72484 59.5285 5.71778C59.4468 5.71073 59.3674 5.71073 59.2856 5.71073C55.9735 5.71073 52.6615 5.71073 49.3494 5.71073C48.9453 5.71073 48.943 5.71073 48.8262 6.10091C48.3146 7.81675 47.8031 9.53494 47.2916 11.2531C47.016 12.1792 46.738 13.1076 46.4601 14.0337C46.348 14.4051 46.3433 14.4074 45.9532 14.4074C44.769 14.4074 43.5824 14.4074 42.3982 14.4074C42.3071 14.4074 42.216 14.4027 42.1249 14.3933C42.0595 14.3863 42.0152 14.3275 42.0245 14.2641C42.0385 14.1841 42.0595 14.1042 42.0829 14.0267C42.4262 12.8749 42.7673 11.7232 43.113 10.5738C43.5941 8.96377 44.0753 7.3537 44.5564 5.74599C44.8484 4.77055 45.1404 3.79511 45.4347 2.82202C45.5281 2.51411 45.5304 2.51175 45.8574 2.51175C48.38 2.51175 50.9026 2.51175 53.4229 2.51175C54.0302 2.51175 54.6375 2.51175 55.2471 2.51175V2.5Z" fill="#FFFEEF"/>
<path d="M26.812 2.5C27.4403 2.5 28.0686 2.5 28.6969 2.5C28.9796 2.5 29.0053 2.53291 28.9282 2.79851C28.8161 3.19104 28.704 3.58121 28.5755 3.96904C28.5194 4.13827 28.5451 4.25815 28.6806 4.37332C29.0683 4.70238 29.4467 5.0385 29.8298 5.37227C30.5258 5.97869 31.2242 6.58511 31.9226 7.19153C32.1211 7.36546 32.3244 7.53469 32.5206 7.71098C32.6373 7.81675 32.7425 7.81205 32.8756 7.73683C33.4362 7.40777 34.0014 7.08811 34.5643 6.76609C35.9821 5.95518 37.3976 5.14192 38.8154 4.33101C38.9041 4.28165 38.9859 4.22054 39.0793 4.18058C39.2545 4.10302 39.3316 3.96434 39.3783 3.7857C39.4554 3.48955 39.5465 3.19809 39.6352 2.90663C39.6609 2.81966 39.6936 2.7327 39.724 2.64573C39.7543 2.56111 39.8127 2.51175 39.9038 2.5094C39.9856 2.50705 40.065 2.5047 40.1467 2.5047C41.3426 2.5047 42.5385 2.5047 43.7321 2.5047C44.1315 2.5047 44.1315 2.5047 44.0147 2.89723C43.7648 3.73634 43.5079 4.57311 43.265 5.41458C43.2159 5.58381 43.1318 5.69663 42.98 5.7836C41.2819 6.75669 39.5862 7.73448 37.8881 8.70992C36.7459 9.36805 35.6014 10.0238 34.4592 10.682C34.4242 10.7031 34.3915 10.7266 34.3541 10.7431C34.1859 10.8206 34.0948 10.9499 34.0435 11.1309C33.8332 11.8642 33.609 12.5952 33.3918 13.3262C33.3077 13.6083 33.2283 13.8927 33.1395 14.1747C33.0788 14.3675 33.0368 14.3933 32.8312 14.4027C32.8102 14.4027 32.7915 14.4027 32.7705 14.4027C31.5349 14.4027 30.2993 14.4027 29.0637 14.4027C29.0123 14.4027 28.9632 14.4027 28.9118 14.3957C28.7787 14.3792 28.7297 14.3205 28.767 14.1889C28.8605 13.8457 28.9632 13.5025 29.0637 13.1617C29.2715 12.4589 29.4794 11.7561 29.6896 11.0533C29.7013 11.0134 29.7083 10.9734 29.7223 10.9358C29.7737 10.8159 29.7457 10.7219 29.6429 10.6397C29.5168 10.5386 29.3977 10.4281 29.2739 10.32C28.064 9.26698 26.8541 8.21163 25.6441 7.15862C25.1233 6.70498 24.5977 6.25839 24.0792 5.80005C23.7031 5.46864 23.7358 5.5462 23.8736 5.08081C24.0839 4.36862 24.2894 3.65408 24.5043 2.94189C24.6491 2.46474 24.6001 2.5047 25.0789 2.50235C25.6558 2.50235 26.2327 2.50235 26.812 2.50235V2.5Z" fill="#FFFEEF"/>
<path d="M12.4961 6.8421C13.9442 6.8421 15.3924 6.8421 16.8405 6.8421C16.9106 6.8421 16.983 6.8421 17.0531 6.8421C17.3357 6.8374 17.345 6.83505 17.4291 6.55064C17.6954 5.66452 17.9593 4.77604 18.2233 3.88757C18.3284 3.53735 18.4335 3.18478 18.5386 2.83456C18.5596 2.7664 18.583 2.69823 18.6087 2.63242C18.6414 2.55015 18.7044 2.50315 18.7955 2.5008C18.8352 2.5008 18.8773 2.49609 18.917 2.49609C20.1736 2.49609 21.4279 2.49609 22.6845 2.49609C22.7453 2.49609 22.806 2.5008 22.8667 2.50785C22.9345 2.51725 22.9718 2.56896 22.9578 2.63947C22.9438 2.71939 22.9228 2.7993 22.8994 2.87687C22.0516 5.72563 21.2037 8.57439 20.3582 11.4208C20.0965 12.2975 19.8373 13.1766 19.5757 14.0557C19.4799 14.38 19.4636 14.3941 19.1366 14.3941C17.922 14.3941 16.7074 14.3941 15.4905 14.3941C15.4111 14.3941 15.3293 14.3894 15.2499 14.3777C15.1845 14.3683 15.1401 14.3095 15.1541 14.2461C15.1798 14.1262 15.2102 14.0087 15.2452 13.8911C15.5792 12.77 15.9202 11.6488 16.2496 10.5276C16.4014 10.0129 16.4388 10.0505 15.9086 10.0505C13.0029 10.0505 10.0972 10.0505 7.18925 10.0505C7.06779 10.0505 6.94633 10.0505 6.82487 10.0387C6.74312 10.0317 6.70341 9.97056 6.71743 9.8883C6.72444 9.83894 6.73611 9.78723 6.75013 9.74022C7.00005 8.9011 7.25231 8.06434 7.50457 7.22522C7.62837 6.80919 7.62136 6.84445 8.03011 6.84445C9.51798 6.84445 11.0082 6.84445 12.4961 6.84445V6.8421Z" fill="#FFFEEF"/>
<path d="M86.9525 14.3991C86.3546 14.3991 85.759 14.3991 85.161 14.3991C84.7686 14.3991 84.7476 14.3709 84.855 14.0019C85.1236 13.0946 85.3946 12.1897 85.6655 11.2824C85.7286 11.0685 85.794 10.8546 85.8594 10.6407C85.8781 10.5819 85.8968 10.5255 85.9201 10.4691C85.9458 10.408 85.9949 10.3727 86.0626 10.3798C86.1327 10.3868 86.2051 10.3915 86.2728 10.4057C87.429 10.6501 88.5805 10.9251 89.7227 11.2307C90.0007 11.3059 90.0217 11.3599 89.9376 11.6373C89.6924 12.4341 89.4588 13.2356 89.2205 14.0348C89.2159 14.0536 89.2089 14.0724 89.2018 14.0935C89.1108 14.3826 89.0944 14.3991 88.8001 14.3991C88.1835 14.4014 87.5668 14.3991 86.9479 14.3991H86.9525Z" fill="#FFFEEF"/>
</svg>
