<?xml version="1.0" encoding="UTF-8"?>
<svg version="1.1" xmlns="http://www.w3.org/2000/svg" width="225" height="225">
<path d="M0 0 C74.25 0 148.5 0 225 0 C225 74.25 225 148.5 225 225 C150.75 225 76.5 225 0 225 C0 150.75 0 76.5 0 0 Z " fill="#372F35" transform="translate(0,0)"/>
<path d="M0 0 C74.25 0 148.5 0 225 0 C225 74.25 225 148.5 225 225 C150.75 225 76.5 225 0 225 C0 150.75 0 76.5 0 0 Z M32 39 C13.66510047 60.64617592 8.03204316 85.07884203 10 113 C12.37975762 131.24794377 21.20349431 147.18850245 33 161 C33.56074219 161.66257813 34.12148438 162.32515625 34.69921875 163.0078125 C50.0183206 179.60029057 72.89732397 188.75365225 95.11328125 190.203125 C112.77047848 190.46183851 130.87988533 187.13658048 145.79296875 177.125 C146.52128906 176.75375 147.24960938 176.3825 148 176 C151.28646548 177.21811202 153.40547791 179.16167981 155.85058594 181.62353516 C156.59105164 182.36415192 157.33151733 183.10476868 158.09442139 183.86782837 C159.27744843 185.06633926 159.27744843 185.06633926 160.484375 186.2890625 C161.29996887 187.10748627 162.11556274 187.92591003 162.95587158 188.76913452 C165.55864562 191.38309973 168.15437762 194.00393505 170.75 196.625 C172.5138634 198.39889454 174.2781809 200.17233766 176.04296875 201.9453125 C180.36726136 206.29165142 184.6857933 210.64365081 189 215 C192.81249879 213.2241334 195.23349496 210.99634812 198.203125 207.9921875 C198.6857782 207.50670441 199.1684314 207.02122131 199.66571045 206.52102661 C201.19858562 204.97700134 202.72434004 203.42615176 204.25 201.875 C205.29120361 200.82375991 206.33286541 199.77297343 207.375 198.72265625 C209.92199464 196.15366996 212.46265177 193.57851839 215 191 C213.58098338 187.77254476 211.87144235 185.62741893 209.37646484 183.14941406 C208.63584808 182.40894836 207.89523132 181.66848267 207.13217163 180.90557861 C206.33316437 180.11689392 205.5341571 179.32820923 204.7109375 178.515625 C203.89251373 177.70003113 203.07408997 176.88443726 202.23086548 176.04412842 C199.61690027 173.44135438 196.99606495 170.84562238 194.375 168.25 C192.60110546 166.4861366 190.82766234 164.7218191 189.0546875 162.95703125 C184.70834858 158.63273864 180.35634919 154.3142067 176 150 C177.37166233 146.51620072 178.87348677 143.12930957 180.46264648 139.73901367 C189.98104043 118.98804887 193.05247155 94.82073851 186.3984375 72.640625 C177.062296 48.33536277 160.98633293 28.176022 137 17 C100.59298355 1.9165657 58.94515616 9.69495333 32 39 Z " fill="#FEFEFE" transform="translate(0,0)"/>
<path d="M0 0 C13.42810584 10.54151982 23.40902739 24.8521912 26 42 C26.25757743 45.52695893 26.28071711 49.0274724 26.25 52.5625 C26.26160156 53.90344727 26.26160156 53.90344727 26.2734375 55.27148438 C26.22485974 71.87293535 18.6137701 86.71499527 7.41796875 98.6796875 C-6.08385894 111.63620712 -21.92963358 116.5319731 -40.28491211 116.34692383 C-57.2029456 115.89033564 -71.49923712 109.35793722 -83.6328125 97.56640625 C-90.11200581 90.54193429 -94.54468118 82.88510555 -98 74 C-98.48146484 72.82824219 -98.48146484 72.82824219 -98.97265625 71.6328125 C-104.06886659 56.79454425 -102.09470432 39.09379402 -95.6796875 25.125 C-87.20899751 8.46134756 -74.27447294 -2.3729174 -57 -9 C-37.97119776 -14.82793738 -16.34125751 -11.26388338 0 0 Z " fill="#FEFEFE" transform="translate(137,47)"/>
<path d="M0 0 C0.66 0.33 1.32 0.66 2 1 C-2.95 5.95 -7.9 10.9 -13 16 C-13.66 15.67 -14.32 15.34 -15 15 C-13.25420935 13.0585604 -11.50362507 11.12184216 -9.75 9.1875 C-9.25886719 8.64029297 -8.76773438 8.09308594 -8.26171875 7.52929688 C-5.68270045 4.69237675 -3.19370806 2.16715904 0 0 Z " fill="#3F373D" transform="translate(43,29)"/>
</svg>
