<svg width="77" height="74" viewBox="0 0 77 74" fill="none" xmlns="http://www.w3.org/2000/svg">
<path d="M38.0193 0C27.6949 0 26.399 0.0439967 22.3442 0.223311C18.297 0.403735 15.5344 1.02671 13.1174 1.94103C10.6167 2.8853 8.49579 4.14863 6.38286 6.20428C4.26804 8.25955 2.96904 10.3222 1.99507 12.7531C1.05228 15.1046 0.410951 17.7924 0.228855 21.7266C0.0475196 25.6704 0 26.9312 0 36.9724C0 47.0136 0.0456191 48.2699 0.229616 52.2134C0.415894 56.1494 1.05646 58.8362 1.99583 61.1869C2.96752 63.6189 4.26652 65.6815 6.3802 67.7365C8.49275 69.7932 10.6137 71.0595 13.1124 72.0038C15.5314 72.9181 18.2944 73.5411 22.3408 73.7215C26.3959 73.9008 27.6908 73.9448 38.0147 73.9448C48.3402 73.9448 49.632 73.9008 53.6868 73.7215C57.7339 73.5411 60.4996 72.9181 62.9185 72.0038C65.4181 71.0595 67.5359 69.7932 69.6481 67.7365C71.7629 65.6815 73.0616 63.6189 74.0359 61.188C74.9703 58.8362 75.612 56.1487 75.8021 52.2141C75.9842 48.2707 76.0317 47.0136 76.0317 36.9724C76.0317 26.9312 75.9842 25.6712 75.8021 21.7274C75.612 17.7913 74.9703 15.1049 74.0359 12.7542C73.0616 10.3222 71.7629 8.25955 69.6481 6.20428C67.5337 4.14789 65.4188 2.88456 62.9163 1.9414C60.4927 1.02671 57.7286 0.403365 53.6814 0.223311C49.6263 0.0439967 48.3353 0 38.0075 0H38.0193ZM34.6089 6.66273C35.6212 6.66125 36.7507 6.66273 38.0193 6.66273C48.1699 6.66273 49.3727 6.69822 53.3811 6.87532C57.0877 7.04021 59.0995 7.64249 60.4395 8.14863C62.2137 8.81857 63.4785 9.61975 64.8083 10.9141C66.1389 12.2082 66.9623 13.4404 67.653 15.1659C68.1735 16.4673 68.7935 18.4239 68.9623 22.0287C69.1444 25.9263 69.1839 27.0968 69.1839 36.9639C69.1839 46.831 69.1444 48.0019 68.9623 51.8991C68.7928 55.5039 68.1735 57.4604 67.653 58.7622C66.9642 60.4877 66.1389 61.7163 64.8083 63.0096C63.4778 64.3036 62.2145 65.1044 60.4395 65.7747C59.101 66.2831 57.0877 66.8839 53.3811 67.0488C49.3735 67.2259 48.1699 67.2643 38.0193 67.2643C27.8683 67.2643 26.6651 67.2259 22.6578 67.0488C18.9513 66.8824 16.9395 66.2801 15.5983 65.774C13.8245 65.1037 12.557 64.3029 11.2265 63.0088C9.89591 61.7148 9.07249 60.4855 8.38174 58.7593C7.8613 57.4575 7.24126 55.5009 7.07247 51.8962C6.89038 47.9986 6.85388 46.828 6.85388 36.9547C6.85388 27.0813 6.89038 25.917 7.07247 22.0194C7.24202 18.4147 7.8613 16.4581 8.38174 15.1548C9.07097 13.4293 9.89591 12.1971 11.2268 10.9031C12.5578 9.60903 13.8245 8.80785 15.5987 8.13643C16.9387 7.62807 18.9513 7.02727 22.6578 6.86164C26.1648 6.70746 27.5239 6.66125 34.6089 6.65349V6.66273ZM58.3122 12.8016C55.7936 12.8016 53.7503 14.787 53.7503 17.2367C53.7503 19.6861 55.7936 21.6734 58.3122 21.6734C60.8307 21.6734 62.8741 19.6861 62.8741 17.2367C62.8741 14.7873 60.8307 12.8001 58.3122 12.8001V12.8016ZM38.0193 17.9854C27.238 17.9854 18.4966 26.4868 18.4966 36.9724C18.4966 47.458 27.238 55.9553 38.0193 55.9553C48.801 55.9553 57.5393 47.458 57.5393 36.9724C57.5393 26.4871 48.8002 17.9854 38.0185 17.9854H38.0193ZM38.0193 24.6481C45.0176 24.6481 50.6915 30.1655 50.6915 36.9724C50.6915 43.7786 45.0176 49.2967 38.0193 49.2967C31.0209 49.2967 25.3475 43.7786 25.3475 36.9724C25.3475 30.1655 31.0206 24.6481 38.0193 24.6481Z" fill="#FFFEEF"/>
</svg>
