<?xml version="1.0" encoding="UTF-8"?>
<svg version="1.1" xmlns="http://www.w3.org/2000/svg" width="225" height="225">
<path d="M0 0 C74.25 0 148.5 0 225 0 C225 74.25 225 148.5 225 225 C150.75 225 76.5 225 0 225 C0 150.75 0 76.5 0 0 Z " fill="#FEFEFE" transform="translate(0,0)"/>
<path d="M0 0 C1.65 1.65 3.3 3.3 5 5 C6.14708746 6.00306477 7.31082358 6.98766788 8.49609375 7.9453125 C9.12966797 8.45900391 9.76324219 8.97269531 10.41601562 9.50195312 C11.08310547 10.03755859 11.75019531 10.57316406 12.4375 11.125 C13.14197266 11.69412109 13.84644531 12.26324219 14.57226562 12.84960938 C19.58364552 16.88843037 24.63616506 20.87295017 29.70874023 24.83447266 C34.87407527 28.8771625 39.95742306 33.01697744 45.0390625 37.1640625 C49.32451618 40.65530083 53.64329453 44.09818888 58 47.5 C63.04846593 51.44195285 68.03746028 55.4504392 73 59.5 C79.15257895 64.51740042 85.33953943 69.48349049 91.6171875 74.34375 C93.9399414 76.14720537 96.2031559 78.00365994 98.4453125 79.90625 C104.75639054 85.4478914 104.75639054 85.4478914 112.4375 88.3125 C118.95247519 87.45963052 124.27037942 81.78614317 129.07470703 77.64697266 C132.32810889 74.86388251 135.67037439 72.19093521 139 69.5 C140.35427671 68.39596831 141.70844404 67.29180242 143.0625 66.1875 C147.23857092 62.79444237 151.47004945 59.47544084 155.7109375 56.1640625 C160.18436708 52.66223753 164.59867202 49.09188836 169 45.5 C174.52339685 40.99240027 180.09184436 36.55157358 185.7109375 32.1640625 C190.86654718 28.12822325 195.94239223 23.99793648 201.01269531 19.85571289 C206.11314249 15.69714498 211.27078462 11.61743617 216.484375 7.6015625 C219.56965474 5.20602078 222.21659817 2.78340183 225 0 C225 49.5 225 99 225 150 C150.75 150 76.5 150 0 150 C0 100.5 0 51 0 0 Z " fill="#FEFEFE" transform="translate(0,75)"/>
<path d="M0 0 C1.27768848 -0.00573832 1.27768848 -0.00573832 2.58118886 -0.01159257 C5.44621172 -0.02194245 8.31103492 -0.01792663 11.17607117 -0.01396179 C13.22586758 -0.01830723 15.27566236 -0.02348981 17.32545471 -0.02944946 C22.90196658 -0.04287039 28.47841081 -0.04341458 34.05493569 -0.04088616 C38.70706073 -0.03981832 43.35917198 -0.04469515 48.01129407 -0.04949158 C58.98631484 -0.06059796 69.96130139 -0.06101815 80.93632507 -0.05497742 C92.26354721 -0.04893871 103.59064509 -0.0612435 114.91784602 -0.08254749 C124.63682387 -0.10015558 134.35576215 -0.106166 144.07475537 -0.10290974 C149.88204809 -0.10109512 155.68925223 -0.10375074 161.49653053 -0.11762428 C166.95891772 -0.13018469 172.42111117 -0.12827536 177.88349533 -0.11521339 C179.88861214 -0.11284399 181.8937425 -0.11559529 183.89884377 -0.12383652 C186.63591322 -0.13427502 189.37232917 -0.12622648 192.109375 -0.11352539 C192.90305979 -0.12089968 193.69674457 -0.12827396 194.51448041 -0.13587171 C200.14988262 -0.0808516 204.36611834 1.04025476 208.62016296 5.01069641 C210.31689902 8.40416853 210.31776476 10.50697354 209.74516296 14.26069641 C205.64201657 20.53609679 199.54517838 24.72413633 193.65922546 29.23725891 C189.62369169 32.33448539 185.68156307 35.5389659 181.74516296 38.76069641 C176.22247469 43.26914848 170.65329997 47.70913738 165.03422546 52.09663391 C160.56079588 55.59845888 156.14649095 59.16880806 151.74516296 62.76069641 C146.22337546 67.26698277 140.65763337 71.70796199 135.03862 76.09223938 C131.21506932 79.08368835 127.4379718 82.12679778 123.68095398 85.20137024 C121.00243898 87.39057471 118.31072726 89.563244 115.61869812 91.73579407 C113.85823951 93.16866148 112.1195028 94.62452433 110.38188171 96.08491516 C102.07058557 102.81210149 102.07058557 102.81210149 97.37016296 103.51069641 C90.79697872 102.74362823 85.49864991 97.06740165 80.67045593 92.90766907 C77.41705408 90.12457892 74.07478857 87.45163162 70.74516296 84.76069641 C69.39088625 83.65666472 68.03671893 82.55249883 66.68266296 81.44819641 C63.06823859 78.51147661 59.41573511 75.6267596 55.74516296 72.76069641 C50.00505629 68.27869531 44.3482305 63.70113084 38.70610046 59.09663391 C34.42064678 55.60539558 30.10186843 52.16250753 25.74516296 48.76069641 C20.01339563 44.28520685 14.36105063 39.71867147 8.73246765 35.11421204 C5.43798025 32.4252935 2.1270889 29.76561111 -1.23921204 27.16694641 C-1.87343079 26.67645813 -2.50764954 26.18596985 -3.16108704 25.68061829 C-4.34975561 24.76519238 -5.54220495 23.85464476 -6.73921204 22.95014954 C-11.25404075 19.47177789 -14.92599375 16.56259941 -15.75483704 10.76069641 C-15.17398398 6.69472502 -14.12917572 5.1350351 -11.25483704 2.26069641 C-7.45095274 -0.27522645 -4.40707472 -0.0208099 0 0 Z " fill="#020202" transform="translate(15.254837036132813,60.73930358886719)"/>
</svg>
