<svg width="127" height="114" viewBox="0 0 127 114" fill="none" xmlns="http://www.w3.org/2000/svg">
<path d="M126.676 0.105311C126.331 0.789667 125.633 0.777869 125.135 0.939126C115.86 3.99906 106.566 7.00001 97.2837 10.0324C90.4063 12.2782 83.5564 14.6105 76.6634 16.7973C69.3466 19.1218 62.0533 21.5131 54.7601 23.9083C53.8892 24.1915 53.7597 24.4668 53.7636 25.2298C53.7832 31.33 53.7754 37.4263 53.7793 43.5265V50.3111C35.6816 35.2159 17.8663 20.3568 6.10352e-05 5.45431C0.502231 5.05313 0.902394 5.24192 1.25941 5.24192C18.2351 5.24978 35.2147 5.25371 52.1904 5.32058C53.4968 5.32844 53.8892 5.00593 53.7911 3.69228C53.7087 2.54775 53.2418 1.00206 54.0108 0.321632C54.6581 -0.248665 56.1489 0.113179 57.271 0.113179C79.9902 0.105313 102.709 0.105311 125.429 0.105311H126.676Z" fill="#FFFEEF"/>
<path d="M99.512 46.2215C99.0608 46.9767 99.1353 47.3896 99.9474 47.7869C100.811 48.2156 101.556 48.8881 102.439 49.2618C103.47 49.6984 103.227 50.2096 102.815 50.9255C100.112 55.594 97.4209 60.2705 94.7374 64.9508C91.4812 70.6381 88.2406 76.3371 84.9726 82.0165C82.3166 86.6339 79.6252 91.2317 76.7613 95.7941C76.9771 93.5719 77.1536 91.3458 77.4086 89.1314C77.6519 87.0194 78.005 84.923 78.2482 82.811C78.5895 79.8848 78.7504 76.9271 79.2172 74.0205C79.5821 71.7669 79.6605 69.4896 80.0019 67.236C80.457 64.2311 80.81 61.2105 81.1435 58.1899C81.4927 55.0591 81.732 51.9166 82.0772 48.7859C82.3754 46.1035 82.701 43.4251 83.1444 40.7663C83.2856 39.9168 83.0659 39.4763 82.4029 39.0987C76.8123 35.909 71.2257 32.7232 65.643 29.5216C63.6578 28.385 61.6962 27.2129 59.5816 25.974C80.7394 19.0439 101.756 12.161 123.118 5.16406C119.128 12.0234 115.33 18.5051 111.584 25.0183C108.728 29.9818 105.942 34.9847 103.117 39.9679C101.933 42.0603 100.748 44.1606 99.512 46.2215Z" fill="#FFFEEF"/>
<path d="M76.9341 44.179C74.2584 67.1482 71.5789 90.1331 68.8836 113.26C67.8361 112.335 67.4124 111.069 66.7886 109.995C63.246 103.926 59.7857 97.8027 56.196 91.7575C52.6847 85.8461 49.35 79.8285 45.929 73.862C44.5362 71.4353 43.0925 69.0361 41.7351 66.5897C41.3898 65.9643 41.1544 65.8463 40.5424 66.2318C39.6401 66.7982 38.5377 67.101 37.7766 67.7972C36.7997 68.6978 36.5329 67.8719 36.2151 67.337C34.3948 64.2731 32.6215 61.1817 30.8364 58.0982C27.6861 52.6509 24.5318 47.2075 21.4011 41.7523C18.3292 36.3954 15.2848 31.0189 12.2247 25.6542C11.5578 24.4861 10.8595 23.3337 10.1729 22.1695C10.2435 22.0987 10.3102 22.0239 10.3769 21.9492C14.4257 25.3277 18.4626 28.7141 22.5192 32.0808C26.2345 35.1644 29.9851 38.2086 33.6925 41.3039C36.9723 44.0335 40.2129 46.8142 43.477 49.5595C46.4076 52.0216 49.35 54.4601 52.2806 56.9183C52.8142 57.3666 53.3242 57.4217 53.9519 57.0559C57.8634 54.7944 61.7983 52.5643 65.7176 50.3067C69.2093 48.2969 72.6891 46.2675 76.169 44.238C76.3966 44.1043 76.6163 44.0689 76.9341 44.179Z" fill="#FFFEEF"/>
</svg>
