<svg width="127" height="38" viewBox="0 0 127 38" fill="none" xmlns="http://www.w3.org/2000/svg">
<mask id="mask0_210_865" style="mask-type:luminance" maskUnits="userSpaceOnUse" x="0" y="0" width="127" height="38">
<path d="M126.676 0H0V37.4921H126.676V0Z" fill="white"/>
</mask>
<g mask="url(#mask0_210_865)">
<path d="M100.199 31.0801C99.1784 30.6591 98.6924 30.3664 98.6924 29.8282C98.6924 29.3621 99.1322 29.1145 99.555 29.1145C100.073 29.1145 100.418 29.2451 100.984 29.8845L102.68 28.2273C101.737 27.2096 100.797 26.9326 99.5575 26.9326C97.7837 26.9326 96.1678 28.1102 96.1678 29.9138C96.1678 31.3098 97.0936 32.4581 98.7726 33.1562L99.3995 33.4173C100.342 33.8091 100.702 34.1018 100.702 34.5657C100.702 35.0295 100.371 35.3065 99.6352 35.3065C98.899 35.3065 98.0655 34.7391 97.5796 34.0275L95.6795 35.4663C96.4497 36.8038 97.893 37.4883 99.6814 37.4883C101.754 37.4883 103.229 36.2814 103.229 34.4193C103.229 32.994 102.335 31.9605 100.797 31.3211L100.201 31.0734L100.199 31.0801ZM90.3897 29.3486H94.7853V27.0497H87.8797V37.3757H94.7853V35.0768H90.3897V33.3318H93.8425V31.0914H90.3897V29.3464V29.3486ZM80.2185 32.0979L74.6615 26.9349V37.378H77.1739V32.3163L80.2185 35.1376L83.263 32.3163V37.378H85.7755V26.9349L80.2185 32.0979ZM66.5313 37.378H73.3737V35.0656H69.0583V27.052H66.5313V37.378ZM64.4271 27.052H61.9V37.378H64.4271V27.052ZM56.2969 29.3509H60.3765V27.052H53.7844V37.378H56.2969V33.334H59.4362V31.0936H56.2969V29.3486V29.3509Z" fill="#FFFEEF"/>
<path d="M120.979 21.8745C119.173 21.8745 117.808 20.492 117.808 18.8348C117.808 17.1776 119.173 15.7951 120.979 15.7951C122.784 15.7951 124.15 17.1776 124.15 18.8348C124.15 20.492 122.784 21.8745 120.979 21.8745ZM120.979 24.1149C124.118 24.1149 126.677 21.7439 126.677 18.8348C126.677 15.9257 124.118 13.5547 120.979 13.5547C117.839 13.5547 115.281 15.9257 115.281 18.8348C115.281 21.7439 117.839 24.1149 120.979 24.1149ZM107.15 21.8745V15.7951H108.548C110.416 15.7951 111.687 17.1776 111.687 18.8348C111.687 20.492 110.416 21.8745 108.548 21.8745H107.15ZM108.548 23.9978C111.687 23.9978 114.214 21.6854 114.214 18.8348C114.214 15.9842 111.687 13.6718 108.548 13.6718H104.64V23.9978H108.548ZM102.536 13.6718H100.026V19.0667L92.9943 13.5547V23.9978H95.5043V18.6029L102.536 24.1149V13.6718ZM90.9994 13.6718H88.487V19.839C88.487 21.0909 87.656 21.8745 86.4314 21.8745C85.2067 21.8745 84.3757 21.0887 84.3757 19.839V13.6718H81.8633V19.8098C81.8633 22.3991 83.7634 24.1149 86.4314 24.1149C89.0993 24.1149 90.9994 22.3991 90.9994 19.8098V13.6718ZM80.296 22.4284V17.745H76.2455L75.1788 19.9268H77.8638V21.3656C77.3147 21.7304 76.6246 21.8745 75.7134 21.8745C73.908 21.8745 72.5425 20.492 72.5425 18.8348C72.5425 17.1776 73.908 15.7951 75.7134 15.7951C76.9064 15.7951 77.6451 16.1576 78.3182 16.9434L80.2183 15.5046C79.1346 14.2685 77.6281 13.5547 75.7134 13.5547C72.5741 13.5547 70.0155 15.9257 70.0155 18.8348C70.0155 21.7439 72.5741 24.1149 75.7134 24.1149C77.5965 24.1149 79.1978 23.5903 80.296 22.4284ZM64.4585 15.9707H68.854V13.6718H61.9484V23.9978H68.854V21.6989H64.4585V19.9539H67.9112V17.7135H64.4585V15.9684V15.9707ZM57.5213 17.7022C56.5008 17.2812 56.0148 16.9884 56.0148 16.4503C56.0148 15.9842 56.4546 15.7365 56.8774 15.7365C57.3949 15.7365 57.74 15.8671 58.3061 16.5066L60.0022 14.8494C59.0594 13.8316 58.119 13.5547 56.8798 13.5547C55.1061 13.5547 53.4902 14.7323 53.4902 16.5359C53.4902 17.9319 54.416 19.0802 56.095 19.7782L56.7219 20.0394C57.6647 20.4312 58.0243 20.7239 58.0243 21.1878C58.0243 21.6516 57.6938 21.9285 56.9576 21.9285C56.2213 21.9285 55.3879 21.3611 54.902 20.6496L53.0018 22.0907C53.7697 23.4281 55.2154 24.1126 57.0038 24.1126C59.0764 24.1126 60.5513 22.9058 60.5513 21.0437C60.5513 19.6184 59.6571 18.5849 58.119 17.9454L57.5237 17.6977L57.5213 17.7022Z" fill="#FFFEEF"/>
<path d="M70.3628 5.3349L64.8058 0.171875V10.615H67.3183V5.5533L70.3628 8.37461L73.4074 5.5533V10.615H75.9199V0.171875L70.3628 5.3349ZM62.8134 0.288961H60.3009V6.45621C60.3009 7.70813 59.4699 8.4917 58.2453 8.4917C57.0207 8.4917 56.1897 7.70587 56.1897 6.45621V0.288961H53.6772V6.42694C53.6772 9.01633 55.5774 10.7321 58.2453 10.7321C60.9133 10.7321 62.8134 9.01633 62.8134 6.42694V0.288961Z" fill="#FFFEEF"/>
</g>
<path d="M13.4855 0V10.2923H0.00243034V16.0294H13.4855V31.7549H0V37.4921H33.726V31.7549H33.7187V27.1998H26.9783V31.7549H20.2259V0H13.4855ZM26.9978 10.299H33.7405V0H26.9978V10.299ZM35.7208 10.299H42.4636V0H35.7208V10.299Z" fill="#FFFEEF"/>
</svg>
