<svg width="127" height="113" viewBox="0 0 127 113" fill="none" xmlns="http://www.w3.org/2000/svg">
<path d="M17.239 0.00277407C19.827 1.23697 22.2385 2.79567 24.7135 4.22955C31.678 8.26219 38.6288 12.3226 45.5823 16.3774C45.9544 16.5937 46.3209 16.8267 46.6737 17.0763C48.308 18.219 49.9644 18.2051 51.6567 17.2066C53.6135 16.0501 55.5785 14.9019 57.5408 13.7564C64.9601 9.4215 72.385 5.0921 79.8015 0.746066C81.4827 -0.238518 83.0592 0.0138678 84.5888 1.05669C86.0936 2.08288 87.6287 3.05914 89.1997 3.97439C91.4017 5.25574 93.6093 6.52044 95.8114 7.79902C96.8918 8.42582 96.8973 8.79192 95.7976 9.44092C92.4683 11.4045 89.128 13.3487 85.7932 15.304C76.8084 20.5653 67.8209 25.8294 58.8362 31.0907C56.4026 32.5162 53.9525 33.9113 51.5437 35.3757C49.992 36.3159 48.5561 36.2715 47.0155 35.3175C40.6131 31.3569 33.9683 27.818 27.4282 24.096C22.8007 21.4639 18.3442 18.5573 13.8243 15.745C10.8698 13.9062 7.8519 12.1756 4.74582 10.6058C3.85011 10.1537 2.99573 9.63506 2.16615 9.07759C1.35312 8.53121 1.36139 8.13183 2.21576 7.63816C5.22813 5.89919 8.24326 4.16576 11.2639 2.43789C12.7053 1.61416 14.1578 0.812629 15.6047 0C16.1504 0 16.6961 0 17.239 0V0.00277407Z" fill="#FFFEEF"/>
<path d="M126.674 49.7783C123.954 50.5549 121.233 51.3343 118.513 52.1108C118.521 52.1497 118.527 52.1885 118.535 52.2273C120.889 52.2273 123.24 52.2273 125.593 52.2273C126.58 52.2273 126.58 52.2301 126.583 53.2119C126.583 53.8748 126.566 54.5376 126.586 55.2005C126.599 55.6498 126.459 55.8633 125.968 55.8633C121.176 55.8522 116.385 55.8522 111.593 55.8633C111.113 55.8633 110.956 55.6664 110.962 55.2088C110.975 53.9968 110.986 52.7848 110.956 51.5755C110.942 51.0486 111.138 50.8045 111.637 50.652C114.219 49.8615 116.793 49.0378 119.368 48.2252C119.494 48.1864 119.618 48.1337 119.91 48.0283C118.993 47.7759 118.227 47.5596 117.458 47.3515C115.509 46.8246 113.563 46.2838 111.606 45.7818C111.119 45.6569 110.948 45.4212 110.959 44.9248C110.986 43.6906 110.981 42.4564 110.962 41.2222C110.953 40.7229 111.141 40.5371 111.642 40.5371C116.41 40.5482 121.181 40.5482 125.949 40.5371C126.418 40.5371 126.599 40.7118 126.588 41.1833C126.566 42.0043 126.558 42.8308 126.591 43.6517C126.613 44.2092 126.371 44.3479 125.864 44.3451C123.342 44.3284 120.823 44.3368 118.276 44.4311C121.076 45.252 123.876 46.0757 126.677 46.8967V49.7756L126.674 49.7783Z" fill="#FFFEEF"/>
<path d="M126.674 66.6479C126.577 67.161 126.475 67.6741 126.384 68.19C126.313 68.5838 126.112 68.7752 125.687 68.7586C125.006 68.7336 124.326 68.7447 123.645 68.753C123.248 68.7586 123.028 68.6282 123.132 68.1872C123.444 66.8726 123.488 65.5247 123.595 64.1879C123.634 63.697 123.548 63.1839 123.444 62.6985C123.317 62.105 123.014 61.6501 122.317 61.6113C121.41 61.5586 121.063 61.7139 120.795 62.521C120.511 63.3836 120.329 64.2822 120.084 65.1586C119.649 66.7256 118.797 67.9265 117.146 68.362C116.08 68.6448 114.999 68.7114 113.916 68.4479C112.571 68.1207 111.703 67.2609 111.229 65.9712C110.603 64.2655 110.796 62.5044 110.893 60.7543C110.929 60.0998 111.119 59.4536 111.226 58.8046C111.295 58.3941 111.532 58.2332 111.937 58.2443C112.549 58.261 113.166 58.2859 113.776 58.236C114.445 58.1805 114.547 58.4801 114.42 59.0486C114.109 60.4575 113.974 61.8859 114.04 63.3281C114.087 64.3321 114.558 64.7509 115.495 64.6926C116.091 64.6566 116.319 64.2406 116.46 63.7774C116.702 62.9703 116.871 62.1411 117.099 61.3312C117.436 60.1469 117.921 59.0514 119.02 58.3636C121.881 56.5691 125.646 58.0086 126.566 61.2508C126.597 61.3589 126.635 61.4671 126.671 61.5753V66.6479H126.674Z" fill="#FFFEEF"/>
<path d="M0.0193088 47.4633C0.0193088 35.5567 0.0193088 23.653 0.0193088 11.7464C0.0193088 11.5412 0.0193088 11.336 0.0193088 11.1307C0.0330891 10.124 0.540202 9.78837 1.42214 10.2543C2.84978 11.0087 4.27742 11.7631 5.67198 12.5729C19.1656 20.3969 32.6455 28.2431 46.1447 36.0532C47.9581 37.1016 48.8043 38.5077 48.7905 40.6655C48.7216 51.4044 48.7381 62.1433 48.7381 72.885C48.7381 85.5209 48.7491 98.1569 48.7547 110.793C48.7547 111.02 48.7574 111.25 48.7547 111.478C48.7326 112.621 47.9196 113.128 46.9026 112.576C45.5053 111.816 44.141 110.993 42.763 110.199C40.2605 108.76 37.7773 107.282 35.2445 105.9C33.7507 105.085 33.1223 103.909 33.1361 102.231C33.1747 97.5467 33.1168 92.8623 33.1857 88.1779C33.2132 86.3224 32.5215 85.1104 30.9037 84.1924C26.0585 81.4467 21.2713 78.5928 16.4592 75.786C16.2332 75.6529 16.0099 75.3894 15.7233 75.5281C15.3871 75.6917 15.5166 76.0523 15.5166 76.3324C15.5111 81.6325 15.5111 86.9354 15.5111 92.2355C15.5111 93.5668 14.9682 93.8746 13.8106 93.1896C9.56629 90.674 5.34677 88.1169 1.16032 85.5015C0.339011 84.9884 -0.00273953 84.3727 1.65277e-05 83.3798C0.0275771 71.4067 0.0193088 59.4336 0.0193088 47.4577V47.4633ZM33.1361 50.9523C33.1361 50.2201 33.1113 49.4879 33.1416 48.7585C33.1995 47.405 32.6097 46.4537 31.4659 45.7798C28.2716 43.8966 25.0939 41.9884 21.9024 40.1052C20.1992 39.1012 18.4849 38.1083 16.7568 37.1459C15.908 36.6717 15.4973 36.9213 15.3705 37.8837C15.2879 38.4939 15.23 39.104 15.2383 39.7253C15.2823 42.8066 15.3705 45.8907 15.3264 48.972C15.3016 50.797 15.2355 52.6219 15.2438 54.4497C15.252 56.0832 15.9135 57.359 17.3521 58.1855C18.0412 58.5821 18.7219 58.9982 19.4137 59.3892C23.4678 61.6884 27.5413 63.9544 31.7167 66.0317C32.5353 66.4394 32.855 66.2369 32.8715 65.3328C32.888 64.3288 32.968 63.3248 32.9817 62.3236C33.0286 58.5322 33.0121 54.7409 33.1388 50.9495L33.1361 50.9523Z" fill="#FFFEEF"/>
<path d="M49.9011 75.5752C49.9011 63.7602 49.9149 51.9452 49.8873 40.1302C49.8846 38.333 50.6342 37.1154 52.1528 36.2307C64.1472 29.2609 76.125 22.2662 88.1166 15.2965C91.1841 13.5159 94.202 11.6494 97.3466 10.0047C98.2258 9.54429 98.4821 9.70238 98.4739 10.7175C98.4518 13.2746 98.4187 15.8318 98.3691 18.3889C98.3305 20.4219 98.4242 22.452 98.4987 24.4822C98.5703 26.4098 97.7959 27.7688 96.0954 28.7257C86.4657 34.1478 76.8636 39.6143 67.2477 45.0559C65.9414 45.7936 65.2551 46.7893 65.3461 48.3813C65.4839 50.8192 65.4287 53.2681 65.5472 55.706C65.641 57.6253 65.7457 57.4561 67.1072 56.6656C77.0703 50.8663 87.0472 45.0864 97.0187 39.2981C97.1758 39.2066 97.3301 39.1068 97.4954 39.0319C97.986 38.81 98.3471 38.9875 98.4491 39.52C98.4959 39.7641 98.4794 40.022 98.4821 40.2716C98.5317 43.059 98.438 45.8436 98.3719 48.6281C98.3305 50.4337 98.4077 52.2364 98.4959 54.0364C98.5786 55.7393 97.8896 56.8986 96.4068 57.7057C93.072 59.5196 89.773 61.4028 86.4492 63.2332C79.8126 66.8887 73.4158 70.9435 66.9501 74.8874C65.5665 75.7305 65.2744 76.9703 65.4067 78.4097C65.5886 80.4177 65.4535 82.4285 65.5032 84.4365C65.5059 84.5724 65.5032 84.7111 65.5032 84.847C65.5197 85.8842 66.0599 86.2115 66.9501 85.704C68.7884 84.6584 70.6211 83.6017 72.4539 82.5477C80.678 77.8245 88.8993 73.104 97.1206 68.3808C97.2198 68.3254 97.3191 68.2699 97.4183 68.2172C98.1045 67.8539 98.4601 68.0397 98.4739 68.819C98.5014 70.3944 98.4959 71.9725 98.4987 73.5506C98.5042 76.1549 98.4987 78.7619 98.5097 81.3662C98.5235 84.0066 97.3852 85.948 95.1115 87.2654C85.5672 92.793 76.0285 98.326 66.4953 103.873C61.6998 106.663 56.918 109.478 52.1308 112.282C51.9737 112.374 51.8193 112.471 51.6567 112.554C50.6122 113.1 49.9121 112.682 49.9121 111.497C49.9094 104.297 49.9121 97.1002 49.9121 89.9002C49.9121 85.1243 49.9121 80.3484 49.9121 75.5724H49.9039L49.9011 75.5752Z" fill="#FFFEEF"/>
<path d="M66.5367 51.7113C66.5808 50.882 66.4816 49.6977 66.6359 48.5107C66.7903 47.3264 67.358 46.4694 68.3695 45.887C72.8839 43.2993 77.3956 40.7061 81.9183 38.1296C84.2278 36.8122 86.5567 35.5308 88.8718 34.2217C90.0238 33.57 91.1731 33.459 92.3637 34.1163C93.8162 34.9151 95.2824 35.6917 96.7403 36.4821C97.0738 36.6652 97.49 36.8122 97.4927 37.2809C97.4955 37.7524 97.0711 37.8966 96.7458 38.088C91.5038 41.1471 86.2591 44.1979 81.017 47.2515C76.5605 49.8503 72.1067 52.4518 67.6474 55.0478C67.3442 55.2253 67.0108 55.6108 66.6883 55.4194C66.3658 55.2308 66.5505 54.7482 66.5422 54.396C66.5229 53.6194 66.5367 52.8429 66.5367 51.7113Z" fill="#FFFEEF"/>
<path d="M66.556 81.1768C66.5781 80.0147 66.5037 78.8526 66.636 77.6905C66.7324 76.8335 67.1293 76.2261 67.8293 75.8129C74.9923 71.5889 82.1608 67.3704 89.3982 63.274C90.3794 62.7193 91.3881 62.7249 92.3913 63.2158C93.9016 63.9563 95.3623 64.7911 96.812 65.6398C97.7932 66.2139 97.7877 66.6382 96.7927 67.2179C91.785 70.1328 86.7772 73.045 81.7667 75.9571C76.9546 78.7556 72.1426 81.554 67.3305 84.3524C66.6718 84.7352 66.5643 84.6797 66.556 83.917C66.545 83.0045 66.556 82.0893 66.556 81.1768Z" fill="#FFFEEF"/>
<path d="M105.871 47.1487C105.871 58.8 105.871 70.4542 105.871 82.1056C105.871 83.1428 105.871 83.1484 104.818 83.1428C103.311 83.1345 103.462 83.2954 103.462 81.7894C103.462 58.6225 103.462 35.4557 103.462 12.2888C103.462 11.4771 103.872 11.0713 104.692 11.0713C104.783 11.0713 104.873 11.0713 104.964 11.0713C105.866 11.0768 105.871 11.0768 105.871 11.9865C105.871 23.7072 105.871 35.428 105.871 47.1487Z" fill="#FFFEEF"/>
<path d="M118.756 24.0326C116.44 24.0326 114.123 24.0132 111.808 24.0437C111.146 24.052 110.931 23.819 110.959 23.17C111.044 21.1398 110.829 19.1041 111.083 17.0795C111.447 14.1507 112.78 12.6419 115.672 12.1122C117.802 11.7211 119.971 11.7211 122.101 12.1482C124.94 12.7168 126.508 14.6305 126.569 17.5399C126.61 19.5673 126.792 19.2067 124.959 19.2345C124.485 19.2428 123.931 19.4092 123.557 19.1429C123.132 18.8406 123.411 18.2471 123.355 17.7867C123.215 16.6413 122.73 16.0006 121.476 15.8924C119.582 15.726 117.667 15.6567 115.776 15.959C114.864 16.1032 114.448 16.6551 114.299 17.5953C114.203 18.2083 114.211 18.8212 114.175 19.4369C114.142 20.0027 114.384 20.1331 114.894 20.1303C118.461 20.1164 122.024 20.122 125.591 20.122C126.58 20.122 126.583 20.1248 126.583 21.0955C126.583 21.8277 126.555 22.5599 126.591 23.2893C126.619 23.8606 126.395 24.0464 125.839 24.0437C123.477 24.0243 121.115 24.0354 118.753 24.0354L118.756 24.0326Z" fill="#FFFEEF"/>
<path d="M16.9193 85.5135C16.9193 83.181 16.9138 80.8512 16.9221 78.5188C16.9249 77.72 17.1894 77.5674 17.884 77.9724C22.0539 80.3936 26.221 82.8176 30.3827 85.2472C31.0579 85.641 31.0579 86.0487 30.3744 86.4509C26.4525 88.7529 22.5279 91.0521 18.595 93.3374C17.6387 93.8921 16.9249 93.465 16.9221 92.3695C16.9166 90.0841 16.9221 87.7988 16.9221 85.5135H16.9193Z" fill="#FFFEEF"/>
<path d="M115.217 32.2923C118.758 33.1965 122.14 34.0646 125.524 34.9244C126.58 35.1934 126.58 35.1878 126.583 36.275C126.583 36.9823 126.552 37.6923 126.591 38.3995C126.627 39.0457 126.362 39.1206 125.819 38.9653C122.983 38.1554 120.139 37.3678 117.3 36.5718C115.377 36.0337 113.456 35.4874 111.526 34.9743C111.019 34.8411 110.826 34.5943 110.84 34.0673C110.871 32.8803 110.868 31.6905 110.84 30.5034C110.829 29.9903 110.995 29.7158 111.507 29.5743C116.275 28.2597 121.038 26.9229 125.806 25.5999C126.533 25.3975 126.575 25.4418 126.58 26.2129C126.586 27.0366 126.558 27.8603 126.591 28.6813C126.61 29.1833 126.431 29.4329 125.941 29.5355C125.254 29.6797 124.582 29.9071 123.896 30.0458C123.452 30.1346 123.287 30.3509 123.3 30.7946C123.322 31.4575 123.3 32.1204 123.306 32.7832C123.311 33.227 123.163 33.4184 122.686 33.2769C122.077 33.0966 121.459 32.9358 120.836 32.8193C120.266 32.7139 120.048 32.4365 120.079 31.8402C120.12 31.0387 120.079 31.0332 119.293 31.2356C117.998 31.5712 116.702 31.9096 115.22 32.2979L115.217 32.2923Z" fill="#FFFEEF"/>
<path d="M118.78 80.651C116.465 80.651 114.148 80.6343 111.832 80.6621C111.201 80.6704 110.948 80.4901 110.953 79.8106C110.984 76.9539 110.981 74.0973 110.953 71.2434C110.948 70.6055 111.165 70.3891 111.783 70.4307C112.37 70.4723 112.965 70.4612 113.552 70.4335C114.024 70.4141 114.194 70.5999 114.189 71.0742C114.172 72.6967 114.208 74.3191 114.172 75.9416C114.159 76.5546 114.318 76.8319 114.969 76.7681C115.465 76.721 115.969 76.7376 116.465 76.7653C116.942 76.7903 117.102 76.5962 117.094 76.1247C117.074 74.6159 117.105 73.1071 117.077 71.6011C117.066 71.0464 117.234 70.8079 117.81 70.8468C118.397 70.8856 118.993 70.8856 119.58 70.8468C120.161 70.8107 120.321 71.0686 120.313 71.6122C120.288 73.0738 120.332 74.5382 120.294 75.9999C120.277 76.6128 120.492 76.818 121.079 76.7709C121.597 76.7293 122.126 76.7293 122.644 76.7709C123.232 76.8153 123.378 76.5601 123.369 76.011C123.342 74.4107 123.383 72.8104 123.347 71.2128C123.333 70.6082 123.537 70.3919 124.133 70.4335C124.742 70.4751 125.359 70.4585 125.971 70.4391C126.398 70.4252 126.586 70.5833 126.586 71.0326C126.575 74.0252 126.572 77.0177 126.588 80.0131C126.591 80.6233 126.247 80.6593 125.797 80.6565C123.458 80.651 121.12 80.6565 118.78 80.6565V80.651Z" fill="#FFFEEF"/>
<path d="M31.8683 56.557C31.8683 59.092 31.8683 61.6297 31.8683 64.1647C31.8683 64.9135 31.8325 64.9385 31.1463 64.6362C27.9547 63.2272 25.0058 61.3773 22.0209 59.594C20.5961 58.7425 19.1574 57.9188 17.7105 57.1006C17.275 56.8538 17.2282 56.6985 17.6939 56.4267C22.2249 53.7725 26.7503 51.1071 31.273 48.4363C31.7774 48.1395 31.8794 48.2921 31.8766 48.8107C31.8628 51.3928 31.8711 53.9749 31.8711 56.557H31.8683Z" fill="#FFFEEF"/>
<path d="M16.7844 46.9428C16.7844 44.3856 16.7844 41.8257 16.7844 39.2685C16.7844 38.5474 16.8616 38.4892 17.4431 38.8303C21.9189 41.4402 26.3865 44.0639 30.8651 46.6737C31.3391 46.9511 31.2564 47.1203 30.843 47.3615C26.3644 49.9658 21.8886 52.5757 17.4183 55.1938C16.845 55.5294 16.7789 55.2493 16.7816 54.7529C16.7899 52.1486 16.7844 49.547 16.7844 46.9428Z" fill="#FFFEEF"/>
</svg>
