<svg width="127" height="134" viewBox="0 0 127 134" fill="none" xmlns="http://www.w3.org/2000/svg">
<path d="M0.00782131 133.322V32.5881C6.26592 32.5647 12.5201 32.5334 18.7782 32.5216C24.1015 32.5099 29.4209 32.4982 34.7403 32.5334C35.941 32.5412 36.4886 32.1109 36.3987 30.8944C36.3595 30.3546 36.3947 29.8109 36.3947 29.2671C36.4104 19.5114 36.43 9.75571 36.4456 0C50.0726 0 63.6996 0 77.3266 0C77.8116 0.0782334 78.2927 0.187759 78.7777 0.230787C86.6434 0.942712 94.3213 2.48 101.545 5.7658C117.758 13.1432 126.21 25.8092 126.527 43.5839C126.789 58.2917 126.648 73.0114 126.543 87.7271C126.492 94.7759 124.904 101.551 121.74 107.876C116.311 118.727 107.358 125.459 96.1244 129.433C88.6538 132.078 80.9211 133.349 73.0203 133.368C49.173 133.431 25.3257 133.396 1.47848 133.396C0.98565 133.396 0.492825 133.345 0 133.322H0.00782131ZM36.7311 66.6314C36.7311 77.2946 36.7311 87.9579 36.7311 98.6172C36.7311 100.534 36.8719 100.679 38.722 100.679C48.3477 100.686 57.9734 100.686 67.5953 100.679C69.4727 100.679 69.6213 100.534 69.6252 98.6524C69.637 93.3716 69.6252 88.0869 69.637 82.8062C69.6409 80.9051 69.7778 80.7799 71.6552 80.776C78.6643 80.7682 85.6734 80.776 92.6824 80.7682C94.685 80.7682 94.7476 80.7056 94.7476 78.6637C94.7515 70.8639 94.7515 63.064 94.7476 55.2641C94.7476 53.1244 94.7007 53.0775 92.612 53.0736C85.6538 53.0697 78.6917 53.0736 71.7334 53.0657C69.7739 53.0657 69.6409 52.9327 69.637 50.9534C69.6252 45.6218 69.637 40.2902 69.6292 34.9586C69.6292 32.7524 69.5588 32.6859 67.4075 32.6859C57.9304 32.6859 48.4533 32.6859 38.9762 32.6859C36.7937 32.6859 36.7272 32.7524 36.7233 34.9273C36.7194 45.4927 36.7233 56.0543 36.7233 66.6197L36.7311 66.6314Z" fill="#FFFEEF"/>
</svg>
