<svg width="127" height="142" viewBox="0 0 127 142" fill="none" xmlns="http://www.w3.org/2000/svg">
<rect y="13" width="127" height="129" rx="36" fill="#5C41D4"/>
<rect width="127" height="129" rx="36" fill="#5C9CF5"/>
<rect y="13" width="127" height="118" rx="36" fill="#5865F2"/>
<mask id="mask0_249_42" style="mask-type:luminance" maskUnits="userSpaceOnUse" x="15" y="36" width="99" height="70">
<path d="M14.9999 36H113.893V106H14.9999V36Z" fill="white"/>
</mask>
<g mask="url(#mask0_249_42)">
<path d="M98.7166 42.2341C92.3051 39.5452 85.5389 37.6275 78.5875 36.529C78.5243 36.5184 78.4591 36.5263 78.4011 36.5514C78.3431 36.5765 78.2952 36.6177 78.2641 36.669C77.3948 38.0814 76.4316 39.9248 75.7577 41.3734C68.1563 40.3333 60.5944 40.3333 53.1493 41.3734C52.4748 39.8923 51.477 38.0814 50.6038 36.669C50.5716 36.6185 50.5234 36.5781 50.4656 36.5531C50.4078 36.5281 50.343 36.5197 50.2799 36.529C43.3278 37.625 36.5613 39.5428 30.1508 42.2341C30.0962 42.2558 30.05 42.292 30.0182 42.338C17.1978 59.8396 13.6861 76.911 15.4088 93.771C15.4193 93.8543 15.4655 93.9303 15.5374 93.9825C23.9957 99.6586 32.1894 103.105 40.2309 105.389C40.2935 105.406 40.3602 105.405 40.4222 105.386C40.4842 105.368 40.5385 105.332 40.578 105.285C42.4802 102.911 44.1757 100.408 45.63 97.7764C45.65 97.7403 45.6614 97.7008 45.6635 97.6604C45.6656 97.62 45.6583 97.5797 45.6421 97.5421C45.6259 97.5045 45.6011 97.4705 45.5694 97.4422C45.5378 97.414 45.4999 97.3922 45.4584 97.3783C42.7685 96.4458 40.2077 95.3095 37.7442 94.0186C37.6994 93.9945 37.6617 93.9606 37.6345 93.92C37.6074 93.8794 37.5916 93.8333 37.5885 93.7858C37.5854 93.7383 37.5952 93.6909 37.6169 93.6476C37.6386 93.6044 37.6717 93.5667 37.7131 93.5379C38.2328 93.1829 38.7435 92.8172 39.2449 92.4409C39.2889 92.4078 39.3421 92.3866 39.3985 92.3795C39.4549 92.3725 39.5123 92.38 39.5644 92.4011C55.7492 99.1531 73.2705 99.1531 89.2639 92.4011C89.3162 92.3787 89.3743 92.3702 89.4316 92.3765C89.4889 92.3829 89.543 92.404 89.5878 92.4373C90.0898 92.8156 90.6019 93.1826 91.1236 93.5379C91.1652 93.5664 91.1986 93.6039 91.2206 93.6469C91.2427 93.69 91.2528 93.7374 91.2501 93.7849C91.2474 93.8324 91.232 93.8785 91.2052 93.9193C91.1784 93.96 91.1411 93.9941 91.0964 94.0186C88.6316 95.3337 86.0498 96.4564 83.3783 97.3747C83.337 97.3893 83.2994 97.4117 83.2681 97.4404C83.2368 97.4691 83.2124 97.5036 83.1966 97.5414C83.1808 97.5793 83.1739 97.6198 83.1763 97.6603C83.1788 97.7007 83.1905 97.7403 83.2107 97.7764C84.69 100.387 86.377 102.896 88.2582 105.281C88.2967 105.33 88.3508 105.366 88.413 105.385C88.4752 105.405 88.5424 105.406 88.6053 105.389C96.6858 103.105 104.88 99.6586 113.338 93.9825C113.375 93.958 113.405 93.9268 113.427 93.891C113.449 93.8552 113.463 93.8156 113.467 93.7746C115.529 74.2828 110.013 57.351 98.8452 42.3416C98.818 42.2927 98.7723 42.2545 98.7166 42.2341ZM48.0469 83.5053C43.174 83.5053 39.1589 79.4177 39.1589 74.3976C39.1589 69.3774 43.0963 65.2898 48.0469 65.2898C53.036 65.2898 57.012 69.4136 56.9339 74.3976C56.9339 79.4177 52.997 83.5053 48.0469 83.5053ZM80.907 83.5053C76.0341 83.5053 72.0195 79.4177 72.0195 74.3976C72.0195 69.3774 75.9564 65.2898 80.907 65.2898C85.8961 65.2898 89.8721 69.4136 89.7945 74.3976C89.7945 79.4177 85.8961 83.5053 80.907 83.5053Z" fill="#FFFEEF"/>
</g>
</svg>
