<svg width="204" height="152" viewBox="0 0 204 152" fill="none" xmlns="http://www.w3.org/2000/svg">
<path d="M61.2573 13.5454C61.2573 26.9659 72.7398 37.8455 86.9148 37.8455H116.78C130.947 37.8455 142.437 26.9659 142.437 13.5454" stroke="#FFFEEF" stroke-width="7" stroke-miterlimit="10"/>
<path d="M155.533 105.248C172.205 105.248 185.72 91.0714 185.72 73.5842C185.72 56.0971 172.205 41.9209 155.533 41.9209C138.861 41.9209 125.345 56.0971 125.345 73.5842C125.345 91.0714 138.861 105.248 155.533 105.248Z" stroke="#FFFEEF" stroke-width="7" stroke-miterlimit="10"/>
<path d="M73.5649 60.9346H62.9674V49.819C62.9674 45.4609 59.5999 41.9209 55.4374 41.9209H46.3699C42.2149 41.9209 38.8399 45.453 38.8399 49.819V60.9346H28.2424C24.0874 60.9346 20.7124 64.4668 20.7124 68.8328V78.3436C20.7124 82.7017 24.0799 86.2417 28.2424 86.2417H38.8399V97.3573C38.8399 101.715 42.2074 105.255 46.3699 105.255H55.4374C59.5924 105.255 62.9674 101.723 62.9674 97.3573V86.2417H73.5649C77.7199 86.2417 81.0949 82.7096 81.0949 78.3436V68.8328C81.0949 64.4746 77.7274 60.9346 73.5649 60.9346Z" stroke="#FFFEEF" stroke-width="7" stroke-miterlimit="10"/>
<path d="M44.6602 13.5457C44.6602 7.99973 60.8452 3.5 80.8027 3.5H122.878C142.843 3.5 159.02 7.99973 159.02 13.5457" stroke="#FFFEEF" stroke-width="7" stroke-miterlimit="10"/>
<path d="M42.3875 145.076C37.5875 148.333 31.6325 149.269 26.2025 147.405C13.025 142.889 3.5 129.886 3.5 114.553V59.8958C3.5 34.2977 23.285 13.5454 47.69 13.5454H156.005C180.41 13.5454 200.195 34.2977 200.195 59.8958V114.553C200.195 129.532 191.105 142.291 178.4 147.082C172.632 149.261 166.205 148.364 161.135 144.754L114.027 111.226C110.832 108.952 107.067 107.741 103.212 107.741C103.182 107.741 103.152 107.741 103.13 107.741C99.4175 107.741 95.78 108.866 92.6675 110.982L42.4025 145.084L42.3875 145.076Z" stroke="#FFFEEF" stroke-width="7" stroke-miterlimit="10"/>
</svg>
