<svg width="127" height="73" viewBox="0 0 127 73" fill="none" xmlns="http://www.w3.org/2000/svg">
<path d="M126.664 69.6337C126.483 68.3993 126.326 67.1626 126.15 65.9282C125.657 62.4761 125.153 59.0287 124.676 55.5742C124.62 55.1589 124.456 54.9031 124.12 54.6848C122.548 53.6616 121.002 52.5985 119.416 51.5988C118.925 51.2914 118.726 50.9112 118.684 50.3715C118.646 49.8857 118.616 49.3952 118.503 48.9235C118.393 48.4565 118.531 48.2101 118.954 48.0012C120.246 47.3606 121.523 46.68 122.809 46.0206C123.092 45.8751 123.28 45.7178 123.224 45.347C122.935 43.4203 122.663 41.4913 122.389 39.5623C121.893 36.1078 121.389 32.6557 120.917 29.2013C120.838 28.6099 120.636 28.2861 120.016 28.1241C117.109 27.3614 114.207 26.5823 111.279 25.9111C110.903 25.8243 110.708 25.6905 110.69 25.2681C110.65 24.4514 110.549 23.6371 110.474 22.8228C110.335 21.2904 110.178 19.7579 110.073 18.2231C110.033 17.6505 109.807 17.2727 109.286 17.0544C108.862 16.8784 108.834 16.6203 109.155 16.3105C109.723 15.7614 109.873 15.0996 109.749 14.3345C109.653 13.7385 109.603 13.1353 109.549 12.5346C109.312 9.85692 109.061 7.17926 108.862 4.49691C108.822 3.9548 108.585 3.814 108.12 3.7436C105.173 3.28832 102.229 2.82836 99.2722 2.42237C95.7785 1.94128 92.2777 1.5306 88.7676 1.19266C85.8182 0.908704 82.8641 0.671681 79.9077 0.498021C76.3459 0.291505 72.7795 0.14366 69.213 0.0333621C67.1248 -0.0323473 65.0318 0.0192803 62.9435 0.0192803C60.5221 0.0568286 58.103 -0.0229604 55.6816 0.082644C53.9288 0.160087 52.1714 0.207022 50.4163 0.258651C49.5411 0.284466 48.6612 0.322014 47.7861 0.38303C45.259 0.561384 42.732 0.737392 40.2073 0.939213C38.2645 1.0941 36.3194 1.24899 34.3836 1.46958C31.4038 1.80986 28.4262 2.19473 25.4511 2.58429C23.7711 2.80254 22.0958 3.06773 20.4181 3.32118C20.1014 3.36811 19.8315 3.4526 19.8034 3.87971C19.7025 5.35582 19.5664 6.83194 19.4514 8.30805C19.2473 10.9317 19.0525 13.5554 18.8437 16.1768C18.6185 18.9929 18.3721 21.809 18.1586 24.6251C18.121 25.1109 17.9404 25.3385 17.4476 25.4465C13.7498 26.2514 10.0847 27.1948 6.43615 28.2016C6.03493 28.3119 5.86834 28.4949 5.82375 28.915C5.73459 29.8068 5.57504 30.6915 5.44834 31.5786C4.99314 34.742 4.5403 37.9031 4.08745 41.0665C3.64164 44.1924 3.20052 47.3183 2.75237 50.4419C2.30187 53.5865 1.84667 56.7288 1.39617 59.8735C0.948018 63.0158 0.509249 66.1628 0.0540553 69.3052C-0.0585699 70.0819 -0.0585696 70.1007 0.694612 70.1617C1.08411 70.1946 1.47126 70.2392 1.85841 70.272C3.37415 70.4011 4.88756 70.5231 6.40331 70.6569C8.47983 70.8376 10.5564 71.0277 12.6329 71.2084C14.5944 71.3797 16.556 71.5393 18.5176 71.7082C20.634 71.8913 22.7481 72.0837 24.8645 72.2644C26.8049 72.4334 28.75 72.5859 30.6881 72.769C31.0612 72.8042 31.4155 72.8464 31.7862 72.7408C37.1007 71.2342 42.4833 70.0514 47.962 69.2934C51.6153 68.7865 55.2827 68.4181 58.9618 68.3101C62.9224 68.1928 66.8854 68.1881 70.8461 68.4861C73.3731 68.6739 75.8978 68.8992 78.4061 69.2418C83.3193 69.913 88.174 70.8822 92.9535 72.2151C94.2698 72.5836 95.5626 72.884 96.9658 72.7314C100.298 72.3677 103.639 72.0955 106.978 71.8068C109.929 71.551 112.883 71.3257 115.835 71.0723C119.291 70.7766 122.745 70.4551 126.201 70.1641C126.582 70.1312 126.722 70.0233 126.664 69.6337ZM97.2872 9.71846C97.6908 9.92497 97.7213 9.67856 97.7025 9.38522C97.6368 8.39488 97.5946 7.39985 97.489 6.41421C97.3834 5.43327 97.4069 5.34174 98.3454 5.47082C100.739 5.79936 103.127 6.17015 105.521 6.51278C105.847 6.55971 105.927 6.73807 105.95 7.02672C106.058 8.32683 106.178 9.62693 106.293 10.927C106.363 11.7038 106.311 11.7461 105.509 11.6193C104.972 11.5349 104.434 11.4363 103.892 11.38C103.575 11.3448 103.456 11.2087 103.435 10.9012C103.388 10.2394 103.306 9.58235 103.247 8.92291C103.219 8.59905 103.073 8.45121 102.735 8.416C102.116 8.35029 101.501 8.23765 100.887 8.13909C100.626 8.09685 100.528 8.19071 100.544 8.45355C100.612 9.40634 100.664 10.3615 100.729 11.3143C100.753 11.6452 100.919 11.8751 101.224 12.0488C102.039 12.5111 102.832 13.0157 103.641 13.485C103.941 13.6587 104.082 13.8746 104.085 14.2336C104.087 14.7405 104.155 15.2451 104.193 15.7496C104.221 16.111 104.085 16.158 103.789 15.9773C103.055 15.529 102.315 15.0926 101.574 14.6584C101.065 14.358 100.997 14.3815 101.032 14.94C101.138 16.6696 101.271 18.3991 101.393 20.1311C101.412 20.4103 101.56 20.5417 101.837 20.5769C102.475 20.6544 103.116 20.7271 103.749 20.8374C104.129 20.9031 104.228 20.8046 104.186 20.4127C104.103 19.6382 104.075 18.8568 104.024 18.08C104 17.7397 104.113 17.6435 104.425 17.8336C105.176 18.2912 105.924 18.7512 106.689 19.183C107.053 19.3895 107.032 19.7344 107.067 20.0489C107.179 21.0745 107.255 22.1047 107.355 23.1326C107.402 23.5925 107.205 23.7193 106.774 23.6535C104.23 23.2687 101.687 22.8862 99.1385 22.5271C98.7795 22.4755 98.6434 22.3628 98.6199 21.992C98.4815 19.8142 98.3173 17.6364 98.1647 15.461C98.1249 14.8954 98.0756 14.3322 98.0498 13.769C98.031 13.3724 97.8269 12.7927 98.8217 13.2386C98.3853 12.6848 97.9418 12.558 97.5735 12.3351C97.2544 12.1427 97.0995 11.9268 97.0995 11.5419C97.0995 11.0186 97.0315 10.4929 96.9986 9.96721C96.9845 9.76774 97.0197 9.58235 97.2872 9.71846ZM88.0965 4.29039C88.6972 4.36784 89.2955 4.43589 89.8962 4.48752C90.2341 4.51568 90.3561 4.66822 90.3701 5.0085C90.4382 6.56675 90.5438 8.12266 90.6048 9.67856C90.6259 10.2629 90.8113 10.6666 91.372 10.9223C91.9211 11.1688 92.4396 11.4926 92.9558 11.8047C93.3852 12.0629 93.5096 11.9127 93.4814 11.4738C93.3758 9.84049 93.2726 8.20714 93.1717 6.57379C93.1459 6.16546 93.1482 5.75477 93.1224 5.34644C93.099 4.98973 93.2515 4.83719 93.6034 4.87943C94.3003 4.95922 94.9972 5.04136 95.694 5.12115C95.9592 5.14931 95.9733 5.3394 95.985 5.54591C96.1445 8.07338 96.2947 10.6008 96.4683 13.126C96.6443 15.7121 96.8344 18.2935 97.0361 20.8773C97.1441 22.2572 97.0784 22.3323 95.7316 22.1188C95.3092 22.0507 94.8869 21.985 94.4598 21.9404C94.1642 21.9076 94.0821 21.7527 94.068 21.4734C93.9624 19.6054 93.8404 17.7397 93.7254 15.874C93.6949 15.346 93.7207 15.3296 94.5561 15.17C93.4415 14.5434 92.3317 13.9074 91.2055 13.2973C90.8253 13.0908 90.8324 13.417 90.8418 13.6469C90.8793 14.4847 90.9239 15.3202 90.9779 16.158C91.0787 17.7702 91.1796 19.3848 91.297 20.997C91.3275 21.4265 91.1843 21.6189 90.7385 21.5626C90.0604 21.4804 89.3847 21.403 88.7042 21.3443C88.3945 21.3162 88.3288 21.1495 88.3147 20.8773C88.249 19.6922 88.1528 18.5071 88.0965 17.3196C87.9628 14.4777 87.8478 11.6334 87.7141 8.79149C87.6554 7.48903 87.585 6.18423 87.4982 4.88178C87.4653 4.41946 87.6319 4.23172 88.0965 4.29039ZM62.8567 3.79288C62.852 3.29771 62.9858 3.11466 63.5137 3.10762C65.9563 3.08181 68.3941 3.19915 70.832 3.22965C71.2379 3.23435 71.374 3.37281 71.3764 3.77645C71.3881 5.22206 71.3294 6.66532 71.4514 8.10858C71.4702 8.34325 71.3646 8.43478 71.1511 8.43243C70.4472 8.43009 69.7456 8.43243 69.0417 8.41131C68.678 8.39958 68.4903 8.21418 68.5091 7.80819C68.5349 7.22385 68.5021 6.63481 68.5091 6.05047C68.5161 5.68906 68.3801 5.50132 67.9999 5.50602C67.3946 5.5154 66.7892 5.5154 66.1839 5.50367C65.8483 5.49898 65.7427 5.67029 65.7451 5.97537C65.7521 6.8953 65.7568 7.81288 65.7498 8.73047C65.7474 9.0332 65.9093 9.18105 66.1604 9.30308C67.777 10.0846 69.3866 10.8825 71.008 11.6545C71.3247 11.8047 71.496 11.9714 71.5007 12.3492C71.5359 14.7875 71.6368 17.2258 71.6251 19.6664C71.6227 20.1756 71.4397 20.2906 70.9751 20.2836C68.4575 20.2437 65.9422 20.1005 63.4222 20.1663C63.028 20.1756 62.8591 20.0419 62.8614 19.6288C62.8755 17.7749 62.8731 15.9186 62.8638 14.0623C62.8614 13.6868 63.0045 13.5366 63.3847 13.5507C63.9689 13.5695 64.5555 13.5554 65.1421 13.5578C65.5621 13.5601 65.785 13.7314 65.7709 14.1961C65.7427 15.2099 65.7873 16.2237 65.846 17.2375C65.8718 17.6763 65.9844 17.8852 66.449 17.8688C66.9769 17.85 67.5049 17.857 68.0304 17.8852C68.4974 17.911 68.6475 17.7092 68.6335 17.261C68.6053 16.4232 68.6217 15.583 68.61 14.7429C68.5983 13.7948 68.5936 13.7948 69.5509 13.485C68.4598 12.9546 67.5025 12.4829 66.5382 12.0206C65.5011 11.5231 64.464 11.0186 63.4105 10.5539C62.9858 10.3662 62.852 10.1033 62.8567 9.6504C62.8778 7.6979 62.8802 5.74539 62.8567 3.79288ZM52.7815 19.3801C52.8026 17.7984 52.8002 16.2143 52.812 14.6326C52.819 13.8417 52.8636 13.8042 53.6261 13.7713C54.133 13.7502 54.6398 13.7244 55.1442 13.6657C55.6792 13.6047 55.8153 13.8394 55.7965 14.3369C55.7613 15.2944 55.8106 16.2519 55.7707 17.2093C55.7449 17.7632 55.9631 17.9298 56.484 17.8946C56.9885 17.8594 57.5 17.8664 58.0068 17.8829C58.4104 17.8946 58.5629 17.7233 58.5582 17.3243C58.5441 16.388 58.5441 15.4493 58.5629 14.5129C58.5746 13.9802 58.5723 13.3982 59.5014 13.5484C59.2199 13.1823 58.9172 13.1307 58.6591 13.0133C56.897 12.2201 55.1349 11.4269 53.3657 10.6501C53.056 10.514 52.9058 10.3404 52.9222 9.99068C53.0231 7.92553 53.0607 5.85568 53.0419 3.78819C53.0396 3.46668 53.185 3.31883 53.4736 3.27424C53.5886 3.25547 53.7059 3.24608 53.8232 3.24374C56.1649 3.20149 58.5066 3.17333 60.8482 3.10997C61.3832 3.09589 61.5709 3.25782 61.5568 3.80227C61.524 5.09064 61.524 6.38136 61.5568 7.66973C61.5686 8.19541 61.3738 8.35968 60.8741 8.33152C60.3086 8.29867 59.7408 8.3104 59.1753 8.32917C58.7975 8.34091 58.6474 8.19306 58.6591 7.81289C58.6779 7.20977 58.6591 6.60195 58.6708 5.99649C58.6755 5.65386 58.5347 5.49663 58.1851 5.50602C57.5985 5.5201 57.0119 5.5201 56.4254 5.52244C56.0664 5.52479 55.8974 5.68202 55.9021 6.05985C55.9138 6.95632 55.9162 7.85747 55.8927 8.75394C55.881 9.15289 56.1156 9.2937 56.416 9.42981C57.9294 10.1127 59.4334 10.8144 60.9538 11.4785C61.3926 11.6686 61.5615 11.9244 61.5568 12.4079C61.5287 14.771 61.524 17.1342 61.5404 19.4974C61.5451 20.0067 61.3973 20.1709 60.8764 20.1733C58.4761 20.1921 56.0757 20.2484 53.6754 20.2977C52.7533 20.3141 52.7674 20.3211 52.7815 19.3801ZM32.3611 21.0651C32.4761 19.5702 32.5488 18.0706 32.6403 16.571C32.828 13.4991 33.0181 10.4272 33.2034 7.35292C33.248 6.63481 33.2339 5.91201 33.3301 5.1939C33.3677 4.91933 33.4474 4.76444 33.7407 4.73158C34.3391 4.66822 34.9374 4.58609 35.5381 4.50864C36.0636 4.41712 36.2373 4.63537 36.2068 5.15869C35.9979 8.8173 35.8314 12.4783 35.5897 16.1322C35.5334 16.9887 35.5803 17.85 35.4372 18.6995C35.3832 19.014 35.5263 19.197 35.8595 19.1618C36.5376 19.0938 37.2134 19.0093 37.8915 18.9389C38.2082 18.906 38.2504 18.6854 38.2622 18.4367C38.342 16.7634 38.4194 15.0879 38.5039 13.4146C38.647 10.514 38.8018 7.61341 38.9379 4.71281C38.9567 4.32559 39.0928 4.16836 39.4964 4.15428C40.1182 4.13316 40.7423 4.0698 41.357 3.97827C41.7536 3.91726 41.8638 4.08153 41.8263 4.41946C41.709 5.43092 41.7911 6.45411 41.6879 7.45852C41.5705 8.60609 41.5964 9.75601 41.5236 10.9036C41.3711 13.316 41.3429 15.7356 41.235 18.1527C41.1998 18.9506 41.106 19.7462 41.1294 20.5464C41.1412 20.929 40.9394 21.0651 40.5945 21.0862C38.0674 21.2481 35.5498 21.518 33.0298 21.7879C32.3071 21.8653 32.3048 21.8043 32.3611 21.0651ZM21.4646 22.4825C21.6171 20.9125 21.7274 19.3378 21.8564 17.7655C22.0418 15.5126 22.2295 13.2621 22.4172 11.0092C22.5369 9.55418 22.6659 8.09919 22.7692 6.64185C22.7973 6.25463 22.9663 6.0974 23.3393 6.05047C25.7936 5.73365 28.2456 5.41215 30.6975 5.06717C31.0776 5.0132 31.1996 5.10707 31.1785 5.47316C31.0894 6.93285 31.0072 8.39019 30.9251 9.84988C30.9157 10.0587 30.8242 10.1714 30.6107 10.1972C29.8763 10.284 29.1395 10.3685 28.4075 10.4741C28.0626 10.5234 28.0579 10.3169 28.0696 10.0892C28.1048 9.48613 28.14 8.88301 28.1869 8.28224C28.2245 7.81993 28.0203 7.6979 27.5886 7.77769C27.0912 7.87156 26.5867 7.92553 26.0822 7.98185C25.6528 8.02879 25.4511 8.21184 25.4159 8.68588C25.1695 12.1849 24.895 15.6792 24.6204 19.1759C24.5172 20.4784 24.5031 20.476 25.7913 20.3399C27.2108 20.1897 27.2179 20.1897 27.3892 18.7582C27.4713 18.0612 27.5346 17.3619 27.5769 16.6625C27.6097 16.1721 27.5112 15.6276 28.3699 15.6628C28.0109 15.3202 27.6566 15.2615 27.3328 15.1512C27.0278 15.048 26.8753 14.8884 26.9058 14.5575C26.9527 13.9943 26.9879 13.431 27.0255 12.8655C27.0442 12.5862 27.1686 12.4712 27.4478 12.5721C28.7148 13.0251 29.9842 13.4756 31.2513 13.9309C31.5704 14.0459 31.5375 14.3322 31.5023 14.5763C31.4249 15.0808 31.3897 15.5854 31.3991 16.0923C31.4038 16.4279 31.2958 16.5757 30.9439 16.4349C30.5779 16.2894 30.4746 16.4537 30.4535 16.8151C30.3643 18.4085 30.2423 20.002 30.1485 21.5954C30.125 21.9709 30.003 22.1211 29.5994 22.1727C27.1076 22.4919 24.6204 22.8486 22.1286 23.1912C21.3543 23.2968 21.3872 23.2992 21.4646 22.4825ZM25.4511 37.0864C25.4252 37.3258 25.3431 37.4713 25.0756 37.5229C23.2009 37.889 21.3285 38.2668 19.4561 38.6447C19.1628 38.7033 19.1229 38.5555 19.1487 38.3185C19.2496 37.3892 19.3411 36.4575 19.442 35.5282C19.5218 34.8124 19.5992 34.0966 19.6978 33.3832C19.7447 33.0429 19.55 33.0078 19.3153 33.0594C17.7175 33.4114 16.1196 33.7751 14.5217 34.1389C14.2824 34.1929 14.1956 34.3665 14.1651 34.6106C13.8201 37.3939 13.4658 40.1748 13.1092 42.958C12.7408 45.8375 12.3678 48.7146 11.9994 51.5941C11.7061 53.8916 11.4081 56.1914 11.1289 58.4936C11.0491 59.1577 11.089 59.1765 11.7272 59.031C13.2875 58.679 14.8455 58.3129 16.4082 57.9773C16.7789 57.8999 16.9197 57.7309 16.9596 57.3601C17.1754 55.3841 17.4124 53.4129 17.6424 51.4392C17.9005 49.1957 18.1586 46.9499 18.4143 44.7064C18.473 44.2042 18.5387 43.6996 18.5739 43.1951C18.5973 42.8853 18.6607 42.7187 19.0314 42.8196C20.8006 43.2983 22.5744 43.7677 24.3506 44.2229C24.7143 44.3168 24.7425 44.5562 24.7166 44.8425C24.6298 45.7929 24.543 46.7434 24.4492 47.6938C24.2685 49.536 24.0808 51.3759 23.9001 53.2181C23.6772 55.4663 23.4566 57.7145 23.2361 59.9627C23.2314 60.0026 23.2244 60.0401 23.2197 60.08C23.0484 61.4717 23.0507 61.4787 21.6711 61.7345C15.8028 62.8304 9.98854 64.1634 4.22354 65.7216C4.09449 65.7568 3.96075 65.7827 3.73315 65.8343C4.0194 63.809 4.29393 61.88 4.56845 59.9533C5.01661 56.8086 5.46711 53.6663 5.91761 50.5217C6.37046 47.3582 6.8233 44.1971 7.27615 41.0337C7.72196 37.9078 8.18185 34.7866 8.60184 31.656C8.67927 31.0787 8.87402 30.7901 9.47234 30.6281C14.8619 29.1872 20.3031 27.9739 25.7819 26.932C26.4576 26.8029 26.4483 26.8123 26.3849 27.4905C26.1362 30.1095 25.8969 32.7285 25.6505 35.3451C25.5942 35.9271 25.5121 36.5068 25.4511 37.0864ZM46.7701 24.9231C46.6035 28.272 46.4651 31.6232 46.3125 34.972C46.2703 35.9248 46.2562 36.8799 46.2046 37.835C46.0732 40.21 46.0427 42.5919 45.923 44.9669C45.787 47.6938 45.6532 50.4184 45.5711 53.1477C45.5218 54.7834 45.4115 56.4191 45.3552 58.0548C45.3411 58.4537 45.2144 58.5781 44.8132 58.611C42.9314 58.7752 41.052 58.9724 39.1726 59.1671C38.5813 59.2281 38.478 59.1413 38.5156 58.5452C38.708 55.3161 38.9004 52.0869 39.1022 48.8578C39.1561 47.9825 39.257 47.1118 39.3016 46.2365C39.3227 45.8047 39.5198 45.6685 39.9234 45.6545C40.3669 45.638 40.8056 45.5582 41.2819 45.5019C41.174 45.2297 40.9957 45.2274 40.8549 45.1804C38.7244 44.4811 36.5916 43.7817 34.4564 43.0918C33.7994 42.8806 33.79 42.9087 33.7384 43.5964C33.5178 46.45 33.2809 49.3037 33.065 52.1597C32.889 54.5299 32.7271 56.9025 32.5746 59.2751C32.5464 59.7139 32.4596 59.9791 31.9317 60.0519C30.0405 60.3124 28.1588 60.6292 26.2723 60.9272C25.8687 60.9906 25.7092 60.8709 25.7537 60.4203C25.9602 58.3857 26.1292 56.3487 26.3216 54.3117C26.5398 51.986 26.7744 49.6604 26.9879 47.3324C27.2038 44.9669 27.3962 42.5966 27.6097 40.2287C27.8232 37.882 28.0602 35.5376 28.2761 33.1908C28.4521 31.2688 28.628 29.3491 28.7735 27.4248C28.8486 26.4298 28.8486 26.3805 29.7965 26.2279C31.317 25.9839 32.8397 25.7633 34.3602 25.5192C34.86 25.4394 35.0852 25.5779 35.0383 26.1294C34.8787 27.9528 34.745 29.7786 34.6042 31.6044C34.5103 32.8482 34.4235 34.092 34.332 35.3357C34.2945 35.8802 34.2616 36.4246 34.2124 36.9691C34.1795 37.3328 34.3015 37.5393 34.6722 37.659C36.1786 38.1378 37.6803 38.6283 39.1749 39.1445C39.5879 39.2877 39.7099 39.1211 39.7521 38.7714C39.8366 38.0533 39.8225 37.3305 39.8741 36.61C40.0407 34.3172 40.1393 32.0198 40.2683 29.7223C40.3457 28.3213 40.4326 26.9202 40.5123 25.5192C40.5452 24.9607 40.747 24.6885 41.3993 24.6533C42.9549 24.5688 44.5035 24.3787 46.0521 24.2097C46.627 24.1464 46.7982 24.3552 46.7701 24.9231ZM47.6805 20.6098C46.1999 20.699 44.7194 20.767 43.2412 20.8679C42.7062 20.9031 42.5795 20.7318 42.6616 20.1921C42.8212 19.1313 42.7179 18.0518 42.8024 16.9793C42.9197 15.4633 42.9408 13.9403 42.9502 12.4172C42.9526 11.854 43.0018 11.4386 43.8958 11.5231C43.4359 11.1148 43.0511 11.035 42.6991 10.9012C42.3824 10.7792 42.2275 10.5915 42.258 10.2418C42.305 9.67856 42.3402 9.11534 42.366 8.54977C42.3777 8.33152 42.441 8.19541 42.6804 8.28224C43.2107 8.47467 43.1708 8.08746 43.1825 7.78473C43.2318 6.65358 43.2787 5.52244 43.3022 4.39365C43.3092 4.02286 43.3843 3.83043 43.8184 3.80696C46.1718 3.67554 48.5252 3.50892 50.8786 3.36107C51.8054 3.30475 51.8171 3.31649 51.7983 4.2153C51.7725 5.48255 51.7209 6.7498 51.7045 8.01705C51.6998 8.4207 51.5426 8.5615 51.1437 8.55916C50.5008 8.55446 49.8532 8.51457 49.215 8.64129C48.8818 8.707 48.8138 8.49814 48.8161 8.22826C48.8208 7.6228 48.8091 7.01499 48.8302 6.41187C48.8419 6.01761 48.7058 5.82518 48.2905 5.85803C47.6875 5.90966 47.0845 5.94486 46.4815 5.98241C46.1624 6.00353 46.1014 6.24759 46.0943 6.47758C46.0685 7.43506 46.0685 8.39254 46.0521 9.34767C46.0474 9.67856 46.2961 9.76305 46.5308 9.86161C47.2487 10.1667 47.9691 10.4718 48.6917 10.7675C48.9498 10.8731 49.1141 11.0115 49.1047 11.326C49.0859 11.8916 49.0859 12.4571 49.0977 13.025C49.1071 13.4193 48.9264 13.4428 48.6237 13.3137C47.9057 13.0086 47.1807 12.7176 46.4651 12.4055C46.1084 12.2506 45.9629 12.2811 45.9184 12.7294C45.7611 14.3651 45.8573 16.0054 45.7166 17.6388C45.6603 18.31 45.7682 18.3757 46.4463 18.3358C46.932 18.3076 47.4177 18.2349 47.9034 18.2443C48.4008 18.2536 48.5604 18.0096 48.5627 17.5684C48.5674 16.8268 48.5956 16.0829 48.5838 15.3413C48.5768 14.94 48.7035 14.8626 49.0648 15.0221C49.7241 15.3155 50.3882 15.6018 51.0663 15.8529C51.4698 16.0007 51.5989 16.2542 51.559 16.6578C51.4534 17.7467 51.437 18.838 51.4487 19.9316C51.4534 20.2977 51.2774 20.3892 50.9466 20.408C49.8579 20.4619 48.7692 20.5464 47.6805 20.6098ZM66.862 57.9046C65.182 57.8694 63.502 57.8928 61.3433 57.8928C59.1448 57.8131 56.4723 57.9468 53.7998 58.036C52.0869 58.0947 50.3741 58.2355 48.6636 58.3598C48.1732 58.395 47.9597 58.2801 47.9808 57.7262C48.0887 54.9969 48.1333 52.2676 48.253 49.5384C48.3398 47.5507 48.4102 45.5629 48.4853 43.5752C48.6096 40.4001 48.734 37.2225 48.8419 34.045C48.9076 32.0573 49.0085 30.0719 49.0765 28.0842C49.1164 26.9531 49.1657 25.822 49.1821 24.6908C49.1892 24.2614 49.3018 23.9539 49.8438 23.9375C50.7002 23.914 51.5543 23.7967 52.4084 23.7545C57.1504 23.5339 61.8924 23.4611 66.6367 23.5034C67.1154 23.508 67.282 23.6442 67.2773 24.1346C67.2585 25.8337 67.2468 27.5351 67.2984 29.2318C67.4204 33.409 67.3054 37.5886 67.4274 41.7635C67.5307 45.3564 67.4227 48.9493 67.5401 52.5399C67.5893 54.0817 67.5776 55.6212 67.6316 57.163C67.655 57.7778 67.4368 57.9163 66.862 57.9046ZM76.9466 58.2589C75.0601 58.1557 73.169 58.0806 71.2802 58.0125C70.8954 57.9984 70.8414 57.7919 70.8367 57.4822C70.8038 55.4921 70.6818 53.5044 70.7616 51.5143H70.6021C70.6021 48.3744 70.656 45.232 70.5856 42.0921C70.5106 38.64 70.4542 35.1879 70.3463 31.7381C70.2783 29.5134 70.3135 27.291 70.2501 25.0686C70.2501 25.0287 70.2501 24.9889 70.2478 24.9513C70.175 23.623 70.175 23.5949 71.4819 23.6371C72.9813 23.6864 74.4806 23.7967 75.9799 23.8601C76.3647 23.8741 76.3929 24.083 76.4281 24.3881C76.6064 25.9792 76.536 27.582 76.6205 29.1778C76.78 32.177 76.8105 35.1809 76.9044 38.1824C76.9748 40.4047 77.0592 42.6248 77.1367 44.8472C77.2164 47.1071 77.2939 49.367 77.3737 51.627C77.444 53.6147 77.5051 55.6 77.5989 57.5878C77.6224 58.0923 77.4792 58.2871 76.9466 58.2589ZM78.2559 5.87915C77.9157 5.86742 77.7467 5.74069 77.7725 5.38633C77.7866 5.21032 77.7725 5.03432 77.7725 4.85831C77.7725 3.38923 77.5449 3.53004 79.0818 3.60279C81.3015 3.71074 83.5141 3.90787 85.729 4.0651C86.0716 4.09092 86.271 4.22703 86.2617 4.60955C86.2476 5.05779 86.257 5.50836 86.2804 5.9566C86.3016 6.35789 86.1045 6.47288 85.7455 6.44238C85.1424 6.3884 84.5394 6.36024 83.9388 6.28749C83.5892 6.24759 83.4883 6.35555 83.5188 6.70287C83.554 7.10886 83.5258 7.52189 83.5258 7.93022H83.5727C83.6947 11.1242 83.7863 14.3228 83.9622 17.5144C84.0185 18.5446 83.9552 19.5819 84.096 20.6074C84.1429 20.9383 83.9833 20.9876 83.7346 20.9665C83.0565 20.9102 82.3808 20.8233 81.7003 20.7905C81.2146 20.767 81.0645 20.5159 81.0621 20.0771C81.0551 18.9459 81.0246 17.8171 80.9612 16.686C80.858 14.8579 80.9073 13.018 80.7876 11.1899C80.6867 9.63398 80.7688 8.07103 80.6022 6.51747C80.5624 6.14199 80.4216 6.00118 80.0673 5.98476C79.4643 5.95894 78.8612 5.90027 78.2582 5.87915H78.2559ZM99.9926 60.8404C98.5871 60.6198 97.1793 60.4109 95.7738 60.2021C93.4228 59.8477 91.0647 59.5497 88.6995 59.2892C86.2593 59.0169 83.8214 58.7447 81.3695 58.5922C80.9917 58.5687 80.8228 58.4091 80.8111 58.0078C80.7477 56.1187 80.6586 54.2295 80.5811 52.338C80.4568 49.4163 80.3348 46.4946 80.2128 43.5729C80.1001 40.9422 79.9875 38.3138 79.8749 35.6831C79.7529 32.7801 79.6379 29.8772 79.5041 26.9742C79.4807 26.4509 79.3798 25.9299 79.4173 25.5286C79.4056 24.1792 79.4103 24.1252 80.5811 24.2238C83.0073 24.4303 85.4334 24.6627 87.8502 24.949C90.7925 25.2963 93.7231 25.721 96.649 26.1904C97.137 26.2678 97.3271 26.4884 97.367 26.9296C97.4937 28.3447 97.6157 29.7622 97.7448 31.1796C97.8902 32.8083 98.031 34.4393 98.1953 36.0679C98.275 36.8564 98.2351 36.9198 97.4773 36.8095C95.8184 36.5654 94.1619 36.3143 92.503 36.0844C92.0173 36.0163 91.8413 35.8168 91.8178 35.2958C91.7521 33.7587 91.5996 32.2239 91.487 30.6891C91.4682 30.4146 91.365 30.2644 91.0741 30.2292C89.5466 30.0438 88.0191 29.8467 86.4916 29.6542C86.0716 29.6002 85.8769 29.7575 85.9074 30.2057C86.02 31.8578 86.1162 33.5123 86.2194 35.1644C86.3109 36.6429 86.4001 38.1213 86.4893 39.5998C86.6418 42.1296 86.7966 44.6594 86.9468 47.1869C87.0336 48.6865 87.111 50.1861 87.1955 51.6833C87.2354 52.4038 87.2847 53.1242 87.3152 53.8447C87.3269 54.1568 87.4747 54.2906 87.7774 54.3258C89.3847 54.5158 90.9896 54.7059 92.5921 54.9171C93.106 54.9852 93.2914 54.8327 93.2468 54.2929C93.0028 51.4017 92.7822 48.5058 92.5616 45.6122C92.4349 43.9413 92.32 42.2681 92.1956 40.5972C92.1675 40.1935 92.212 39.9894 92.686 40.2639C94.6241 41.3974 96.5763 42.5051 98.5261 43.6198C98.7373 43.7419 98.8945 43.878 98.9179 44.1549C99.108 46.4664 99.3051 48.7757 99.5139 51.0849C99.7298 53.4715 99.9644 55.8559 100.185 58.2425C100.253 58.9982 100.272 59.7609 100.366 60.5142C100.413 60.892 100.281 60.8873 99.9926 60.8404ZM122.374 65.7029C119.627 64.9566 116.863 64.2713 114.089 63.6283C110.765 62.8586 107.423 62.1804 104.068 61.5538C103.716 61.4881 103.578 61.3684 103.545 61.0046C103.327 58.6203 103.09 56.236 102.853 53.8517C102.592 51.2351 102.32 48.6208 102.064 46.0041C101.949 44.8401 101.86 43.6761 101.75 42.4277C102.297 42.5098 102.796 42.5849 103.39 42.6741C103.198 42.3127 102.918 42.2352 102.7 42.1015C101.903 41.6086 101.098 41.1252 100.291 40.6535C100.054 40.515 99.8682 40.3461 99.8447 40.0739C99.7086 38.5039 99.5843 36.9292 99.4599 35.3569C99.4599 35.3264 99.4928 35.2935 99.5397 35.202C99.9081 35.4085 100.276 35.6127 100.643 35.8239C100.964 36.0069 101.121 35.9389 101.081 35.5516C100.915 33.8667 100.746 32.1793 100.577 30.4944C100.478 29.504 100.366 28.5184 100.288 27.5281C100.232 26.8311 100.272 26.8076 100.94 26.9437C102.949 27.345 104.955 27.7463 106.959 28.164C110.375 28.8798 113.761 29.727 117.14 30.6117C117.724 30.7642 117.996 30.9825 118.081 31.6325C118.487 34.742 118.963 37.8421 119.413 40.9468C119.472 41.3435 119.397 41.5289 118.914 41.3974C117.163 40.9281 115.401 40.4939 113.641 40.0527C113.348 39.9776 113.188 39.8486 113.151 39.5083C112.98 38.0181 112.757 36.5349 112.593 35.0447C112.529 34.4721 112.351 34.1342 111.727 34.0145C110.347 33.7517 108.977 33.4372 107.616 33.0993C107.06 32.9632 106.954 33.1744 107.011 33.6484C107.187 35.1574 107.355 36.6664 107.529 38.1753C107.585 38.6588 107.689 39.1422 107.693 39.6256C107.7 40.0762 107.9 40.3297 108.261 40.562C110.27 41.8433 112.262 43.1481 114.27 44.4318C114.639 44.6688 114.838 44.934 114.887 45.4034C115.026 46.7598 115.244 48.1068 115.42 49.4586C115.441 49.6205 115.535 49.8387 115.347 49.9397C115.199 50.0194 115.068 49.8458 114.941 49.766C112.982 48.5175 111.027 47.262 109.068 46.0135C108.897 45.9032 108.7 45.6709 108.503 45.8211C108.332 45.9548 108.437 46.2247 108.461 46.4359C108.721 48.7193 108.979 51.0027 109.237 53.2861C109.397 54.6801 109.559 56.0718 109.711 57.4657C109.744 57.7732 109.911 57.8999 110.19 57.9632C111.809 58.32 113.428 58.672 115.042 59.0521C115.504 59.1601 115.633 59.0826 115.563 58.5828C115.296 56.6913 115.07 54.7975 114.833 52.9036C114.817 52.7699 114.831 52.6361 114.831 52.5047C115.035 52.4272 115.143 52.5704 115.265 52.6502C117.243 53.9409 119.214 55.2433 121.199 56.5247C121.565 56.7617 121.718 57.0597 121.776 57.4728C122.133 60.08 122.482 62.6873 122.886 65.2851C122.978 65.8812 122.75 65.8038 122.374 65.7029Z" fill="#FFFEEF"/>
<path d="M60.989 29.1186C60.9186 33.3898 60.8646 37.6632 60.874 41.9343C60.874 44.2764 60.8834 46.6185 60.8693 48.9605C60.8623 50.1104 60.7942 51.2604 60.7895 52.4079C60.7895 52.8702 60.6136 53.0298 60.1701 53.0275C58.9805 53.0204 57.7885 53.0345 56.5989 53.0486C56.2493 53.0533 55.8974 53.0744 55.5501 53.1213C55.0574 53.1871 54.8087 53.0463 54.8556 52.4971C55.0715 50.0659 54.8931 47.6252 55.055 45.1916C55.1536 43.6944 55.0597 42.1854 55.1043 40.6835C55.2193 36.8254 55.3037 32.965 55.3296 29.1046C55.3319 28.654 55.5055 28.4827 55.9537 28.478C57.3779 28.4569 58.7998 28.4029 60.2217 28.3677C60.942 28.3513 60.9984 28.3982 60.989 29.1186Z" fill="#FFFEEF"/>
</svg>
