<svg width="127" height="171" viewBox="0 0 127 171" fill="none" xmlns="http://www.w3.org/2000/svg">
<path d="M2.04761 128.555C2.04761 128.222 2.21141 128.054 2.53901 128.054C2.67096 128.054 2.77561 128.095 2.86661 128.177C2.95761 128.259 2.99856 128.386 2.99856 128.555V135.292C2.99856 135.488 2.94851 135.624 2.85296 135.702C2.75286 135.779 2.64821 135.816 2.53901 135.816C2.21141 135.816 2.04761 135.647 2.04761 135.31V128.555Z" fill="#FFFEEF"/>
<path d="M5.45996 128.532C5.45996 128.377 5.49636 128.254 5.56916 128.163C5.64196 128.072 5.74207 128.031 5.86492 128.031C6.08787 128.031 6.26987 128.136 6.41092 128.35L10.5105 134.099H10.5196V128.551C10.5196 128.396 10.5696 128.273 10.6606 128.182C10.7516 128.09 10.8654 128.049 10.9928 128.049C11.1338 128.049 11.2521 128.095 11.3431 128.182C11.4341 128.268 11.4842 128.391 11.4842 128.551V135.347C11.4842 135.502 11.4432 135.62 11.3659 135.702C11.284 135.789 11.1839 135.83 11.061 135.83C10.8608 135.83 10.6834 135.729 10.5241 135.529L6.43821 129.785L6.41546 129.762V135.351C6.41546 135.502 6.36541 135.616 6.27441 135.693C6.18341 135.775 6.06966 135.811 5.93316 135.811C5.79666 135.811 5.69202 135.77 5.60102 135.688C5.51002 135.606 5.46452 135.483 5.46452 135.329V128.528L5.45996 128.532Z" fill="#FFFEEF"/>
<path d="M17.4901 128.449C17.7039 128.586 17.8086 128.755 17.8086 128.95C17.8086 129.06 17.7631 129.155 17.6812 129.233C17.5947 129.315 17.4855 129.356 17.3581 129.37C17.2171 129.338 17.0351 129.269 16.8167 129.165C16.5937 129.06 16.4254 128.982 16.298 128.937C16.1751 128.887 16.025 128.864 15.8521 128.864C15.5017 128.864 15.2151 128.964 14.9921 129.169C14.7692 129.37 14.6372 129.643 14.5917 129.98C14.6145 130.417 14.9239 130.759 15.5108 131.009C15.6291 131.055 15.8384 131.132 16.1524 131.237C16.4618 131.342 16.7257 131.438 16.9441 131.529C17.1625 131.62 17.3718 131.734 17.572 131.87C17.7722 132.007 17.9314 132.166 18.0497 132.349C18.2454 132.681 18.3455 133.041 18.3455 133.428C18.3455 133.815 18.2454 134.212 18.0452 134.576C17.845 134.94 17.5447 135.241 17.1443 135.473C16.7439 135.706 16.2661 135.82 15.711 135.82C15.3061 135.82 14.9239 135.769 14.5599 135.665C14.1959 135.56 13.9183 135.437 13.7363 135.296C13.5953 135.196 13.5179 135.059 13.5043 134.877C13.5043 134.749 13.5407 134.64 13.6226 134.549C13.6999 134.462 13.8046 134.417 13.932 134.417C14.0002 134.417 14.0912 134.444 14.205 134.503C14.7146 134.836 15.2515 135.004 15.8248 135.004C16.0887 135.004 16.3298 134.936 16.5573 134.799C16.7803 134.663 16.9577 134.476 17.0897 134.248C17.2216 134.02 17.2853 133.779 17.2853 133.519C17.2853 133.26 17.208 133.027 17.0578 132.845C16.9077 132.663 16.712 132.513 16.48 132.399C16.2434 132.285 15.9476 132.166 15.5836 132.043C15.2196 131.92 14.9967 131.843 14.9057 131.807C14.6236 131.674 14.387 131.538 14.2004 131.397C14.0139 131.255 13.8637 131.078 13.7545 130.864C13.6408 130.649 13.5862 130.385 13.5771 130.071C13.5771 129.684 13.6908 129.338 13.9183 129.028C14.1458 128.718 14.437 128.481 14.7965 128.313C15.1559 128.144 15.529 128.058 15.9112 128.058C16.5482 128.058 17.0715 128.19 17.481 128.454L17.4901 128.449Z" fill="#FFFEEF"/>
<path d="M21.5036 128.998H20.0021C19.8701 128.998 19.7654 128.957 19.6881 128.871C19.6107 128.784 19.5653 128.679 19.5562 128.556C19.5653 128.433 19.6153 128.333 19.6972 128.247C19.7791 128.16 19.8928 128.119 20.0293 128.119H23.9378C24.0925 128.119 24.2108 128.16 24.2927 128.247C24.3746 128.329 24.411 128.433 24.411 128.561C24.411 128.689 24.3746 128.793 24.2972 128.875C24.2244 128.957 24.1152 129.003 23.9787 129.003H22.4636V135.339C22.4636 135.485 22.4135 135.603 22.318 135.69C22.2179 135.776 22.1041 135.822 21.9722 135.822C21.8402 135.822 21.7356 135.781 21.6446 135.69C21.5536 135.603 21.5036 135.485 21.5036 135.339V129.003V128.998Z" fill="#FFFEEF"/>
<path d="M26.0532 128.555C26.0532 128.222 26.217 128.054 26.5446 128.054C26.6766 128.054 26.7812 128.095 26.8722 128.177C26.9632 128.259 27.0042 128.386 27.0042 128.555V135.292C27.0042 135.488 26.9541 135.624 26.8586 135.702C26.7585 135.779 26.6584 135.816 26.5446 135.816C26.217 135.816 26.0532 135.647 26.0532 135.31V128.555Z" fill="#FFFEEF"/>
<path d="M30.7623 128.998H29.2608C29.1289 128.998 29.0242 128.957 28.9469 128.871C28.8695 128.784 28.824 128.679 28.8149 128.556C28.8286 128.433 28.8695 128.333 28.956 128.247C29.0379 128.16 29.1516 128.119 29.2881 128.119H33.1966C33.3513 128.119 33.4696 128.16 33.5515 128.247C33.6334 128.329 33.6698 128.433 33.6698 128.561C33.6698 128.689 33.6334 128.793 33.556 128.875C33.4832 128.957 33.374 129.003 33.2421 129.003H31.7269V135.339C31.7269 135.485 31.6769 135.603 31.5813 135.69C31.4812 135.776 31.3675 135.822 31.2355 135.822C31.1036 135.822 30.9989 135.781 30.9079 135.69C30.8169 135.603 30.7669 135.485 30.7669 135.339V129.003L30.7623 128.998Z" fill="#FFFEEF"/>
<path d="M35.3169 128.537C35.3169 128.391 35.3624 128.272 35.4534 128.186C35.5444 128.099 35.6582 128.054 35.7856 128.054C35.913 128.054 36.0313 128.095 36.1268 128.181C36.2178 128.268 36.2679 128.386 36.2679 128.537V133.119C36.2679 133.52 36.3589 133.862 36.5409 134.144C36.7229 134.426 36.9731 134.64 37.3007 134.786C37.6238 134.932 37.9878 135.005 38.3973 135.005C38.8022 134.991 39.1571 134.905 39.462 134.75C39.7668 134.59 39.9989 134.372 40.1581 134.089C40.3219 133.807 40.3993 133.488 40.3993 133.124V128.541C40.3993 128.395 40.4448 128.277 40.5312 128.19C40.6177 128.104 40.7269 128.058 40.8497 128.058C40.9908 128.058 41.1045 128.099 41.2001 128.186C41.2956 128.272 41.3411 128.391 41.3411 128.541V132.814C41.3411 133.429 41.2319 133.957 41.0181 134.413C40.8042 134.864 40.4721 135.214 40.0307 135.456C39.5848 135.702 39.0343 135.825 38.37 135.825C37.8558 135.825 37.4054 135.752 37.0186 135.611C36.6319 135.469 36.3134 135.265 36.0631 135C35.8083 134.736 35.6218 134.422 35.4989 134.057C35.3761 133.693 35.3124 133.283 35.3124 132.837V128.541L35.3169 128.537Z" fill="#FFFEEF"/>
<path d="M45.0997 128.998H43.5982C43.4662 128.998 43.3616 128.957 43.2797 128.871C43.2023 128.784 43.1568 128.679 43.1477 128.556C43.1614 128.433 43.2023 128.333 43.2888 128.247C43.3707 128.16 43.4799 128.119 43.6209 128.119H47.5294C47.6841 128.119 47.8024 128.16 47.8843 128.247C47.9662 128.329 48.0026 128.433 48.0026 128.561C48.0026 128.689 47.9662 128.793 47.8888 128.875C47.8115 128.957 47.7068 129.003 47.5749 129.003H46.0597V135.339C46.0597 135.485 46.0097 135.603 45.9096 135.69C45.8095 135.776 45.6957 135.822 45.5638 135.822C45.4318 135.822 45.3272 135.781 45.2362 135.69C45.1452 135.603 45.0951 135.485 45.0951 135.339V129.003L45.0997 128.998Z" fill="#FFFEEF"/>
<path d="M50.3732 131.93C50.3732 132.399 50.446 132.869 50.5916 133.333C50.7372 133.798 50.9874 134.194 51.3423 134.517C51.7018 134.841 52.175 135.005 52.771 135.005C53.1032 135.005 53.4126 134.941 53.6992 134.814C53.9859 134.686 54.2407 134.495 54.4591 134.235C54.6775 133.98 54.8504 133.657 54.9778 133.274C55.1006 132.891 55.1689 132.445 55.1734 131.935C55.1734 131.434 55.1097 130.987 54.9869 130.6C54.864 130.213 54.6957 129.889 54.4773 129.639C54.2589 129.384 54.0041 129.192 53.7174 129.065C53.4262 128.937 53.1123 128.874 52.7756 128.874C52.3297 128.874 51.9202 128.992 51.5562 129.229C51.1922 129.466 50.901 129.817 50.6917 130.281C50.4778 130.746 50.3732 131.297 50.3732 131.939V131.93ZM49.3449 131.948C49.3449 131.265 49.4814 130.623 49.7498 130.026C50.0183 129.429 50.4187 128.951 50.9374 128.591C51.4606 128.231 52.0703 128.054 52.771 128.054C53.3079 128.054 53.7857 128.158 54.2134 128.363C54.6365 128.568 54.996 128.851 55.2826 129.211C55.5693 129.575 55.7922 129.985 55.9424 130.454C56.0925 130.919 56.1744 131.415 56.1881 131.948C56.1881 132.641 56.0516 133.283 55.7786 133.875C55.5056 134.467 55.1097 134.937 54.591 135.287C54.0723 135.638 53.4672 135.811 52.771 135.811C52.1295 135.811 51.5516 135.647 51.0284 135.328C50.5051 135.005 50.0911 134.549 49.7908 133.962C49.4905 133.374 49.3403 132.705 49.3403 131.948H49.3449Z" fill="#FFFEEF"/>
<path d="M61.9207 128.935V132.091H63.2902C63.7771 132.091 64.1775 131.941 64.4823 131.636C64.7917 131.331 64.9464 130.952 64.9464 130.488C64.9464 130.023 64.7917 129.622 64.4869 129.349C64.182 129.076 63.7953 128.939 63.3357 128.939H61.9207V128.935ZM60.9697 128.62C60.9697 128.438 61.0198 128.306 61.1199 128.233C61.2245 128.156 61.3292 128.119 61.4384 128.119H63.3767C63.7179 128.119 64.0364 128.169 64.3413 128.274C64.6416 128.379 64.91 128.529 65.1421 128.73C65.3741 128.93 65.5607 129.18 65.6972 129.477C65.8337 129.777 65.9019 130.119 65.9065 130.506C65.9065 130.829 65.8473 131.139 65.7245 131.426C65.6016 131.718 65.4333 131.973 65.2149 132.191C64.9965 132.41 64.7417 132.583 64.4459 132.711C64.1502 132.838 63.8362 132.897 63.5086 132.897H61.9207V135.348C61.9207 135.489 61.8706 135.603 61.7796 135.685C61.6841 135.767 61.5703 135.808 61.4429 135.808C61.3155 135.808 61.2063 135.767 61.1108 135.676C61.0198 135.59 60.9697 135.471 60.9697 135.325V128.616V128.62Z" fill="#FFFEEF"/>
<path d="M68.5729 131.934C68.5729 132.403 68.6457 132.872 68.7913 133.337C68.9369 133.802 69.1871 134.198 69.542 134.521C69.9015 134.845 70.3747 135.009 70.9707 135.009C71.3029 135.009 71.6123 134.945 71.8989 134.817C72.1856 134.69 72.4404 134.499 72.6588 134.239C72.8772 133.984 73.0501 133.66 73.1729 133.278C73.2958 132.895 73.364 132.449 73.3686 131.939C73.3686 131.438 73.3049 130.991 73.1866 130.604C73.0637 130.217 72.8908 129.893 72.677 129.643C72.4586 129.388 72.2083 129.196 71.9171 129.069C71.6259 128.941 71.312 128.878 70.9753 128.878C70.5294 128.878 70.1199 128.996 69.7559 129.233C69.3919 129.47 69.1007 129.82 68.8914 130.285C68.6775 130.75 68.5729 131.301 68.5729 131.943V131.934ZM67.5446 131.952C67.5446 131.269 67.6811 130.627 67.9495 130.03C68.218 129.433 68.6138 128.955 69.1371 128.595C69.6603 128.235 70.27 128.058 70.9707 128.058C71.5076 128.058 71.9899 128.162 72.4131 128.367C72.8362 128.572 73.1957 128.855 73.4823 129.215C73.769 129.579 73.9874 129.989 74.1421 130.458C74.2922 130.923 74.3787 131.419 74.3878 131.952C74.3878 132.645 74.2513 133.287 73.9783 133.879C73.7053 134.471 73.3094 134.94 72.7907 135.291C72.272 135.642 71.6669 135.815 70.9707 135.815C70.3337 135.815 69.7513 135.651 69.2281 135.332C68.7048 135.009 68.2908 134.553 67.9905 133.966C67.6902 133.378 67.54 132.708 67.54 131.952H67.5446Z" fill="#FFFEEF"/>
<path d="M76.5308 128.625C76.5308 128.443 76.5808 128.311 76.6809 128.238C76.781 128.16 76.8902 128.124 76.9994 128.124H78.8695C79.2335 128.124 79.5975 128.206 79.9569 128.379C80.3164 128.548 80.6167 128.803 80.8487 129.149C81.0853 129.495 81.2036 129.914 81.2036 130.402C81.1718 130.771 81.099 131.085 80.9716 131.335C80.8442 131.59 80.6758 131.795 80.462 131.946C80.2481 132.096 79.9933 132.205 79.6976 132.274C79.4064 132.342 79.0606 132.374 78.6647 132.374L81.1581 135.048C81.2901 135.166 81.3583 135.303 81.3583 135.462C81.3583 135.558 81.3128 135.635 81.2264 135.699C81.1399 135.763 81.0353 135.795 80.9079 135.795C80.7213 135.795 80.5712 135.731 80.462 135.604L77.4817 132.401V135.358C77.4817 135.508 77.4362 135.622 77.3407 135.699C77.2451 135.781 77.1359 135.818 76.9994 135.818C76.8629 135.818 76.7583 135.777 76.6673 135.695C76.5763 135.613 76.5262 135.49 76.5262 135.335V128.625H76.5308ZM77.4817 128.939V131.654H78.8422C79.2107 131.654 79.4974 131.595 79.7021 131.472C79.9023 131.349 80.0434 131.19 80.1207 130.994C80.1935 130.793 80.239 130.556 80.2436 130.274C80.2436 130.005 80.1799 129.768 80.0525 129.568C79.9205 129.363 79.7476 129.208 79.5292 129.099C79.3063 128.989 79.0651 128.935 78.8012 128.935H77.4863L77.4817 128.939Z" fill="#FFFEEF"/>
<path d="M84.721 128.998H83.2195C83.0875 128.998 82.9829 128.957 82.9055 128.871C82.8282 128.784 82.7827 128.679 82.7736 128.556C82.7827 128.433 82.8327 128.333 82.9146 128.247C82.9965 128.16 83.1057 128.119 83.2468 128.119H87.1552C87.3099 128.119 87.4282 128.16 87.5101 128.247C87.592 128.329 87.6284 128.433 87.6284 128.561C87.6284 128.689 87.592 128.793 87.5146 128.875C87.4373 128.957 87.3327 129.003 87.1962 129.003H85.681V135.339C85.681 135.485 85.631 135.603 85.5354 135.69C85.4353 135.776 85.3216 135.822 85.1896 135.822C85.0577 135.822 84.953 135.781 84.862 135.69C84.771 135.603 84.721 135.485 84.721 135.339V129.003V128.998Z" fill="#FFFEEF"/>
<path d="M89.271 128.54C89.271 128.395 89.3165 128.276 89.4075 128.19C89.503 128.103 89.6077 128.058 89.7396 128.058C89.8716 128.058 89.9853 128.099 90.0809 128.185C90.1719 128.272 90.2219 128.39 90.2219 128.54V133.123C90.2219 133.524 90.3129 133.865 90.4949 134.148C90.6769 134.43 90.9272 134.644 91.2548 134.79C91.5778 134.936 91.9418 135.009 92.3513 135.009C92.7563 134.995 93.1112 134.909 93.416 134.754C93.7209 134.594 93.9529 134.376 94.1122 134.093C94.276 133.811 94.3533 133.492 94.3533 133.127V128.545C94.3533 128.399 94.3988 128.281 94.4853 128.194C94.5717 128.108 94.6809 128.062 94.8038 128.062C94.9403 128.062 95.0586 128.103 95.1541 128.19C95.2497 128.276 95.2952 128.395 95.2952 128.545V132.818C95.2952 133.433 95.186 133.961 94.9721 134.417C94.7583 134.868 94.4261 135.218 93.9848 135.46C93.5389 135.706 92.9883 135.829 92.3286 135.829C91.8144 135.829 91.364 135.756 90.9772 135.615C90.5905 135.473 90.272 135.268 90.0217 135.004C89.7715 134.74 89.5804 134.426 89.4575 134.061C89.3347 133.697 89.271 133.287 89.271 132.841V128.545V128.54Z" fill="#FFFEEF"/>
<path d="M103.571 128.996C103.644 129.069 103.681 129.174 103.681 129.306C103.681 129.42 103.635 129.511 103.544 129.593C103.453 129.675 103.344 129.716 103.207 129.72C103.066 129.711 102.944 129.666 102.834 129.584C102.539 129.36 102.256 129.183 101.988 129.055C101.72 128.928 101.374 128.864 100.964 128.864C100.514 128.864 100.132 128.955 99.8131 129.142C99.4946 129.329 99.2353 129.57 99.0442 129.875C98.8485 130.176 98.7075 130.504 98.621 130.845C98.5346 131.192 98.4845 131.533 98.48 131.87C98.48 132.298 98.5482 132.749 98.6847 133.219C98.8212 133.688 99.0669 134.093 99.4127 134.439C99.7631 134.786 100.227 134.972 100.814 135.009C101.237 135.009 101.633 134.922 102.002 134.749C102.37 134.576 102.671 134.307 102.898 133.943C103.126 133.578 103.239 133.132 103.239 132.599V132.267H101.847C101.579 132.267 101.428 132.13 101.401 131.848C101.428 131.542 101.56 131.387 101.806 131.387H103.558C103.985 131.387 104.195 131.624 104.195 132.093V132.267C104.195 132.786 104.122 133.305 103.976 133.82C103.831 134.339 103.512 134.804 103.021 135.209C102.534 135.615 101.82 135.82 100.887 135.82C100.286 135.82 99.7676 135.701 99.3217 135.46C98.8804 135.218 98.5255 134.909 98.2525 134.526C97.9795 134.143 97.7838 133.733 97.6519 133.296C97.5245 132.859 97.4608 132.444 97.4517 132.048C97.4517 131.506 97.5245 130.996 97.6701 130.517C97.8157 130.039 98.0341 129.615 98.3253 129.256C98.6165 128.891 98.9759 128.604 99.4127 128.395C99.8495 128.185 100.345 128.071 100.905 128.058C101.474 128.058 102.002 128.14 102.484 128.313C102.966 128.481 103.335 128.709 103.581 129.001L103.571 128.996Z" fill="#FFFEEF"/>
<path d="M106.26 128.54C106.26 128.395 106.306 128.276 106.397 128.19C106.488 128.103 106.602 128.058 106.729 128.058C106.857 128.058 106.975 128.099 107.07 128.185C107.161 128.272 107.211 128.39 107.211 128.54V133.123C107.211 133.524 107.302 133.865 107.484 134.148C107.666 134.43 107.917 134.644 108.244 134.79C108.567 134.936 108.931 135.009 109.341 135.009C109.746 134.995 110.101 134.909 110.401 134.754C110.706 134.594 110.938 134.376 111.102 134.093C111.265 133.811 111.343 133.492 111.343 133.127V128.545C111.343 128.399 111.388 128.281 111.475 128.194C111.561 128.108 111.666 128.062 111.793 128.062C111.93 128.062 112.048 128.103 112.144 128.19C112.239 128.276 112.285 128.395 112.285 128.545V132.818C112.285 133.433 112.175 133.961 111.962 134.417C111.748 134.868 111.416 135.218 110.974 135.46C110.533 135.706 109.978 135.829 109.318 135.829C108.804 135.829 108.353 135.756 107.967 135.615C107.58 135.473 107.261 135.268 107.011 135.004C106.761 134.74 106.57 134.426 106.447 134.061C106.324 133.697 106.265 133.287 106.265 132.841V128.545L106.26 128.54Z" fill="#FFFEEF"/>
<path d="M116.557 126.162L117.981 126.763C118.077 126.795 118.145 126.845 118.195 126.927C118.241 127.009 118.268 127.091 118.268 127.182C118.268 127.283 118.232 127.374 118.163 127.442C118.095 127.515 117.995 127.556 117.863 127.565C117.763 127.542 117.672 127.52 117.599 127.501L116.557 127.087L115.529 127.483C115.461 127.51 115.356 127.538 115.21 127.57C115.097 127.57 115.006 127.533 114.937 127.456C114.869 127.378 114.837 127.287 114.837 127.187C114.837 126.973 114.924 126.832 115.101 126.772L116.557 126.171V126.162ZM114.742 128.645C114.742 128.485 114.783 128.358 114.865 128.262C114.946 128.166 115.042 128.121 115.147 128.121H118.095C118.222 128.121 118.318 128.162 118.391 128.248C118.464 128.335 118.5 128.44 118.5 128.563C118.5 128.686 118.464 128.795 118.386 128.877C118.309 128.959 118.209 129.005 118.068 129.005H115.693V131.519H117.863C117.995 131.519 118.1 131.56 118.177 131.642C118.254 131.728 118.291 131.833 118.291 131.956C118.291 132.079 118.25 132.184 118.172 132.271C118.091 132.357 117.981 132.398 117.84 132.398H115.693V134.876H118.091C118.218 134.876 118.318 134.917 118.391 135.008C118.464 135.095 118.5 135.204 118.5 135.336C118.5 135.45 118.459 135.55 118.377 135.632C118.295 135.714 118.181 135.755 118.027 135.755H115.21C115.01 135.755 114.883 135.696 114.828 135.582C114.769 135.468 114.742 135.359 114.742 135.25V128.645Z" fill="#FFFEEF"/>
<path d="M124.333 128.449C124.547 128.586 124.652 128.755 124.652 128.95C124.652 129.06 124.606 129.155 124.524 129.233C124.438 129.315 124.329 129.356 124.201 129.37C124.06 129.338 123.878 129.269 123.66 129.165C123.437 129.06 123.269 128.982 123.141 128.937C123.018 128.887 122.868 128.864 122.7 128.864C122.349 128.864 122.063 128.964 121.84 129.169C121.617 129.37 121.485 129.643 121.439 129.98C121.462 130.417 121.772 130.759 122.359 131.009C122.477 131.055 122.686 131.132 122.996 131.237C123.305 131.342 123.569 131.438 123.787 131.529C124.006 131.62 124.215 131.734 124.415 131.87C124.615 132.007 124.775 132.166 124.893 132.349C125.089 132.681 125.189 133.041 125.189 133.428C125.189 133.815 125.089 134.212 124.888 134.576C124.688 134.94 124.388 135.241 123.987 135.473C123.587 135.706 123.109 135.82 122.554 135.82C122.149 135.82 121.767 135.769 121.403 135.665C121.039 135.56 120.761 135.437 120.579 135.296C120.438 135.196 120.361 135.059 120.347 134.877C120.347 134.749 120.384 134.64 120.466 134.549C120.543 134.462 120.648 134.417 120.775 134.417C120.843 134.417 120.934 134.444 121.048 134.503C121.558 134.836 122.095 135.004 122.668 135.004C122.932 135.004 123.178 134.936 123.4 134.799C123.623 134.663 123.801 134.476 123.933 134.248C124.06 134.02 124.128 133.779 124.128 133.519C124.128 133.26 124.051 133.027 123.901 132.845C123.751 132.663 123.555 132.513 123.323 132.399C123.091 132.285 122.791 132.166 122.427 132.043C122.063 131.92 121.84 131.843 121.749 131.807C121.467 131.674 121.23 131.538 121.044 131.397C120.857 131.255 120.707 131.078 120.598 130.864C120.488 130.649 120.429 130.385 120.42 130.071C120.42 129.684 120.534 129.338 120.761 129.028C120.989 128.718 121.28 128.481 121.64 128.313C122.004 128.144 122.372 128.058 122.754 128.058C123.391 128.058 123.915 128.19 124.324 128.454L124.333 128.449Z" fill="#FFFEEF"/>
<path d="M12.4897 162.402C12.4897 162.242 12.5307 162.115 12.6126 162.019C12.6945 161.923 12.79 161.878 12.8947 161.878H15.8431C15.9705 161.878 16.0706 161.923 16.1388 162.005C16.2116 162.092 16.248 162.197 16.248 162.315C16.248 162.434 16.2116 162.548 16.1343 162.63C16.0569 162.712 15.9568 162.757 15.8203 162.757H13.4452V165.272H15.6156C15.7475 165.272 15.8522 165.313 15.9295 165.395C16.0069 165.481 16.0433 165.586 16.0433 165.709C16.0433 165.832 16.0023 165.937 15.925 166.023C15.8431 166.11 15.7339 166.151 15.5928 166.151H13.4452V168.629H15.8431C15.975 168.629 16.0706 168.67 16.1434 168.761C16.2162 168.847 16.248 168.957 16.248 169.093C16.248 169.207 16.2071 169.307 16.1252 169.389C16.0433 169.471 15.9295 169.512 15.7748 169.512H12.9629C12.7627 169.512 12.6353 169.453 12.5807 169.339C12.5216 169.225 12.4943 169.116 12.4943 169.007V162.406L12.4897 162.402Z" fill="#FFFEEF"/>
<path d="M23.7373 145.405C23.7373 145.073 23.9057 144.904 24.2378 144.904H26.2125C26.9132 144.904 27.5229 145.073 28.0371 145.414C28.5512 145.752 28.947 146.212 29.2155 146.79C29.4839 147.369 29.6204 148.002 29.6204 148.694C29.6113 149.441 29.4794 150.106 29.2246 150.689C28.9653 151.268 28.5921 151.723 28.0916 152.047C27.5957 152.375 26.9997 152.534 26.3035 152.534H24.2424C24.0695 152.534 23.9421 152.484 23.8647 152.388C23.7828 152.293 23.7419 152.197 23.7419 152.115V145.405H23.7373ZM24.6883 145.715V151.719H26.1943C26.4218 151.719 26.6675 151.678 26.9269 151.596C27.1907 151.514 27.4501 151.363 27.7049 151.14C27.9597 150.917 28.1735 150.603 28.3419 150.188C28.5057 149.774 28.5922 149.254 28.5922 148.626C28.5922 148.17 28.533 147.765 28.4147 147.405C28.2964 147.045 28.1235 146.74 27.9005 146.489C27.6776 146.239 27.4092 146.048 27.0998 145.916C26.7858 145.783 26.44 145.715 26.0578 145.715H24.6883Z" fill="#FFFEEF"/>
<path d="M32.5189 148.71C32.5189 149.18 32.5917 149.644 32.7373 150.113C32.8829 150.578 33.1332 150.974 33.4881 151.298C33.8475 151.621 34.3207 151.785 34.9168 151.785C35.2489 151.785 35.5583 151.721 35.845 151.594C36.1316 151.466 36.3864 151.275 36.6048 151.015C36.8232 150.76 36.9961 150.437 37.1235 150.054C37.2464 149.672 37.3146 149.225 37.3192 148.715C37.3192 148.214 37.2555 147.767 37.1372 147.38C37.0143 146.993 36.8414 146.67 36.623 146.419C36.4046 146.164 36.1498 145.973 35.8632 145.845C35.572 145.718 35.258 145.654 34.9213 145.654C34.4754 145.654 34.0659 145.772 33.7019 146.009C33.3379 146.246 33.0513 146.597 32.8374 147.061C32.6236 147.526 32.5189 148.077 32.5189 148.72V148.71ZM31.4906 148.729C31.4906 148.041 31.6271 147.403 31.8956 146.806C32.164 146.21 32.5599 145.731 33.0831 145.371C33.6064 145.012 34.2161 144.834 34.9168 144.834C35.4537 144.834 35.9314 144.939 36.3591 145.144C36.7868 145.349 37.1417 145.631 37.4284 145.991C37.715 146.351 37.9334 146.765 38.0881 147.235C38.2383 147.699 38.3202 148.196 38.3338 148.729C38.3338 149.421 38.1973 150.063 37.9243 150.655C37.6513 151.248 37.2555 151.717 36.7368 152.068C36.2181 152.418 35.6129 152.591 34.9168 152.591C34.2798 152.591 33.6974 152.427 33.1741 152.104C32.6509 151.781 32.2368 151.325 31.9365 150.737C31.6362 150.15 31.4861 149.476 31.4861 148.724L31.4906 148.729Z" fill="#FFFEEF"/>
<path fill-rule="evenodd" clip-rule="evenodd" d="M86.6692 151.545C86.6144 151.549 86.587 151.545 86.5413 151.563C86.5048 151.577 86.4683 151.59 86.4454 151.609" fill="#FFFEEF"/>
<path fill-rule="evenodd" clip-rule="evenodd" d="M86.1227 150.409C86.0362 150.418 85.986 150.468 85.9496 150.491C85.8949 150.532 85.822 150.555 85.7765 150.578" fill="#FFFEEF"/>
<path d="M42.8928 145.93C42.8928 145.675 42.9702 145.46 43.1249 145.287C43.2796 145.114 43.4934 145.032 43.771 145.032H45.8549C46.6557 145.032 47.2972 145.187 47.7886 145.501C48.28 145.816 48.6713 146.194 48.9534 146.636C49.3493 147.264 49.5449 148.007 49.5449 148.863C49.5449 149.351 49.4585 149.829 49.2901 150.284C49.1218 150.74 48.8761 151.15 48.5621 151.505C48.2436 151.86 47.866 152.143 47.4246 152.348C46.9833 152.553 46.501 152.658 45.9777 152.658H43.821C43.5526 152.658 43.3251 152.58 43.1567 152.421C42.9838 152.261 42.8974 152.047 42.8974 151.778V145.925L42.8928 145.93ZM44.6673 146.636V151.059H45.6774C46.2644 151.059 46.7467 150.858 47.1334 150.448C47.2881 150.289 47.411 150.057 47.4929 149.756C47.5793 149.455 47.6248 149.136 47.6248 148.804C47.6248 148.139 47.4838 147.633 47.1971 147.296C46.824 146.859 46.3326 146.645 45.7229 146.645H44.6673V146.636Z" fill="#FFFEEF"/>
<path d="M51.5332 148.102V145.907C51.5332 145.615 51.6196 145.397 51.7971 145.251C51.9745 145.105 52.1702 145.032 52.3841 145.032H55.1914C55.4462 145.032 55.6464 145.105 55.7965 145.246C55.9467 145.388 56.024 145.588 56.024 145.843C56.024 146.066 55.9558 146.258 55.8238 146.408C55.6919 146.558 55.4826 146.636 55.1914 146.636H53.3077V148.016H55.0595C55.3234 148.016 55.5326 148.093 55.6782 148.248C55.8238 148.403 55.9012 148.594 55.9012 148.818C55.9012 149.041 55.8239 149.228 55.6737 149.387C55.519 149.546 55.3143 149.628 55.0595 149.628H53.3077V151.054H55.1914C55.4963 151.054 55.7237 151.127 55.8693 151.277C56.0149 151.428 56.0878 151.61 56.0878 151.824C56.0878 152.07 56.0149 152.27 55.8693 152.425C55.7237 152.58 55.4963 152.658 55.1914 152.658H52.4523C52.1565 152.658 51.929 152.571 51.7698 152.407C51.6105 152.238 51.5332 152.038 51.5332 151.801V148.098V148.102Z" fill="#FFFEEF"/>
<path d="M57.6986 147.179C57.7305 146.14 58.2537 145.429 59.2775 145.047C59.687 144.919 60.1147 144.855 60.556 144.855C60.8472 144.855 61.1566 144.892 61.4888 144.965C61.8209 145.038 62.1076 145.161 62.3442 145.338C62.5854 145.516 62.7036 145.748 62.7036 146.035C62.7036 146.268 62.6263 146.454 62.4761 146.596C62.326 146.737 62.1258 146.814 61.8801 146.828C61.739 146.81 61.5116 146.755 61.1931 146.668C60.8746 146.582 60.6243 146.536 60.4332 146.536C60.2193 146.536 60.0328 146.582 59.869 146.678C59.7052 146.773 59.6096 146.91 59.5914 147.097C59.5914 147.283 59.6461 147.415 59.7553 147.488C59.8645 147.566 60.0828 147.657 60.415 147.766C60.7289 147.871 61.0429 147.971 61.3523 148.071C61.6571 148.172 61.9483 148.304 62.2213 148.468C62.4943 148.627 62.7173 148.855 62.8993 149.151C63.0768 149.442 63.1723 149.821 63.1768 150.272C63.1768 150.932 62.9903 151.479 62.6172 151.907C62.0439 152.522 61.2522 152.827 60.2421 152.827C59.4094 152.827 58.6951 152.668 58.1036 152.344C57.7578 152.162 57.5712 151.902 57.5439 151.565C57.5712 151.324 57.6623 151.11 57.8079 150.923C57.9535 150.736 58.1491 150.645 58.3993 150.645C58.5677 150.654 58.7543 150.695 58.959 150.763C59.1638 150.832 59.3639 150.905 59.5687 150.973C59.7734 151.041 59.96 151.082 60.1329 151.091C60.2057 151.091 60.2648 151.091 60.3058 151.101C60.5515 151.101 60.7699 151.037 60.961 150.918C61.1521 150.804 61.2476 150.636 61.2476 150.417C61.2476 150.199 61.1612 150.021 60.9792 149.898C60.8018 149.775 60.5652 149.67 60.2831 149.584C60.2376 149.57 60.0646 149.515 59.7643 149.424C59.464 149.338 59.1956 149.242 58.959 149.142C58.7224 149.042 58.5131 148.928 58.3311 148.787C58.1081 148.609 57.9489 148.39 57.8488 148.14C57.7487 147.889 57.6986 147.566 57.6986 147.169V147.179Z" fill="#FFFEEF"/>
<path d="M66.9169 146.581V148.667H67.9452C68.2409 148.667 68.4957 148.572 68.7141 148.385C68.9325 148.193 69.0417 147.948 69.0417 147.642C69.0417 147.319 68.9416 147.064 68.7414 146.872C68.5412 146.681 68.2546 146.581 67.8815 146.581H66.9169ZM65.1424 145.884C65.1424 145.67 65.2197 145.474 65.3744 145.296C65.5337 145.119 65.7612 145.032 66.0615 145.032H68.0999C68.7005 145.032 69.2101 145.151 69.6287 145.388C70.0518 145.624 70.3658 145.939 70.5751 146.34C70.7844 146.736 70.8936 147.182 70.8936 147.665C70.8799 148.148 70.7753 148.585 70.5751 148.972C70.3749 149.36 70.0837 149.665 69.706 149.883C69.3284 150.102 68.8825 150.216 68.3729 150.216H66.9169V151.81C66.9169 152.115 66.8304 152.343 66.6575 152.498C66.4846 152.653 66.2617 152.735 65.9932 152.735C65.4245 152.703 65.1378 152.389 65.1378 151.792V145.893L65.1424 145.884Z" fill="#FFFEEF"/>
<path d="M76.2079 146.473C75.7711 146.473 75.4116 146.582 75.1204 146.801C74.8292 147.019 74.6154 147.311 74.4789 147.675C74.3424 148.04 74.2741 148.431 74.2741 148.864C74.2741 149.525 74.4379 150.08 74.761 150.536C75.084 150.991 75.5663 151.224 76.2033 151.224C76.6401 151.224 76.9996 151.114 77.2862 150.896C77.5774 150.677 77.7867 150.39 77.9278 150.03C78.0643 149.675 78.1325 149.283 78.1325 148.864C78.1325 148.445 78.0643 148.04 77.9278 147.675C77.7913 147.315 77.5774 147.024 77.2862 146.801C76.9996 146.582 76.6356 146.473 76.2033 146.473H76.2079ZM76.2079 144.855C76.7857 144.855 77.309 144.947 77.7776 145.138C78.2508 145.325 78.6558 145.593 78.9925 145.944C79.3292 146.295 79.5885 146.719 79.7705 147.21C79.9525 147.702 80.0435 148.254 80.0435 148.859C80.0435 149.465 79.9525 149.998 79.7705 150.486C79.5885 150.978 79.3292 151.392 78.9925 151.747C78.6558 152.098 78.2508 152.367 77.7776 152.554C77.309 152.74 76.7857 152.832 76.2124 152.832C75.6391 152.832 75.1204 152.74 74.6472 152.554C74.174 152.367 73.7691 152.094 73.4278 151.743C73.0866 151.392 72.8272 150.968 72.6498 150.477C72.4678 149.985 72.3813 149.443 72.3813 148.859C72.3813 148.276 72.4723 147.716 72.6498 147.22C72.8318 146.723 73.0911 146.299 73.4278 145.949C73.7691 145.593 74.174 145.325 74.6427 145.138C75.1159 144.951 75.6391 144.855 76.217 144.855H76.2079Z" fill="#FFFEEF"/>
<path d="M83.588 146.636V148.339H84.7028C84.9576 148.339 85.1805 148.262 85.3762 148.107C85.5673 147.952 85.6628 147.752 85.6628 147.506C85.6628 147.26 85.5764 147.059 85.3989 146.891C85.226 146.722 85.0167 146.64 84.7665 146.64H83.5835L83.588 146.636ZM81.8135 145.884C81.8135 145.67 81.8909 145.474 82.0501 145.296C82.2048 145.119 82.4369 145.032 82.7372 145.032H84.8165C85.3716 145.032 85.8494 145.137 86.2452 145.342C86.6411 145.547 86.9368 145.838 87.1416 146.212C87.3463 146.586 87.4464 147.023 87.4464 147.524C87.4282 147.966 87.3145 148.33 87.1052 148.622C86.8959 148.913 86.6593 149.132 86.3863 149.278C86.1178 149.423 85.8585 149.514 85.6219 149.551L87.2235 151.218C87.4282 151.423 87.5283 151.651 87.5283 151.915C87.5283 152.161 87.4282 152.357 87.2326 152.507C87.0369 152.653 86.7912 152.73 86.4955 152.73C86.2361 152.699 86.0041 152.566 85.8039 152.334L83.6062 149.615H83.5835V151.806C83.5835 152.111 83.497 152.339 83.3241 152.494C83.1512 152.648 82.9283 152.73 82.6598 152.73C82.0911 152.699 81.8044 152.384 81.8044 151.787V145.889L81.8135 145.884Z" fill="#FFFEEF"/>
<path d="M90.4492 151.802V146.632H89.4755C89.1798 146.632 88.9568 146.559 88.793 146.418C88.6338 146.276 88.5519 146.085 88.5519 145.839C88.5519 145.297 88.8613 145.028 89.471 145.028H93.2293C93.8435 145.028 94.1529 145.297 94.1529 145.839C94.1529 146.085 94.0756 146.276 93.9163 146.418C93.7571 146.559 93.5296 146.632 93.2338 146.632H92.2374V151.802C92.2374 152.098 92.1555 152.326 91.9962 152.485C91.837 152.645 91.6186 152.727 91.3501 152.727C91.0817 152.727 90.8724 152.645 90.704 152.485C90.5357 152.326 90.4492 152.098 90.4492 151.802Z" fill="#FFFEEF"/>
<path d="M99.4583 146.473C99.0215 146.473 98.662 146.582 98.3708 146.801C98.0796 147.019 97.8703 147.311 97.7293 147.675C97.5928 148.04 97.5245 148.431 97.5245 148.864C97.5245 149.525 97.6883 150.08 98.0114 150.536C98.3344 150.991 98.8167 151.224 99.4537 151.224C99.8905 151.224 100.25 151.114 100.537 150.896C100.828 150.677 101.037 150.39 101.178 150.03C101.315 149.675 101.383 149.283 101.383 148.864C101.383 148.445 101.315 148.04 101.178 147.675C101.042 147.315 100.828 147.024 100.537 146.801C100.25 146.582 99.886 146.473 99.4537 146.473H99.4583ZM99.4583 144.855C100.036 144.855 100.559 144.947 101.028 145.138C101.497 145.325 101.906 145.593 102.243 145.944C102.58 146.295 102.839 146.719 103.021 147.21C103.203 147.702 103.294 148.254 103.294 148.859C103.294 149.465 103.203 149.998 103.021 150.486C102.839 150.978 102.58 151.392 102.243 151.747C101.906 152.098 101.501 152.367 101.028 152.554C100.559 152.74 100.036 152.832 99.4628 152.832C98.8895 152.832 98.3708 152.74 97.8976 152.554C97.4244 152.367 97.0195 152.094 96.6782 151.743C96.3415 151.392 96.0776 150.968 95.9002 150.477C95.7182 149.985 95.6317 149.443 95.6317 148.859C95.6317 148.276 95.7227 147.716 95.9002 147.22C96.0822 146.723 96.3415 146.299 96.6782 145.949C97.0195 145.593 97.4244 145.325 97.8931 145.138C98.3663 144.951 98.8895 144.855 99.4674 144.855H99.4583Z" fill="#FFFEEF"/>
<path d="M89.089 170.141L89.8033 168.779C89.9171 168.584 90.0672 168.483 90.2538 168.483C90.3766 168.483 90.4767 168.52 90.5586 168.593C90.6405 168.666 90.6815 168.766 90.6815 168.902C90.6815 169.012 90.6587 169.117 90.6132 169.221L89.9125 170.561C89.7988 170.77 89.635 170.875 89.4211 170.875C89.3074 170.875 89.2073 170.834 89.1254 170.761C89.0435 170.688 88.998 170.583 88.9934 170.456C89.0071 170.328 89.0389 170.223 89.0935 170.146L89.089 170.141Z" fill="#FFFEEF"/>
<path d="M95.8639 162.314C95.8639 161.981 96.0277 161.812 96.3553 161.812C96.4827 161.812 96.5919 161.853 96.6829 161.94C96.7693 162.022 96.8148 162.15 96.8148 162.318V169.055C96.8148 169.256 96.7648 169.388 96.6693 169.465C96.5692 169.543 96.4645 169.579 96.3553 169.579C96.0277 169.579 95.8639 169.41 95.8639 169.073V162.318V162.314Z" fill="#FFFEEF"/>
<path d="M99.9954 168.483C100.146 168.483 100.278 168.538 100.387 168.647C100.5 168.757 100.555 168.884 100.555 169.03C100.555 169.176 100.496 169.303 100.387 169.413C100.273 169.522 100.146 169.577 99.9954 169.577C99.8453 169.577 99.7179 169.522 99.6041 169.408C99.4949 169.299 99.4358 169.171 99.4358 169.03C99.4358 168.889 99.4904 168.761 99.6041 168.647C99.7133 168.538 99.8453 168.483 99.9954 168.483Z" fill="#FFFEEF"/>
<path d="M106.67 162.693V165.85H108.04C108.526 165.85 108.927 165.7 109.236 165.395C109.546 165.094 109.696 164.711 109.696 164.247C109.696 163.782 109.541 163.381 109.236 163.108C108.931 162.835 108.545 162.698 108.085 162.698H106.67V162.693ZM105.719 162.379C105.719 162.197 105.769 162.065 105.869 161.992C105.974 161.914 106.079 161.878 106.188 161.878H108.126C108.467 161.878 108.786 161.933 109.091 162.033C109.391 162.138 109.659 162.288 109.891 162.488C110.124 162.689 110.31 162.939 110.447 163.235C110.583 163.536 110.651 163.878 110.656 164.265C110.656 164.588 110.597 164.898 110.474 165.19C110.351 165.481 110.183 165.736 109.964 165.959C109.746 166.178 109.491 166.351 109.195 166.479C108.9 166.602 108.586 166.665 108.258 166.665H106.67V169.116C106.67 169.257 106.625 169.371 106.529 169.453C106.433 169.535 106.32 169.576 106.192 169.576C106.065 169.576 105.956 169.535 105.86 169.449C105.769 169.362 105.719 169.244 105.719 169.093V162.384V162.379Z" fill="#FFFEEF"/>
<path d="M113.327 168.483C113.477 168.483 113.609 168.538 113.718 168.647C113.827 168.757 113.886 168.884 113.886 169.03C113.886 169.176 113.832 169.303 113.718 169.413C113.604 169.522 113.472 169.577 113.327 169.577C113.181 169.577 113.049 169.522 112.935 169.408C112.826 169.299 112.767 169.171 112.767 169.03C112.767 168.889 112.822 168.761 112.931 168.647C113.04 168.538 113.172 168.483 113.322 168.483H113.327Z" fill="#FFFEEF"/>
<path d="M23.1094 166.942V162.692C23.1094 162.514 23.1504 162.359 23.2232 162.222C23.296 162.09 23.4006 161.99 23.5371 161.917C23.6736 161.849 23.8283 161.812 24.0058 161.812C24.2742 161.812 24.4881 161.89 24.6473 162.049C24.8066 162.209 24.8885 162.418 24.8885 162.692V167.233C24.8885 167.825 24.802 168.285 24.6246 168.613C24.2378 169.328 23.5417 169.684 22.5316 169.684C22.0538 169.684 21.6079 169.584 21.1893 169.379C20.7707 169.174 20.5614 168.855 20.5614 168.422C20.5614 168.276 20.5933 168.14 20.6615 168.017C20.7252 167.894 20.8208 167.793 20.9391 167.721C21.0619 167.648 21.1939 167.611 21.3486 167.611C21.4487 167.611 21.5442 167.629 21.6307 167.661C21.7171 167.698 21.8172 167.748 21.931 167.812C22.0447 167.875 22.1403 167.926 22.2222 167.962C22.3041 167.998 22.3905 168.021 22.4861 168.026C22.568 167.998 22.6362 167.985 22.6817 167.985C22.9684 167.939 23.1094 167.593 23.1094 166.946V166.942Z" fill="#FFFEEF"/>
<path d="M28.5559 162.732V166.44C28.5559 166.927 28.7106 167.31 29.0245 167.588C29.3339 167.866 29.7161 168.002 30.1666 168.002C30.617 168.002 31.0174 167.866 31.3268 167.588C31.6362 167.314 31.7864 166.927 31.7864 166.435V162.727C31.7864 162.436 31.8683 162.208 32.0275 162.049C32.1868 161.889 32.4006 161.807 32.6645 161.807C32.933 161.821 33.1468 161.903 33.3152 162.058C33.4835 162.213 33.5654 162.436 33.5654 162.727V166.431C33.5654 167.091 33.4198 167.67 33.1332 168.157C32.8465 168.649 32.4461 169.023 31.932 169.282C31.4178 169.542 30.8309 169.674 30.1666 169.674C29.5023 169.665 28.9108 169.533 28.4012 169.273C27.887 169.014 27.4912 168.64 27.2091 168.153C26.927 167.665 26.7814 167.091 26.7814 166.431V162.727C26.7814 162.436 26.8633 162.204 27.0271 162.044C27.1909 161.885 27.4093 161.803 27.6823 161.803C27.9553 161.803 28.16 161.885 28.3238 162.044C28.4831 162.204 28.565 162.431 28.565 162.723L28.5559 162.732Z" fill="#FFFEEF"/>
<path d="M35.1942 163.192C35.1578 163.101 35.126 163.005 35.0896 162.91C35.0578 162.814 35.0396 162.723 35.0396 162.641C35.0396 162.404 35.1306 162.204 35.3171 162.044C35.4991 161.885 35.7175 161.803 35.9632 161.803C36.1861 161.803 36.3727 161.876 36.5319 162.017C36.6912 162.158 36.8095 162.34 36.8868 162.563L38.4111 166.513L39.9308 162.595C40.1128 162.081 40.4358 161.826 40.8954 161.826C41.0501 161.826 41.1911 161.862 41.3276 161.935C41.4641 162.008 41.5733 162.103 41.6507 162.231C41.7326 162.354 41.769 162.491 41.769 162.641C41.769 162.727 41.7189 162.923 41.6143 163.233L39.3256 168.799C39.2119 169.068 39.089 169.264 38.9525 169.387C38.8206 169.51 38.634 169.569 38.4065 169.569C38.1608 169.569 37.9743 169.51 37.8378 169.387C37.7013 169.269 37.5693 169.064 37.4419 168.777L35.1942 163.187V163.192Z" fill="#FFFEEF"/>
<path d="M43.498 164.953V162.757C43.498 162.466 43.5845 162.247 43.7619 162.101C43.9394 161.956 44.135 161.883 44.3489 161.883H47.1562C47.411 161.883 47.6112 161.956 47.7614 162.097C47.9115 162.238 47.9889 162.439 47.9889 162.694C47.9889 162.917 47.9206 163.108 47.7887 163.258C47.6567 163.413 47.4474 163.486 47.1562 163.486H45.2725V164.871H47.0243C47.2882 164.871 47.4929 164.948 47.6431 165.103C47.7887 165.258 47.866 165.449 47.866 165.673C47.866 165.896 47.7887 166.083 47.6385 166.242C47.4838 166.402 47.2791 166.484 47.0243 166.484H45.2725V167.909H47.1562C47.4656 167.909 47.6886 167.982 47.8342 168.132C47.9798 168.283 48.0526 168.465 48.0526 168.679C48.0526 168.925 47.9798 169.125 47.8342 169.28C47.6886 169.435 47.4611 169.513 47.1562 169.513H44.4171C44.1214 169.513 43.8939 169.431 43.7346 169.262C43.5754 169.098 43.498 168.893 43.498 168.656V164.953Z" fill="#FFFEEF"/>
<path d="M49.8954 162.732C49.8954 162.473 49.9727 162.263 50.1274 162.09C50.2821 161.917 50.4914 161.835 50.7508 161.835C50.9373 161.835 51.092 161.876 51.224 161.958C51.3514 162.04 51.5015 162.167 51.6744 162.336L54.9686 166.349H54.9914V162.71C54.9914 162.464 55.0642 162.254 55.2098 162.076C55.3554 161.899 55.5692 161.808 55.8513 161.808C56.1516 161.808 56.3791 161.894 56.5384 162.058C56.6931 162.222 56.7704 162.441 56.7704 162.705V168.604C56.7704 168.886 56.6885 169.114 56.5293 169.296C56.3655 169.474 56.1471 169.565 55.8741 169.565C55.6739 169.565 55.5101 169.515 55.3781 169.419C55.2462 169.324 55.1097 169.187 54.9732 169.018L51.679 165.001V168.686C51.679 168.964 51.5925 169.178 51.4196 169.333C51.2467 169.488 51.0101 169.565 50.7144 169.565C50.4596 169.551 50.2594 169.46 50.1138 169.296C49.9727 169.128 49.8999 168.909 49.8999 168.645V162.723L49.8954 162.732Z" fill="#FFFEEF"/>
<path d="M59.9507 168.651V163.481H58.977C58.6812 163.481 58.4583 163.408 58.2945 163.267C58.1352 163.126 58.0533 162.935 58.0533 162.689C58.0533 162.147 58.3582 161.878 58.9725 161.878H62.7307C63.345 161.878 63.6498 162.151 63.6498 162.689C63.6498 162.935 63.5725 163.126 63.4132 163.267C63.254 163.408 63.0265 163.481 62.7307 163.481H61.7343V168.651C61.7343 168.948 61.6569 169.175 61.4931 169.335C61.3339 169.494 61.1155 169.576 60.847 169.576C60.5786 169.576 60.3693 169.499 60.2009 169.335C60.0326 169.175 59.9461 168.948 59.9461 168.651H59.9507Z" fill="#FFFEEF"/>
<path d="M67.0306 162.732V166.44C67.0306 166.927 67.1853 167.31 67.4993 167.588C67.8087 167.866 68.1909 168.002 68.6413 168.002C69.0918 168.002 69.4922 167.866 69.797 167.588C70.1064 167.314 70.2611 166.927 70.2611 166.435V162.727C70.2611 162.436 70.343 162.208 70.5023 162.049C70.6615 161.889 70.8754 161.807 71.1393 161.807C71.4077 161.821 71.6216 161.903 71.7899 162.058C71.9583 162.213 72.0402 162.436 72.0402 162.727V166.431C72.0402 167.091 71.8946 167.67 71.6079 168.157C71.3213 168.649 70.9209 169.023 70.4067 169.282C69.8926 169.542 69.3056 169.674 68.6413 169.674C67.9725 169.665 67.3855 169.533 66.8714 169.273C66.3572 169.014 65.9614 168.64 65.6793 168.153C65.3972 167.665 65.2516 167.091 65.2516 166.431V162.727C65.2516 162.436 65.3335 162.204 65.4973 162.044C65.6611 161.885 65.8795 161.803 66.1525 161.803C66.4255 161.803 66.6302 161.885 66.794 162.044C66.9533 162.204 67.0306 162.431 67.0306 162.723V162.732Z" fill="#FFFEEF"/>
<path d="M74.1603 162.78C74.1603 162.525 74.2377 162.311 74.3924 162.138C74.5471 161.969 74.7609 161.883 75.0385 161.883H77.1224C77.9232 161.883 78.5647 162.038 79.0561 162.357C79.5475 162.671 79.9343 163.049 80.2209 163.491C80.6122 164.119 80.8124 164.862 80.8124 165.718C80.8124 166.206 80.726 166.679 80.5531 167.139C80.3847 167.6 80.139 168.005 79.8205 168.365C79.502 168.72 79.1243 169.003 78.683 169.207C78.2417 169.412 77.7594 169.517 77.2361 169.517H75.0794C74.811 169.517 74.588 169.44 74.4151 169.28C74.2422 169.121 74.1558 168.907 74.1558 168.638V162.785L74.1603 162.78ZM75.9394 163.486V167.909H76.9495C77.5364 167.909 78.0233 167.704 78.4055 167.299C78.5602 167.139 78.683 166.907 78.7695 166.602C78.8559 166.301 78.8969 165.982 78.8969 165.65C78.8969 164.985 78.7558 164.484 78.4692 164.142C78.0961 163.705 77.6047 163.491 76.995 163.491H75.9394V163.486Z" fill="#FFFEEF"/>
<path d="M82.8053 164.953V162.757C82.8053 162.466 82.8917 162.247 83.0692 162.101C83.2466 161.956 83.4423 161.883 83.6561 161.883H86.4635C86.7183 161.883 86.9185 161.956 87.0686 162.097C87.2188 162.238 87.2961 162.439 87.2961 162.694C87.2961 162.917 87.2279 163.108 87.0959 163.258C86.964 163.413 86.7547 163.486 86.4635 163.486H84.5798V164.871H86.3315C86.5954 164.871 86.8047 164.948 86.9503 165.103C87.1005 165.258 87.1733 165.449 87.1733 165.673C87.1733 165.896 87.0959 166.083 86.9458 166.242C86.7911 166.402 86.5863 166.484 86.3315 166.484H84.5798V167.909H86.4635C86.7683 167.909 86.9958 167.982 87.1414 168.132C87.287 168.283 87.3598 168.465 87.3598 168.679C87.3598 168.925 87.287 169.125 87.1414 169.28C86.9958 169.435 86.7683 169.513 86.4635 169.513H83.7244C83.4286 169.513 83.2011 169.431 83.0419 169.262C82.8826 169.098 82.8053 168.893 82.8053 168.656V164.953Z" fill="#FFFEEF"/>
<path d="M0 139.228H126.676V140.508H0V139.228Z" fill="#FFFEEF"/>
<path d="M0 155.622H126.676V156.902H0V155.622Z" fill="#FFFEEF"/>
<path d="M116.262 77.5592C115.77 77.6276 115.397 77.4727 114.828 77.5091C114.906 77.4636 115.019 77.3497 115.142 77.2768C115.256 77.2085 115.374 77.1903 115.502 77.1265C115.948 76.876 115.948 76.9215 116.343 76.7575C116.444 76.7165 116.516 76.63 116.53 76.5935C116.607 76.4159 116.53 76.1198 116.302 76.056C116.248 76.0424 116.016 76.0742 115.843 76.1289C115.72 76.1699 115.67 76.2337 115.52 76.2838C115.347 76.3384 115.174 76.3567 115.01 76.4204C114.819 76.4888 114.692 76.6072 114.56 76.6482C114.414 76.6937 114.282 76.6619 114.269 76.6345C114.219 76.5343 114.523 76.3977 114.642 76.3066C114.724 76.2428 114.774 76.1654 114.874 76.0788C115.024 75.9513 115.133 75.8009 115.27 75.6688C115.443 75.4957 115.629 75.3454 115.67 75.2543C115.793 74.9856 115.365 74.8444 115.088 74.9172C114.951 74.9537 114.887 75.0402 114.687 75.1814C114.61 75.2407 114.473 75.2999 114.401 75.3636C114.146 75.5777 114.091 75.6461 113.927 75.8055C113.75 75.9786 113.732 76.0606 113.627 76.0105C113.491 75.9422 113.431 75.9376 113.418 75.7782C113.418 75.7053 113.395 75.6187 113.427 75.5276C113.459 75.4365 113.545 75.35 113.577 75.2498C113.609 75.1496 113.595 75.0448 113.632 74.9446C113.677 74.817 113.764 74.694 113.777 74.5847C113.786 74.5027 113.773 74.4754 113.75 74.4025C113.682 74.2021 113.472 74.1748 113.304 74.2567C113.181 74.316 113.108 74.4344 113.031 74.5711C112.981 74.653 112.831 74.8398 112.749 75.0676C112.649 75.3454 112.603 75.6871 112.394 75.9194C112.103 76.2382 111.593 76.3476 111.311 76.0515C111.166 75.8966 111.166 75.3135 110.906 75.0402C110.569 74.6849 109.978 74.6622 109.951 74.8762C109.937 75.0038 109.951 75.0676 109.969 75.0995C110.014 75.1678 110.146 75.1814 110.246 75.3409C110.301 75.432 110.251 75.5231 110.283 75.6278C110.324 75.7554 110.392 75.8465 110.378 75.9831C110.333 76.4523 110.137 76.507 110.328 76.9762C110.515 77.4362 110.51 79.0169 109.996 79.3995C108.577 80.4654 107.275 81.4493 105.815 82.4332C105.46 82.7703 105.073 83.0573 104.745 83.4354C104.559 83.6586 104.24 83.8544 103.995 84.0913C103.776 84.3054 103.635 84.5696 103.399 84.7472C103.198 84.8976 102.925 84.9386 102.757 85.0798C102.58 85.2346 102.27 85.4032 102.034 85.4578C101.802 85.5125 101.538 85.4214 101.315 85.4943C101.133 85.5535 100.996 85.7084 100.814 85.7585C100.596 85.8177 100.382 85.8268 100.168 85.8769C99.9316 85.9316 99.5858 85.9407 99.3719 86.0318C99.0989 86.1411 99.1672 86.2823 98.9715 86.4281C98.6348 86.6877 98.3573 86.4372 98.2344 86.5602C98.1116 86.6832 98.0752 87.2799 97.8841 87.2617C97.693 87.2435 97.7476 86.9838 97.5701 86.8289C97.3654 86.6376 97.147 86.5055 96.8512 86.4736C96.4417 86.4327 96.3416 86.7606 96.146 86.7834C95.9048 86.8198 95.7001 86.4372 95.4817 86.3917C95.104 86.3142 94.963 86.5101 94.6672 86.6923C94.2577 86.9428 93.8027 87.4211 93.1657 87.4849C93.193 87.2435 93.1839 86.9064 93.2704 86.5966C93.3204 86.4235 93.4615 86.2596 93.4933 86.1138C93.5252 86.1229 93.7254 86.7652 94.1531 86.0546C94.2168 85.6947 94.5444 84.7837 94.053 84.6926C94.1121 84.6151 94.1622 84.4967 94.1986 84.3692C94.6217 82.9434 94.2577 81.668 92.8518 80.4973C91.7643 79.5999 90.9817 80.0463 90.3038 79.7184C90.4448 79.8915 90.4949 79.9051 90.6268 79.937C90.2901 79.9871 89.8579 80.0418 89.6258 79.9643C89.7032 80.019 89.8124 80.0327 89.9125 80.0463C90.008 80.0646 90.1036 80.0554 90.1946 80.0691L90.1718 80.0782C90.0217 80.0964 89.8806 80.1921 89.735 80.2103C89.553 80.2331 89.5758 80.2741 89.1572 80.2786C89.2482 80.2923 89.4165 80.3288 89.5394 80.3379C89.4393 80.3424 89.3437 80.3743 89.2482 80.3743C89.0798 80.3834 88.9979 80.3242 88.8978 80.2923C88.7704 80.2513 88.6157 80.2331 88.4838 80.2331C88.3382 80.2331 88.3382 80.2103 88.1198 80.2832C88.2745 80.2695 88.4064 80.3014 88.5657 80.3242C88.7295 80.3515 88.8978 80.47 89.0616 80.5064C89.098 80.5155 89.1299 80.5155 89.1663 80.5155C89.1435 80.5292 89.1026 80.5246 89.0662 80.5201C88.7613 80.4973 88.411 80.5428 88.1471 80.6841C88.3018 80.6658 88.4292 80.6522 88.5884 80.6522C88.7386 80.6522 88.9206 80.5975 89.0571 80.6613C88.8296 80.7023 88.6157 80.7615 88.3882 80.7797C88.8068 80.9847 88.4337 81.2899 88.1971 81.3127C88.2426 81.3582 88.32 81.4083 88.37 81.4083C88.1562 81.4448 88.0561 81.4721 87.824 81.4265C87.7285 81.4083 87.642 81.381 87.551 81.3537C87.592 81.4767 87.6466 81.5131 87.7285 81.5495C87.7694 81.586 88.1152 81.668 88.0379 81.8957C87.8195 82.5471 87.8786 83.7223 87.8877 83.9547C87.7558 83.8636 87.5647 84.0139 87.5601 84.2325C87.5465 85.1344 87.6011 85.508 87.7057 85.5353C87.3554 85.8769 86.5819 85.6401 87.1006 86.0773C86.8185 86.1593 86.3225 86.2914 85.7629 86.4463C85.5308 86.3871 85.2123 86.4919 84.8529 86.5693C84.8301 86.5739 84.7892 86.583 84.7619 86.5875C84.6436 86.4873 84.4434 86.4964 84.316 86.4235C84.275 86.4008 84.2159 86.3598 84.1522 86.3142C84.4661 86.1867 84.771 85.9954 85.0895 85.8587C85.4034 85.7175 86.1223 85.6902 85.9949 85.1891C85.8948 84.7746 85.3807 84.8566 85.0895 85.0023C84.7983 85.1481 84.5799 85.2392 84.3751 85.2802C84.1294 85.3303 83.9201 85.3941 83.6699 85.4578C83.3741 85.5353 83.0648 85.722 82.8054 85.8268C82.6507 85.8951 82.546 85.8587 82.5005 85.7448C82.4414 85.5945 82.6325 85.5581 82.8236 85.4715C83.0147 85.385 83.2376 85.1937 83.3286 85.1344C83.5743 84.9659 83.77 84.8566 84.0293 84.7108C84.2841 84.565 84.6618 84.4557 84.7209 84.2462C84.821 83.8909 84.6254 83.7724 84.2978 83.7952C83.9793 83.8134 83.4697 84.0731 83.1876 84.2325C82.8964 84.3919 82.5461 84.5468 82.2503 84.6926C82.0228 84.8019 81.7953 84.9386 81.495 85.0433C80.8944 85.2529 80.171 85.3622 79.7478 85.0934C79.5976 84.9978 79.4338 84.8201 79.361 84.6015C79.3201 84.483 79.3519 84.3601 79.3383 84.2097C79.3246 84.0002 79.2518 83.8226 79.1881 83.695C79.0289 83.3898 78.9561 83.3124 78.6194 83.1894C78.3509 83.0937 77.9096 83.0573 77.6912 83.2805C77.3454 83.6312 77.9869 83.7269 78.0506 83.8909C78.1143 84.0412 78.2554 84.2371 78.31 84.4329C78.3646 84.6379 78.2872 84.9021 78.219 85.1845C78.1917 85.303 78.1644 85.426 78.1371 85.5444C77.7822 85.508 77.4273 85.4761 77.0861 85.4305C76.672 85.3713 76.3626 85.3531 76.0304 85.2665C75.4253 85.1025 74.8475 84.8247 74.1877 84.5104C73.5553 84.2143 73.0002 83.8727 72.4496 83.5675C71.9992 83.3215 71.5396 83.1119 71.0482 82.8386C70.1245 82.3285 69.8789 82.1007 69.5649 82.0233C69.3966 81.9777 69.2509 81.9504 68.8869 82.0096C67.9906 81.5905 67.4719 81.4448 66.3799 80.8617C65.9977 80.6567 65.5382 80.306 65.1514 80.0053C64.7055 79.6592 64.3461 79.3676 64.3188 79.1945C64.2278 78.7026 64.2005 78.7527 64.0821 78.3063C64.023 78.074 64.0321 77.7688 63.9411 77.5046C63.8501 77.2449 63.6636 77.0354 63.6044 76.835C63.5271 76.5753 63.8092 76.302 63.6681 76.1335C63.4315 75.8465 62.8127 76.1107 62.7444 76.3931C62.6626 76.7165 62.8719 77.1037 62.7399 77.3634C62.6717 77.4909 62.4533 77.4955 62.2121 77.4863C61.9801 77.4727 61.7298 77.4545 61.4341 77.3315C61.2293 77.2449 61.0655 77.1903 60.8744 77.0718C60.6014 76.9033 60.3102 76.6573 60.1464 76.4933C59.7779 76.138 59.3411 75.9695 59.018 75.9467C58.7996 75.933 58.6404 75.9604 58.5949 76.1517C58.5721 76.2382 58.5266 76.3339 58.6267 76.4341C58.7359 76.548 58.9134 76.5708 59.1045 76.6938C59.3092 76.8213 59.5231 77.0627 59.7096 77.2085C60.0054 77.4271 60.2238 77.541 60.1419 77.6686C60.0964 77.7369 60.0008 77.7733 59.8734 77.7141C59.7187 77.6412 59.5231 77.4545 59.2819 77.3087C59.0999 77.1994 58.8906 77.1402 58.695 77.0399C58.5312 76.9579 58.3765 76.835 58.2491 76.7666C58.0307 76.6573 57.7986 76.6801 57.7213 76.6983C57.3891 76.7803 57.3209 77.0582 57.5029 77.2723C57.5575 77.336 57.7759 77.3952 58.0398 77.5137C58.2536 77.6139 58.4948 77.8234 58.7268 77.9419C59.1864 78.1696 59.6004 78.3108 59.564 78.4429C59.5367 78.5295 59.3138 78.4338 58.9862 78.3837C58.7632 78.3564 58.4948 78.4019 58.2309 78.3473C57.9761 78.2926 57.6894 78.1514 57.4847 78.1423C57.2071 78.1332 56.9978 78.2698 56.9796 78.411C56.966 78.5249 56.9523 78.6206 57.1025 78.7162C57.2663 78.821 57.5347 78.8666 57.8214 78.9485C58.0944 79.0214 58.3765 79.1262 58.6222 79.1718C58.9634 79.231 59.2364 79.2219 59.4412 79.2537C59.4275 79.3767 59.1045 79.4359 58.7132 79.5316C58.5448 79.5726 58.3537 79.6637 58.1763 79.7047C58.0125 79.7411 57.8578 79.732 57.7167 79.7594C57.4665 79.814 57.2708 79.9006 57.2435 79.9507C57.1434 80.1147 57.0206 80.3242 57.3072 80.4609C57.4073 80.511 57.6758 80.4426 58.1763 80.4016C58.6176 80.3652 59.1409 80.2741 59.6368 80.2969C60.1783 80.3196 60.6333 80.511 61.0064 80.6431C61.2111 80.7159 61.4204 80.7934 61.6297 80.8799C61.9437 81.0075 62.2667 81.1031 62.5807 81.2626C62.7308 81.3446 62.881 81.4767 63.0311 81.5632C63.4088 81.7864 63.7318 81.9276 64.0821 82.1736C64.6327 82.5608 65.1924 83.0482 65.6701 83.3625C66.4209 83.8544 67.2353 84.5423 68.0316 85.0616C68.6276 85.4533 69.1872 85.8541 69.756 86.296C70.1291 86.5875 70.5022 86.9155 70.8935 87.1797C71.353 87.4849 71.7762 87.781 72.1266 88.1044C72.4496 88.4005 72.7089 88.733 72.8864 88.9516C73.4961 89.6759 74.0148 89.9492 74.9658 89.89C74.6882 90.1223 74.4016 90.3182 74.0876 90.5277C73.7282 90.7646 73.3323 91.006 72.9546 91.2429C72.5133 91.5253 72.1084 91.7758 71.6989 92.0491C71.2257 92.3634 70.8753 92.5502 70.5113 92.8235C70.2974 92.983 70.1109 93.1105 69.9425 93.2335C69.8561 92.942 69.7287 92.6778 69.5694 92.4318L69.3829 92.0628C69.2373 91.7986 69.0644 91.6483 69.0781 91.2975C69.0007 91.375 68.9279 91.4524 68.8506 91.5344L68.9188 90.5687L68.532 91.2657L68.5821 90.6553L68.341 91.1837L68.4957 90.4913L68.2136 91.1199C68.118 91.0015 68.1544 90.8648 68.1635 90.7099C67.8405 91.0333 67.7221 90.6143 67.6493 90.3273L67.481 90.6052L67.3309 89.6486L67.1079 90.4138L67.026 89.808L66.9077 90.3774V89.6668L66.7393 90.4867C66.7393 90.4867 66.6711 90.1998 66.6301 89.9538C66.5119 90.1679 66.4391 90.3227 66.339 90.3501L66.2525 89.9173L65.9477 90.341L66.0568 90.0631C65.8111 90.1679 65.4244 90.3683 65.1787 90.4184L65.4198 90.1269L64.9694 90.4685L64.9012 90.4867L65.0058 90.2681L64.3825 90.6371C64.3825 90.6371 64.3506 90.6598 64.3006 90.7099C63.9639 90.8603 63.6272 91.047 63.3041 91.2474C63.0493 91.4069 62.84 91.621 62.5989 91.8032C61.2703 93.648 61.0792 94.6183 61.3476 96.8913C61.3886 97.1919 61.4295 97.488 61.4705 97.7886C60.9381 97.9344 61.2976 98.5858 61.7799 99.1324L61.8344 99.2007C61.384 99.4467 60.97 99.6653 60.6333 99.8476C60.3557 99.9979 58.8269 100.253 58.6313 99.8202C58.4902 99.5105 58.3446 99.7291 58.4174 99.0504C58.836 97.7476 59.0408 97.1008 59.1955 96.4449C59.2819 96.0668 59.3547 95.6841 59.4366 95.174C59.514 94.2812 59.8916 93.9395 59.8689 92.9192C59.928 93.0558 60.0281 93.2244 60.0782 93.32C59.9235 92.8281 59.9781 92.8281 59.928 92.6049C59.8871 92.3908 59.9644 92.1175 59.8689 91.917C59.9735 92.0901 59.9826 92.2222 60.1237 92.409C60.1692 92.4728 60.2238 92.5411 60.2374 92.5684C60.2374 92.5457 60.2283 92.5183 60.2147 92.4956C60.0008 92.1402 59.9508 91.6711 59.8734 91.2611C59.9735 91.498 59.969 91.4524 60.2374 91.621C59.878 91.2383 59.787 90.6735 59.5458 90.1998L59.5094 90.0904C59.9053 90.0904 60.0145 90.2316 60.2875 90.4366C60.1055 90.1542 59.9098 89.8035 59.5959 89.6714C59.5595 89.6577 59.5231 89.644 59.4867 89.6304C59.5276 89.6304 59.5595 89.6486 59.6004 89.6577C60.1146 89.7852 60.0782 89.6121 60.6333 89.9766C60.3739 89.7032 60.3011 89.6076 59.8871 89.5393C59.7733 89.521 59.655 89.5393 59.4958 89.4436C59.4002 89.3935 59.3229 89.3161 59.2319 89.2568C59.3593 89.3115 59.5458 89.3616 59.6459 89.3935C59.2364 89.1703 59.2819 89.1384 59.1136 89.0245C58.9862 88.9334 58.9088 88.774 58.7769 88.6783L58.7541 88.651C58.8451 88.6874 58.9361 88.7376 59.0362 88.7694C59.1136 88.7968 59.2137 88.8013 59.2956 88.815C58.9862 88.7284 58.7359 88.5326 58.4948 88.3458C58.4538 88.3048 58.4174 88.2684 58.3765 88.2365C58.5357 88.3003 58.5448 88.2729 58.8451 88.2365C58.5448 88.2137 58.2855 88.1044 58.0352 87.986C57.5939 87.7218 57.1116 87.6261 56.5064 87.3665C56.0469 87.1706 54.6682 87.002 53.9812 87.1478C53.2987 87.289 52.8482 87.453 52.325 87.781C51.8154 88.0998 51.324 88.4779 50.9736 88.9926C50.5869 89.5575 50.3366 89.7169 49.8043 90.0585C50.1182 90.0768 50.0955 90.1086 50.2957 89.9993C50.0136 90.2544 49.736 90.5824 49.3584 90.6917C49.3766 90.7008 49.4767 90.6826 49.5586 90.6553C49.7042 90.6052 49.8407 90.4867 49.9863 90.4366C49.8088 90.5232 49.7451 90.7418 49.6086 90.8648C49.463 90.9924 49.5085 91.0151 49.14 91.2657C49.231 91.2247 49.3993 91.1654 49.5131 91.1017C49.4312 91.1654 49.3629 91.2474 49.2765 91.3067C49.1309 91.4114 49.0217 91.4023 48.917 91.4296C48.7805 91.4661 48.6258 91.5344 48.5121 91.6119C48.3801 91.6938 48.371 91.6711 48.2163 91.8669C48.3437 91.7622 48.4802 91.7166 48.6395 91.6528C48.8033 91.5845 49.0262 91.6027 49.1946 91.5435C49.231 91.5344 49.2719 91.5162 49.2947 91.4934C49.281 91.5207 49.1855 91.5754 49.1172 91.621C48.867 91.7758 48.6258 91.9899 48.4939 92.2496C48.6213 92.1448 48.7259 92.0583 48.867 91.9626C48.9944 91.8806 49.1218 91.7303 49.2765 91.703L49.2583 91.7303C49.099 91.8943 48.9489 92.0583 48.7669 92.1995C48.644 92.2906 48.5303 92.3862 48.412 92.4819C48.2846 92.5867 48.1162 92.6049 47.9752 92.696C48.0434 92.7142 48.1435 92.7188 48.189 92.6869C48.0207 92.8463 47.9479 92.9283 47.7113 93.0194C47.6157 93.0558 47.5202 93.0832 47.4246 93.1059L47.411 93.1697C47.8159 93.2745 48.4165 92.9829 48.3119 93.0467C47.9888 93.3291 47.775 93.6662 47.6203 93.9031C47.2608 93.4977 46.8877 93.1788 46.5783 92.8782C46.4418 92.7461 46.3463 92.6504 46.2507 92.5457L47.7204 88.3321L48.7077 85.8541C48.7214 85.7494 48.7168 85.6811 48.6986 85.6537C48.3574 85.2164 48.0434 85.2529 47.684 85.0524C47.7659 84.4375 47.7932 83.9547 47.8296 83.5492C47.8705 83.1484 47.9706 82.4105 48.0616 81.8729C48.1981 81.1168 48.2755 80.7159 48.3437 79.8277C48.3892 79.2173 48.5985 78.862 48.6713 78.2106C48.7214 77.7414 49.049 77.4955 49.1354 76.9989C49.2173 76.5252 49.1445 76.1244 48.9898 75.5413C49.1127 75.1404 49.3629 74.9264 48.9261 74.5027C48.7532 74.3342 48.1617 73.8468 47.8978 73.8377C47.7431 73.8377 47.6157 73.8969 47.4383 73.9379C47.3063 73.9698 47.229 73.8878 47.0925 73.8923C46.9059 73.9014 46.6693 74.0017 46.5419 74.0563C46.4509 74.0928 46.3963 73.8103 45.9459 73.988C45.6911 74.0882 45.8094 74.2886 45.6592 74.4025C45.5091 74.5209 45.3635 74.4344 45.2361 74.48C45.1132 74.5255 44.9403 74.6166 44.8948 74.7578C44.8539 74.899 44.9403 75.0903 45.0404 75.3955C45.1041 75.596 45.1269 75.8146 45.227 75.9194C45.3908 76.0879 45.5773 76.1517 45.7275 76.4341C45.7912 76.5616 45.8685 76.794 46.0005 76.8668C46.1688 76.9534 46.3281 77.1584 46.4009 77.3998C46.5738 77.951 46.3554 78.6889 46.2598 79.2583C46.0733 80.2695 45.9959 81.0075 45.6365 82.2282C45.4681 82.7976 45.2634 83.3078 45.045 83.8043C44.9813 83.9501 44.8857 84.2826 44.8084 84.4329C44.772 84.5013 44.6309 84.4375 44.59 84.5104C44.4535 84.77 44.3989 85.2756 44.2897 85.5581C44.0485 86.1639 43.912 86.5556 43.7437 87.1615C43.6754 87.4074 43.5981 87.6625 43.5207 87.9131C43.4161 87.699 43.3069 87.5031 43.1931 87.3255C43.0066 87.0248 42.8109 86.7378 42.5698 86.501C42.4287 86.3734 42.4196 86.2596 42.3878 86.1183C42.3468 85.9088 42.3286 85.6628 42.3195 85.3941C42.3195 85.0752 42.2968 84.893 42.2649 84.5742C42.2422 84.3236 42.224 84.1323 42.2058 83.9091C42.183 83.4991 42.042 82.9389 41.9237 82.5471C41.7917 82.1098 41.7644 81.8456 41.6188 81.4357C41.5415 81.2216 41.4778 80.8845 41.3913 80.6658C41.3003 80.4335 41.2366 80.2331 41.1638 80.0509C41 79.6182 40.8908 79.2947 40.8135 78.8574C40.768 78.6024 40.6724 78.3928 40.6451 78.1468C40.6087 77.8416 40.5587 77.4636 40.5177 77.2313C40.4586 76.794 40.4631 76.4705 40.3903 76.0651C40.3312 75.7554 40.3084 75.391 40.2766 75.0812C40.2584 74.8717 40.2402 74.6348 40.313 74.4344C40.3812 74.234 40.5405 74.07 40.6542 73.9561C40.8544 73.7648 40.8817 73.5871 40.9955 73.4232C41.1274 73.2318 41.3367 73.0542 41.4823 72.7444C41.5688 72.5622 41.6916 72.2206 41.9646 72.0976C42.1102 72.0293 42.2331 71.9518 42.3923 71.9518C42.679 71.9518 42.9747 72.0429 43.0566 71.8289C43.0794 71.7605 43.0566 71.5692 42.9565 71.4143C42.8564 71.2686 42.6835 71.1638 42.5015 71.0727C42.2422 70.9452 41.9328 70.9634 41.6689 71.1091C41.4459 71.2276 41.2821 71.346 41.1593 71.4736C41.0592 71.5783 41 71.6922 40.818 71.7833C40.3448 72.0156 40.0218 71.7469 39.7488 71.4462C39.5577 71.2321 39.4257 70.9907 39.2847 70.7174C39.1527 70.4532 39.1846 70.1526 39.1391 69.8656C39.1163 69.7062 39.1118 69.5331 39.0708 69.3736C39.039 69.2233 39.0162 69.1094 38.9616 68.95C38.8615 68.663 38.8251 68.5264 38.7751 68.2758C38.7205 67.9615 38.6022 67.67 38.3064 67.67C38.0061 67.67 37.947 67.8887 37.9743 68.3214C37.9834 68.4171 38.0516 68.5628 38.0698 68.7177C38.0835 68.8361 38.0471 68.9546 38.0607 69.0912C38.1153 69.6059 38.22 70.1753 38.2109 70.2847C38.2109 70.4669 37.9561 70.4486 37.8924 70.2756C37.8241 70.1025 37.7604 69.9248 37.7013 69.6879C37.6376 69.442 37.5693 69.2233 37.4874 69.0274C37.3145 68.622 37.2099 67.9798 37.0461 67.7976C36.8823 67.6108 36.5592 67.5652 36.3954 67.7474C36.2453 67.9205 36.3317 68.1529 36.3863 68.3305C36.5456 68.868 36.6275 69.1094 36.7412 69.6196C36.7867 69.8109 36.9733 70.1435 37.0597 70.353C37.0916 70.4395 37.1462 70.6309 37.1325 70.6855C37.1189 70.7447 37.0415 70.7766 37.0051 70.8085C36.9414 70.8632 36.8504 70.8632 36.8004 70.8085C36.7048 70.6901 36.6184 70.517 36.5501 70.4486C36.2589 70.1434 35.8676 69.6606 35.672 69.2689C35.6037 69.1322 35.4627 68.9773 35.2352 68.8635C35.0805 68.7815 34.8985 68.8042 34.8029 68.9045C34.7483 68.9637 34.6755 69.0047 34.6937 69.1778C34.7347 69.5649 35.2079 69.9521 35.4308 70.2983C35.5082 70.4168 35.8449 70.7402 36.0496 71.0454C36.1543 71.2002 36.2953 71.3141 36.309 71.4417C36.3272 71.5692 36.2271 71.715 36.1133 71.7787C36.0769 71.797 35.995 71.8471 35.9177 71.8243C35.6219 71.7469 35.1351 71.3825 35.0395 71.3005C34.8257 71.1137 34.5208 70.9133 34.307 70.8131C34.0385 70.6901 33.8656 70.7948 33.811 70.9725C33.7701 71.1 33.8383 71.2731 33.9111 71.3551C34.1477 71.5965 34.5163 71.8197 34.7392 71.9837C35.0577 72.2297 35.3353 72.4484 35.6856 72.6624C35.9359 72.8173 36.1452 73.0815 36.2953 73.3093C36.4455 73.537 36.9096 74.2704 37.1917 74.6303C37.633 75.186 37.4783 75.7645 37.6649 76.4478C37.765 76.8076 37.7331 77.5957 37.7786 78.5523C37.8469 80.1283 37.9788 82.1053 38.1472 82.9616C38.3246 83.8954 38.5885 84.7609 38.8388 85.6355C38.9434 85.9817 38.8797 86.2869 38.9707 86.6422C39.0208 86.8335 39.1664 86.9975 39.2437 87.207C39.221 88.1044 40.3221 91.8305 41.1183 94.0762C41.1183 94.1263 41.1092 94.1718 41.1183 94.2265C41.1456 94.6365 41.4414 94.6501 41.2457 94.9918C41.1365 95.1831 41.041 95.3106 41.0455 95.4473C41.0455 95.5566 41.1456 95.6568 41.1411 95.8436C41.1365 96.0394 40.9773 96.2353 40.909 96.3355C40.859 96.413 40.8135 96.6043 40.7225 96.6316C40.5678 96.6681 40.4859 96.4312 40.2584 96.3629C39.9217 96.2581 39.4075 96.4221 39.089 96.4585C38.4156 96.536 38.4475 96.873 38.0607 97.5563C37.674 98.2259 37.6876 98.6085 37.3964 99.7838C37.36 99.392 37.3691 98.8363 37.2963 98.4582C37.2372 98.1667 37.1689 97.7658 37.0961 97.4333C37.3691 97.3923 37.5375 97.2693 37.7195 97.0416C38.0243 96.6635 38.0744 96.536 38.0698 95.9848C38.0698 95.7661 38.1153 95.4382 38.0789 95.1558C38.0334 94.8369 37.8924 94.5772 37.8287 94.518C37.7013 94.4042 37.5557 94.4224 37.3782 94.5727C37.4601 93.9623 37.36 93.4066 37.2099 93.0012C37.1007 92.696 36.9323 92.2997 36.7594 92.0264C36.6502 91.8487 36.4045 91.6528 36.2407 91.5253C36.0815 91.3978 35.9268 91.1928 35.7402 91.0971C35.4809 90.9696 35.1851 90.8648 34.903 90.7691C34.7392 90.7145 34.5982 90.6644 34.4253 90.6097C34.2751 90.5642 34.0658 90.5687 33.9157 90.5368C33.6609 90.4867 33.3287 90.6234 33.0785 90.6644C32.669 90.7373 32.2959 90.7509 31.9364 90.9741C31.5952 91.1882 31.1811 91.4752 30.94 91.8032C30.717 92.1084 30.5123 92.3088 30.3212 92.6322C30.0937 93.0148 29.989 93.4749 29.9617 93.8575C29.9481 94.0443 29.9754 94.222 29.9799 94.3677C29.989 94.5135 29.9708 94.6319 29.989 94.764C30.0163 94.9918 30.0573 95.215 30.0982 95.4928C30.1346 95.7616 30.2575 95.9757 30.4486 96.2535C30.2302 96.2217 30.1528 96.1989 30.0436 96.2262C29.8161 96.2809 29.8298 96.6316 29.9071 96.9459C30.0254 97.4333 30.3576 97.9481 30.6033 98.153C30.7534 98.2806 30.9081 98.3899 31.0947 98.4719C31.2676 98.5539 31.5224 98.6541 31.7453 98.5676C31.8545 99.0231 31.9 99.6471 32.0684 100.125C31.4632 99.7063 31.0583 99.3784 30.3394 99.1552C30.0709 99.0732 29.5932 98.8864 29.17 98.8272C28.7514 97.4971 28.26 96.3036 27.8778 94.4861L27.8642 94.4543C27.7595 94.1718 27.4638 92.9374 27.391 92.6049C27.3364 92.3498 27.3819 92.1038 27.4137 91.7986L27.1726 90.341L27.5229 89.8126L27.532 89.7761C27.5684 89.6349 27.573 89.5347 27.6139 89.4163C27.6685 89.2432 27.755 89.0564 27.8187 88.9699C27.9097 88.8332 28.0098 88.5918 28.1463 88.364C28.7196 87.3756 28.5057 87.658 28.574 87.4986C28.5148 87.3072 28.4056 87.2571 28.169 87.3027C27.9324 87.453 27.8232 87.6398 27.7413 87.7992C27.5002 88.2593 27.1453 88.4779 26.8359 88.979C26.845 88.8833 26.8177 88.7193 26.8268 88.5736C26.8404 88.4415 26.8905 88.323 26.9178 88.1773C26.9769 87.6489 27.0133 87.6762 27.1134 87.2435C27.1362 87.1341 27.1134 87.0203 27.0861 86.9838C26.9815 86.8107 26.6857 86.6969 26.4992 86.8517C26.4537 86.8882 26.3399 87.1023 26.2853 87.2845C26.2444 87.4166 26.2671 87.494 26.2216 87.6489C26.1625 87.8265 26.0715 87.986 26.0305 88.1636C25.9759 88.364 25.9987 88.5462 25.9486 88.6829C25.8986 88.8332 25.7894 88.9243 25.7621 88.9243C25.6483 88.9061 25.712 88.5645 25.7075 88.4096C25.7075 88.3003 25.6711 88.2092 25.6574 88.0771C25.6392 87.8766 25.5801 87.6899 25.5528 87.494C25.5118 87.2435 25.4936 86.9975 25.4436 86.9064C25.2889 86.6422 24.9112 86.9155 24.8066 87.1979C24.7565 87.3346 24.7884 87.4393 24.7884 87.6944C24.7884 87.7946 24.7611 87.945 24.7702 88.0497C24.7975 88.3959 24.8248 88.4825 24.8612 88.7148C24.9021 88.9699 24.9613 89.0336 24.8521 89.0929C24.7156 89.1703 24.6746 89.2158 24.529 89.1293C24.4653 89.0883 24.3789 89.0519 24.3243 88.9699C24.2697 88.8879 24.2469 88.7603 24.1832 88.6783C24.1195 88.5918 24.0194 88.5371 23.9603 88.446C23.8784 88.3276 23.8283 88.1864 23.7419 88.1044C23.6782 88.0452 23.6463 88.0406 23.5735 88.0178C23.3642 87.9541 23.2141 88.1181 23.1822 88.3094C23.1595 88.4506 23.2141 88.5827 23.2823 88.733C23.3233 88.8241 23.3915 89.0655 23.5326 89.2705C23.7055 89.5256 23.9694 89.767 24.0376 90.0859C24.1332 90.5277 23.9148 91.0242 23.4962 91.0789C23.2778 91.1062 22.7864 90.76 22.3951 90.8147C21.89 90.8876 21.5169 91.375 21.6807 91.5208C21.7808 91.6073 21.84 91.6392 21.8809 91.6392C21.9628 91.6392 22.0538 91.539 22.254 91.5481C22.3632 91.5572 22.4133 91.6528 22.5179 91.6893C22.6499 91.7348 22.7682 91.7303 22.8728 91.8214C23.2414 92.1448 23.1686 92.3452 23.6782 92.4637C24.1787 92.5821 25.5118 93.5387 25.5255 94.2037C25.5528 95.4245 25.5755 96.5906 25.5755 97.7659C25.4254 97.5791 25.2934 97.4106 25.2206 97.283C24.8157 96.5906 24.4699 96.1579 23.9921 95.5566C23.7919 95.3015 23.4734 94.8916 23.2596 94.6365C23.0184 94.3404 22.7773 94.1263 22.5543 93.8484C22.4133 93.6708 22.2904 93.5979 22.204 93.5159C22.0265 93.3474 21.7626 93.1652 21.5943 92.9829C21.3486 92.7279 21.1802 92.4955 20.9937 92.2951C20.4022 91.662 20.0018 91.2156 19.3375 90.4867C19.1964 90.3319 18.9416 90.0768 18.7414 89.8718C18.6277 89.7488 18.5776 89.6486 18.4457 89.5894C18.3092 89.5256 18.1044 89.5529 17.9588 89.6212C17.4674 89.1885 17.2354 88.9562 16.8714 88.5918C16.4892 88.2092 16.1798 87.6625 15.8522 87.2662C15.4745 86.8198 15.2425 86.4736 14.9376 85.9726C14.833 85.7995 14.7647 85.763 14.6965 85.6401C14.6009 85.467 14.4781 85.3713 14.4189 85.1891C14.378 85.057 14.378 84.8793 14.4007 84.6425C14.4098 84.4876 14.5918 84.1687 14.6555 84.023C14.701 83.9137 14.8876 83.5675 14.9103 83.4581C14.9649 83.1302 14.701 82.6747 14.6373 82.2875C14.56 81.8228 14.6146 81.4402 14.0413 81.4265C13.8957 81.4265 13.609 81.4767 13.4134 81.4767C13.2086 81.4767 13.013 81.3855 12.8492 81.4539C12.5716 81.5678 12.6035 81.7818 12.5034 81.8411C12.4033 81.8957 12.3214 81.8001 12.1712 81.8593C12.0711 81.8957 12.0074 82.0278 11.9301 82.0916C11.8527 82.1554 11.7663 82.1463 11.6935 82.1873C11.5479 82.2738 11.6161 82.3102 11.5297 82.3421C11.4478 82.374 11.3067 82.3831 11.2203 82.4423C11.1338 82.4924 11.0656 82.579 11.0201 82.6564C10.9609 82.9753 10.788 83.285 10.8244 83.5447C10.8426 83.6813 10.9746 83.7952 11.0838 83.8954C11.2476 84.0458 11.3113 84.1095 11.4023 84.269C11.3386 84.5195 11.3295 84.5332 11.3067 84.7154C11.2567 85.1709 11.4296 85.59 11.698 85.9544C11.9346 86.2732 12.4579 86.6149 12.7627 86.8517C13.1267 87.1387 13.3133 87.3801 13.6318 87.7172C13.9321 88.0361 14.2506 88.6601 14.4644 89.0701C14.7101 89.5347 14.8921 89.9538 15.1606 90.3956C15.3926 90.7828 15.5519 91.0835 15.8067 91.5162C15.4381 91.9808 15.1879 92.3634 14.9831 92.7916C15.6565 93.6936 16.6211 94.6 17.4128 95.4427C17.6949 95.7434 18.1499 96.2535 18.3501 96.6225C18.5321 96.955 18.6049 97.3012 18.746 97.6565C19.019 98.3398 19.1145 98.8318 19.6469 99.3009C20.0609 99.6699 20.7025 99.72 20.5432 100.294C22.1676 102.763 23.2641 104.293 24.6018 105.245L24.8475 106.484C24.9021 106.521 24.9567 106.557 25.0068 106.594C25.5983 107.013 26.1716 107.4 26.7494 107.783C26.8268 107.833 26.8996 107.883 26.9769 107.933C27.5957 108.338 28.2282 108.739 28.8834 109.131C28.9562 109.176 29.0335 109.222 29.1109 109.263C29.4021 109.436 29.6933 109.614 29.9981 109.791C29.9981 109.791 30.0027 109.787 30.0072 109.782C33.3606 111.718 36.8959 113.367 40.5905 114.693V114.702C41.0228 114.857 41.4687 115.007 41.9237 115.153C42.0966 115.212 42.2604 115.271 42.4333 115.33V115.312C49.0945 117.376 57.6257 118.496 62.5079 118.496C67.8587 118.496 68.4729 118.287 71.3713 117.895C71.3713 117.895 71.3713 117.895 71.3713 117.89C80.2938 116.674 88.6385 113.645 96.0277 109.186V109.195C96.2097 109.085 96.3871 108.967 96.5691 108.853C96.783 108.721 97.0014 108.593 97.2152 108.461V108.452C97.5974 108.206 97.9842 107.965 98.3664 107.714C98.4119 107.687 98.4528 107.655 98.4983 107.628C99.0261 107.277 99.5539 106.922 100.073 106.557V106.512C100.66 106.097 101.26 105.696 101.829 105.259L101.811 104.744C101.843 104.626 101.879 104.503 101.92 104.357C102.084 103.801 102.238 103.419 102.425 103.009C102.507 102.827 102.63 102.658 102.753 102.444C102.821 102.326 102.944 102.221 103.062 102.143C103.208 102.043 103.299 102.052 103.481 102.016C103.917 101.938 104.186 101.829 104.523 101.538C104.755 101.342 105.073 101.118 105.396 100.918C105.555 100.822 105.696 100.713 105.856 100.64C106.01 100.567 106.183 100.526 106.311 100.494C106.707 100.39 107.612 99.9979 107.375 99.5287C107.143 99.055 106.415 99.2645 105.915 99.5469C105.751 99.638 105.264 99.8202 105.096 99.7701C104.796 99.6745 104.805 99.2964 104.745 99.0367C104.677 98.7407 104.673 98.5448 104.714 98.2533C104.75 98.0118 104.777 97.734 104.827 97.4971C104.937 96.9505 104.996 96.5086 105.023 95.9666C105.028 95.8162 105.028 95.338 104.978 95.2059C104.896 95.01 104.627 94.887 104.468 95.1148C104.381 95.2286 104.395 95.5748 104.368 95.7343C104.327 95.9575 104.222 96.3173 104.154 96.5861C104.149 96.1078 104.24 95.5338 104.095 95.1375C103.963 94.7822 103.494 94.7868 103.449 95.2423C103.412 95.6158 103.494 95.839 103.276 96.2581C103.167 96.4585 103.112 96.6817 103.044 96.9505C103.003 97.1236 103.012 97.3012 103.044 97.4424C102.834 97.5928 102.707 97.6839 102.557 97.857C102.507 97.9162 102.452 98.0255 102.425 98.1849C102.398 98.3353 102.389 98.5311 102.339 98.7133C102.279 98.9046 102.147 99.0458 102.097 99.228C101.46 98.9957 101.538 99.7792 101.424 100.039C101.315 100.276 101.287 100.649 101.119 100.85C100.96 101.041 100.823 101.205 100.737 101.433C100.605 101.779 100.478 101.975 100.205 102.266C100.045 102.435 99.9179 102.663 99.7905 102.886C99.7814 102.799 99.7769 102.713 99.7632 102.644C99.7177 102.412 99.6859 102.216 99.654 102.029C99.5721 101.601 99.5221 101.278 99.5221 100.854C99.5221 100.608 99.4675 100.399 99.4857 100.162C99.5039 99.8703 99.5175 99.5105 99.5175 99.2873C99.5312 98.8682 99.5949 98.5676 99.5903 98.1758C99.5903 97.8797 99.6222 97.5335 99.6449 97.2375C99.6631 97.037 99.6813 96.8138 99.786 96.6362C99.8815 96.4585 100.059 96.331 100.186 96.2444C100.405 96.0987 100.459 95.9392 100.591 95.8026C100.746 95.6477 100.974 95.5156 101.156 95.2514C101.265 95.0965 101.438 94.7959 101.715 94.7276C101.865 94.6866 101.993 94.6365 102.134 94.6592C102.402 94.7002 102.662 94.8414 102.771 94.6547C102.803 94.5955 102.816 94.4087 102.748 94.2538C102.68 94.099 102.539 93.976 102.379 93.8575C102.157 93.6981 101.865 93.6617 101.597 93.7528C101.369 93.8302 101.196 93.9122 101.06 94.0079C100.946 94.0898 100.878 94.1901 100.691 94.2402C100.209 94.3814 99.9543 94.0716 99.7496 93.7482C99.604 93.5159 99.5221 93.2654 99.4356 92.9875C99.4083 92.8873 99.4129 92.7871 99.4129 92.6823C99.7632 92.2997 99.9498 91.9535 100.059 91.5162C100.823 91.9079 101.729 91.4889 102.425 91.0425C103.003 90.6735 103.239 90.4412 103.421 89.7442C103.522 89.3525 103.494 89.2113 103.572 89.184C103.986 89.0837 105.191 88.405 105.401 88.0042C108.567 85.4624 108.863 83.9091 111.17 81.3992L111.188 81.3719C111.352 81.135 112.153 80.2058 112.371 79.9643C112.54 79.7821 112.758 79.6774 113.017 79.5316L114.023 78.5249L114.633 78.5067L114.664 78.4976C114.796 78.4475 114.874 78.3974 114.992 78.3609C115.156 78.3063 115.352 78.2744 115.456 78.2744C115.611 78.2744 115.861 78.2106 116.111 78.1924C117.208 78.0876 116.862 78.0785 117.026 78.0466C117.144 77.8963 117.121 77.7779 116.949 77.6184C116.698 77.5137 116.494 77.5365 116.321 77.5638L116.262 77.5592ZM79.816 99.3556C78.7331 97.8752 77.0496 97.6884 75.7757 97.9572C75.1114 98.0984 74.8429 98.2624 74.306 98.6587C72.8227 99.7564 72.9501 100.358 72.9546 101.528C72.3358 101.497 71.9719 101.374 71.3986 101.629C70.8071 100.913 69.897 101.465 69.6422 100.64C69.8697 100.08 69.9425 99.3693 70.0244 98.6905C70.5659 98.194 71.071 97.7795 71.4259 97.57C72.1539 97.1281 73.5507 97.0962 74.306 97.201C75.6983 97.3969 75.6118 97.3832 76.7402 96.7045C77.0951 96.4904 77.4592 96.3492 77.7822 96.1032C78.1143 95.8436 78.2099 95.5612 78.4647 95.2514C78.5784 95.1102 78.7058 95.0419 78.8059 94.8642C78.9015 94.6957 78.9789 94.5135 79.0789 94.3404C79.1381 94.2402 79.3884 94.1081 79.2792 93.9942C79.22 93.9259 78.8105 93.9122 78.765 93.9623C78.4738 93.9942 78.2918 94.2812 78.1098 94.5089C78.2099 94.3586 78.1962 94.2538 78.2736 94.0944C78.36 93.9486 78.4238 93.7573 78.4238 93.6252C78.4238 93.4521 78.451 93.4977 78.4738 93.3474C78.5466 92.8645 78.6513 92.3771 78.0825 92.7415C78.0552 92.7597 78.0325 92.7871 78.0143 92.8235C77.9506 92.7324 78.0051 92.6276 77.905 92.5593C77.8459 92.5183 77.6821 92.5365 77.6229 92.5593C77.5365 92.5958 77.4955 92.7051 77.4045 92.737C77.3181 92.7689 77.2225 92.737 77.1224 92.7825C76.8813 92.8782 76.7812 93.0604 76.6174 93.2471C76.4991 93.3838 76.3262 93.4977 76.2261 93.7346L76.1715 93.8302C75.6255 94.099 75.1204 94.1627 74.5471 94.1491C75.3889 93.3792 76.2079 92.5912 77.0269 91.835C77.2043 91.6711 77.4 91.4615 77.6139 91.2383C77.673 91.293 77.7276 91.3477 77.7458 91.4251C77.8231 91.7531 78.1826 91.9307 78.4465 92.1494C78.4465 92.1539 78.9379 92.3452 78.997 92.368C79.1517 92.4363 79.311 92.3908 79.4657 92.45C79.6795 92.532 79.9116 92.7096 80.2346 92.8463C80.4985 92.9556 80.7761 92.9693 80.9626 93.1515C81.1446 93.3337 81.2311 93.607 81.3448 93.8575C81.545 94.2857 81.727 94.7276 81.8772 95.1466C82.0774 95.7024 82.1638 96.3446 82.2821 96.9778C82.3686 97.4607 82.4778 97.9253 82.5779 98.3535C81.6133 98.6587 80.7078 98.9593 79.816 99.3647V99.3556Z" fill="#FFFEEF"/>
<path d="M80.3711 67.8935C76.6219 67.8935 72.9591 67.1464 69.583 65.7389C66.1978 64.3268 63.0902 62.2451 60.4603 59.5894C60.1737 59.2979 59.8506 59.061 59.5139 58.8697V69.9843C61.6388 71.4601 63.9092 72.7037 66.2843 73.6967C70.716 75.5461 75.5026 76.5255 80.3756 76.5255C90.4903 76.5255 99.6449 72.4213 106.274 65.7844C111.402 60.6508 115.015 54.0048 116.389 46.5708C116.644 45.1952 117.008 41.0773 116.958 39.2325V15.8828H108.426V39.237C108.281 41.4144 108.29 43.0861 107.853 45.309C106.761 50.8663 104.027 55.8314 100.182 59.6851C95.1131 64.7595 88.1106 67.898 80.3802 67.898L80.3711 67.8935Z" fill="#FFFEEF"/>
<path d="M116.776 2.15137C112.28 2.16503 108.217 6.26922 108.244 12.4232H116.776V2.15137Z" fill="#FFFEEF"/>
<path d="M17.3174 13.8467H8.78613V57.8813H17.3174V13.8467Z" fill="#FFFEEF"/>
<path d="M8.78613 0V10.2719H17.3174C17.3401 4.11785 13.277 0.0136654 8.78613 0Z" fill="#FFFEEF"/>
<path d="M31.1857 62.4114V58.0293H44.276C47.3154 58.0293 50.1409 57.4645 52.7572 56.3303C55.3734 55.2006 57.6848 53.6291 59.6868 51.6248C60.1555 51.1556 60.5968 50.6728 61.0882 50.1444C61.8799 51.3333 62.7854 52.4356 63.8046 53.456C65.8066 55.4602 68.1362 57.0318 70.7843 58.1614C73.4324 59.2957 76.2443 59.8605 79.22 59.8605C82.1957 59.8605 85.003 59.2911 87.6557 58.1614C90.3083 57.0318 92.6152 55.4602 94.5853 53.456C96.5555 51.4517 98.107 49.1195 99.24 46.4684C100.368 43.8173 100.937 40.9977 100.937 38.0277V2.15137C96.3916 2.16503 92.2785 6.26922 92.3103 12.4232V16.2814H79.22C76.2488 16.2814 73.4369 16.8463 70.7843 17.9805C68.1362 19.1102 65.8066 20.6635 63.8046 22.6404C63.3223 23.1141 62.8673 23.6061 62.435 24.1208C61.6342 22.9319 60.7197 21.8296 59.6868 20.8138C57.6848 18.8414 55.3734 17.2881 52.7572 16.1539C50.1409 15.0197 47.3109 14.4548 44.276 14.4548C41.2412 14.4548 38.493 15.0197 35.8403 16.1539C33.1922 17.2881 30.8808 18.8369 28.9107 20.8138C26.9405 22.7862 25.3844 25.0865 24.256 27.7057C23.1276 30.3249 22.5589 33.1582 22.5589 36.2011C22.5589 36.2011 22.5574 44.9196 22.5543 62.3567V72.6286C27.0861 72.6149 31.1811 68.5381 31.1857 62.4205V62.4114ZM66.0341 37.6769C66.0386 37.472 66.0477 37.267 66.0659 37.062C66.075 36.7887 66.0614 36.5108 66.0887 36.1965C66.0887 36.4698 66.0841 36.7386 66.075 37.0119C66.1797 35.577 66.5073 34.215 67.0578 32.9305C67.7358 31.3453 68.6731 29.956 69.8697 28.758C71.0664 27.56 72.4723 26.6216 74.0876 25.9429C75.7028 25.2642 77.4182 24.9225 79.2245 24.9225H92.3149V38.0277C92.3149 39.8406 91.9736 41.5534 91.2957 43.1705C90.6177 44.7875 89.6804 46.1951 88.4838 47.3931C87.2871 48.5911 85.8994 49.5294 84.316 50.2081C82.7326 50.8869 81.0354 51.2285 79.2245 51.2285C77.4136 51.2285 75.7028 50.8914 74.0876 50.2081C72.4723 49.5294 71.0664 48.5911 69.8697 47.3931C68.6731 46.1951 67.7358 44.7875 67.0578 43.1705C66.3799 41.5534 66.0386 39.8361 66.0386 38.0277V37.6496C65.9931 38.4741 65.893 39.2895 65.752 40.0912C65.8885 39.2986 65.984 38.4969 66.0386 37.6815L66.0341 37.6769ZM31.1857 36.1965C31.1857 34.3836 31.5269 32.6845 32.2049 31.0993C32.8828 29.5141 33.8201 28.1248 35.0168 26.9268C36.2134 25.7288 37.6012 24.7904 39.1846 24.1117C40.768 23.433 42.4651 23.0914 44.276 23.0914C46.0869 23.0914 47.7977 23.433 49.4129 24.1117C51.0282 24.7904 52.4341 25.7288 53.6308 26.9268C54.8274 28.1248 55.7647 29.5141 56.4427 31.0993C57.0979 32.6298 57.4391 34.2651 57.4619 36.0098L57.4209 36.5746C57.4164 36.8069 57.4027 37.0392 57.3891 37.267L57.38 37.7726C57.2389 39.0116 56.9295 40.2005 56.4518 41.3393C55.7738 42.9564 54.8365 44.3639 53.6399 45.5619C52.4432 46.7599 51.0373 47.6983 49.422 48.377C47.8068 49.0557 46.0914 49.3973 44.2851 49.3973H31.1948V36.1965H31.1857Z" fill="#FFFEEF"/>
</svg>
