<svg width="137" height="242" viewBox="0 0 137 242" fill="none" xmlns="http://www.w3.org/2000/svg">
<path d="M16.7916 132.024C9.13778 124.241 9.13778 111.759 16.7916 103.976L69.2404 50.6451C81.7906 37.8837 103.5 46.7701 103.5 64.6687L103.5 171.331C103.5 189.23 81.7906 198.116 69.2404 185.355L16.7916 132.024Z" fill="#515151"/>
<path d="M16.8802 138.554C9.1866 130.764 9.18661 118.236 16.8802 110.446L69.2702 57.4003C81.8331 44.6801 103.5 53.576 103.5 71.4542L103.5 177.546C103.5 195.424 81.8331 204.32 69.2702 191.6L16.8802 138.554Z" fill="#1E1E1E"/>
<path d="M15.5082 136.074C7.10347 128.176 7.10346 114.824 15.5082 106.926L69.0536 56.6052C81.8208 44.6069 102.75 53.6591 102.75 71.1794L102.75 171.821C102.75 189.341 81.8208 198.393 69.0536 186.395L15.5082 136.074Z" fill="#252525"/>
</svg>
