<svg width="127" height="62" viewBox="0 0 127 62" fill="none" xmlns="http://www.w3.org/2000/svg">
<path d="M40.7522 41.518C35.1852 42.0317 29.1731 44.2131 23.8844 41.9246C23.7416 41.5764 26.3086 37.8612 24.9029 38.409C18.2666 43.0494 10.2368 45.2259 2.18029 44.9338C-2.4673 44.8023 1.68433 42.7207 2.18029 40.4273C4.96014 35.3706 1.29239 32.5781 8.53354 31.3097C20.0473 27.071 7.71579 28.2688 3.49401 28.6633C3.67062 25.2305 -3.17133 25.5543 4.15691 23.8403C10.9045 22.0168 17.8795 23.088 24.5981 24.3881C25.8295 24.354 22.5005 22.2675 22.5126 22.0922C26.8771 19.755 33.2207 21.7709 37.7497 23.3704C42.6901 26.7253 39.8643 22.2115 44.6618 17.4007C49.5102 11.7013 55.3844 6.88566 62.2796 3.96656C64.3869 2.46927 65.1562 4.57278 66.2377 6.15284C66.3635 5.07674 65.432 3.67197 66.2643 2.78577C67.1812 2.42788 68.9038 -0.00186025 69.1385 2.09678C69.5692 7.02443 74.4563 10.579 78.4506 12.6995C78.5861 8.03479 76.3264 3.65979 73.1014 0.368199C74.2893 -1.0244 77.6401 1.94096 79.2224 2.51553C84.3781 5.63426 88.9386 9.85832 92.0765 14.9686C96.6999 17.0891 101.923 17.3934 106.535 19.6795C111.117 21.486 114.095 25.6078 118.418 27.7771C123.814 30.7668 131.81 35.4631 122.152 39.6214C113.248 43.921 103.486 45.837 93.891 47.8139C71.6498 50.1171 79.0168 56.8536 65.7078 61.7618C65.1393 61.9736 64.7837 61.8665 64.4716 61.3455C62.7901 58.923 60.5933 56.8536 58.3288 55.0058C52.5296 50.8523 46.4812 45.7834 39.4263 44.2496C36.0392 43.9989 36.9489 42.9958 39.632 42.3044C40.3409 42.1072 40.6022 42.4943 40.7497 41.5253L40.7522 41.518ZM68.3546 25.6249C68.3764 24.9383 68.1877 24.186 69.1482 24.4928C78.8159 26.2968 75.4942 24.8993 75.6369 16.7897C75.5111 15.8548 74.1151 16.4415 73.474 16.3709C70.2829 16.7069 67.0579 16.7945 63.8837 17.3374C61.8393 18.0094 62.8119 21.8975 62.1828 23.7088C61.4764 30.6012 60.6417 37.4887 60.1433 44.3933C60.332 46.1316 70.0337 46.0829 72.0829 46.7573C73.3555 46.5528 75.8256 47.9916 76.4837 46.7768C76.5732 43.3902 76.2466 40.0207 76.0264 36.6488C75.77 34.8593 68.6571 38.4845 68.0208 37.3646C67.7014 32.5148 75.2619 38.2629 73.0676 30.9518C72.7143 29.1185 69.9466 30.6669 68.645 30.6231C67.4087 30.3748 68.5167 26.791 68.3546 25.6249ZM61.7232 18.4793C61.832 16.3198 59.3716 17.9412 58.249 17.9875C57.378 18.4525 55.849 18.1384 55.3578 18.9978C54.1844 21.7344 55.4062 32.824 52.3844 24.5293C50.1465 19.8013 51.1989 18.1263 45.6925 21.1963C42.6489 21.9924 43.7255 35.5483 43.1981 38.9276C43.861 40.0183 46.0336 39.5752 47.1901 40.2447C49.3046 39.8868 49.4618 34.9738 50.4102 33.1356C51.1941 32.8216 51.707 39.1345 52.3457 40.3251C52.3627 43.697 55.457 44.0476 58.1643 44.3008C59.9353 43.1322 59.0522 38.224 59.7756 36.0401C60.5425 30.2117 60.9635 24.2688 61.7232 18.4793ZM79.1111 46.5309C93.424 43.6678 92.4466 48.0501 91.3337 36.8947C90.7265 35.0712 87.3974 35.5264 85.7474 35.4071C83.8773 36.9945 88.0918 39.3074 82.7014 38.6476C81.0974 38.9714 81.1676 25.0284 81.5401 23.4434C82.2127 23.385 83.4974 22.3503 83.916 23.0125C84.3031 24.1592 83.7224 26.886 85.0627 27.1465C93.5329 26.5622 89.4684 24.836 90.3587 18.3259C90.4821 17.3764 89.0378 17.6345 88.4329 17.4543C84.9079 16.9625 81.3563 16.7142 77.8167 16.3879C76.2466 16.7069 77.4006 19.7915 77.0837 21.077C77.12 26.029 77.1369 30.9713 77.1829 35.9184C77.1974 39.3585 77.4805 42.801 77.2143 46.2387C77.1901 47.2929 78.4167 46.3191 79.1135 46.5236L79.1111 46.5309ZM98.4587 40.3275C98.6523 39.4267 98.7249 31.6116 100.264 34.6451C100.876 36.0815 100.614 42.6769 102.785 41.6105C104.403 40.2691 108.666 40.364 107.49 37.4863C106.092 32.0206 105.772 25.7222 103.489 20.724C101.955 20.6217 94.9361 16.7799 94.8079 18.713C94.8684 27.1319 92.5845 36.6902 93.7845 44.5881C96.5862 43.9891 99.0104 43.9112 98.4587 40.3299V40.3275ZM110.686 32.9457C110.56 38.056 117.221 39.193 119.243 34.7498C121.01 28.7217 111.547 26.7886 110.686 32.9457Z" fill="#FFFEEF"/>
<path d="M115.242 30.7067C119.159 30.7457 118.738 36.7957 115.14 36.7056C111.255 36.8346 111.03 30.4876 115.242 30.7067Z" fill="#FFFEEF"/>
</svg>
