<svg width="127" height="127" viewBox="0 0 127 127" fill="none" xmlns="http://www.w3.org/2000/svg">
<path d="M125.506 61.9272C105.215 41.6475 84.9322 21.3619 64.6496 1.07339C64.3056 0.729317 63.988 0.358777 63.6587 0H63.0707C62.8795 0.220559 62.7002 0.449941 62.4943 0.655797C41.8824 21.2737 21.2705 41.8916 0.655701 62.5065C0.449876 62.7095 0.217586 62.8889 0 63.0829V63.6682C0.443994 64.0181 0.929152 64.3269 1.32904 64.7239C21.5499 84.933 41.7648 105.151 61.971 125.375C62.3856 125.787 62.7237 126.275 62.9648 126.566C84.2353 105.289 105.359 84.1626 126.676 62.8418C126.429 62.6507 125.921 62.3389 125.506 61.9272ZM30.5238 70.1467C26.5132 70.135 23.4435 67.0295 23.4435 62.9859C23.4435 58.9423 26.7249 55.681 30.6856 55.7457C34.5815 55.8133 37.86 59.1364 37.8453 63.0006C37.8277 66.9971 34.5874 70.1614 30.5238 70.1467ZM58.5837 69.8468H56.3725V59.9275C53.4527 61.7566 50.6741 62.0478 47.7514 59.8481V69.8085H45.4991V56.6338C47.3133 57.3425 49.0657 58.1071 50.8799 58.6865C51.5827 58.9129 52.4795 58.9011 53.1822 58.6718C54.9758 58.0865 56.7048 57.319 58.5837 56.575V69.8468ZM80.31 69.8321H68.1604V56.7367H80.2835V58.9511H70.5509V62.1007H77.9988V64.521H70.5215V67.5177H80.31V69.8321ZM101.689 69.8468H99.4282V59.1158H91.8567V69.835H89.5662V56.7426H101.689V69.8468Z" fill="#FFFEEF"/>
<path d="M35.4078 62.9684C35.4313 65.5592 33.1496 67.7884 30.5209 67.7501C27.9422 67.7148 25.8163 65.5328 25.8399 62.9449C25.8634 60.4217 28.1304 58.1661 30.6209 58.1867C33.129 58.2072 35.3872 60.4658 35.4078 62.9684Z" fill="#FFFEEF"/>
</svg>
