<svg width="187" height="188" viewBox="0 0 187 188" fill="none" xmlns="http://www.w3.org/2000/svg">
<path d="M160.323 20.4058H26.0326C13.5882 20.4058 3.5 30.4677 3.5 42.8797V161.086C3.5 173.498 13.5882 183.56 26.0326 183.56H160.323C172.768 183.56 182.856 173.498 182.856 161.086V42.8797C182.856 30.4677 172.768 20.4058 160.323 20.4058Z" stroke="#FFFEEF" stroke-width="7" stroke-miterlimit="10"/>
<path d="M93.8903 173.086C123.143 173.086 146.858 149.434 146.858 120.257C146.858 91.0798 123.143 67.4272 93.8903 67.4272C64.6372 67.4272 40.9229 91.0798 40.9229 120.257C40.9229 149.434 64.6372 173.086 93.8903 173.086Z" stroke="#FFFEEF" stroke-width="7" stroke-miterlimit="10"/>
<path d="M93.8904 158.897C115.287 158.897 132.632 141.597 132.632 120.257C132.632 98.9162 115.287 81.6162 93.8904 81.6162C72.4941 81.6162 55.1489 98.9162 55.1489 120.257C55.1489 141.597 72.4941 158.897 93.8904 158.897Z" stroke="#FFFEEF" stroke-width="7" stroke-miterlimit="10"/>
<path d="M149.793 73.1491C159.271 73.1491 166.955 65.4856 166.955 56.0321C166.955 46.5786 159.271 38.915 149.793 38.915C140.315 38.915 132.631 46.5786 132.631 56.0321C132.631 65.4856 140.315 73.1491 149.793 73.1491Z" stroke="#FFFEEF" stroke-width="7" stroke-miterlimit="10"/>
<path d="M2.06592 56.0317H132.632" stroke="#FFFEEF" stroke-width="7" stroke-miterlimit="10"/>
<path d="M169.622 56.0317H182.847" stroke="#FFFEEF" stroke-width="7" stroke-miterlimit="10"/>
<path d="M79.7896 22.9307C79.7896 12.1977 92.1291 3.5 107.337 3.5H139.408C154.625 3.5 166.955 12.1977 166.955 22.9307" stroke="#FFFEEF" stroke-width="7" stroke-miterlimit="10"/>
<path d="M19.0444 22.9307C19.0444 12.1977 24.1554 3.5 30.4503 3.5H43.7331C50.0376 3.5 55.1389 12.1977 55.1389 22.9307" stroke="#FFFEEF" stroke-width="7" stroke-miterlimit="10"/>
</svg>
