<svg width="137" height="242" viewBox="0 0 137 242" fill="none" xmlns="http://www.w3.org/2000/svg">
<path d="M120.208 103.976C127.862 111.759 127.862 124.241 120.208 132.024L67.7596 185.355C55.2094 198.116 33.5 189.23 33.5 171.331L33.5 64.6688C33.5 46.7701 55.2094 37.8837 67.7596 50.6451L120.208 103.976Z" fill="#515151"/>
<path d="M120.12 110.446C127.813 118.236 127.813 130.764 120.12 138.554L67.7298 191.6C55.1669 204.32 33.5 195.424 33.5 177.546L33.5 71.4542C33.5 53.576 55.167 44.6802 67.7298 57.4003L120.12 110.446Z" fill="#1E1E1E"/>
<path d="M121.492 106.926C129.897 114.824 129.897 128.176 121.492 136.074L67.9465 186.395C55.1792 198.393 34.25 189.341 34.25 171.821L34.25 71.1795C34.25 53.6591 55.1792 44.6069 67.9465 56.6052L121.492 106.926Z" fill="#252525"/>
</svg>
