<svg width="127" height="126" viewBox="0 0 127 126" fill="none" xmlns="http://www.w3.org/2000/svg">
<path d="M17.9745 107.402H7.92944C2.64201 107.402 0 112.003 0 116.655C0 121.308 2.64201 125.909 7.92944 125.909H18.0805C18.1318 125.857 18.1865 125.857 18.2377 125.803C18.3949 125.697 18.5009 125.539 18.5009 125.379V117.175C18.5009 116.888 18.2685 116.655 17.9814 116.655H17.9745H16.3887H11.7062C11.4191 116.655 11.1867 116.888 11.1867 117.175V118.778C11.1867 119.065 11.4191 119.298 11.7062 119.298H15.8623V123.263H7.93286C4.60044 123.263 2.96329 119.93 2.96329 116.601C2.96329 113.271 4.60044 110.044 7.93286 110.044H17.978C18.2411 110.044 18.5077 109.781 18.5077 109.514V107.928C18.5077 107.665 18.2446 107.398 17.978 107.398L17.9745 107.402Z" fill="#FFFEEF"/>
<path d="M33.4643 107.403H32.1416C23.2073 107.403 22.8895 111.105 22.8895 116.127V125.38C22.8895 125.643 23.1526 125.91 23.4192 125.91H25.0051C25.2683 125.91 25.5349 125.647 25.5349 125.38V119.299H40.0745V125.38C40.0745 125.643 40.3377 125.91 40.6042 125.91H42.1901C42.4533 125.91 42.7199 125.647 42.7199 125.38V116.127C42.7199 111.102 42.402 107.403 33.4678 107.403H33.4643ZM25.5349 116.657C25.5349 110.524 26.8576 110.046 31.0342 110.046H34.5751C38.7518 110.046 40.0745 110.521 40.0745 116.657H25.5349Z" fill="#FFFEEF"/>
<path d="M69.4168 107.46C69.0989 107.409 68.7298 107.354 68.3607 107.354C64.871 107.354 60.1646 110.103 60.1646 110.103C60.1646 110.103 56.094 107.354 52.2865 107.354C51.8114 107.354 51.3363 107.406 50.9125 107.46C46.999 108.254 46.9478 111.956 46.9478 115.497V125.437C46.9478 125.701 47.2109 125.967 47.4775 125.967H49.0634C49.3266 125.967 49.5932 125.704 49.5932 125.437V116.184C49.5932 113.593 49.5932 110.103 52.2352 110.103C54.8772 110.103 58.8453 111.426 58.8453 112.745V124.908C58.8453 125.171 59.1085 125.437 59.3751 125.437H60.961C61.2242 125.437 61.4908 125.174 61.4908 124.908V112.745C61.4908 111.422 65.4555 110.103 68.1009 110.103C70.7463 110.103 70.7429 113.593 70.7429 116.184V125.437C70.7429 125.701 71.0061 125.967 71.2727 125.967H72.8586C73.1218 125.967 73.3883 125.704 73.3883 125.437V116.184C73.3883 112.482 72.9645 108.199 69.4236 107.46H69.4168Z" fill="#FFFEEF"/>
<path d="M78.563 107.403H80.1489C80.4394 107.403 80.6787 107.639 80.6787 107.933V125.384C80.6787 125.674 80.4428 125.914 80.1489 125.914H78.563C78.2725 125.914 78.0332 125.678 78.0332 125.384V107.933C78.0332 107.643 78.2691 107.403 78.563 107.403Z" fill="#FFFEEF"/>
<path d="M103.941 107.403H102.355C102.092 107.403 101.825 107.667 101.825 107.933V120.307C98.0722 113.802 95.3208 107.407 89.9309 107.407C87.2888 107.407 84.6981 107.355 84.6434 112.695V125.384C84.6434 125.647 84.9066 125.914 85.1732 125.914H86.7591C87.0223 125.914 87.2889 125.65 87.2889 125.384V112.695C87.2889 110.053 88.6116 110.053 89.9309 110.053C93.8956 110.053 96.541 116.185 101.825 125.387C101.825 125.65 102.088 125.917 102.355 125.917H103.941C104.204 125.917 104.47 125.654 104.47 125.387V107.937C104.47 107.673 104.207 107.407 103.941 107.407V107.403Z" fill="#FFFEEF"/>
<path d="M116.101 110.049H126.147C126.41 110.049 126.676 109.786 126.676 109.519V107.933C126.676 107.67 126.413 107.403 126.147 107.403H116.101C110.814 107.403 108.172 112.004 108.172 116.657C108.172 121.309 110.814 125.91 116.101 125.91H126.252C126.304 125.859 126.358 125.859 126.41 125.804C126.567 125.698 126.673 125.541 126.673 125.38V117.176C126.673 116.889 126.44 116.657 126.153 116.657H126.147H124.561H119.878C119.591 116.657 119.359 116.889 119.359 117.176V118.78C119.359 119.067 119.591 119.299 119.878 119.299H124.034V123.264H116.105C112.772 123.264 111.135 119.931 111.135 116.602C111.135 113.273 112.772 110.046 116.105 110.046L116.101 110.049Z" fill="#FFFEEF"/>
<path d="M29.0177 96.7807C29.11 96.8627 29.2194 97.0337 29.3014 97.1533L30.9796 99.782H29.3014L27.8864 97.4165C27.6745 97.0542 27.5822 96.9414 27.1481 96.9414H26.7927V99.782H25.3469V92.7266H27.9342C29.3082 92.7266 30.3814 93.3829 30.3814 94.8698C30.3814 95.7484 29.8448 96.497 29.0177 96.7807ZM27.9445 94.1212H26.7927V95.6663H27.9445C28.5016 95.6663 28.9357 95.5262 28.9357 94.8767C28.9357 94.2272 28.4811 94.1178 27.9445 94.1178V94.1212Z" fill="#151414"/>
<path d="M37.6888 99.782H36.1234L35.4877 98.0113H33.1943L32.5586 99.782H31L33.7104 92.7266H34.9613L37.6922 99.782H37.6888ZM35.0194 96.7499L34.3324 94.8596L33.6557 96.7499H35.0194Z" fill="#151414"/>
<path d="M40.3855 99.782H38.3929V92.7266H40.3855C43.1164 92.7266 43.7521 93.5846 43.7521 96.2543C43.7521 98.924 43.1164 99.782 40.3855 99.782ZM42.1047 94.5964C41.8928 94.2511 41.4792 94.152 40.7102 94.152H39.8421V98.3565H40.7102C41.4895 98.3565 41.9031 98.2472 42.115 97.8814C42.2585 97.6387 42.3064 97.3071 42.3064 96.2645C42.3064 95.2219 42.2551 94.8493 42.1047 94.5964Z" fill="#151414"/>
<path d="M46.4078 99.782H44.962V92.7266H46.4078V99.782Z" fill="#151414"/>
<path d="M50.4682 99.8621C48.3355 99.8621 47.5186 98.1324 47.5186 96.2523C47.5186 94.3722 48.3389 92.6426 50.4682 92.6426C52.5975 92.6426 53.4212 94.3722 53.4212 96.2523C53.4212 98.1324 52.6044 99.8621 50.4682 99.8621ZM50.4682 94.068C49.1933 94.068 48.9746 95.2302 48.9746 96.2523C48.9746 97.2744 49.1968 98.4366 50.4682 98.4366C51.7396 98.4366 51.9652 97.2744 51.9652 96.2523C51.9652 95.2302 51.7533 94.068 50.4682 94.068Z" fill="#151414"/>
<path d="M60.3732 97.0337H59.0095V99.782H57.5637V92.7266H60.3219C61.7164 92.7266 62.7281 93.3726 62.7281 94.8801C62.7281 96.3876 61.8394 97.0337 60.3732 97.0337ZM60.2706 94.1007H59.006V95.6663H60.2706C60.838 95.6663 61.2823 95.5535 61.2823 94.8767C61.2823 94.1999 60.8277 94.0973 60.2706 94.0973V94.1007Z" fill="#151414"/>
<path d="M66.3818 99.8621C64.2491 99.8621 63.4322 98.1324 63.4322 96.2523C63.4322 94.3722 64.2491 92.6426 66.3818 92.6426C68.5146 92.6426 69.3348 94.3722 69.3348 96.2523C69.3348 98.1324 68.5146 99.8621 66.3818 99.8621ZM66.3818 94.068C65.1069 94.068 64.8848 95.2302 64.8848 96.2523C64.8848 97.2744 65.1069 98.4366 66.3818 98.4366C67.6567 98.4366 67.8788 97.2744 67.8788 96.2523C67.8788 95.2302 67.6669 94.068 66.3818 94.068Z" fill="#151414"/>
<path d="M73.1526 97.0337H71.7888V99.782H70.3431V92.7266H73.1013C74.4958 92.7266 75.5075 93.3726 75.5075 94.8801C75.5075 96.3876 74.6188 97.0337 73.1526 97.0337ZM73.05 94.1007H71.7854V95.6663H73.05C73.6174 95.6663 74.0617 95.5535 74.0617 94.8767C74.0617 94.1999 73.6071 94.0973 73.05 94.0973V94.1007Z" fill="#151414"/>
<path d="M81.9262 96.873C81.9262 98.6813 81.1469 99.864 79.2261 99.864C77.3052 99.864 76.5191 98.6813 76.5191 96.873V92.7266H77.9649V96.791C77.9649 97.7002 78.146 98.4591 79.2192 98.4591C80.2925 98.4591 80.4839 97.731 80.4839 96.791V92.7266H81.9296V96.873H81.9262Z" fill="#151414"/>
<path d="M87.6615 99.782H83.2353V92.7266H84.6708V98.3873H87.6615V99.782Z" fill="#151414"/>
<path d="M94.9893 99.782H93.4239L92.7882 98.0113H90.4948L89.8557 99.782H88.3005L91.0109 92.7266H92.2653L94.9961 99.782H94.9893ZM92.3199 96.7499L91.633 94.8596L90.9562 96.7499H92.3199Z" fill="#151414"/>
<path d="M99.3642 96.7807C99.453 96.8627 99.5658 97.0337 99.6479 97.1533L101.326 99.782H99.6479L98.2329 97.4165C98.0209 97.0542 97.9287 96.9414 97.4946 96.9414H97.1426V99.782H95.6968V92.7266H98.2841C99.6615 92.7266 100.731 93.3829 100.731 94.8698C100.731 95.7484 100.195 96.497 99.3676 96.7807H99.3642ZM98.291 94.1212H97.1391V95.6663H98.291C98.8481 95.6663 99.2821 95.5262 99.2821 94.8767C99.2821 94.2272 98.8276 94.1178 98.291 94.1178V94.1212Z" fill="#151414"/>
<path d="M74.8205 35.3569H70.4354V40.7955H74.8205C76.7857 40.7955 78.3272 40.4092 78.3272 38.0574C78.3272 35.7056 76.7482 35.3535 74.8205 35.3535V35.3569Z" fill="#FFFEEF"/>
<path d="M52.3754 35.4287H48.3765V40.7955H52.3754C54.3065 40.7955 55.8138 40.3067 55.8138 38.0574C55.8138 35.8081 54.2347 35.4287 52.3754 35.4287Z" fill="#FFFEEF"/>
<path d="M106.176 42.8282L99.1967 35.848L103.049 26.7586L93.6358 22.7695V12.5452H83.3104L79.52 3.3397L70.4559 7.10328L63.3535 0L56.3743 6.98022L47.2896 3.12777L43.2975 12.5452H33.0713V22.6156L23.9182 26.4134L27.6676 35.6839L20.5243 42.8282L27.5036 49.8084L23.6516 58.8943L33.0679 62.8869V73.1111H42.8156L46.6402 82.5628L56.3332 78.642L63.3501 85.6598L70.3294 78.6796L79.4175 82.532L83.4095 73.1111H93.6358V63.5432L102.785 59.8412L98.8139 50.1947L106.179 42.8282H106.176ZM57.0749 55.0726L52.1634 46.8618C51.4286 45.6004 51.1107 45.2142 49.6035 45.2142H48.3765V55.0726H43.359V30.5837H52.3412C57.1125 30.5837 60.8312 32.8672 60.8312 38.022C60.8312 41.0746 58.9718 43.6725 56.094 44.6536C56.4118 44.9339 56.7947 45.5287 57.0749 45.9525L62.899 55.0726H57.0749ZM75.1725 45.5287H70.4353V55.0726H65.4179V30.5837H74.9948C79.8345 30.5837 83.3446 32.8262 83.3446 38.0562C83.3446 43.2862 80.2583 45.5287 75.1691 45.5287H75.1725Z" fill="#FFFEEF"/>
</svg>
