<svg width="113" height="113" viewBox="0 0 113 113" fill="none" xmlns="http://www.w3.org/2000/svg">
<path d="M77.6528 27.2253C74.4559 23.5744 72.6938 18.8865 72.6942 14.0337H58.2396V72.0394C58.1304 75.1792 56.8059 78.1538 54.5455 80.3356C52.2851 82.5175 49.2655 83.736 46.1239 83.7341C39.4813 83.7341 33.9614 78.3078 33.9614 71.5716C33.9614 63.5257 41.7267 57.4912 49.7258 59.9705V45.1884C33.5872 43.0366 19.46 55.5733 19.46 71.5716C19.46 87.149 32.3709 98.2355 46.0771 98.2355C60.7656 98.2355 72.6942 86.307 72.6942 71.5716V42.1478C78.5556 46.3571 85.5929 48.6156 92.8091 48.6032V34.1486C92.8091 34.1486 84.0147 34.5696 77.6528 27.2253Z" fill="#FFFEEF"/>
</svg>
