<svg width="174" height="169" viewBox="0 0 174 169" fill="none" xmlns="http://www.w3.org/2000/svg">
<path d="M30.2598 84.8029C30.2598 83.753 30.3609 84.8231 34.5971 80.3138C37.278 77.4601 40.9768 75.6968 45.0612 75.6968H114.693C122.869 75.6968 129.495 82.7502 129.495 91.4525V149.441C129.495 158.143 122.869 165.197 114.693 165.197H45.0612C36.886 165.197 30.2598 158.143 30.2598 149.441V114.329" stroke="#FFFEEF" stroke-width="7" stroke-miterlimit="10"/>
<path d="M114.164 75.6967C132.792 75.6967 147.893 59.5349 147.893 39.5983C147.893 19.6618 132.792 3.5 114.164 3.5C95.5359 3.5 80.4351 19.6618 80.4351 39.5983C80.4351 59.5349 95.5359 75.6967 114.164 75.6967Z" stroke="#FFFEEF" stroke-width="7" stroke-miterlimit="10"/>
<path d="M161.984 81.7583L129.495 99.1172V137.511L161.896 158.452C165.136 161.577 170.193 159.03 170.193 154.272V86.0258C170.193 81.3282 165.249 78.7609 161.984 81.7583Z" stroke="#FFFEEF" stroke-width="7" stroke-miterlimit="10"/>
<path d="M30.2601 151.473C23.4857 151.473 17.9951 142.574 17.9951 131.599V114.48" stroke="#FFFEEF" stroke-width="7" stroke-miterlimit="10"/>
<path d="M45.5911 75.6967C64.2189 75.6967 79.3198 59.5349 79.3198 39.5983C79.3198 19.6618 64.2189 3.5 45.5911 3.5C26.9632 3.5 11.8623 19.6618 11.8623 39.5983C11.8623 59.5349 26.9632 75.6967 45.5911 75.6967Z" stroke="#FFFEEF" stroke-width="7" stroke-miterlimit="10"/>
<path d="M64.4967 84.6465H18.3233C10.1366 84.6465 3.5 91.7256 3.5 100.458C3.5 109.191 10.1366 116.27 18.3233 116.27H64.4967C72.6834 116.27 79.32 109.191 79.32 100.458C79.32 91.7256 72.6834 84.6465 64.4967 84.6465Z" stroke="#FFFEEF" stroke-width="7" stroke-miterlimit="10"/>
</svg>
